<!-- Generator: Adobe Illustrator 18.1.0, SVG Export Plug-In  -->
<svg version="1.1"
	 xmlns="http://www.w3.org/2000/svg" xmlns:xlink="http://www.w3.org/1999/xlink" xmlns:a="http://ns.adobe.com/AdobeSVGViewerExtensions/3.0/"
	 x="0px" y="0px" width="135.6px" height="57.8px" viewBox="0 0 135.6 57.8" enable-background="new 0 0 135.6 57.8"
	 xml:space="preserve">
<defs>
</defs>
<g>
	<ellipse fill="#0059A7" cx="67.8" cy="28.9" rx="67.8" ry="28.9"/>
</g>
<g>
	<path fill="#FFFFFF" d="M34.8,16.1l-0.7-2h-3.4l-0.7,2h-1.9L32,6.2h0.8l3.9,9.9H34.8z M32.4,9.2l-1.2,3.6h2.3L32.4,9.2z"/>
	<path fill="#FFFFFF" d="M37.9,10.3h-0.8V8.9h0.8V7.5l1.7-0.6v2.1h2v1.3h-2v3.1c0,0.5,0.1,0.9,0.2,1.1c0.2,0.2,0.4,0.3,0.8,0.3
		c0.4,0,0.8-0.1,1.1-0.3V16c-0.4,0.1-0.9,0.2-1.7,0.2c-0.7,0-1.3-0.2-1.6-0.6c-0.4-0.4-0.6-1-0.6-1.7V10.3z"/>
	<path fill="#FFFFFF" d="M49.5,13h-5.1c0,0.6,0.2,1,0.6,1.3c0.4,0.3,0.8,0.5,1.5,0.5c0.8,0,1.3-0.2,1.7-0.6l0.6,1.3
		c-0.6,0.5-1.5,0.7-2.6,0.7c-1.1,0-2-0.3-2.6-1c-0.6-0.6-1-1.5-1-2.7c0-1.1,0.3-2,1-2.7c0.7-0.7,1.5-1,2.5-1c1,0,1.9,0.3,2.5,0.9
		c0.6,0.6,0.9,1.4,0.9,2.4C49.6,12.3,49.6,12.6,49.5,13z M44.4,11.8h3.5c-0.1-1-0.7-1.6-1.7-1.6C45.2,10.2,44.7,10.7,44.4,11.8z"/>
	<path fill="#FFFFFF" d="M55.5,16.1V12c0-0.6-0.1-1.1-0.4-1.3c-0.2-0.3-0.6-0.4-1.1-0.4c-0.2,0-0.5,0.1-0.8,0.2
		c-0.3,0.1-0.5,0.3-0.7,0.5v5.2h-1.7V8.9h1.2l0.3,0.7c0.5-0.5,1.1-0.8,2-0.8c0.9,0,1.5,0.3,2,0.8c0.5,0.5,0.7,1.2,0.7,2.1v4.4H55.5z
		"/>
	<path fill="#FFFFFF" d="M64.6,9.5l-0.7,1.2c-0.4-0.4-0.9-0.6-1.6-0.6c-0.6,0-1.1,0.2-1.5,0.6s-0.6,1-0.6,1.7c0,1.5,0.7,2.3,2.1,2.3
		c0.6,0,1.2-0.2,1.6-0.6l0.6,1.3c-0.5,0.3-0.9,0.5-1.3,0.6c-0.4,0.1-0.8,0.1-1.3,0.1c-1.1,0-2-0.3-2.6-1c-0.6-0.6-1-1.5-1-2.7
		c0-1.1,0.3-2,1-2.7c0.7-0.7,1.7-1,2.9-1C63.3,8.8,64,9,64.6,9.5z"/>
	<path fill="#FFFFFF" d="M66.5,16.1v-5.8h-0.9V8.9h2.6v7.1H66.5z M67.3,6.2c0.3,0,0.5,0.1,0.7,0.3c0.2,0.2,0.3,0.4,0.3,0.7
		c0,0.3-0.1,0.5-0.3,0.7c-0.2,0.2-0.4,0.3-0.7,0.3c-0.3,0-0.5-0.1-0.7-0.3c-0.2-0.2-0.3-0.4-0.3-0.7c0-0.3,0.1-0.5,0.3-0.7
		C66.8,6.3,67.1,6.2,67.3,6.2z"/>
	<path fill="#FFFFFF" d="M69.6,12.5c0-1.1,0.3-2,0.9-2.7c0.6-0.7,1.5-1,2.5-1c1.1,0,1.9,0.3,2.5,1c0.6,0.7,0.9,1.6,0.9,2.7
		c0,1.1-0.3,2-0.9,2.7c-0.6,0.7-1.4,1-2.5,1c-1.1,0-1.9-0.3-2.5-1C69.9,14.5,69.6,13.6,69.6,12.5z M71.4,12.5c0,1.6,0.6,2.4,1.7,2.4
		c0.5,0,0.9-0.2,1.2-0.6c0.3-0.4,0.5-1,0.5-1.7c0-1.6-0.6-2.3-1.7-2.3c-0.5,0-0.9,0.2-1.2,0.6C71.5,11.2,71.4,11.8,71.4,12.5z
		 M74.6,6l-1.5,2h-1.3L73,6H74.6z"/>
	<path fill="#FFFFFF" d="M82.4,16.1V12c0-0.6-0.1-1.1-0.4-1.3c-0.2-0.3-0.6-0.4-1.1-0.4c-0.2,0-0.5,0.1-0.8,0.2
		c-0.3,0.1-0.5,0.3-0.7,0.5v5.2h-1.7V8.9H79l0.3,0.7c0.5-0.5,1.1-0.8,2-0.8c0.9,0,1.5,0.3,2,0.8s0.7,1.2,0.7,2.1v4.4H82.4z"/>
	<path fill="#FFFFFF" d="M96.4,13h-5.1c0,0.6,0.2,1,0.6,1.3c0.4,0.3,0.8,0.5,1.5,0.5c0.8,0,1.3-0.2,1.7-0.6l0.6,1.3
		c-0.6,0.5-1.5,0.7-2.6,0.7c-1.1,0-2-0.3-2.6-1c-0.6-0.6-1-1.5-1-2.7c0-1.1,0.3-2,1-2.7c0.7-0.7,1.5-1,2.5-1c1,0,1.9,0.3,2.5,0.9
		c0.6,0.6,0.9,1.4,0.9,2.4C96.5,12.3,96.5,12.6,96.4,13z M91.3,11.8h3.5c-0.1-1-0.7-1.6-1.7-1.6C92.2,10.2,91.6,10.7,91.3,11.8z"/>
	<path fill="#FFFFFF" d="M102.5,16.1V12c0-0.6-0.1-1.1-0.3-1.3c-0.2-0.3-0.6-0.4-1.1-0.4c-0.2,0-0.5,0.1-0.8,0.2
		c-0.3,0.1-0.5,0.3-0.7,0.5v5.2h-1.7V8.9h1.2l0.3,0.7c0.5-0.5,1.1-0.8,2-0.8c0.9,0,1.5,0.3,2,0.8c0.5,0.5,0.7,1.2,0.7,2.1v4.4H102.5
		z"/>
	<path fill="#FFFFFF" d="M8.1,31.9l0.6-1.6c0.7,0.5,1.4,0.7,2,0.7c1,0,1.5-0.4,1.5-1.1c0-0.3-0.1-0.7-0.4-1c-0.2-0.3-0.7-0.6-1.5-1
		c-0.8-0.4-1.3-0.7-1.5-0.9c-0.3-0.2-0.5-0.5-0.6-0.9c-0.1-0.3-0.2-0.7-0.2-1.1c0-0.8,0.3-1.4,0.8-1.9c0.6-0.5,1.3-0.7,2.1-0.7
		c1.1,0,2,0.2,2.5,0.6l-0.5,1.5c-0.6-0.4-1.3-0.7-1.9-0.7c-0.4,0-0.7,0.1-0.9,0.3c-0.2,0.2-0.3,0.5-0.3,0.8c0,0.6,0.6,1.1,1.9,1.7
		c0.7,0.3,1.1,0.6,1.4,0.9c0.3,0.3,0.5,0.6,0.7,0.9c0.2,0.4,0.2,0.8,0.2,1.2c0,0.8-0.3,1.4-0.9,2c-0.6,0.5-1.5,0.8-2.5,0.8
		C9.7,32.7,8.8,32.4,8.1,31.9z"/>
	<path fill="#FFFFFF" d="M19.4,31.8c-0.2,0.2-0.4,0.5-0.8,0.6c-0.4,0.2-0.8,0.2-1.2,0.2c-0.8,0-1.4-0.2-1.8-0.6
		c-0.4-0.4-0.7-0.9-0.7-1.6c0-0.8,0.3-1.5,0.9-1.9c0.6-0.5,1.5-0.7,2.6-0.7c0.2,0,0.4,0,0.7,0.1c0-0.8-0.5-1.3-1.6-1.3
		c-0.6,0-1.2,0.1-1.6,0.3l-0.4-1.3c0.6-0.3,1.3-0.4,2-0.4c1.1,0,1.9,0.2,2.4,0.7c0.5,0.5,0.8,1.4,0.8,2.8v1.5c0,1,0.2,1.6,0.6,1.8
		c-0.1,0.2-0.3,0.4-0.5,0.4c-0.2,0.1-0.4,0.1-0.6,0.1c-0.2,0-0.5-0.1-0.6-0.3C19.6,32.2,19.5,32,19.4,31.8z M19.3,29.1
		C19,29.1,18.8,29,18.6,29c-1.3,0-2,0.4-2,1.3c0,0.6,0.4,1,1.1,1c1,0,1.5-0.5,1.5-1.5V29.1z"/>
	<path fill="#FFFFFF" d="M23,22.7l1.7-0.4v8c0,0.9,0.3,1.4,0.8,1.6c-0.3,0.5-0.7,0.7-1.3,0.7c-0.8,0-1.1-0.5-1.1-1.6V22.7z"/>
	<path fill="#FFFFFF" d="M31.4,32.5v-0.6c-0.2,0.2-0.6,0.4-1,0.5c-0.4,0.1-0.8,0.2-1.1,0.2c-1.7,0-2.5-0.9-2.5-2.6v-4.6h1.7v4.5
		c0,0.9,0.4,1.4,1.2,1.4c0.4,0,0.7-0.1,1.1-0.3c0.3-0.2,0.5-0.4,0.6-0.7v-4.9h1.7v7.2H31.4z"/>
	<path fill="#FFFFFF" d="M39.5,32.5v-0.4c-0.1,0.2-0.4,0.3-0.7,0.4c-0.3,0.1-0.7,0.2-1,0.2c-1,0-1.8-0.3-2.4-0.9
		c-0.6-0.6-0.9-1.5-0.9-2.6c0-1.1,0.3-2.1,1-2.8c0.7-0.7,1.5-1.1,2.5-1.1c0.5,0,1,0.1,1.5,0.3v-2.9l1.7-0.4v10.2H39.5z M39.5,27
		c-0.4-0.3-0.7-0.4-1.1-0.4c-0.7,0-1.2,0.2-1.5,0.6c-0.4,0.4-0.5,1-0.5,1.8c0,1.5,0.7,2.2,2.1,2.2c0.2,0,0.4,0,0.6-0.1
		c0.2-0.1,0.4-0.2,0.5-0.3V27z"/>
	<path fill="#FFFFFF" d="M52.5,25.9l-0.7,1.2c-0.4-0.4-0.9-0.6-1.6-0.6c-0.6,0-1.1,0.2-1.5,0.6c-0.4,0.4-0.6,1-0.6,1.7
		c0,1.5,0.7,2.2,2.1,2.2c0.6,0,1.2-0.2,1.6-0.6l0.6,1.3c-0.5,0.3-0.9,0.5-1.3,0.6c-0.4,0.1-0.8,0.1-1.3,0.1c-1.1,0-2-0.3-2.6-1
		c-0.6-0.6-1-1.5-1-2.7c0-1.1,0.3-2,1-2.7c0.7-0.7,1.7-1,2.9-1C51.2,25.2,51.9,25.4,52.5,25.9z"/>
	<path fill="#FFFFFF" d="M53.4,28.9c0-1.1,0.3-2,0.9-2.7c0.6-0.7,1.5-1,2.5-1c1.1,0,1.9,0.3,2.5,1c0.6,0.7,0.9,1.6,0.9,2.7
		c0,1.1-0.3,2-0.9,2.7c-0.6,0.7-1.4,1-2.5,1c-1.1,0-1.9-0.3-2.5-1C53.7,30.9,53.4,30,53.4,28.9z M55.2,28.9c0,1.6,0.6,2.4,1.7,2.4
		c0.5,0,0.9-0.2,1.2-0.6c0.3-0.4,0.5-1,0.5-1.7c0-1.6-0.6-2.3-1.7-2.3c-0.5,0-0.9,0.2-1.2,0.6C55.3,27.6,55.2,28.2,55.2,28.9z"/>
	<path fill="#FFFFFF" d="M66.2,32.5v-4.1c0-0.6-0.1-1.1-0.4-1.3c-0.2-0.3-0.6-0.4-1.1-0.4c-0.2,0-0.5,0.1-0.8,0.2
		c-0.3,0.1-0.5,0.3-0.7,0.5v5.2h-1.7v-7.2h1.2l0.3,0.7c0.5-0.5,1.1-0.8,2-0.8c0.9,0,1.5,0.3,2,0.8c0.5,0.5,0.7,1.2,0.7,2.1v4.4H66.2
		z"/>
	<path fill="#FFFFFF" d="M80.2,29.4h-5.1c0,0.6,0.2,1,0.6,1.3c0.4,0.3,0.8,0.5,1.5,0.5c0.8,0,1.3-0.2,1.7-0.6l0.6,1.3
		c-0.6,0.5-1.5,0.7-2.6,0.7c-1.1,0-2-0.3-2.6-1c-0.6-0.6-1-1.5-1-2.7c0-1.1,0.3-2,1-2.7c0.7-0.7,1.5-1,2.5-1c1,0,1.9,0.3,2.5,0.9
		c0.6,0.6,0.9,1.4,0.9,2.4C80.4,28.7,80.3,29,80.2,29.4z M75.2,28.2h3.5c-0.1-1-0.7-1.6-1.7-1.6C76,26.6,75.4,27.1,75.2,28.2z"/>
	<path fill="#FFFFFF" d="M86.3,32.5v-4.1c0-0.6-0.1-1.1-0.4-1.3c-0.2-0.3-0.6-0.4-1.1-0.4c-0.2,0-0.5,0.1-0.8,0.2
		c-0.3,0.1-0.5,0.3-0.7,0.5v5.2h-1.7v-7.2h1.2l0.3,0.7c0.5-0.5,1.1-0.8,2-0.8c0.9,0,1.5,0.3,2,0.8c0.5,0.5,0.7,1.2,0.7,2.1v4.4H86.3
		z"/>
	<path fill="#FFFFFF" d="M93.7,23.9c-0.4-0.1-0.6-0.2-0.8-0.2c-0.3,0-0.6,0.1-0.8,0.4s-0.3,0.6-0.3,1c0,0.1,0,0.1,0,0.2h1.5v1.4
		h-1.5v5.8h-1.7v-5.8h-1v-1.4h1c0-0.9,0.3-1.6,0.8-2.1c0.5-0.5,1.1-0.8,1.9-0.8c0.4,0,0.9,0.1,1.4,0.3L93.7,23.9z"/>
	<path fill="#FFFFFF" d="M94.3,28.9c0-1.1,0.3-2,0.9-2.7c0.6-0.7,1.5-1,2.5-1c1.1,0,1.9,0.3,2.5,1c0.6,0.7,0.9,1.6,0.9,2.7
		c0,1.1-0.3,2-0.9,2.7c-0.6,0.7-1.4,1-2.5,1c-1.1,0-1.9-0.3-2.5-1C94.6,30.9,94.3,30,94.3,28.9z M96.1,28.9c0,1.6,0.6,2.4,1.7,2.4
		c0.5,0,0.9-0.2,1.2-0.6c0.3-0.4,0.5-1,0.5-1.7c0-1.6-0.6-2.3-1.7-2.3c-0.5,0-0.9,0.2-1.2,0.6C96.2,27.6,96.1,28.2,96.1,28.9z"/>
	<path fill="#FFFFFF" d="M107.2,35.3v-3c-0.4,0.2-1,0.3-1.7,0.3c-1,0-1.9-0.3-2.4-1c-0.6-0.6-0.9-1.5-0.9-2.7c0-1.2,0.3-2.1,1-2.8
		c0.7-0.7,1.5-1,2.6-1c0.6,0,1.2,0.2,1.7,0.6l0.3-0.4h1.1v10H107.2z M107.2,27c-0.3-0.3-0.7-0.4-1.2-0.4c-0.6,0-1.2,0.2-1.5,0.6
		c-0.4,0.4-0.6,1-0.6,1.7c0,1.5,0.7,2.2,2,2.2c0.5,0,0.9-0.1,1.2-0.3V27z"/>
	<path fill="#FFFFFF" d="M115.1,32.5v-0.6c-0.2,0.2-0.6,0.4-1,0.5c-0.4,0.1-0.8,0.2-1.1,0.2c-1.7,0-2.5-0.9-2.5-2.6v-4.6h1.7v4.5
		c0,0.9,0.4,1.4,1.2,1.4c0.4,0,0.7-0.1,1.1-0.3c0.3-0.2,0.5-0.4,0.6-0.7v-4.9h1.7v7.2H115.1z"/>
	<path fill="#FFFFFF" d="M125,29.4h-5.1c0,0.6,0.2,1,0.6,1.3c0.4,0.3,0.8,0.5,1.5,0.5c0.8,0,1.3-0.2,1.7-0.6l0.6,1.3
		c-0.6,0.5-1.5,0.7-2.6,0.7c-1.1,0-2-0.3-2.6-1c-0.6-0.6-1-1.5-1-2.7c0-1.1,0.3-2,1-2.7c0.7-0.7,1.5-1,2.5-1c1,0,1.9,0.3,2.5,0.9
		c0.6,0.6,0.9,1.4,0.9,2.4C125.1,28.7,125.1,29,125,29.4z M119.9,28.2h3.5c-0.1-1-0.7-1.6-1.7-1.6C120.8,26.6,120.2,27.1,119.9,28.2
		z"/>
	<path fill="#FFFFFF" d="M34.4,48.7v3h-1.7v-10h1.7v0.5c0.4-0.4,0.9-0.6,1.5-0.6c2.3,0,3.4,1.3,3.4,3.8c0,1.2-0.3,2.1-0.9,2.7
		c-0.6,0.6-1.5,0.9-2.6,0.9C35.3,49,34.8,48.9,34.4,48.7z M34.4,43.5v3.8c0.3,0.2,0.7,0.4,1.1,0.4c0.8,0,1.3-0.2,1.7-0.6
		c0.3-0.4,0.5-0.9,0.5-1.7c0-0.8-0.2-1.4-0.5-1.8c-0.3-0.3-0.9-0.5-1.7-0.5C35.1,43,34.7,43.2,34.4,43.5z"/>
	<path fill="#FFFFFF" d="M45,43.3c-0.3-0.2-0.6-0.3-1-0.3c-0.4,0-0.7,0.2-1,0.5s-0.5,0.8-0.5,1.3v4.1h-1.7v-7.1h1.7v0.7
		c0.5-0.5,1.1-0.8,1.9-0.8c0.6,0,1,0.1,1.3,0.3L45,43.3z"/>
	<path fill="#FFFFFF" d="M53,45.8h-5.1c0,0.6,0.2,1,0.6,1.3c0.4,0.3,0.8,0.5,1.5,0.5c0.8,0,1.3-0.2,1.7-0.6l0.6,1.3
		c-0.6,0.5-1.5,0.7-2.6,0.7c-1.1,0-2-0.3-2.6-1c-0.6-0.6-1-1.5-1-2.7c0-1.1,0.3-2,1-2.7c0.7-0.7,1.5-1,2.5-1c1,0,1.9,0.3,2.5,0.9
		c0.6,0.6,0.9,1.4,0.9,2.4C53.2,45.1,53.1,45.4,53,45.8z M48,44.6h3.5c-0.1-1-0.7-1.6-1.7-1.6C48.8,43,48.2,43.5,48,44.6z"/>
	<path fill="#FFFFFF" d="M57.5,49h-0.6l-3.2-7.3h1.8l1.7,4.4l1.8-4.4h1.8L57.5,49z"/>
	<path fill="#FFFFFF" d="M68.1,45.8H63c0,0.6,0.2,1,0.6,1.3c0.4,0.3,0.8,0.5,1.5,0.5c0.8,0,1.3-0.2,1.7-0.6l0.6,1.3
		C66.8,48.8,66,49,64.8,49c-1.1,0-2-0.3-2.6-1c-0.6-0.6-1-1.5-1-2.7c0-1.1,0.3-2,1-2.7c0.7-0.7,1.5-1,2.5-1c1,0,1.9,0.3,2.5,0.9
		c0.6,0.6,0.9,1.4,0.9,2.4C68.2,45.1,68.2,45.4,68.1,45.8z M63.1,44.6h3.5c-0.1-1-0.7-1.6-1.7-1.6C63.9,43,63.3,43.5,63.1,44.6z"/>
	<path fill="#FFFFFF" d="M74.2,48.9v-4.1c0-0.6-0.1-1.1-0.4-1.3c-0.2-0.3-0.6-0.4-1.1-0.4c-0.2,0-0.5,0.1-0.8,0.2
		c-0.3,0.1-0.5,0.3-0.7,0.5v5.2h-1.7v-7.1h1.2l0.3,0.7c0.5-0.5,1.1-0.8,2-0.8c0.9,0,1.5,0.3,2,0.8c0.5,0.5,0.7,1.2,0.7,2.1v4.4H74.2
		z"/>
	<path fill="#FFFFFF" d="M77.9,43.1h-0.8v-1.3h0.8v-1.5l1.7-0.6v2.1h2v1.3h-2v3.1c0,0.5,0.1,0.9,0.2,1.1c0.2,0.2,0.4,0.3,0.8,0.3
		c0.4,0,0.8-0.1,1.1-0.3v1.5C81.4,49,80.8,49,80.1,49c-0.7,0-1.3-0.2-1.6-0.6c-0.4-0.4-0.6-1-0.6-1.7V43.1z"/>
	<path fill="#FFFFFF" d="M83.5,48.9v-5.8h-0.9v-1.4h2.6v7.1H83.5z M84.4,39c0.3,0,0.5,0.1,0.7,0.3c0.2,0.2,0.3,0.4,0.3,0.7
		c0,0.3-0.1,0.5-0.3,0.7c-0.2,0.2-0.4,0.3-0.7,0.3s-0.5-0.1-0.7-0.3c-0.2-0.2-0.3-0.4-0.3-0.7c0-0.3,0.1-0.5,0.3-0.7
		C83.9,39.1,84.1,39,84.4,39z"/>
	<path fill="#FFFFFF" d="M90.1,49h-0.6l-3.2-7.3h1.8l1.7,4.4l1.8-4.4h1.8L90.1,49z"/>
	<path fill="#FFFFFF" d="M93.9,45.3c0-1.1,0.3-2,0.9-2.7c0.6-0.7,1.5-1,2.5-1c1.1,0,1.9,0.3,2.5,1c0.6,0.7,0.9,1.6,0.9,2.7
		c0,1.1-0.3,2-0.9,2.7c-0.6,0.7-1.4,1-2.5,1c-1.1,0-1.9-0.3-2.5-1C94.2,47.3,93.9,46.4,93.9,45.3z M95.6,45.3c0,1.6,0.6,2.4,1.7,2.4
		c0.5,0,0.9-0.2,1.2-0.6c0.3-0.4,0.5-1,0.5-1.7c0-1.6-0.6-2.3-1.7-2.3c-0.5,0-0.9,0.2-1.2,0.6C95.8,44,95.6,44.6,95.6,45.3z"/>
</g>
</svg>
