<!-- Generator: Adobe Illustrator 18.1.0, SVG Export Plug-In  -->
<svg version="1.1"
	 xmlns="http://www.w3.org/2000/svg" xmlns:xlink="http://www.w3.org/1999/xlink" xmlns:a="http://ns.adobe.com/AdobeSVGViewerExtensions/3.0/"
	 x="0px" y="0px" width="135.7px" height="57.8px" viewBox="0 0 135.7 57.8" enable-background="new 0 0 135.7 57.8"
	 xml:space="preserve">
<defs>
</defs>
<g>
	<ellipse fill="#009FE3" cx="67.8" cy="28.9" rx="67.8" ry="28.9"/>
</g>
<g>
	<path fill="#FFFFFF" d="M57.3,33.2l-0.7-2h-3.3l-0.7,2h-1.9l3.9-9.9h0.8l3.9,9.9H57.3z M54.9,26.2l-1.2,3.6h2.3L54.9,26.2z"/>
	<path fill="#FFFFFF" d="M62.9,33.3h-1l-3.7-9.9h1.9l2.3,6.6l2.4-6.6h1.9L62.9,33.3z"/>
	<path fill="#FFFFFF" d="M69.5,29.6v3.6h-1.7v-9.8c1.2,0,1.8-0.1,2-0.1c1.5,0,2.7,0.2,3.4,0.7c0.7,0.5,1.1,1.2,1.1,2.2
		c0,2.2-1.3,3.4-4,3.4C70.1,29.6,69.8,29.6,69.5,29.6z M69.5,24.9V28c0.3,0,0.5,0,0.7,0c0.8,0,1.4-0.1,1.7-0.4
		c0.4-0.3,0.5-0.7,0.5-1.3c0-1-0.8-1.5-2.5-1.5C69.8,24.9,69.7,24.9,69.5,24.9z"/>
	<path fill="#FFFFFF" d="M77.5,29.6v3.6h-1.7v-9.8c1.2,0,1.8-0.1,2-0.1c1.5,0,2.7,0.2,3.4,0.7c0.7,0.5,1.1,1.2,1.1,2.2
		c0,2.2-1.3,3.4-4,3.4C78.1,29.6,77.8,29.6,77.5,29.6z M77.5,24.9V28c0.3,0,0.5,0,0.7,0c0.8,0,1.4-0.1,1.7-0.4
		c0.4-0.3,0.5-0.7,0.5-1.3c0-1-0.8-1.5-2.4-1.5C77.8,24.9,77.7,24.9,77.5,24.9z"/>
</g>
</svg>
