<!-- Generator: Adobe Illustrator 18.1.0, SVG Export Plug-In  -->
<svg version="1.1"
	 xmlns="http://www.w3.org/2000/svg" xmlns:xlink="http://www.w3.org/1999/xlink" xmlns:a="http://ns.adobe.com/AdobeSVGViewerExtensions/3.0/"
	 x="0px" y="0px" width="135.6px" height="57.8px" viewBox="0 0 135.6 57.8" enable-background="new 0 0 135.6 57.8"
	 xml:space="preserve">
<defs>
</defs>
<g>
	<ellipse fill="#1D71B8" cx="67.8" cy="28.9" rx="67.8" ry="28.9"/>
</g>
<g>
	<path fill="#FFFFFF" d="M19.8,33.4h-3v-9.8c1.3-0.1,2.2-0.1,2.8-0.1c1,0,1.8,0.2,2.4,0.7c0.6,0.4,0.9,1.1,0.9,1.9
		c0,0.8-0.4,1.4-1.2,1.8c1.2,0.4,1.8,1.3,1.8,2.6c0,0.9-0.3,1.6-1,2.1C21.7,33.2,20.8,33.4,19.8,33.4z M18.5,25.1v2.3
		c0.3,0,0.5,0,0.8,0c1.1,0,1.7-0.4,1.7-1.3c0-0.8-0.5-1.1-1.5-1.1C19.2,25,18.9,25,18.5,25.1z M18.5,28.8V32c0.4,0,0.6,0,0.9,0
		c0.8,0,1.3-0.1,1.7-0.4c0.3-0.3,0.5-0.7,0.5-1.3c0-0.6-0.2-1-0.5-1.2c-0.3-0.3-0.9-0.4-1.7-0.4C19.2,28.7,18.9,28.7,18.5,28.8z"/>
	<path fill="#FFFFFF" d="M30.6,33.4l-0.7-2h-3.4l-0.7,2h-1.9l3.9-9.9h0.8l3.9,9.9H30.6z M28.2,26.5L27,30.1h2.3L28.2,26.5z"/>
	<path fill="#FFFFFF" d="M33.6,33.4v-9.8h1.7v8.2h4.4v1.5H33.6z"/>
	<path fill="#FFFFFF" d="M46.8,33.4l-0.7-2h-3.3l-0.7,2h-1.9l3.9-9.9h0.8l3.9,9.9H46.8z M44.4,26.5l-1.2,3.6h2.3L44.4,26.5z"/>
	<path fill="#FFFFFF" d="M56.2,33.6l-4.7-6.2v6.1h-1.7v-9.8h0.8l4.6,5.9v-5.9h1.7v9.9H56.2z"/>
	<path fill="#FFFFFF" d="M65.6,24.2l-0.7,1.4c-0.4-0.4-1-0.6-1.9-0.6c-0.8,0-1.5,0.3-2,1c-0.5,0.7-0.8,1.5-0.8,2.6
		c0,1,0.2,1.9,0.7,2.5c0.5,0.6,1.1,0.9,1.9,0.9c0.9,0,1.6-0.3,2.2-1l0.8,1.4c-0.7,0.8-1.7,1.1-3.1,1.1c-1.4,0-2.4-0.4-3.2-1.3
		c-0.8-0.9-1.1-2.1-1.1-3.7c0-1.4,0.4-2.7,1.3-3.6c0.8-1,1.9-1.5,3.2-1.5C64,23.5,64.9,23.7,65.6,24.2z"/>
	<path fill="#FFFFFF" d="M69,25.2v2.3h3.2V29H69v2.9h4.4v1.5h-6.2v-9.8h6.2v1.5H69z"/>
	<path fill="#FFFFFF" d="M78.7,32.9l0.6-1.6c0.7,0.5,1.4,0.7,2,0.7c1,0,1.5-0.4,1.5-1.1c0-0.3-0.1-0.7-0.4-1c-0.2-0.3-0.7-0.6-1.5-1
		c-0.7-0.4-1.3-0.7-1.5-0.9c-0.3-0.2-0.5-0.5-0.6-0.9c-0.1-0.3-0.2-0.7-0.2-1.1c0-0.8,0.3-1.4,0.8-1.9c0.6-0.5,1.3-0.7,2.1-0.7
		c1.1,0,2,0.2,2.5,0.6l-0.5,1.5C83,25.2,82.4,25,81.7,25c-0.4,0-0.7,0.1-0.9,0.3c-0.2,0.2-0.3,0.5-0.3,0.8c0,0.6,0.6,1.1,1.9,1.7
		c0.7,0.3,1.1,0.6,1.4,0.9c0.3,0.3,0.5,0.6,0.7,0.9c0.2,0.4,0.2,0.8,0.2,1.2c0,0.8-0.3,1.4-0.9,2s-1.5,0.8-2.5,0.8
		C80.2,33.6,79.4,33.4,78.7,32.9z"/>
	<path fill="#FFFFFF" d="M85.7,28.5c0-1.4,0.4-2.6,1.1-3.5c0.8-1,1.8-1.4,3.1-1.4c1.4,0,2.5,0.4,3.2,1.3c0.7,0.9,1.1,2.1,1.1,3.7
		c0,1.6-0.4,2.8-1.2,3.8c-0.8,0.9-1.9,1.4-3.3,1.4c-1.3,0-2.3-0.5-3-1.4C86,31.3,85.7,30.1,85.7,28.5z M87.5,28.5
		c0,1.1,0.2,2,0.6,2.7c0.4,0.6,1,0.9,1.7,0.9c0.9,0,1.5-0.3,2-0.9c0.5-0.6,0.7-1.5,0.7-2.7c0-2.3-0.8-3.4-2.5-3.4
		c-0.8,0-1.4,0.3-1.8,0.9C87.7,26.6,87.5,27.4,87.5,28.5z"/>
	<path fill="#FFFFFF" d="M102.5,24.2l-0.7,1.4c-0.4-0.4-1-0.6-1.9-0.6c-0.8,0-1.5,0.3-2,1c-0.5,0.7-0.8,1.5-0.8,2.6
		c0,1,0.2,1.9,0.7,2.5c0.5,0.6,1.1,0.9,1.9,0.9c0.9,0,1.6-0.3,2.2-1l0.8,1.4c-0.7,0.8-1.7,1.1-3.1,1.1c-1.4,0-2.4-0.4-3.2-1.3
		c-0.8-0.9-1.1-2.1-1.1-3.7c0-1.4,0.4-2.7,1.3-3.6c0.8-1,1.9-1.5,3.2-1.5C100.9,23.5,101.8,23.7,102.5,24.2z"/>
	<path fill="#FFFFFF" d="M104.2,33.4v-9.8h1.7v9.8H104.2z"/>
	<path fill="#FFFFFF" d="M113.6,33.4l-0.7-2h-3.4l-0.7,2H107l3.9-9.9h0.8l3.9,9.9H113.6z M111.2,26.5l-1.2,3.6h2.3L111.2,26.5z"/>
	<path fill="#FFFFFF" d="M116.6,33.4v-9.8h1.7v8.2h4.4v1.5H116.6z"/>
</g>
</svg>
