<?xml version="1.0" encoding="utf-8"?>
<!-- Generator: Adobe Illustrator 18.1.0, SVG Export Plug-In . SVG Version: 6.00 Build 0)  -->
<!DOCTYPE svg PUBLIC "-//W3C//DTD SVG 1.1//EN" "http://www.w3.org/Graphics/SVG/1.1/DTD/svg11.dtd">
<svg version="1.1" id="Capa_1" xmlns="http://www.w3.org/2000/svg" xmlns:xlink="http://www.w3.org/1999/xlink" x="0px" y="0px"
	 viewBox="-245 399.7 104.3 43.2" enable-background="new -245 399.7 104.3 43.2" xml:space="preserve">
<g>
	<ellipse fill="#A2C037" cx="-192.8" cy="421.3" rx="52.2" ry="21.6"/>
</g>
<rect x="-239.2" y="409.7" fill="none" width="92.3" height="24.4"/>
<g enable-background="new    ">
	<path fill="#FFFFFF" d="M-216.2,410.4l-0.6,1.1c-0.3-0.3-0.8-0.4-1.5-0.4c-0.6,0-1.2,0.3-1.6,0.8c-0.4,0.5-0.6,1.2-0.6,2
		s0.2,1.4,0.6,1.9c0.4,0.5,0.9,0.7,1.5,0.7c0.7,0,1.3-0.3,1.7-0.8l0.6,1.1c-0.6,0.6-1.4,0.9-2.5,0.9s-1.9-0.3-2.5-1
		c-0.6-0.7-0.9-1.6-0.9-2.8c0-1.1,0.3-2,1-2.8c0.7-0.7,1.5-1.1,2.5-1.1C-217.4,409.9-216.7,410.1-216.2,410.4z"/>
	<path fill="#FFFFFF" d="M-210.4,417.5l-0.6-1.5h-2.6l-0.5,1.5h-1.5l3.1-7.6h0.6l3.1,7.6H-210.4z M-212.3,412.2l-0.9,2.8h1.9
		L-212.3,412.2z"/>
	<path fill="#FFFFFF" d="M-206.7,414.8v2.8h-1.4v-7.5c0.9,0,1.4-0.1,1.6-0.1c1.2,0,2.1,0.2,2.7,0.5s0.8,0.9,0.8,1.7
		c0,1.7-1,2.6-3.1,2.6C-206.2,414.8-206.4,414.8-206.7,414.8z M-206.7,411.2v2.4c0.2,0,0.4,0,0.5,0c0.6,0,1.1-0.1,1.4-0.3
		s0.4-0.5,0.4-1c0-0.8-0.6-1.2-1.9-1.2C-206.4,411.2-206.6,411.2-206.7,411.2z"/>
	<path fill="#FFFFFF" d="M-201.7,417.5V410h1.4v7.5H-201.7z"/>
	<path fill="#FFFFFF" d="M-195.6,411.2v6.3h-1.4v-6.3h-2.5V410h6.4v1.2H-195.6z"/>
	<path fill="#FFFFFF" d="M-188.7,417.5l-0.6-1.5h-2.6l-0.5,1.5h-1.5l3.1-7.6h0.6l3.1,7.6H-188.7z M-190.6,412.2l-0.9,2.8h1.9
		L-190.6,412.2z"/>
	<path fill="#FFFFFF" d="M-186.4,417.5V410h1.4v6.3h3.5v1.2H-186.4z"/>
	<path fill="#FFFFFF" d="M-175.9,417.5h-1.7v-7.5c1.1,0,1.8-0.1,2.1-0.1c1.1,0,2,0.3,2.7,1c0.7,0.6,1,1.5,1,2.5
		C-171.9,416.2-173.2,417.5-175.9,417.5z M-176.2,411.2v5.1c0.2,0,0.5,0,0.7,0c0.7,0,1.2-0.2,1.6-0.7c0.4-0.5,0.6-1.2,0.6-2
		c0-1.6-0.8-2.4-2.3-2.4C-175.7,411.2-175.9,411.2-176.2,411.2z"/>
	<path fill="#FFFFFF" d="M-169.3,411.2v1.8h2.5v1.1h-2.5v2.2h3.5v1.2h-4.9V410h4.9v1.2H-169.3z"/>
</g>
<g enable-background="new    ">
	<path fill="#FFFFFF" d="M-212.4,423.8v6.3h-1.4v-6.3h-2.5v-1.2h6.4v1.2H-212.4z"/>
	<path fill="#FFFFFF" d="M-204.6,430.1l-2.1-3.1c-0.2,0-0.5,0-0.9,0v3.1h-1.4v-7.5c0.1,0,0.4,0,0.9,0s0.9,0,1.2,0
		c2,0,2.9,0.7,2.9,2.2c0,0.4-0.1,0.8-0.4,1.2c-0.3,0.4-0.6,0.6-1,0.8l2.3,3.4H-204.6z M-207.5,423.8v2.1c0.3,0,0.4,0,0.6,0
		c0.6,0,1-0.1,1.3-0.2s0.4-0.5,0.4-0.9c0-0.4-0.1-0.6-0.4-0.8c-0.3-0.1-0.7-0.2-1.3-0.2C-207.2,423.8-207.3,423.8-207.5,423.8z"/>
	<path fill="#FFFFFF" d="M-197.8,430.1l-0.6-1.5h-2.6l-0.5,1.5h-1.5l3.1-7.6h0.6l3.1,7.6H-197.8z M-199.7,424.8l-0.9,2.8h1.9
		L-199.7,424.8z"/>
	<path fill="#FFFFFF" d="M-193.2,430.1h-2.4v-7.5c1,0,1.8-0.1,2.2-0.1c0.8,0,1.4,0.2,1.9,0.5c0.5,0.3,0.7,0.8,0.7,1.4
		c0,0.6-0.3,1.1-1,1.4c1,0.3,1.4,1,1.4,2c0,0.7-0.3,1.2-0.8,1.6S-192.3,430.1-193.2,430.1z M-194.2,423.7v1.8c0.2,0,0.4,0,0.7,0
		c0.9,0,1.3-0.3,1.3-1c0-0.6-0.4-0.9-1.2-0.9C-193.6,423.7-193.8,423.7-194.2,423.7z M-194.2,426.5v2.5c0.3,0,0.5,0,0.7,0
		c0.6,0,1.1-0.1,1.3-0.3c0.3-0.2,0.4-0.5,0.4-1c0-0.4-0.1-0.7-0.4-0.9c-0.3-0.2-0.7-0.3-1.3-0.3
		C-193.6,426.5-193.8,426.5-194.2,426.5z"/>
	<path fill="#FFFFFF" d="M-184.6,430.1l-0.6-1.5h-2.6l-0.5,1.5h-1.5l3.1-7.6h0.6l3.1,7.6H-184.6z M-186.5,424.8l-0.9,2.8h1.9
		L-186.5,424.8z"/>
	<path fill="#FFFFFF" d="M-183,428.4h1.2c0.1,0.4,0.5,0.7,1.1,0.7c0.4,0,0.8-0.1,0.9-0.4c0.2-0.3,0.3-0.7,0.3-1.3v-4.7h1.4v4.7
		c0,1-0.2,1.7-0.7,2.2c-0.4,0.5-1.1,0.7-2.1,0.7c-0.6,0-1.2-0.2-1.5-0.5S-183,429-183,428.4z"/>
	<path fill="#FFFFFF" d="M-176.9,426.3c0-1.1,0.3-2,0.9-2.7s1.4-1.1,2.4-1.1c1.1,0,2,0.3,2.5,1c0.6,0.7,0.9,1.6,0.9,2.8
		c0,1.2-0.3,2.2-0.9,2.9c-0.6,0.7-1.5,1.1-2.6,1.1c-1,0-1.8-0.4-2.4-1.1C-176.6,428.5-176.9,427.5-176.9,426.3z M-175.5,426.3
		c0,0.9,0.2,1.6,0.5,2c0.3,0.5,0.7,0.7,1.3,0.7c0.7,0,1.2-0.2,1.6-0.7c0.4-0.5,0.5-1.2,0.5-2c0-1.8-0.7-2.6-2-2.6
		c-0.6,0-1.1,0.2-1.4,0.7C-175.3,424.9-175.5,425.5-175.5,426.3z"/>
</g>
</svg>
