<!-- Generator: Adobe Illustrator 18.1.0, SVG Export Plug-In  -->
<svg version="1.1"
	 xmlns="http://www.w3.org/2000/svg" xmlns:xlink="http://www.w3.org/1999/xlink" xmlns:a="http://ns.adobe.com/AdobeSVGViewerExtensions/3.0/"
	 x="0px" y="0px" width="510.2px" height="411.7px" viewBox="0 0 510.2 411.7" enable-background="new 0 0 510.2 411.7"
	 xml:space="preserve">
<defs>
</defs>
<g>
	<path fill="#E30613" d="M510.2,91.9c-1.5,1.1-3.2,2.1-4.6,3.4C401.8,199.1,297.9,303,194.2,406.8c-1.5,1.5-2.5,3.5-3.4,4.9
		C126.3,347.2,63,283.9,0,220.9c29.6-29.6,59.6-59.5,89.9-89.8c32.4,32.4,65.5,65.6,98.8,98.9C265.7,153,342,76.7,418.6,0
		c2,1.9,3.4,3.2,4.8,4.5c27.7,27.7,55.4,55.4,83.1,83.1c1.2,1.2,2.4,2.2,3.7,3.4C510.2,91.3,510.2,91.6,510.2,91.9z"/>
</g>
</svg>
