<!-- Generator: Adobe Illustrator 18.1.0, SVG Export Plug-In  -->
<svg version="1.1"
	 xmlns="http://www.w3.org/2000/svg" xmlns:xlink="http://www.w3.org/1999/xlink" xmlns:a="http://ns.adobe.com/AdobeSVGViewerExtensions/3.0/"
	 x="0px" y="0px" width="135.7px" height="57.8px" viewBox="0 0 135.7 57.8" enable-background="new 0 0 135.7 57.8"
	 xml:space="preserve">
<defs>
</defs>
<g>
	<ellipse fill="#0059A7" cx="67.8" cy="28.9" rx="67.8" ry="28.9"/>
</g>
<g>
	<path fill="#FFFFFF" d="M35.3,16.8l-0.7,1.4c-0.4-0.4-1-0.6-1.9-0.6c-0.8,0-1.5,0.3-2,1c-0.5,0.7-0.8,1.5-0.8,2.6
		c0,1,0.2,1.9,0.7,2.5c0.5,0.6,1.1,0.9,1.9,0.9c0.9,0,1.6-0.3,2.2-1l0.8,1.4c-0.7,0.8-1.7,1.1-3.1,1.1c-1.4,0-2.4-0.4-3.2-1.3
		c-0.8-0.9-1.1-2.1-1.1-3.7c0-1.4,0.4-2.7,1.3-3.6c0.8-1,1.9-1.5,3.2-1.5C33.7,16.1,34.6,16.4,35.3,16.8z"/>
	<path fill="#FFFFFF" d="M40.9,20.5c-0.3-0.2-0.6-0.3-1-0.3c-0.4,0-0.7,0.2-1,0.5c-0.3,0.4-0.4,0.8-0.4,1.3v4.1h-1.7v-7.1h1.7v0.7
		c0.5-0.5,1.1-0.8,1.9-0.8c0.6,0,1,0.1,1.3,0.3L40.9,20.5z"/>
	<path fill="#FFFFFF" d="M49,23h-5.1c0,0.6,0.2,1,0.6,1.3c0.4,0.3,0.8,0.5,1.5,0.5c0.8,0,1.3-0.2,1.7-0.6l0.6,1.3
		c-0.6,0.5-1.5,0.7-2.6,0.7c-1.1,0-2-0.3-2.6-1c-0.6-0.6-1-1.5-1-2.7c0-1.1,0.3-2,1-2.7c0.7-0.7,1.5-1,2.5-1c1,0,1.9,0.3,2.5,0.9
		c0.6,0.6,0.9,1.4,0.9,2.4C49.2,22.3,49.1,22.6,49,23z M44,21.8h3.5c-0.1-1-0.7-1.6-1.7-1.6C44.8,20.2,44.2,20.7,44,21.8z"/>
	<path fill="#FFFFFF" d="M56.1,19.5l-0.7,1.2c-0.4-0.4-0.9-0.6-1.6-0.6c-0.6,0-1.1,0.2-1.5,0.6c-0.4,0.4-0.6,1-0.6,1.7
		c0,1.5,0.7,2.3,2.1,2.3c0.6,0,1.2-0.2,1.6-0.6l0.6,1.3c-0.5,0.3-0.9,0.5-1.3,0.6c-0.4,0.1-0.8,0.1-1.3,0.1c-1.1,0-2-0.3-2.6-1
		c-0.6-0.6-1-1.5-1-2.7c0-1.1,0.3-2,1-2.7c0.7-0.7,1.7-1,2.9-1C54.8,18.8,55.5,19,56.1,19.5z"/>
	<path fill="#FFFFFF" d="M58,26.1v-5.8H57v-1.4h2.6v7.1H58z M58.8,16.2c0.3,0,0.5,0.1,0.7,0.3c0.2,0.2,0.3,0.4,0.3,0.7
		c0,0.3-0.1,0.5-0.3,0.7c-0.2,0.2-0.4,0.3-0.7,0.3c-0.3,0-0.5-0.1-0.7-0.3c-0.2-0.2-0.3-0.4-0.3-0.7c0-0.3,0.1-0.5,0.3-0.7
		C58.3,16.2,58.6,16.2,58.8,16.2z"/>
	<path fill="#FFFFFF" d="M69.9,26.1v-4.5c0-0.9-0.4-1.4-1.3-1.4c-0.2,0-0.5,0.1-0.7,0.2c-0.2,0.1-0.4,0.3-0.5,0.5v5.2h-1.7v-4.7
		c0-0.4-0.1-0.6-0.3-0.8c-0.2-0.2-0.5-0.3-0.9-0.3c-0.2,0-0.4,0.1-0.7,0.2c-0.2,0.2-0.4,0.3-0.5,0.5v5.1h-1.7v-7.1h1.1l0.3,0.6
		c0.5-0.5,1.1-0.8,1.8-0.8c0.9,0,1.7,0.3,2.1,0.8c0.2-0.2,0.5-0.4,0.9-0.6c0.4-0.1,0.7-0.2,1.1-0.2c0.8,0,1.4,0.2,1.9,0.7
		c0.4,0.5,0.7,1.1,0.7,1.9v4.7H69.9z"/>
	<path fill="#FFFFFF" d="M73.8,26.1v-5.8h-0.9v-1.4h2.6v7.1H73.8z M74.6,16.2c0.3,0,0.5,0.1,0.7,0.3c0.2,0.2,0.3,0.4,0.3,0.7
		c0,0.3-0.1,0.5-0.3,0.7c-0.2,0.2-0.4,0.3-0.7,0.3c-0.3,0-0.5-0.1-0.7-0.3c-0.2-0.2-0.3-0.4-0.3-0.7c0-0.3,0.1-0.5,0.3-0.7
		C74.1,16.2,74.4,16.2,74.6,16.2z"/>
	<path fill="#FFFFFF" d="M83.8,23h-5.1c0,0.6,0.2,1,0.6,1.3c0.4,0.3,0.8,0.5,1.5,0.5c0.8,0,1.3-0.2,1.7-0.6l0.6,1.3
		c-0.6,0.5-1.5,0.7-2.6,0.7c-1.1,0-2-0.3-2.6-1c-0.6-0.6-1-1.5-1-2.7c0-1.1,0.3-2,1-2.7c0.7-0.7,1.5-1,2.5-1c1,0,1.9,0.3,2.5,0.9
		c0.6,0.6,0.9,1.4,0.9,2.4C83.9,22.3,83.9,22.6,83.8,23z M78.7,21.8h3.5c-0.1-1-0.7-1.6-1.7-1.6C79.6,20.2,79,20.7,78.7,21.8z"/>
	<path fill="#FFFFFF" d="M89.9,26.1v-4.1c0-0.6-0.1-1.1-0.4-1.3c-0.2-0.3-0.6-0.4-1.1-0.4c-0.2,0-0.5,0.1-0.8,0.2
		c-0.3,0.1-0.5,0.3-0.7,0.5v5.2h-1.7v-7.1h1.2l0.3,0.7c0.5-0.5,1.1-0.8,2-0.8c0.9,0,1.5,0.3,2,0.8c0.5,0.5,0.7,1.2,0.7,2.1v4.4H89.9
		z"/>
	<path fill="#FFFFFF" d="M93.6,20.3h-0.8v-1.3h0.8v-1.5l1.7-0.6v2.1h2v1.3h-2v3.1c0,0.5,0.1,0.9,0.2,1.1c0.2,0.2,0.4,0.3,0.8,0.3
		s0.8-0.1,1.1-0.3V26c-0.4,0.1-0.9,0.2-1.7,0.2c-0.7,0-1.3-0.2-1.6-0.6c-0.4-0.4-0.6-1-0.6-1.7V20.3z"/>
	<path fill="#FFFFFF" d="M98.3,22.5c0-1.1,0.3-2,0.9-2.7c0.6-0.7,1.5-1,2.5-1c1.1,0,1.9,0.3,2.5,1c0.6,0.7,0.9,1.6,0.9,2.7
		c0,1.1-0.3,2-0.9,2.7c-0.6,0.7-1.5,1-2.5,1c-1.1,0-1.9-0.3-2.5-1C98.6,24.5,98.3,23.6,98.3,22.5z M100,22.5c0,1.6,0.6,2.4,1.7,2.4
		c0.5,0,0.9-0.2,1.2-0.6c0.3-0.4,0.5-1,0.5-1.7c0-1.6-0.6-2.3-1.7-2.3c-0.5,0-0.9,0.2-1.2,0.6C100.2,21.2,100,21.7,100,22.5z"/>
	<path fill="#FFFFFF" d="M31.5,34.2v2.3h3.2V38h-3.2v2.9h4.4v1.5h-6.2v-9.8H36v1.5H31.5z"/>
	<path fill="#FFFFFF" d="M45.7,42.5V38c0-0.9-0.4-1.4-1.3-1.4c-0.2,0-0.5,0.1-0.7,0.2c-0.2,0.1-0.4,0.3-0.5,0.5v5.2h-1.7v-4.7
		c0-0.4-0.1-0.6-0.3-0.8c-0.2-0.2-0.5-0.3-0.9-0.3c-0.2,0-0.4,0.1-0.7,0.2c-0.2,0.2-0.4,0.3-0.5,0.5v5.1h-1.7v-7.1h1.1l0.3,0.6
		c0.5-0.5,1.1-0.8,1.8-0.8c0.9,0,1.7,0.3,2.1,0.8c0.2-0.2,0.5-0.4,0.9-0.6c0.4-0.1,0.7-0.2,1.1-0.2c0.8,0,1.4,0.2,1.9,0.7
		c0.4,0.5,0.7,1.1,0.7,1.9v4.7H45.7z"/>
	<path fill="#FFFFFF" d="M50.7,42.3v3h-1.7v-10h1.7v0.5c0.4-0.4,0.9-0.6,1.5-0.6c2.3,0,3.4,1.3,3.4,3.8c0,1.2-0.3,2.1-0.9,2.7
		c-0.6,0.6-1.5,0.9-2.6,0.9C51.7,42.6,51.2,42.5,50.7,42.3z M50.7,37.1v3.8c0.3,0.2,0.7,0.4,1.1,0.4c0.8,0,1.3-0.2,1.7-0.5
		c0.3-0.4,0.5-0.9,0.5-1.7c0-0.8-0.2-1.4-0.5-1.8c-0.3-0.3-0.9-0.5-1.7-0.5C51.4,36.6,51.1,36.8,50.7,37.1z"/>
	<path fill="#FFFFFF" d="M61.3,36.9c-0.3-0.2-0.6-0.3-1-0.3c-0.4,0-0.7,0.2-1,0.5c-0.3,0.4-0.5,0.8-0.5,1.3v4.1h-1.7v-7.1h1.7V36
		c0.5-0.5,1.1-0.8,1.9-0.8c0.6,0,1,0.1,1.3,0.3L61.3,36.9z"/>
	<path fill="#FFFFFF" d="M69.4,39.4h-5.1c0,0.6,0.2,1,0.6,1.3c0.4,0.3,0.8,0.5,1.5,0.5c0.8,0,1.3-0.2,1.7-0.6l0.6,1.3
		c-0.6,0.5-1.5,0.7-2.6,0.7c-1.1,0-2-0.3-2.6-1c-0.6-0.6-1-1.5-1-2.7c0-1.1,0.3-2,1-2.7c0.7-0.7,1.5-1,2.5-1c1,0,1.9,0.3,2.5,0.9
		c0.6,0.6,0.9,1.4,0.9,2.4C69.5,38.7,69.5,39,69.4,39.4z M64.3,38.2h3.5c-0.1-1-0.7-1.6-1.7-1.6C65.2,36.6,64.6,37.1,64.3,38.2z"/>
	<path fill="#FFFFFF" d="M70.4,42l0.6-1.3c0.5,0.4,1.1,0.6,1.7,0.6c0.7,0,1-0.2,1-0.7c0-0.3-0.1-0.5-0.3-0.7
		c-0.2-0.2-0.6-0.4-1.1-0.6c-1.2-0.5-1.8-1.2-1.8-2.1c0-0.6,0.2-1.1,0.7-1.4c0.5-0.3,1.1-0.5,1.8-0.5c0.7,0,1.4,0.2,2.1,0.5L74.5,37
		c-0.4-0.3-0.9-0.5-1.5-0.5c-0.6,0-0.9,0.2-0.9,0.7c0,0.2,0.1,0.3,0.3,0.5c0.2,0.1,0.6,0.3,1.2,0.6c0.6,0.2,1.1,0.5,1.4,0.9
		c0.3,0.4,0.4,0.8,0.4,1.3c0,0.7-0.2,1.2-0.7,1.6c-0.5,0.4-1.2,0.6-2,0.6c-0.5,0-0.9,0-1.1-0.1C71.2,42.4,70.9,42.3,70.4,42z"/>
	<path fill="#FFFFFF" d="M80.7,41.8c-0.2,0.2-0.4,0.5-0.8,0.6c-0.4,0.2-0.8,0.2-1.2,0.2c-0.8,0-1.4-0.2-1.8-0.6
		c-0.4-0.4-0.7-0.9-0.7-1.6c0-0.8,0.3-1.5,0.9-1.9c0.6-0.5,1.5-0.7,2.6-0.7c0.2,0,0.4,0,0.7,0.1c0-0.8-0.5-1.3-1.6-1.3
		c-0.6,0-1.2,0.1-1.6,0.3L77,35.6c0.6-0.3,1.3-0.4,2-0.4c1.1,0,1.9,0.2,2.4,0.7c0.5,0.5,0.8,1.4,0.8,2.8v1.5c0,1,0.2,1.5,0.6,1.8
		c-0.1,0.2-0.3,0.4-0.5,0.4c-0.2,0.1-0.4,0.1-0.6,0.1c-0.2,0-0.5-0.1-0.6-0.3C80.9,42.2,80.8,42,80.7,41.8z M80.6,39.1
		c-0.3-0.1-0.5-0.1-0.6-0.1c-1.3,0-2,0.4-2,1.3c0,0.6,0.4,1,1.1,1c1,0,1.5-0.5,1.5-1.5V39.1z"/>
	<path fill="#FFFFFF" d="M88.2,36.9c-0.3-0.2-0.6-0.3-1-0.3c-0.4,0-0.7,0.2-1,0.5c-0.3,0.4-0.5,0.8-0.5,1.3v4.1H84v-7.1h1.7V36
		c0.5-0.5,1.1-0.8,1.9-0.8c0.6,0,1,0.1,1.3,0.3L88.2,36.9z"/>
	<path fill="#FFFFFF" d="M90.3,42.5v-5.8h-0.9v-1.4H92v7.1H90.3z M91.2,32.6c0.3,0,0.5,0.1,0.7,0.3c0.2,0.2,0.3,0.4,0.3,0.7
		c0,0.3-0.1,0.5-0.3,0.7c-0.2,0.2-0.4,0.3-0.7,0.3c-0.3,0-0.5-0.1-0.7-0.3c-0.2-0.2-0.3-0.4-0.3-0.7c0-0.3,0.1-0.5,0.3-0.7
		C90.7,32.7,90.9,32.6,91.2,32.6z"/>
	<path fill="#FFFFFF" d="M97.9,41.8c-0.2,0.2-0.4,0.5-0.8,0.6c-0.4,0.2-0.8,0.2-1.2,0.2c-0.8,0-1.4-0.2-1.8-0.6
		c-0.4-0.4-0.7-0.9-0.7-1.6c0-0.8,0.3-1.5,0.9-1.9c0.6-0.5,1.5-0.7,2.6-0.7c0.2,0,0.4,0,0.7,0.1c0-0.8-0.5-1.3-1.6-1.3
		c-0.6,0-1.2,0.1-1.6,0.3l-0.4-1.3c0.6-0.3,1.3-0.4,2-0.4c1.1,0,1.9,0.2,2.4,0.7c0.5,0.5,0.8,1.4,0.8,2.8v1.5c0,1,0.2,1.5,0.6,1.8
		c-0.1,0.2-0.3,0.4-0.5,0.4c-0.2,0.1-0.4,0.1-0.6,0.1c-0.2,0-0.5-0.1-0.6-0.3C98.1,42.2,98,42,97.9,41.8z M97.8,39.1
		c-0.3-0.1-0.5-0.1-0.6-0.1c-1.3,0-2,0.4-2,1.3c0,0.6,0.4,1,1.1,1c1,0,1.5-0.5,1.5-1.5V39.1z"/>
	<path fill="#FFFFFF" d="M101.5,32.7l1.7-0.4v8c0,0.9,0.3,1.4,0.8,1.6c-0.3,0.5-0.7,0.7-1.3,0.7c-0.8,0-1.1-0.5-1.1-1.6V32.7z"/>
</g>
</svg>
