<?xml version="1.0" encoding="utf-8"?>
<!-- Generator: Adobe Illustrator 18.1.0, SVG Export Plug-In . SVG Version: 6.00 Build 0)  -->
<!DOCTYPE svg PUBLIC "-//W3C//DTD SVG 1.1//EN" "http://www.w3.org/Graphics/SVG/1.1/DTD/svg11.dtd">
<svg version="1.1" id="Capa_1" xmlns="http://www.w3.org/2000/svg" xmlns:xlink="http://www.w3.org/1999/xlink" x="0px" y="0px"
	 viewBox="-245 399.6 104.3 43.3" enable-background="new -245 399.6 104.3 43.3" xml:space="preserve">
<g>
	<ellipse fill="#285AA3" cx="-192.8" cy="421.2" rx="52.2" ry="21.6"/>
</g>
<rect x="-239.4" y="416" fill="none" width="92.3" height="20.7"/>
<g enable-background="new    ">
	<path fill="#FFFFFF" d="M-217.9,416.8l-0.6,1.1c-0.3-0.3-0.8-0.4-1.5-0.4c-0.6,0-1.2,0.3-1.6,0.8c-0.4,0.5-0.6,1.2-0.6,2
		s0.2,1.4,0.6,1.9c0.4,0.5,0.9,0.7,1.5,0.7c0.7,0,1.3-0.3,1.7-0.8l0.6,1.1c-0.6,0.6-1.4,0.9-2.5,0.9s-1.9-0.3-2.5-1
		c-0.6-0.7-0.9-1.6-0.9-2.8c0-1.1,0.3-2,1-2.8c0.7-0.7,1.5-1.1,2.5-1.1C-219.1,416.2-218.4,416.4-217.9,416.8z"/>
	<path fill="#FFFFFF" d="M-213.4,419.6c-0.2-0.1-0.5-0.2-0.8-0.2c-0.3,0-0.6,0.1-0.8,0.4c-0.2,0.3-0.4,0.6-0.4,1v3.1h-1.3v-5.5h1.3
		v0.5c0.4-0.4,0.9-0.6,1.5-0.6c0.4,0,0.8,0.1,1,0.2L-213.4,419.6z"/>
	<path fill="#FFFFFF" d="M-207,421.5h-4c0,0.4,0.2,0.8,0.5,1c0.3,0.2,0.7,0.4,1.1,0.4c0.6,0,1.1-0.2,1.4-0.5l0.5,1
		c-0.5,0.4-1.2,0.5-2.1,0.5c-0.9,0-1.5-0.2-2-0.7s-0.7-1.2-0.7-2c0-0.9,0.3-1.6,0.8-2.1c0.5-0.5,1.2-0.8,2-0.8c0.8,0,1.5,0.2,2,0.7
		c0.5,0.5,0.7,1.1,0.7,1.8C-206.9,421-207,421.2-207,421.5z M-211,420.5h2.8c-0.1-0.8-0.5-1.2-1.4-1.2
		C-210.4,419.3-210.8,419.7-211,420.5z"/>
	<path fill="#FFFFFF" d="M-201.4,418.8l-0.6,1c-0.3-0.3-0.7-0.4-1.2-0.4c-0.5,0-0.9,0.2-1.2,0.5c-0.3,0.3-0.4,0.8-0.4,1.3
		c0,1.1,0.6,1.7,1.7,1.7c0.5,0,0.9-0.2,1.3-0.5l0.5,1c-0.4,0.2-0.7,0.4-1,0.4s-0.6,0.1-1,0.1c-0.9,0-1.6-0.2-2.1-0.7
		s-0.8-1.2-0.8-2.1c0-0.9,0.3-1.6,0.8-2.1c0.6-0.5,1.3-0.8,2.3-0.8C-202.5,418.3-201.9,418.5-201.4,418.8z"/>
	<path fill="#FFFFFF" d="M-200,423.9v-4.4h-0.7v-1h2.1v5.5H-200z M-199.3,416.3c0.2,0,0.4,0.1,0.5,0.2c0.1,0.1,0.2,0.3,0.2,0.5
		s-0.1,0.4-0.2,0.5s-0.3,0.2-0.5,0.2s-0.4-0.1-0.5-0.2s-0.2-0.3-0.2-0.5s0.1-0.4,0.2-0.5C-199.7,416.3-199.5,416.3-199.3,416.3z"/>
	<path fill="#FFFFFF" d="M-190.6,423.9v-3.4c0-0.7-0.3-1.1-1-1.1c-0.2,0-0.4,0.1-0.6,0.2c-0.2,0.1-0.3,0.2-0.4,0.4v4h-1.3v-3.6
		c0-0.3-0.1-0.5-0.3-0.6s-0.4-0.2-0.7-0.2c-0.2,0-0.3,0.1-0.5,0.2c-0.2,0.1-0.3,0.3-0.4,0.4v3.9h-1.3v-5.5h0.9l0.3,0.5
		c0.4-0.4,0.8-0.6,1.4-0.6c0.7,0,1.3,0.2,1.7,0.6c0.2-0.2,0.4-0.3,0.7-0.4s0.6-0.2,0.9-0.2c0.6,0,1.1,0.2,1.5,0.5
		c0.3,0.3,0.5,0.8,0.5,1.4v3.6H-190.6z"/>
	<path fill="#FFFFFF" d="M-187.5,423.9v-4.4h-0.7v-1h2.1v5.5H-187.5z M-186.9,416.3c0.2,0,0.4,0.1,0.5,0.2c0.1,0.1,0.2,0.3,0.2,0.5
		s-0.1,0.4-0.2,0.5s-0.3,0.2-0.5,0.2s-0.4-0.1-0.5-0.2s-0.2-0.3-0.2-0.5s0.1-0.4,0.2-0.5C-187.3,416.3-187.1,416.3-186.9,416.3z"/>
	<path fill="#FFFFFF" d="M-179.7,421.5h-4c0,0.4,0.2,0.8,0.5,1c0.3,0.2,0.7,0.4,1.1,0.4c0.6,0,1.1-0.2,1.4-0.5l0.5,1
		c-0.5,0.4-1.2,0.5-2.1,0.5c-0.9,0-1.5-0.2-2-0.7c-0.5-0.5-0.7-1.2-0.7-2c0-0.9,0.3-1.6,0.8-2.1s1.2-0.8,2-0.8c0.8,0,1.5,0.2,2,0.7
		c0.5,0.5,0.7,1.1,0.7,1.8C-179.5,421-179.6,421.2-179.7,421.5z M-183.6,420.5h2.8c-0.1-0.8-0.5-1.2-1.4-1.2
		C-183,419.3-183.4,419.7-183.6,420.5z"/>
	<path fill="#FFFFFF" d="M-174.9,423.9v-3.2c0-0.5-0.1-0.8-0.3-1c-0.2-0.2-0.5-0.3-0.9-0.3c-0.2,0-0.4,0.1-0.6,0.2
		c-0.2,0.1-0.4,0.2-0.5,0.4v4h-1.3v-5.5h0.9l0.2,0.5c0.4-0.4,0.9-0.6,1.6-0.6c0.7,0,1.2,0.2,1.6,0.6c0.4,0.4,0.6,0.9,0.6,1.6v3.4
		H-174.9z"/>
	<path fill="#FFFFFF" d="M-171.9,419.4h-0.7v-1h0.7v-1.1l1.3-0.5v1.6h1.5v1h-1.5v2.4c0,0.4,0.1,0.7,0.2,0.8c0.1,0.2,0.3,0.2,0.7,0.2
		s0.6-0.1,0.9-0.3v1.2c-0.3,0.1-0.7,0.2-1.3,0.2c-0.6,0-1-0.2-1.3-0.5c-0.3-0.3-0.5-0.7-0.5-1.3V419.4z"/>
	<path fill="#FFFFFF" d="M-168.2,421.1c0-0.8,0.2-1.5,0.7-2c0.5-0.5,1.2-0.8,2-0.8c0.9,0,1.5,0.3,2,0.8s0.7,1.2,0.7,2.1
		c0,0.9-0.2,1.6-0.7,2.1c-0.5,0.5-1.1,0.8-2,0.8c-0.9,0-1.5-0.3-2-0.8C-168,422.7-168.2,422-168.2,421.1z M-166.9,421.1
		c0,1.2,0.4,1.8,1.3,1.8c0.4,0,0.7-0.2,1-0.5c0.2-0.3,0.4-0.8,0.4-1.3c0-1.2-0.4-1.8-1.3-1.8c-0.4,0-0.7,0.2-1,0.5
		S-166.9,420.5-166.9,421.1z"/>
</g>
</svg>
