<?xml version="1.0" encoding="utf-8"?>
<!-- Generator: Adobe Illustrator 18.1.0, SVG Export Plug-In . SVG Version: 6.00 Build 0)  -->
<!DOCTYPE svg PUBLIC "-//W3C//DTD SVG 1.1//EN" "http://www.w3.org/Graphics/SVG/1.1/DTD/svg11.dtd">
<svg version="1.1" id="Capa_1" xmlns="http://www.w3.org/2000/svg" xmlns:xlink="http://www.w3.org/1999/xlink" x="0px" y="0px"
	 viewBox="-249 399.7 96.9 43.2" enable-background="new -249 399.7 96.9 43.2" xml:space="preserve">
<g>
	<ellipse fill="#009DE0" cx="-200.6" cy="421.3" rx="48.4" ry="21.6"/>
</g>
<rect x="-246.4" y="417.1" fill="none" width="92.3" height="24.9"/>
<g enable-background="new    ">
	<path fill="#FFFFFF" d="M-231.4,424.9h-1.7v-7.5c1.1,0,1.8-0.1,2.1-0.1c1.1,0,2,0.3,2.7,1s1,1.5,1,2.5
		C-227.4,423.6-228.8,424.9-231.4,424.9z M-231.8,418.6v5.1c0.2,0,0.5,0,0.7,0c0.7,0,1.2-0.2,1.6-0.7c0.4-0.5,0.6-1.2,0.6-2
		c0-1.6-0.8-2.4-2.3-2.4C-231.3,418.6-231.5,418.6-231.8,418.6z"/>
	<path fill="#FFFFFF" d="M-226,424.9v-4.4h-0.7v-1h2.1v5.5H-226z M-225.3,417.3c0.2,0,0.4,0.1,0.5,0.2c0.1,0.1,0.2,0.3,0.2,0.5
		s-0.1,0.4-0.2,0.5s-0.3,0.2-0.5,0.2s-0.4-0.1-0.5-0.2s-0.2-0.3-0.2-0.5s0.1-0.4,0.2-0.5C-225.7,417.4-225.5,417.3-225.3,417.3z"/>
	<path fill="#FFFFFF" d="M-219.5,424.9v-3.2c0-0.5-0.1-0.8-0.3-1c-0.2-0.2-0.5-0.3-0.9-0.3c-0.2,0-0.4,0.1-0.6,0.2
		c-0.2,0.1-0.4,0.2-0.5,0.4v4h-1.3v-5.5h0.9l0.2,0.5c0.4-0.4,0.9-0.6,1.6-0.6c0.7,0,1.2,0.2,1.6,0.6c0.4,0.4,0.6,0.9,0.6,1.6v3.4
		H-219.5z"/>
	<path fill="#FFFFFF" d="M-213.6,424.4c-0.1,0.2-0.3,0.3-0.6,0.5c-0.3,0.1-0.6,0.2-0.9,0.2c-0.6,0-1.1-0.1-1.4-0.4s-0.5-0.7-0.5-1.3
		c0-0.6,0.2-1.1,0.7-1.5s1.2-0.5,2.1-0.5c0.2,0,0.3,0,0.5,0.1c0-0.6-0.4-1-1.3-1c-0.5,0-0.9,0.1-1.2,0.2l-0.3-1
		c0.5-0.2,1-0.3,1.6-0.3c0.9,0,1.5,0.2,1.9,0.6c0.4,0.4,0.6,1.1,0.6,2.2v1.2c0,0.7,0.2,1.2,0.5,1.4c-0.1,0.2-0.2,0.3-0.4,0.3
		c-0.1,0-0.3,0.1-0.5,0.1c-0.2,0-0.4-0.1-0.5-0.2C-213.4,424.7-213.5,424.5-213.6,424.4z M-213.7,422.3c-0.2,0-0.4-0.1-0.5-0.1
		c-1,0-1.6,0.3-1.6,1c0,0.5,0.3,0.7,0.9,0.7c0.8,0,1.2-0.4,1.2-1.2V422.3z"/>
	<path fill="#FFFFFF" d="M-204.5,424.9v-3.4c0-0.7-0.3-1.1-1-1.1c-0.2,0-0.4,0.1-0.6,0.2c-0.2,0.1-0.3,0.2-0.4,0.4v4h-1.3v-3.6
		c0-0.3-0.1-0.5-0.3-0.6s-0.4-0.2-0.7-0.2c-0.2,0-0.3,0.1-0.5,0.2c-0.2,0.1-0.3,0.3-0.4,0.4v3.9h-1.3v-5.5h0.9l0.3,0.5
		c0.4-0.4,0.8-0.6,1.4-0.6c0.7,0,1.3,0.2,1.7,0.6c0.2-0.2,0.4-0.3,0.7-0.4s0.6-0.2,0.9-0.2c0.6,0,1.1,0.2,1.5,0.5
		c0.3,0.3,0.5,0.8,0.5,1.4v3.6H-204.5z"/>
	<path fill="#FFFFFF" d="M-201.4,424.9v-4.4h-0.7v-1h2.1v5.5H-201.4z M-200.7,417.3c0.2,0,0.4,0.1,0.5,0.2c0.1,0.1,0.2,0.3,0.2,0.5
		s-0.1,0.4-0.2,0.5s-0.3,0.2-0.5,0.2s-0.4-0.1-0.5-0.2s-0.2-0.3-0.2-0.5s0.1-0.4,0.2-0.5C-201.1,417.4-200.9,417.3-200.7,417.3z"/>
	<path fill="#FFFFFF" d="M-198.9,424.9v-0.4l3.1-3.9h-3v-1.1h4.9v0.5l-2.9,3.9h3v1.1H-198.9z"/>
	<path fill="#FFFFFF" d="M-189.7,424.4c-0.1,0.2-0.3,0.3-0.6,0.5c-0.3,0.1-0.6,0.2-0.9,0.2c-0.6,0-1.1-0.1-1.4-0.4s-0.5-0.7-0.5-1.3
		c0-0.6,0.2-1.1,0.7-1.5s1.2-0.5,2.1-0.5c0.2,0,0.3,0,0.5,0.1c0-0.6-0.4-1-1.3-1c-0.5,0-0.9,0.1-1.2,0.2l-0.3-1
		c0.5-0.2,1-0.3,1.6-0.3c0.9,0,1.5,0.2,1.9,0.6c0.4,0.4,0.6,1.1,0.6,2.2v1.2c0,0.7,0.2,1.2,0.5,1.4c-0.1,0.2-0.2,0.3-0.4,0.3
		c-0.1,0-0.3,0.1-0.5,0.1c-0.2,0-0.4-0.1-0.5-0.2C-189.6,424.7-189.7,424.5-189.7,424.4z M-189.8,422.3c-0.2,0-0.4-0.1-0.5-0.1
		c-1,0-1.6,0.3-1.6,1c0,0.5,0.3,0.7,0.9,0.7c0.8,0,1.2-0.4,1.2-1.2V422.3z"/>
	<path fill="#FFFFFF" d="M-182.7,419.9l-0.6,1c-0.3-0.3-0.7-0.4-1.2-0.4c-0.5,0-0.9,0.2-1.2,0.5c-0.3,0.3-0.4,0.8-0.4,1.3
		c0,1.1,0.6,1.7,1.7,1.7c0.5,0,0.9-0.2,1.3-0.5l0.5,1c-0.4,0.2-0.7,0.4-1,0.4c-0.3,0.1-0.6,0.1-1,0.1c-0.9,0-1.6-0.2-2.1-0.7
		s-0.8-1.2-0.8-2.1c0-0.9,0.3-1.6,0.8-2.1c0.6-0.5,1.3-0.8,2.3-0.8C-183.7,419.3-183.2,419.5-182.7,419.9z"/>
	<path fill="#FFFFFF" d="M-181.2,424.9v-4.4h-0.7v-1h2.1v5.5H-181.2z M-180.6,417.3c0.2,0,0.4,0.1,0.5,0.2c0.1,0.1,0.2,0.3,0.2,0.5
		s-0.1,0.4-0.2,0.5s-0.3,0.2-0.5,0.2s-0.4-0.1-0.5-0.2s-0.2-0.3-0.2-0.5s0.1-0.4,0.2-0.5C-181,417.4-180.8,417.3-180.6,417.3z"/>
	<path fill="#FFFFFF" d="M-178.8,422.2c0-0.8,0.2-1.5,0.7-2c0.5-0.5,1.2-0.8,2-0.8c0.9,0,1.5,0.3,2,0.8c0.5,0.5,0.7,1.2,0.7,2.1
		c0,0.9-0.2,1.6-0.7,2.1c-0.5,0.5-1.1,0.8-2,0.8c-0.9,0-1.5-0.3-2-0.8S-178.8,423-178.8,422.2z M-177.4,422.2c0,1.2,0.4,1.8,1.3,1.8
		c0.4,0,0.7-0.2,1-0.5c0.2-0.3,0.4-0.8,0.4-1.3c0-1.2-0.4-1.8-1.3-1.8c-0.4,0-0.7,0.2-1,0.5C-177.3,421.2-177.4,421.6-177.4,422.2z
		 M-174.8,417.2l-1.2,1.5h-1l0.9-1.5H-174.8z"/>
	<path fill="#FFFFFF" d="M-168.7,424.9v-3.2c0-0.5-0.1-0.8-0.3-1c-0.2-0.2-0.5-0.3-0.9-0.3c-0.2,0-0.4,0.1-0.6,0.2
		c-0.2,0.1-0.4,0.2-0.5,0.4v4h-1.3v-5.5h0.9l0.2,0.5c0.4-0.4,0.9-0.6,1.6-0.6c0.7,0,1.2,0.2,1.6,0.6c0.4,0.4,0.6,0.9,0.6,1.6v3.4
		H-168.7z"/>
</g>
</svg>
