<?xml version="1.0" encoding="utf-8"?>
<!-- Generator: Adobe Illustrator 18.1.0, SVG Export Plug-In . SVG Version: 6.00 Build 0)  -->
<!DOCTYPE svg PUBLIC "-//W3C//DTD SVG 1.1//EN" "http://www.w3.org/Graphics/SVG/1.1/DTD/svg11.dtd">
<svg version="1.1" id="Capa_1" xmlns="http://www.w3.org/2000/svg" xmlns:xlink="http://www.w3.org/1999/xlink" x="0px" y="0px"
	 viewBox="-245 399.7 104.3 43.2" enable-background="new -245 399.7 104.3 43.2" xml:space="preserve">
<g>
	<ellipse fill="#285AA3" cx="-192.8" cy="421.3" rx="52.2" ry="21.6"/>
</g>
<rect x="-237.9" y="409.9" fill="none" width="92.3" height="27.6"/>
<g enable-background="new    ">
	<path fill="#FFFFFF" d="M-214.1,411.4v1.8h2.5v1.1h-2.5v2.2h3.5v1.2h-4.9v-7.5h4.9v1.2H-214.1z"/>
	<path fill="#FFFFFF" d="M-206.3,411.1c-0.3-0.1-0.5-0.1-0.7-0.1c-0.2,0-0.5,0.1-0.6,0.3c-0.2,0.2-0.3,0.5-0.3,0.8c0,0,0,0.1,0,0.1
		h1.2v1.1h-1.1v4.4h-1.3v-4.4h-0.8v-1.1h0.8c0-0.7,0.2-1.2,0.6-1.6c0.4-0.4,0.9-0.6,1.5-0.6c0.3,0,0.7,0.1,1.1,0.2L-206.3,411.1z"/>
	<path fill="#FFFFFF" d="M-205.1,417.7v-4.4h-0.7v-1h2.1v5.5H-205.1z M-204.5,410.1c0.2,0,0.4,0.1,0.5,0.2c0.1,0.1,0.2,0.3,0.2,0.5
		s-0.1,0.4-0.2,0.5s-0.3,0.2-0.5,0.2s-0.4-0.1-0.5-0.2s-0.2-0.3-0.2-0.5s0.1-0.4,0.2-0.5C-204.8,410.2-204.7,410.1-204.5,410.1z"/>
	<path fill="#FFFFFF" d="M-197.9,412.6l-0.6,1c-0.3-0.3-0.7-0.4-1.2-0.4c-0.5,0-0.9,0.2-1.2,0.5c-0.3,0.3-0.4,0.8-0.4,1.3
		c0,1.1,0.6,1.7,1.7,1.7c0.5,0,0.9-0.2,1.3-0.5l0.5,1c-0.4,0.2-0.7,0.4-1,0.4s-0.6,0.1-1,0.1c-0.9,0-1.6-0.2-2.1-0.7
		c-0.5-0.5-0.8-1.2-0.8-2.1c0-0.9,0.3-1.6,0.8-2.1c0.6-0.5,1.3-0.8,2.3-0.8C-198.9,412.1-198.3,412.3-197.9,412.6z"/>
	<path fill="#FFFFFF" d="M-196.4,417.7v-4.4h-0.7v-1h2.1v5.5H-196.4z M-195.7,410.1c0.2,0,0.4,0.1,0.5,0.2c0.1,0.1,0.2,0.3,0.2,0.5
		s-0.1,0.4-0.2,0.5s-0.3,0.2-0.5,0.2s-0.4-0.1-0.5-0.2s-0.2-0.3-0.2-0.5s0.1-0.4,0.2-0.5C-196.1,410.2-195.9,410.1-195.7,410.1z"/>
	<path fill="#FFFFFF" d="M-188.5,415.3h-4c0,0.4,0.2,0.8,0.5,1c0.3,0.2,0.7,0.4,1.1,0.4c0.6,0,1.1-0.2,1.4-0.5l0.5,1
		c-0.5,0.4-1.2,0.5-2.1,0.5c-0.9,0-1.5-0.2-2-0.7c-0.5-0.5-0.7-1.2-0.7-2c0-0.9,0.3-1.6,0.8-2.1c0.5-0.5,1.2-0.8,2-0.8
		c0.8,0,1.5,0.2,2,0.7c0.5,0.5,0.7,1.1,0.7,1.8C-188.4,414.8-188.5,415-188.5,415.3z M-192.5,414.4h2.8c-0.1-0.8-0.5-1.2-1.4-1.2
		C-191.9,413.2-192.3,413.6-192.5,414.4z"/>
	<path fill="#FFFFFF" d="M-183.7,417.7v-3.2c0-0.5-0.1-0.8-0.3-1c-0.2-0.2-0.5-0.3-0.9-0.3c-0.2,0-0.4,0.1-0.6,0.2
		c-0.2,0.1-0.4,0.2-0.5,0.4v4h-1.3v-5.5h0.9l0.2,0.5c0.4-0.4,0.9-0.6,1.6-0.6c0.7,0,1.2,0.2,1.6,0.6c0.4,0.4,0.6,0.9,0.6,1.6v3.4
		H-183.7z"/>
	<path fill="#FFFFFF" d="M-176.6,412.6l-0.6,1c-0.3-0.3-0.7-0.4-1.2-0.4c-0.5,0-0.9,0.2-1.2,0.5c-0.3,0.3-0.4,0.8-0.4,1.3
		c0,1.1,0.6,1.7,1.7,1.7c0.5,0,0.9-0.2,1.3-0.5l0.5,1c-0.4,0.2-0.7,0.4-1,0.4c-0.3,0.1-0.6,0.1-1,0.1c-0.9,0-1.6-0.2-2.1-0.7
		c-0.5-0.5-0.8-1.2-0.8-2.1c0-0.9,0.3-1.6,0.8-2.1c0.5-0.5,1.3-0.8,2.3-0.8C-177.6,412.1-177.1,412.3-176.6,412.6z"/>
	<path fill="#FFFFFF" d="M-175.1,417.7v-4.4h-0.7v-1h2.1v5.5H-175.1z M-174.5,410.1c0.2,0,0.4,0.1,0.5,0.2c0.1,0.1,0.2,0.3,0.2,0.5
		s-0.1,0.4-0.2,0.5s-0.3,0.2-0.5,0.2s-0.4-0.1-0.5-0.2s-0.2-0.3-0.2-0.5s0.1-0.4,0.2-0.5C-174.9,410.2-174.7,410.1-174.5,410.1z"/>
	<path fill="#FFFFFF" d="M-169.2,417.1c-0.1,0.2-0.3,0.3-0.6,0.5c-0.3,0.1-0.6,0.2-0.9,0.2c-0.6,0-1.1-0.1-1.4-0.4
		c-0.3-0.3-0.5-0.7-0.5-1.3c0-0.6,0.2-1.1,0.7-1.5c0.5-0.4,1.2-0.5,2.1-0.5c0.2,0,0.3,0,0.5,0.1c0-0.6-0.4-1-1.3-1
		c-0.5,0-0.9,0.1-1.2,0.2l-0.3-1c0.5-0.2,1-0.3,1.6-0.3c0.9,0,1.5,0.2,1.9,0.6c0.4,0.4,0.6,1.1,0.6,2.2v1.2c0,0.7,0.2,1.2,0.5,1.4
		c-0.1,0.2-0.2,0.3-0.4,0.3c-0.1,0-0.3,0.1-0.5,0.1c-0.2,0-0.4-0.1-0.5-0.2C-169,417.5-169.1,417.3-169.2,417.1z M-169.3,415.1
		c-0.2,0-0.4-0.1-0.5-0.1c-1,0-1.6,0.3-1.6,1c0,0.5,0.3,0.7,0.9,0.7c0.8,0,1.2-0.4,1.2-1.2V415.1z"/>
</g>
<g enable-background="new    ">
	<path fill="#FFFFFF" d="M-216,426.5c0-1.1,0.3-2,0.9-2.7s1.4-1.1,2.4-1.1c1.1,0,2,0.3,2.5,1c0.6,0.7,0.9,1.6,0.9,2.8
		c0,1.2-0.3,2.2-0.9,2.9s-1.5,1.1-2.6,1.1c-1,0-1.8-0.4-2.4-1.1C-215.7,428.7-216,427.7-216,426.5z M-214.6,426.5
		c0,0.9,0.2,1.6,0.5,2c0.3,0.5,0.7,0.7,1.3,0.7c0.7,0,1.2-0.2,1.6-0.7c0.4-0.5,0.5-1.2,0.5-2c0-1.8-0.7-2.6-2-2.6
		c-0.6,0-1.1,0.2-1.4,0.7C-214.4,425-214.6,425.7-214.6,426.5z"/>
	<path fill="#FFFFFF" d="M-206.9,430.2v2.3h-1.3v-7.6h1.3v0.4c0.3-0.3,0.7-0.5,1.2-0.5c1.8,0,2.7,1,2.7,2.9c0,0.9-0.2,1.6-0.7,2.1
		s-1.2,0.7-2,0.7C-206.2,430.4-206.6,430.3-206.9,430.2z M-206.9,426.2v2.9c0.2,0.2,0.5,0.3,0.8,0.3c0.6,0,1-0.1,1.3-0.4
		s0.4-0.7,0.4-1.3c0-0.6-0.1-1.1-0.4-1.4c-0.3-0.3-0.7-0.4-1.3-0.4C-206.4,425.8-206.7,425.9-206.9,426.2z"/>
	<path fill="#FFFFFF" d="M-196.8,427.9h-4c0,0.4,0.2,0.8,0.5,1c0.3,0.2,0.7,0.4,1.1,0.4c0.6,0,1.1-0.2,1.4-0.5l0.5,1
		c-0.5,0.4-1.2,0.5-2.1,0.5c-0.9,0-1.5-0.2-2-0.7s-0.7-1.2-0.7-2c0-0.9,0.3-1.6,0.8-2.1c0.5-0.5,1.2-0.8,2-0.8c0.8,0,1.5,0.2,2,0.7
		c0.5,0.5,0.7,1.1,0.7,1.8C-196.7,427.4-196.8,427.6-196.8,427.9z M-200.8,427h2.8c-0.1-0.8-0.5-1.2-1.4-1.2
		C-200.2,425.8-200.6,426.2-200.8,427z"/>
	<path fill="#FFFFFF" d="M-192.4,426c-0.2-0.1-0.5-0.2-0.8-0.2c-0.3,0-0.6,0.1-0.8,0.4c-0.2,0.3-0.4,0.6-0.4,1v3.1h-1.3v-5.5h1.3
		v0.5c0.4-0.4,0.9-0.6,1.5-0.6c0.4,0,0.8,0.1,1,0.2L-192.4,426z"/>
	<path fill="#FFFFFF" d="M-188.3,429.7c-0.1,0.2-0.3,0.3-0.6,0.5s-0.6,0.2-0.9,0.2c-0.6,0-1.1-0.1-1.4-0.4c-0.3-0.3-0.5-0.7-0.5-1.3
		c0-0.6,0.2-1.1,0.7-1.5c0.5-0.4,1.2-0.5,2.1-0.5c0.2,0,0.3,0,0.5,0.1c0-0.6-0.4-1-1.3-1c-0.5,0-0.9,0.1-1.2,0.2l-0.3-1
		c0.5-0.2,1-0.3,1.6-0.3c0.9,0,1.5,0.2,1.9,0.6c0.4,0.4,0.6,1.1,0.6,2.2v1.2c0,0.7,0.2,1.2,0.5,1.4c-0.1,0.2-0.2,0.3-0.4,0.3
		c-0.1,0-0.3,0.1-0.5,0.1c-0.2,0-0.4-0.1-0.5-0.2S-188.2,429.9-188.3,429.7z M-188.4,427.7c-0.2,0-0.4-0.1-0.5-0.1
		c-1,0-1.6,0.3-1.6,1c0,0.5,0.3,0.7,0.9,0.7c0.8,0,1.2-0.4,1.2-1.2V427.7z"/>
	<path fill="#FFFFFF" d="M-185.5,425.8h-0.7v-1h0.7v-1.1l1.3-0.5v1.6h1.5v1h-1.5v2.4c0,0.4,0.1,0.7,0.2,0.8c0.1,0.2,0.3,0.2,0.7,0.2
		c0.3,0,0.6-0.1,0.9-0.3v1.2c-0.3,0.1-0.7,0.2-1.3,0.2c-0.6,0-1-0.2-1.3-0.5c-0.3-0.3-0.5-0.7-0.5-1.3V425.8z"/>
	<path fill="#FFFFFF" d="M-181,430.3v-4.4h-0.7v-1h2.1v5.5H-181z M-180.4,422.7c0.2,0,0.4,0.1,0.5,0.2c0.1,0.1,0.2,0.3,0.2,0.5
		s-0.1,0.4-0.2,0.5c-0.1,0.1-0.3,0.2-0.5,0.2s-0.4-0.1-0.5-0.2c-0.1-0.1-0.2-0.3-0.2-0.5s0.1-0.4,0.2-0.5
		C-180.8,422.8-180.6,422.7-180.4,422.7z"/>
	<path fill="#FFFFFF" d="M-175.8,430.4h-0.5l-2.5-5.6h1.4l1.3,3.3l1.4-3.3h1.4L-175.8,430.4z"/>
	<path fill="#FFFFFF" d="M-169.4,429.7c-0.1,0.2-0.3,0.3-0.6,0.5c-0.3,0.1-0.6,0.2-0.9,0.2c-0.6,0-1.1-0.1-1.4-0.4s-0.5-0.7-0.5-1.3
		c0-0.6,0.2-1.1,0.7-1.5s1.2-0.5,2.1-0.5c0.2,0,0.3,0,0.5,0.1c0-0.6-0.4-1-1.3-1c-0.5,0-0.9,0.1-1.2,0.2l-0.3-1
		c0.5-0.2,1-0.3,1.6-0.3c0.9,0,1.5,0.2,1.9,0.6c0.4,0.4,0.6,1.1,0.6,2.2v1.2c0,0.7,0.2,1.2,0.5,1.4c-0.1,0.2-0.2,0.3-0.4,0.3
		c-0.1,0-0.3,0.1-0.5,0.1c-0.2,0-0.4-0.1-0.5-0.2S-169.3,429.9-169.4,429.7z M-169.5,427.7c-0.2,0-0.4-0.1-0.5-0.1
		c-1,0-1.6,0.3-1.6,1c0,0.5,0.3,0.7,0.9,0.7c0.8,0,1.2-0.4,1.2-1.2V427.7z"/>
</g>
</svg>
