<?xml version="1.0" encoding="utf-8"?>
<!-- Generator: Adobe Illustrator 18.1.0, SVG Export Plug-In . SVG Version: 6.00 Build 0)  -->
<!DOCTYPE svg PUBLIC "-//W3C//DTD SVG 1.1//EN" "http://www.w3.org/Graphics/SVG/1.1/DTD/svg11.dtd">
<svg version="1.1" id="Capa_1" xmlns="http://www.w3.org/2000/svg" xmlns:xlink="http://www.w3.org/1999/xlink" x="0px" y="0px"
	 viewBox="-245 399.6 104.3 43.3" enable-background="new -245 399.6 104.3 43.3" xml:space="preserve">
<g>
	<ellipse fill="#285AA3" cx="-192.8" cy="421.2" rx="52.2" ry="21.6"/>
</g>
<rect x="-239.2" y="410.3" fill="none" width="92.3" height="27.6"/>
<g enable-background="new    ">
	<path fill="#FFFFFF" d="M-233.8,411.8v1.8h2.5v1.1h-2.5v2.2h3.5v1.2h-4.9v-7.5h4.9v1.2H-233.8z"/>
	<path fill="#FFFFFF" d="M-222.6,418.1v-3.4c0-0.7-0.3-1.1-1-1.1c-0.2,0-0.4,0.1-0.6,0.2c-0.2,0.1-0.3,0.2-0.4,0.4v4h-1.3v-3.6
		c0-0.3-0.1-0.5-0.3-0.6s-0.4-0.2-0.7-0.2c-0.2,0-0.3,0.1-0.5,0.2c-0.2,0.1-0.3,0.3-0.4,0.4v3.9h-1.3v-5.5h0.9l0.3,0.5
		c0.4-0.4,0.8-0.6,1.4-0.6c0.7,0,1.3,0.2,1.7,0.6c0.2-0.2,0.4-0.3,0.7-0.4s0.6-0.2,0.9-0.2c0.6,0,1.1,0.2,1.5,0.5
		c0.3,0.3,0.5,0.8,0.5,1.4v3.6H-222.6z"/>
	<path fill="#FFFFFF" d="M-218.7,417.9v2.3h-1.3v-7.6h1.3v0.4c0.3-0.3,0.7-0.5,1.2-0.5c1.8,0,2.7,1,2.7,2.9c0,0.9-0.2,1.6-0.7,2.1
		s-1.2,0.7-2,0.7C-218,418.2-218.3,418.1-218.7,417.9z M-218.7,413.9v2.9c0.2,0.2,0.5,0.3,0.8,0.3c0.6,0,1-0.1,1.3-0.4
		c0.3-0.3,0.4-0.7,0.4-1.3c0-0.6-0.1-1.1-0.4-1.4c-0.3-0.3-0.7-0.4-1.3-0.4C-218.1,413.6-218.4,413.7-218.7,413.9z"/>
	<path fill="#FFFFFF" d="M-214,415.3c0-0.8,0.2-1.5,0.7-2c0.5-0.5,1.2-0.8,2-0.8c0.9,0,1.5,0.3,2,0.8s0.7,1.2,0.7,2.1
		c0,0.9-0.2,1.6-0.7,2.1c-0.5,0.5-1.1,0.8-2,0.8c-0.9,0-1.5-0.3-2-0.8S-214,416.2-214,415.3z M-212.6,415.3c0,1.2,0.4,1.8,1.3,1.8
		c0.4,0,0.7-0.2,1-0.5c0.2-0.3,0.4-0.8,0.4-1.3c0-1.2-0.4-1.8-1.3-1.8c-0.4,0-0.7,0.2-1,0.5C-212.5,414.3-212.6,414.8-212.6,415.3z"
		/>
	<path fill="#FFFFFF" d="M-203.9,418.1v-0.3c-0.1,0.1-0.3,0.2-0.6,0.3s-0.5,0.1-0.8,0.1c-0.8,0-1.4-0.2-1.9-0.7
		c-0.5-0.5-0.7-1.2-0.7-2s0.3-1.6,0.8-2.1c0.5-0.5,1.2-0.8,1.9-0.8c0.4,0,0.8,0.1,1.2,0.3v-2.2l1.3-0.3v7.8H-203.9z M-203.9,413.9
		c-0.3-0.2-0.6-0.3-0.9-0.3c-0.5,0-0.9,0.2-1.2,0.5c-0.3,0.3-0.4,0.8-0.4,1.3c0,1.1,0.6,1.7,1.7,1.7c0.1,0,0.3,0,0.5-0.1
		s0.3-0.1,0.4-0.2V413.9z"/>
	<path fill="#FFFFFF" d="M-196.2,415.7h-4c0,0.4,0.2,0.8,0.5,1c0.3,0.2,0.7,0.4,1.1,0.4c0.6,0,1.1-0.2,1.4-0.5l0.5,1
		c-0.5,0.4-1.2,0.5-2.1,0.5c-0.9,0-1.5-0.2-2-0.7c-0.5-0.5-0.7-1.2-0.7-2c0-0.9,0.3-1.6,0.8-2.1c0.5-0.5,1.2-0.8,2-0.8
		c0.8,0,1.5,0.2,2,0.7c0.5,0.5,0.7,1.1,0.7,1.8C-196.1,415.2-196.2,415.4-196.2,415.7z M-200.2,414.8h2.8c-0.1-0.8-0.5-1.2-1.4-1.2
		C-199.6,413.6-200,414-200.2,414.8z"/>
	<path fill="#FFFFFF" d="M-191.8,413.8c-0.2-0.1-0.5-0.2-0.8-0.2c-0.3,0-0.6,0.1-0.8,0.4c-0.2,0.3-0.4,0.6-0.4,1v3.1h-1.3v-5.5h1.3
		v0.5c0.4-0.4,0.9-0.6,1.5-0.6c0.4,0,0.8,0.1,1,0.2L-191.8,413.8z"/>
	<path fill="#FFFFFF" d="M-187.7,417.5c-0.1,0.2-0.3,0.3-0.6,0.5c-0.3,0.1-0.6,0.2-0.9,0.2c-0.6,0-1.1-0.1-1.4-0.4
		c-0.3-0.3-0.5-0.7-0.5-1.3c0-0.6,0.2-1.1,0.7-1.5c0.5-0.4,1.2-0.5,2.1-0.5c0.2,0,0.3,0,0.5,0.1c0-0.6-0.4-1-1.3-1
		c-0.5,0-0.9,0.1-1.2,0.2l-0.3-1c0.5-0.2,1-0.3,1.6-0.3c0.9,0,1.5,0.2,1.9,0.6c0.4,0.4,0.6,1.1,0.6,2.2v1.2c0,0.7,0.2,1.2,0.5,1.4
		c-0.1,0.2-0.2,0.3-0.4,0.3c-0.1,0-0.3,0.1-0.5,0.1c-0.2,0-0.4-0.1-0.5-0.2C-187.5,417.8-187.6,417.7-187.7,417.5z M-187.8,415.5
		c-0.2,0-0.4-0.1-0.5-0.1c-1,0-1.6,0.3-1.6,1c0,0.5,0.3,0.7,0.9,0.7c0.8,0,1.2-0.4,1.2-1.2V415.5z"/>
	<path fill="#FFFFFF" d="M-178.6,418.1v-3.4c0-0.7-0.3-1.1-1-1.1c-0.2,0-0.4,0.1-0.6,0.2c-0.2,0.1-0.3,0.2-0.4,0.4v4h-1.3v-3.6
		c0-0.3-0.1-0.5-0.3-0.6s-0.4-0.2-0.7-0.2c-0.2,0-0.3,0.1-0.5,0.2c-0.2,0.1-0.3,0.3-0.4,0.4v3.9h-1.3v-5.5h0.9l0.3,0.5
		c0.4-0.4,0.8-0.6,1.4-0.6c0.7,0,1.3,0.2,1.7,0.6c0.2-0.2,0.4-0.3,0.7-0.4s0.6-0.2,0.9-0.2c0.6,0,1.1,0.2,1.5,0.5
		c0.3,0.3,0.5,0.8,0.5,1.4v3.6H-178.6z"/>
	<path fill="#FFFFFF" d="M-175.5,418.1v-4.4h-0.7v-1h2.1v5.5H-175.5z M-174.8,410.5c0.2,0,0.4,0.1,0.5,0.2c0.1,0.1,0.2,0.3,0.2,0.5
		s-0.1,0.4-0.2,0.5c-0.1,0.1-0.3,0.2-0.5,0.2c-0.2,0-0.4-0.1-0.5-0.2c-0.1-0.1-0.2-0.3-0.2-0.5s0.1-0.4,0.2-0.5
		C-175.2,410.6-175,410.5-174.8,410.5z"/>
	<path fill="#FFFFFF" d="M-167.6,415.7h-4c0,0.4,0.2,0.8,0.5,1c0.3,0.2,0.7,0.4,1.1,0.4c0.6,0,1.1-0.2,1.4-0.5l0.5,1
		c-0.5,0.4-1.2,0.5-2.1,0.5c-0.9,0-1.5-0.2-2-0.7c-0.5-0.5-0.7-1.2-0.7-2c0-0.9,0.3-1.6,0.8-2.1s1.2-0.8,2-0.8c0.8,0,1.5,0.2,2,0.7
		c0.5,0.5,0.7,1.1,0.7,1.8C-167.5,415.2-167.5,415.4-167.6,415.7z M-171.6,414.8h2.8c-0.1-0.8-0.5-1.2-1.4-1.2
		C-170.9,413.6-171.4,414-171.6,414.8z"/>
	<path fill="#FFFFFF" d="M-162.8,418.1v-3.2c0-0.5-0.1-0.8-0.3-1c-0.2-0.2-0.5-0.3-0.9-0.3c-0.2,0-0.4,0.1-0.6,0.2
		c-0.2,0.1-0.4,0.2-0.5,0.4v4h-1.3v-5.5h0.9l0.2,0.5c0.4-0.4,0.9-0.6,1.6-0.6c0.7,0,1.2,0.2,1.6,0.6c0.4,0.4,0.6,0.9,0.6,1.6v3.4
		H-162.8z"/>
	<path fill="#FFFFFF" d="M-159.9,413.6h-0.7v-1h0.7v-1.1l1.3-0.5v1.6h1.5v1h-1.5v2.4c0,0.4,0.1,0.7,0.2,0.8c0.1,0.2,0.3,0.2,0.7,0.2
		c0.3,0,0.6-0.1,0.9-0.3v1.2c-0.3,0.1-0.7,0.2-1.3,0.2c-0.6,0-1-0.2-1.3-0.5c-0.3-0.3-0.5-0.7-0.5-1.3V413.6z"/>
	<path fill="#FFFFFF" d="M-156.2,415.3c0-0.8,0.2-1.5,0.7-2c0.5-0.5,1.2-0.8,2-0.8c0.9,0,1.5,0.3,2,0.8c0.5,0.5,0.7,1.2,0.7,2.1
		c0,0.9-0.2,1.6-0.7,2.1c-0.5,0.5-1.1,0.8-2,0.8c-0.9,0-1.5-0.3-2-0.8S-156.2,416.2-156.2,415.3z M-154.8,415.3
		c0,1.2,0.4,1.8,1.3,1.8c0.4,0,0.7-0.2,1-0.5c0.2-0.3,0.4-0.8,0.4-1.3c0-1.2-0.4-1.8-1.3-1.8c-0.4,0-0.7,0.2-1,0.5
		C-154.7,414.3-154.8,414.8-154.8,415.3z"/>
</g>
<g enable-background="new    ">
	<path fill="#FFFFFF" d="M-207.3,430.3l0.5-1.2c0.5,0.4,1.1,0.6,1.6,0.6c0.8,0,1.2-0.3,1.2-0.8c0-0.3-0.1-0.5-0.3-0.7
		c-0.2-0.2-0.6-0.5-1.2-0.8c-0.6-0.3-1-0.5-1.2-0.7s-0.4-0.4-0.5-0.7s-0.2-0.5-0.2-0.8c0-0.6,0.2-1.1,0.7-1.4c0.4-0.4,1-0.6,1.7-0.6
		c0.9,0,1.5,0.2,2,0.5l-0.4,1.1c-0.5-0.3-1-0.5-1.5-0.5c-0.3,0-0.6,0.1-0.7,0.2c-0.2,0.2-0.3,0.4-0.3,0.6c0,0.4,0.5,0.9,1.5,1.3
		c0.5,0.2,0.9,0.5,1.1,0.7c0.2,0.2,0.4,0.4,0.5,0.7c0.1,0.3,0.2,0.6,0.2,0.9c0,0.6-0.2,1.1-0.7,1.5c-0.5,0.4-1.2,0.6-2,0.6
		C-206,430.8-206.7,430.6-207.3,430.3z"/>
	<path fill="#FFFFFF" d="M-201.8,427.9c0-0.8,0.2-1.5,0.7-2c0.5-0.5,1.2-0.8,2-0.8c0.9,0,1.5,0.3,2,0.8s0.7,1.2,0.7,2.1
		c0,0.9-0.2,1.6-0.7,2.1c-0.5,0.5-1.1,0.8-2,0.8c-0.9,0-1.5-0.3-2-0.8S-201.8,428.8-201.8,427.9z M-200.5,427.9
		c0,1.2,0.4,1.8,1.3,1.8c0.4,0,0.7-0.2,1-0.5c0.2-0.3,0.4-0.8,0.4-1.3c0-1.2-0.4-1.8-1.3-1.8c-0.4,0-0.7,0.2-1,0.5
		C-200.4,426.9-200.5,427.4-200.5,427.9z"/>
	<path fill="#FFFFFF" d="M-191,425.6l-0.6,1c-0.3-0.3-0.7-0.4-1.2-0.4c-0.5,0-0.9,0.2-1.2,0.5s-0.4,0.8-0.4,1.3
		c0,1.1,0.6,1.7,1.7,1.7c0.5,0,0.9-0.2,1.3-0.5l0.5,1c-0.4,0.2-0.7,0.4-1,0.4c-0.3,0.1-0.6,0.1-1,0.1c-0.9,0-1.6-0.2-2.1-0.7
		s-0.8-1.2-0.8-2.1c0-0.9,0.3-1.6,0.8-2.1s1.3-0.8,2.3-0.8C-192,425.1-191.4,425.3-191,425.6z"/>
	<path fill="#FFFFFF" d="M-189.5,430.7v-4.4h-0.7v-1h2.1v5.5H-189.5z M-188.8,423.1c0.2,0,0.4,0.1,0.5,0.2c0.1,0.1,0.2,0.3,0.2,0.5
		c0,0.2-0.1,0.4-0.2,0.5c-0.1,0.1-0.3,0.2-0.5,0.2c-0.2,0-0.4-0.1-0.5-0.2c-0.1-0.1-0.2-0.3-0.2-0.5c0-0.2,0.1-0.4,0.2-0.5
		C-189.2,423.2-189,423.1-188.8,423.1z"/>
	<path fill="#FFFFFF" d="M-183.5,430.1c-0.1,0.2-0.3,0.3-0.6,0.5c-0.3,0.1-0.6,0.2-0.9,0.2c-0.6,0-1.1-0.1-1.4-0.4s-0.5-0.7-0.5-1.3
		c0-0.6,0.2-1.1,0.7-1.5c0.5-0.4,1.2-0.5,2.1-0.5c0.2,0,0.3,0,0.5,0.1c0-0.6-0.4-1-1.3-1c-0.5,0-0.9,0.1-1.2,0.2l-0.3-1
		c0.5-0.2,1-0.3,1.6-0.3c0.9,0,1.5,0.2,1.9,0.6c0.4,0.4,0.6,1.1,0.6,2.2v1.2c0,0.7,0.2,1.2,0.5,1.4c-0.1,0.2-0.2,0.3-0.4,0.3
		c-0.1,0-0.3,0.1-0.5,0.1c-0.2,0-0.4-0.1-0.5-0.2C-183.4,430.4-183.5,430.3-183.5,430.1z M-183.7,428.1c-0.2,0-0.4-0.1-0.5-0.1
		c-1,0-1.6,0.3-1.6,1c0,0.5,0.3,0.7,0.9,0.7c0.8,0,1.2-0.4,1.2-1.2V428.1z"/>
	<path fill="#FFFFFF" d="M-180.7,423.2l1.3-0.3v6.2c0,0.7,0.2,1.1,0.6,1.2c-0.2,0.4-0.5,0.6-1,0.6c-0.6,0-0.9-0.4-0.9-1.2V423.2z"/>
</g>
</svg>
