<!-- Generator: Adobe Illustrator 18.1.0, SVG Export Plug-In  -->
<svg version="1.1"
	 xmlns="http://www.w3.org/2000/svg" xmlns:xlink="http://www.w3.org/1999/xlink" xmlns:a="http://ns.adobe.com/AdobeSVGViewerExtensions/3.0/"
	 x="0px" y="0px" width="240.4px" height="107.3px" viewBox="0 0 240.4 107.3" enable-background="new 0 0 240.4 107.3"
	 xml:space="preserve">
<defs>
</defs>
<g>
	<g>
		<line fill="#1D71B8" x1="97.7" y1="41.8" x2="97.6" y2="5.2"/>
		
			<rect x="79.4" y="22.4" transform="matrix(3.847665e-003 1 -1 3.847665e-003 120.7408 -74.2219)" fill="#1D71B8" width="36.5" height="2.1"/>
	</g>
	<g>
		<polygon fill="#1D71B8" points="102.1,7.6 93.1,7.6 98,0.5 		"/>
		<path fill="#1D71B8" d="M102.6,7.8h-10L98,0L102.6,7.8z M93.6,7.3h8.1L98,1L93.6,7.3z"/>
	</g>
</g>
<g>
	<g>
		<line fill="#1D71B8" x1="233.2" y1="107" x2="236.6" y2="97.1"/>
		
			<rect x="233.8" y="96.8" transform="matrix(0.947 0.3212 -0.3212 0.947 45.2288 -70.0467)" fill="#1D71B8" width="2.1" height="10.4"/>
	</g>
	<g>
		<polygon fill="#1D71B8" points="240.1,100.9 231.6,97.8 238.6,92.8 		"/>
		<path fill="#1D71B8" d="M240.4,101.3l-9.4-3.4l7.8-5.5L240.4,101.3z M232.1,97.7l7.6,2.8l-1.3-7.2L232.1,97.7z"/>
	</g>
</g>
<g>
	<g>
		<line fill="#1D71B8" x1="182.2" y1="100.6" x2="155.3" y2="6.2"/>
		
			<rect x="119.7" y="52.4" transform="matrix(0.2738 0.9618 -0.9618 0.2738 173.9408 -123.5211)" fill="#1D71B8" width="98.2" height="2.1"/>
	</g>
	<g>
		<polygon fill="#1D71B8" points="160.3,7.4 151.6,9.5 154.6,1.5 		"/>
		<path fill="#1D71B8" d="M151.1,9.9l3.4-8.9l6.3,6.5L151.1,9.9z M154.7,2L152,9.2l7.8-1.9L154.7,2z"/>
	</g>
</g>
<g>
	<g>
		<line fill="#1D71B8" x1="0.8" y1="102.2" x2="77.3" y2="5.9"/>
		
			<rect x="38" y="-7.4" transform="matrix(0.7835 0.6214 -0.6214 0.7835 42.0538 -12.5599)" fill="#1D71B8" width="2.1" height="123"/>
	</g>
	<g>
		<polygon fill="#1D71B8" points="79.8,10.4 72.3,5.4 80.2,2.2 		"/>
		<path fill="#1D71B8" d="M80.1,10.9l-8.3-5.5l8.8-3.6L80.1,10.9z M72.8,5.5l6.7,4.4L80,2.6L72.8,5.5z"/>
	</g>
</g>
</svg>
