<!-- Generator: Adobe Illustrator 18.1.0, SVG Export Plug-In  -->
<svg version="1.1"
	 xmlns="http://www.w3.org/2000/svg" xmlns:xlink="http://www.w3.org/1999/xlink" xmlns:a="http://ns.adobe.com/AdobeSVGViewerExtensions/3.0/"
	 x="0px" y="0px" width="172px" height="149.9px" viewBox="0 0 172 149.9" enable-background="new 0 0 172 149.9"
	 xml:space="preserve">
<defs>
</defs>
<g>
	<g>
		<line fill="#1D71B8" x1="71.8" y1="57" x2="71.8" y2="5.2"/>
		
			<rect x="45.9" y="30.1" transform="matrix(2.259771e-004 1 -1 2.259771e-004 102.8773 -40.6681)" fill="#1D71B8" width="51.8" height="2.1"/>
	</g>
	<g>
		<polygon fill="#1D71B8" points="76.4,7.6 67.3,7.6 72.2,0.5 		"/>
		<path fill="#1D71B8" d="M76.8,7.8h-10L72.2,0L76.8,7.8z M67.8,7.3h8.1L72.2,1L67.8,7.3z"/>
	</g>
</g>
<g>
	<g>
		<line fill="#1D71B8" x1="167.2" y1="118" x2="166.9" y2="64.1"/>
		
			<rect x="140.1" y="90" transform="matrix(4.948671e-003 1 -1 4.948671e-003 257.2855 -76.4739)" fill="#1D71B8" width="53.9" height="2.1"/>
	</g>
	<g>
		<polygon fill="#1D71B8" points="171.5,66.5 162.5,66.5 167.4,59.4 		"/>
		<path fill="#1D71B8" d="M172,66.7h-10l5.4-7.8L172,66.7z M163,66.2h8.1l-3.7-6.3L163,66.2z"/>
	</g>
</g>
<g>
	<g>
		<line fill="#1D71B8" x1="99.6" y1="144.8" x2="52" y2="145"/>
		
			<rect x="74.8" y="121.1" transform="matrix(4.186336e-003 1 -1 4.186336e-003 220.4196 68.478)" fill="#1D71B8" width="2.1" height="47.6"/>
	</g>
	<g>
		<polygon fill="#1D71B8" points="54.3,140.4 54.3,149.4 47.3,144.6 		"/>
		<path fill="#1D71B8" d="M54.6,149.9l-7.8-5.4l7.8-4.6V149.9z M47.8,144.6l6.3,4.4v-8.1L47.8,144.6z"/>
	</g>
</g>
<g>
	<g>
		<line fill="#1D71B8" x1="0.8" y1="118" x2="11.5" y2="105.3"/>
		
			<rect x="5.1" y="103.3" transform="matrix(0.7646 0.6445 -0.6445 0.7646 73.4082 22.3072)" fill="#1D71B8" width="2.1" height="16.6"/>
	</g>
	<g>
		<polygon fill="#1D71B8" points="14.1,109.8 6.5,104.8 14.5,101.6 		"/>
		<path fill="#1D71B8" d="M14.3,110.2L6,104.7l8.8-3.6L14.3,110.2z M7.1,104.8l6.7,4.4l0.4-7.3L7.1,104.8z"/>
	</g>
</g>
<g>
	<g>
		<line fill="#1D71B8" x1="65.5" y1="56.5" x2="47" y2="39.7"/>
		<rect x="43.7" y="47" transform="matrix(0.74 0.6726 -0.6726 0.74 46.9475 -25.3133)" fill="#1D71B8" width="25" height="2.1"/>
	</g>
	<g>
		<polygon fill="#1D71B8" points="51.7,37.7 45.8,44.6 43.7,36.2 		"/>
		<path fill="#1D71B8" d="M45.7,45.1l-2.4-9.2l8.9,1.7L45.7,45.1z M44,36.6L46,44l5.3-6.1L44,36.6z"/>
	</g>
</g>
<g>
	<g>
		<line fill="#1D71B8" x1="160.6" y1="116.9" x2="142.1" y2="100.1"/>
		
			<rect x="138.9" y="107.5" transform="matrix(0.7401 0.6725 -0.6725 0.7401 112.3387 -73.5967)" fill="#1D71B8" width="25" height="2.1"/>
	</g>
	<g>
		<polygon fill="#1D71B8" points="146.9,98.2 141,105 138.8,96.7 		"/>
		<path fill="#1D71B8" d="M140.9,105.6l-2.4-9.2l8.9,1.7L140.9,105.6z M139.2,97l1.9,7.4l5.3-6.1L139.2,97z"/>
	</g>
</g>
<g>
	<g>
		<line fill="#1D71B8" x1="78.9" y1="56.5" x2="97.4" y2="39.7"/>
		
			<rect x="87.1" y="35.6" transform="matrix(0.6727 0.7399 -0.7399 0.6727 64.4287 -49.4985)" fill="#1D71B8" width="2.1" height="25"/>
	</g>
	<g>
		<polygon fill="#1D71B8" points="92.6,37.7 98.6,44.6 100.7,36.2 		"/>
		<path fill="#1D71B8" d="M98.7,45.1l-6.5-7.5l8.9-1.7L98.7,45.1z M93.1,37.9l5.3,6.1l1.9-7.4L93.1,37.9z"/>
	</g>
</g>
</svg>
