<!-- Generator: Adobe Illustrator 18.0.0, SVG Export Plug-In  -->
<svg version="1.1"
	 xmlns="http://www.w3.org/2000/svg" xmlns:xlink="http://www.w3.org/1999/xlink" xmlns:a="http://ns.adobe.com/AdobeSVGViewerExtensions/3.0/"
	 x="0px" y="0px" width="339.7px" height="179.8px" viewBox="0 0 339.7 179.8" enable-background="new 0 0 339.7 179.8"
	 xml:space="preserve">
<defs>
</defs>
<g>
	<g>
		<polygon fill="#285AA3" points="103.9,4.9 235.8,5.2 235.8,7.1 103.9,6.9 		"/>
	</g>
	<g>
		<polygon fill="#285AA3" points="106.1,0.6 106.1,11.2 99.3,5.5 		"/>
	</g>
</g>
<g>
	<g>
		<line fill="#4470B4" x1="85" y1="103.7" x2="115.1" y2="63.3"/>
		<polygon fill="#4470B4" points="85.4,104 84.6,103.3 114.6,62.9 115.5,63.6 		"/>
	</g>
	<g>
		<polygon fill="#4470B4" points="116.8,66.5 110.9,63 117.2,60.8 		"/>
		<path fill="#4470B4" d="M117,66.9l-6.5-3.9l6.9-2.4L117,66.9z M111.4,63.1l5.2,3.1l0.4-5.1L111.4,63.1z"/>
	</g>
</g>
<g>
	<g>
		<polygon fill="#4470B4" points="6.5,19.3 10.6,27.7 16.8,20.4 		"/>
	</g>
	<g>
		<polygon fill="#4470B4" points="0,179 27.3,179 27.3,175.9 2.1,175.9 2.2,30.5 10.5,24.7 9.5,22.7 0,29.6 		"/>
	</g>
</g>
<g>
	<g>
		<polygon fill="#4470B4" points="244.6,61 239.8,71.1 234.3,61 		"/>
	</g>
	<g>
		<polygon fill="#4470B4" points="329.2,174.4 310.8,174.4 310.8,172.4 326.9,172.4 326.9,82 239.4,65.6 241.8,63.5 329.2,80.1 		
			"/>
	</g>
</g>
<g>
	<g>
		<polygon fill="#4470B4" points="332.9,0 332.7,10.2 324.2,4.6 		"/>
	</g>
	<g>
		<polygon fill="#4470B4" points="339.7,179.8 312.8,179.8 312.8,178.3 338.1,178.3 338.1,4.6 330.8,4.6 330.8,3.1 339.7,3.1 		"/>
	</g>
</g>
</svg>
