<!-- Generator: Adobe Illustrator 18.0.0, SVG Export Plug-In  -->
<svg version="1.1"
	 xmlns="http://www.w3.org/2000/svg" xmlns:xlink="http://www.w3.org/1999/xlink" xmlns:a="http://ns.adobe.com/AdobeSVGViewerExtensions/3.0/"
	 x="0px" y="0px" width="359.7px" height="346.9px" viewBox="0 0 359.7 346.9" enable-background="new 0 0 359.7 346.9"
	 xml:space="preserve">
<defs>
</defs>
<g>
	<g>
		<line fill="#4470B4" x1="246" y1="17.2" x2="231.7" y2="4.6"/>
		<polygon fill="#4470B4" points="245.4,17.8 231.2,5.2 232.3,4 246.5,16.6 		"/>
	</g>
	<g>
		<polygon fill="#4470B4" points="235.4,3.2 230.8,8.3 229.2,2.1 		"/>
		<path fill="#4470B4" d="M230.7,8.7l-1.8-6.9l6.9,1.2L230.7,8.7z M229.5,2.3l1.5,5.6l4.1-4.6L229.5,2.3z"/>
	</g>
</g>
<g>
	<g>
		<line fill="#4470B4" x1="111.4" y1="17" x2="124" y2="2.8"/>
		<polygon fill="#4470B4" points="110.8,16.5 123.4,2.3 124.6,3.3 112,17.6 		"/>
	</g>
	<g>
		<polygon fill="#4470B4" points="125.4,6.5 120.3,1.9 126.6,0.3 		"/>
		<path fill="#4470B4" d="M119.9,1.8l6.9-1.8l-1.2,6.9L119.9,1.8z M126.3,0.6L120.8,2l4.6,4.1L126.3,0.6z"/>
	</g>
</g>
<g>
	<g>
		<line fill="#4470B4" x1="67.4" y1="88.7" x2="68.1" y2="60.9"/>
		<polygon fill="#4470B4" points="66.6,88.7 67.3,60.9 68.9,60.9 68.2,88.7 		"/>
	</g>
	<g>
		<polygon fill="#4470B4" points="71.5,62.7 64.7,62.6 68.4,57.3 		"/>
		<path fill="#4470B4" d="M64.3,62.8l4-5.9l3.5,6L64.3,62.8z M68.3,57.7l-3.3,4.8l6.1,0.1L68.3,57.7z"/>
	</g>
</g>
<g>
	<g>
		
			<rect x="128.9" y="33.6" transform="matrix(-1 -2.505928e-003 2.505928e-003 -1 348.6448 69.5373)" fill="#285AA3" width="91" height="2"/>
	</g>
	<g>
		<polygon fill="#285AA3" points="219.5,39.4 219.5,29.9 226.3,35.1 		"/>
	</g>
</g>
<g>
	<g>
		<polygon fill="#4470B4" points="11.1,28.3 11.3,44.6 20.3,35.6 		"/>
	</g>
	<g>
		<polygon fill="#4470B4" points="0,346.9 56.3,346.9 56.3,344.2 2.1,344.2 2.1,37.4 12.4,37.4 12.4,34.7 0,34.7 		"/>
	</g>
</g>
<g>
	<g>
		<polygon fill="#4470B4" points="336.9,26.7 336.7,36.9 328.2,31.3 		"/>
	</g>
	<g>
		<polygon fill="#4470B4" points="359.7,342 299.3,342 299.3,339.3 357.2,339.3 357.2,32 335.8,32 335.8,29.3 359.7,29.3 		"/>
	</g>
</g>
</svg>
