<!-- Generator: Adobe Illustrator 18.0.0, SVG Export Plug-In  -->
<svg version="1.1"
	 xmlns="http://www.w3.org/2000/svg" xmlns:xlink="http://www.w3.org/1999/xlink" xmlns:a="http://ns.adobe.com/AdobeSVGViewerExtensions/3.0/"
	 x="0px" y="0px" width="150px" height="134.8px" viewBox="0 0 150 134.8" enable-background="new 0 0 150 134.8"
	 xml:space="preserve">
<defs>
</defs>
<g>
	<g>
		<line fill="#4470B4" x1="137" y1="121.6" x2="146.5" y2="95.6"/>
		<polygon fill="#4470B4" points="138,121.9 136,121.3 145.5,95.3 147.5,95.9 		"/>
	</g>
	<g>
		<polygon fill="#4470B4" points="141.2,96.5 149.7,99.5 147.9,90.6 		"/>
		<path fill="#4470B4" d="M150,99.9l-9.4-3.3l7.4-6.6L150,99.9z M141.8,96.4l7.6,2.7l-1.6-8L141.8,96.4z"/>
	</g>
</g>
<g>
	<g>
		<polyline fill="#4470B4" points="111.5,8.1 112.4,9.8 28.3,54.7 26.9,52.8 		"/>
	</g>
	<g>
		<polygon fill="#4470B4" points="25.5,48.4 31.3,57.1 21.4,57.1 		"/>
	</g>
</g>
<g>
	<g>
		<polyline fill="#4470B4" points="104.5,73.4 105.4,75 39.8,111.7 38.4,109.8 		"/>
	</g>
	<g>
		<polygon fill="#4470B4" points="37,105.4 42.8,114.1 32.9,114.1 		"/>
	</g>
</g>
<g>
	<g>
		<polyline fill="#4470B4" points="0,15.8 0.6,13.6 100.2,48.3 99.8,51.1 		"/>
	</g>
	<g>
		<polygon fill="#4470B4" points="97.5,56.2 99.8,43.4 107.4,52.2 		"/>
	</g>
</g>
<g>
	<g>
		<line fill="#4470B4" x1="79.9" y1="129.4" x2="52.2" y2="129.8"/>
		<polygon fill="#4470B4" points="79.8,128.3 79.9,130.4 52.3,130.8 52.2,128.7 		"/>
	</g>
	<g>
		<polygon fill="#4470B4" points="54.9,134.3 54.7,125.4 47,130.2 		"/>
		<path fill="#4470B4" d="M55,124.9l0.2,9.9l-8.8-4.6L55,124.9z M54.6,133.9l-0.2-8l-6.9,4.3L54.6,133.9z"/>
	</g>
</g>
<g>
	<g>
		<line fill="#4470B4" x1="1" y1="5.4" x2="103.3" y2="5"/>
		<polygon fill="#4470B4" points="1.2,6.5 0.8,4.4 103.1,4 103.4,6.1 		"/>
	</g>
	<g>
		<polygon fill="#4470B4" points="100.7,0.5 100.9,9.4 108.6,4.6 		"/>
		<path fill="#4470B4" d="M100.6,9.9L100.4,0l8.8,4.6L100.6,9.9z M101,0.9l0.2,8l6.9-4.3L101,0.9z"/>
	</g>
</g>
<g>
	<g>
		<line fill="#4470B4" x1="101.5" y1="64" x2="31.2" y2="64.4"/>
		<polygon fill="#4470B4" points="101.3,63 101.6,65.1 31.3,65.4 31.1,63.3 		"/>
	</g>
	<g>
		<polygon fill="#4470B4" points="33.8,69 33.6,60 25.9,64.8 		"/>
		<path fill="#4470B4" d="M33.9,59.5l0.2,9.9l-8.8-4.6L33.9,59.5z M33.5,68.5l-0.2-8l-6.9,4.3L33.5,68.5z"/>
	</g>
</g>
</svg>
