<!-- Generator: Adobe Illustrator 18.1.0, SVG Export Plug-In  -->
<svg version="1.1"
	 xmlns="http://www.w3.org/2000/svg" xmlns:xlink="http://www.w3.org/1999/xlink" xmlns:a="http://ns.adobe.com/AdobeSVGViewerExtensions/3.0/"
	 x="0px" y="0px" width="321.1px" height="422.1px" viewBox="0 0 321.1 422.1" enable-background="new 0 0 321.1 422.1"
	 xml:space="preserve">
<defs>
</defs>
<g>
	<g>
		
			<rect x="166.8" y="48.3" transform="matrix(0.9205 0.3908 -0.3908 0.9205 36.5225 -80.7146)" fill="#0059A7" width="99.5" height="2.2"/>
	</g>
	<g>
		<polygon fill="#0059A7" points="173.3,25.2 169.1,35 164.4,26.8 		"/>
	</g>
</g>
<g>
	<g>
		
			<rect x="160.4" y="75.5" transform="matrix(1 -2.504713e-003 2.504713e-003 1 -0.1903 0.4492)" fill="#0059A7" width="37.8" height="1.4"/>
	</g>
	<g>
		<polygon fill="#0059A7" points="162.3,72.9 162.1,79.6 157.5,75.8 		"/>
	</g>
</g>
<g>
	<g>
		
			<rect x="0" y="75.6" transform="matrix(-1 2.504735e-003 -2.504735e-003 -1 38.0024 152.4519)" fill="#0059A7" width="37.8" height="1.4"/>
	</g>
	<g>
		<polygon fill="#0059A7" points="35.8,79.6 36,72.9 40.7,76.7 		"/>
	</g>
</g>
<g>
	<polygon fill="#1D71B8" points="306.2,61 306,73.6 297.2,66.7 	"/>
</g>
<g>
	<polygon fill="#1D71B8" points="175.8,0 175.6,12.6 166.8,5.7 	"/>
</g>
<g>
	<polygon fill="#1D71B8" points="312.7,308.5 300.3,308.5 300.3,306.4 310.6,306.4 310.6,68 300.5,68 300.5,65.9 312.7,65.9 	"/>
</g>
<g>
	<polygon fill="#1D71B8" points="321.1,422.1 301.8,422.1 301.8,420 319,420 319,6.5 174.1,6.5 174.1,4.4 321.1,4.4 	"/>
</g>
</svg>
