<!-- Generator: Adobe Illustrator 18.1.0, SVG Export Plug-In  -->
<svg version="1.1"
	 xmlns="http://www.w3.org/2000/svg" xmlns:xlink="http://www.w3.org/1999/xlink" xmlns:a="http://ns.adobe.com/AdobeSVGViewerExtensions/3.0/"
	 x="0px" y="0px" width="111.3px" height="47.4px" viewBox="0 0 111.3 47.4" enable-background="new 0 0 111.3 47.4"
	 xml:space="preserve">
<defs>
</defs>
<g>
	<ellipse fill="#36A9E1" cx="55.6" cy="23.7" rx="55.6" ry="23.7"/>
</g>
<g>
	<path fill="#FFFFFF" d="M14.5,21v2h3v1.3h-3v3.9H13v-8.6h5.7V21H14.5z"/>
	<path fill="#FFFFFF" d="M20,28.2v-8.6h1.5v7.2h3.9v1.4H20z"/>
	<path fill="#FFFFFF" d="M26.6,19.6h1.5v5.8c0,0.5,0.1,0.8,0.4,1.1s0.7,0.4,1.2,0.4c0.6,0,1-0.1,1.3-0.4s0.5-0.7,0.5-1.2v-5.8H33
		v5.9c0,0.9-0.3,1.6-0.9,2.1c-0.6,0.5-1.4,0.8-2.4,0.8c-1,0-1.8-0.2-2.3-0.7s-0.8-1.2-0.8-2.1V19.6z"/>
	<path fill="#FFFFFF" d="M34,26.2h1.4c0.1,0.5,0.5,0.8,1.3,0.8c0.5,0,0.9-0.2,1.1-0.5S38,25.7,38,25v-5.4h1.5V25
		c0,1.1-0.2,2-0.7,2.5s-1.3,0.8-2.3,0.8c-0.7,0-1.3-0.2-1.7-0.6S34,26.9,34,26.2z"/>
	<path fill="#FFFFFF" d="M40.8,23.9c0-1.2,0.3-2.3,1-3.1s1.6-1.3,2.7-1.3c1.2,0,2.2,0.4,2.8,1.1s1,1.8,1,3.2s-0.3,2.5-1,3.3
		s-1.6,1.2-2.9,1.2c-1.2,0-2-0.4-2.7-1.2S40.8,25.3,40.8,23.9z M42.3,23.9c0,1,0.2,1.8,0.5,2.3s0.8,0.8,1.5,0.8
		c0.8,0,1.3-0.3,1.7-0.8s0.6-1.3,0.6-2.3c0-2-0.7-3-2.2-3c-0.7,0-1.2,0.3-1.6,0.8S42.3,22.9,42.3,23.9z"/>
	<path fill="#FFFFFF" d="M55.1,28.2h-1.9v-8.6c1.2,0,2-0.1,2.3-0.1c1.3,0,2.2,0.4,3,1.1s1.1,1.7,1.1,2.9
		C59.6,26.7,58.1,28.2,55.1,28.2z M54.7,21v5.9c0.2,0,0.5,0,0.8,0c0.8,0,1.4-0.3,1.8-0.8s0.7-1.3,0.7-2.3c0-1.8-0.9-2.8-2.6-2.8
		C55.3,20.9,55,21,54.7,21z"/>
	<path fill="#FFFFFF" d="M62.4,21v2h2.8v1.3h-2.8v2.6h3.9v1.4h-5.4v-8.6h5.5V21H62.4z"/>
	<path fill="#FFFFFF" d="M77.2,20.1l-0.6,1.3c-0.3-0.3-0.9-0.5-1.6-0.5c-0.7,0-1.3,0.3-1.8,0.9s-0.7,1.4-0.7,2.3s0.2,1.6,0.6,2.2
		s1,0.8,1.7,0.8c0.8,0,1.4-0.3,1.9-0.9l0.7,1.2c-0.6,0.7-1.5,1-2.7,1S72.6,28,72,27.2s-1-1.9-1-3.2c0-1.3,0.4-2.3,1.1-3.2
		s1.7-1.3,2.8-1.3C75.9,19.5,76.7,19.7,77.2,20.1z"/>
	<path fill="#FFFFFF" d="M83.7,28.2l-0.6-1.7h-2.9l-0.6,1.7h-1.7l3.4-8.7h0.7l3.5,8.7H83.7z M81.6,22.2l-1,3.2h2.1L81.6,22.2z"/>
	<path fill="#FFFFFF" d="M85.5,26.2h1.4c0.1,0.5,0.5,0.8,1.3,0.8c0.5,0,0.9-0.2,1.1-0.5s0.3-0.8,0.3-1.5v-5.4H91V25
		c0,1.1-0.2,2-0.7,2.5S89,28.3,88,28.3c-0.7,0-1.3-0.2-1.7-0.6S85.6,26.9,85.5,26.2z"/>
	<path fill="#FFFFFF" d="M97.7,28.2l-0.6-1.7h-2.9l-0.6,1.7h-1.7l3.4-8.7h0.7l3.5,8.7H97.7z M95.6,22.2l-1,3.2h2.1L95.6,22.2z"/>
</g>
</svg>
