<?xml version="1.0" encoding="utf-8"?>
<!-- Generator: Adobe Illustrator 18.1.0, SVG Export Plug-In . SVG Version: 6.00 Build 0)  -->
<!DOCTYPE svg PUBLIC "-//W3C//DTD SVG 1.1//EN" "http://www.w3.org/Graphics/SVG/1.1/DTD/svg11.dtd">
<svg version="1.1" id="Capa_1" xmlns="http://www.w3.org/2000/svg" xmlns:xlink="http://www.w3.org/1999/xlink" x="0px" y="0px"
	 viewBox="-123 178.7 347.3 484.2" enable-background="new -123 178.7 347.3 484.2" xml:space="preserve">
<g>
	<rect x="-123" y="178.7" fill="#DCEDFC" width="347" height="99.1"/>
</g>
<g>
	<rect x="-123" y="278.4" fill="#A3D2F4" width="347" height="103.2"/>
</g>
<g>
	<rect x="-123" y="588.6" fill="#285AA3" width="347" height="74.3"/>
</g>
<g>
	<rect x="-122.6" y="381.9" fill="#009DE0" width="347" height="207"/>
</g>
<g>
	<path d="M-113.2,188.3l-0.5,2.4h-1.2l1.3-6.7c0.7-0.1,1.2-0.1,1.5-0.1c1.8,0,2.8,0.7,2.8,2c0,0.8-0.3,1.3-0.8,1.8
		c-0.6,0.4-1.3,0.6-2.2,0.6C-112.6,188.3-112.9,188.3-113.2,188.3z M-112.6,185l-0.4,2.2c0.2,0,0.4,0.1,0.6,0.1c0.5,0,1-0.1,1.3-0.3
		c0.3-0.2,0.5-0.5,0.5-1c0-0.7-0.4-1.1-1.2-1.1C-112.1,184.9-112.3,185-112.6,185z"/>
	<path d="M-107.9,188.6c0,0.1,0,0.1,0,0.2c0,0.3,0.1,0.6,0.3,0.8c0.2,0.2,0.5,0.3,0.9,0.3c0.2,0,0.4-0.1,0.7-0.2s0.5-0.2,0.6-0.4
		l-0.1,1.2c-0.4,0.2-0.9,0.3-1.5,0.3c-0.6,0-1.1-0.2-1.5-0.6c-0.4-0.4-0.6-0.9-0.6-1.6c0-0.8,0.3-1.6,0.8-2.1
		c0.6-0.5,1.3-0.8,2.2-0.8c0.5,0,1,0.1,1.3,0.3c0.3,0.2,0.5,0.5,0.5,0.9c0,0.6-0.2,1-0.7,1.3s-1.1,0.5-1.8,0.5
		C-107.2,188.8-107.5,188.7-107.9,188.6z M-107.6,187.7c0.2,0.1,0.4,0.1,0.7,0.1c0.4,0,0.8-0.1,1.1-0.2c0.3-0.1,0.4-0.3,0.4-0.6
		s-0.3-0.4-0.9-0.4c-0.2,0-0.5,0.1-0.7,0.3C-107.3,187.2-107.5,187.4-107.6,187.7z"/>
	<path d="M-100,187c-0.3-0.2-0.5-0.3-0.8-0.3c-0.3,0-0.6,0.1-0.8,0.4c-0.3,0.3-0.4,0.6-0.5,0.9l-0.5,2.7h-1.2l0.9-4.9h1.2l-0.1,0.4
		c0.5-0.3,0.9-0.5,1.4-0.5c0.1,0,0.4,0,0.7,0.1L-100,187z"/>
	<path d="M-96.1,187.1c-0.4-0.3-0.7-0.5-1-0.5c-0.2,0-0.4,0-0.5,0.1s-0.2,0.2-0.2,0.4c0,0.2,0.2,0.4,0.5,0.5
		c0.3,0.2,0.6,0.3,0.8,0.4c0.2,0.1,0.3,0.2,0.5,0.4c0.1,0.2,0.2,0.4,0.2,0.6c0,0.5-0.2,1-0.6,1.3c-0.4,0.3-1,0.5-1.6,0.5
		c-0.6,0-1.1-0.2-1.6-0.5l0.6-1c0.4,0.4,0.8,0.5,1.2,0.5c0.2,0,0.4-0.1,0.6-0.2c0.2-0.1,0.2-0.3,0.2-0.5c0-0.2-0.1-0.3-0.4-0.5
		c-0.3-0.2-0.6-0.3-0.8-0.4c-0.2-0.1-0.4-0.3-0.5-0.5c-0.3,0-0.4-0.2-0.4-0.4c0-0.5,0.2-0.9,0.6-1.1c0.4-0.4,0.9-0.5,1.5-0.5
		c0.4,0,0.9,0.1,1.5,0.4L-96.1,187.1z"/>
	<path d="M-93.9,190.6l-0.4,2.1h-1.2l1-5.3c0-0.2,0.1-0.4,0.1-0.6c0-0.3,0-0.5-0.1-0.8l1.2-0.3c0,0.1,0.1,0.3,0.1,0.5
		c0.4-0.3,0.9-0.5,1.3-0.5c1.4,0,2,0.6,2,1.9c0,0.9-0.3,1.7-0.8,2.3c-0.6,0.6-1.3,0.9-2.2,0.9C-93.3,190.8-93.6,190.7-93.9,190.6z
		 M-93.7,189.6c0.2,0.2,0.4,0.2,0.7,0.2c0.6,0,1.1-0.2,1.4-0.6c0.3-0.4,0.5-0.9,0.5-1.6c0-0.3-0.1-0.6-0.3-0.8
		c-0.2,0-0.5-0.1-0.8-0.1c-0.2,0-0.3,0-0.5,0.1c-0.2,0.1-0.4,0.2-0.5,0.3L-93.7,189.6z"/>
	<path d="M-87.9,188.6c0,0.1,0,0.1,0,0.2c0,0.3,0.1,0.6,0.3,0.8c0.2,0.2,0.5,0.3,0.9,0.3c0.2,0,0.4-0.1,0.7-0.2s0.5-0.2,0.6-0.4
		l-0.1,1.2c-0.5,0.2-1,0.3-1.5,0.3c-0.6,0-1.1-0.2-1.5-0.6s-0.6-0.9-0.6-1.6c0-0.8,0.3-1.6,0.8-2.1c0.6-0.5,1.3-0.8,2.2-0.8
		c0.5,0,1,0.1,1.3,0.3c0.3,0.2,0.5,0.5,0.5,0.9c0,0.6-0.2,1-0.7,1.3s-1.1,0.5-1.8,0.5C-87.2,188.8-87.6,188.7-87.9,188.6z
		 M-87.7,187.7c0.2,0.1,0.4,0.1,0.7,0.1c0.4,0,0.8-0.1,1.1-0.2c0.3-0.1,0.4-0.3,0.4-0.6s-0.3-0.4-0.9-0.4c-0.2,0-0.5,0.1-0.7,0.3
		C-87.4,187.2-87.5,187.4-87.7,187.7z"/>
	<path d="M-79.8,187c-0.3-0.2-0.7-0.4-1-0.4c-0.5,0-1,0.2-1.3,0.6s-0.5,0.9-0.5,1.5c0,0.3,0.1,0.6,0.3,0.8c0.2,0.2,0.4,0.3,0.7,0.3
		c0.4,0,0.9-0.2,1.5-0.5l-0.1,1.2c-0.5,0.2-1,0.3-1.5,0.3c-0.6,0-1.1-0.2-1.5-0.5c-0.4-0.3-0.6-0.8-0.6-1.4c0-0.9,0.3-1.7,0.8-2.3
		c0.5-0.6,1.3-0.9,2.1-0.9c0.5,0,0.9,0.1,1.3,0.3L-79.8,187z"/>
	<path d="M-75.4,186.7h-1.4l-0.5,2.2c0,0.2-0.1,0.3-0.1,0.4c0,0.3,0.2,0.5,0.6,0.5c0.2,0,0.5-0.1,0.9-0.2v1
		c-0.3,0.1-0.8,0.2-1.4,0.2c-0.4,0-0.7-0.1-0.9-0.3s-0.4-0.5-0.4-0.9c0-0.1,0-0.2,0-0.4l0.6-2.5h-0.6l0.2-0.9h0.6l0.2-1l1.4-0.5
		l-0.4,1.5h1.4L-75.4,186.7z"/>
	<path d="M-73.3,190.7h-1.2l0.8-4h-0.6l0.2-0.9h1.8L-73.3,190.7z M-73.6,184.2c0-0.2,0.1-0.4,0.2-0.5c0.1-0.1,0.3-0.2,0.5-0.2
		c0.2,0,0.4,0.1,0.5,0.2c0.2,0.1,0.2,0.3,0.2,0.5s-0.1,0.4-0.2,0.5c-0.2,0.1-0.3,0.2-0.5,0.2c-0.2,0-0.4-0.1-0.5-0.2
		C-73.5,184.6-73.6,184.4-73.6,184.2z"/>
	<path d="M-69.6,190.8H-70l-1.6-5h1.2l0.9,3l1.8-3h1.4L-69.6,190.8z"/>
	<path d="M-61.9,189c0,0.1,0,0.2,0,0.4c0,0.7,0.1,1.1,0.2,1.4h-0.7c-0.2,0-0.4-0.2-0.5-0.5c-0.4,0.4-0.9,0.6-1.5,0.6
		c-0.5,0-1-0.2-1.3-0.5c-0.3-0.3-0.5-0.7-0.5-1.3c0-0.9,0.3-1.7,0.9-2.4c0.6-0.7,1.3-1,2.2-1s1.5,0.1,1.9,0.2L-61.9,189z
		 M-63.3,186.6c-0.5,0-1,0.2-1.3,0.7c-0.3,0.6-0.4,1.1-0.4,1.8c0,0.5,0.3,0.8,0.8,0.8c0.3,0,0.6-0.2,0.9-0.6
		c0.3-0.4,0.5-1.3,0.7-2.5C-62.9,186.7-63.1,186.6-63.3,186.6z"/>
	<path d="M-52.1,185h-3.3l-0.3,1.6h2.4l-0.2,1h-2.4l-0.6,3.1h-1.3l1.3-6.8h4.6L-52.1,185z"/>
	<path d="M-50.4,190.7h-1.2l0.8-4h-0.6l0.2-0.9h1.8L-50.4,190.7z M-50.7,184.2c0-0.2,0.1-0.4,0.2-0.5c0.2-0.1,0.3-0.2,0.5-0.2
		s0.4,0.1,0.5,0.2c0.2,0.1,0.2,0.3,0.2,0.5s-0.1,0.4-0.2,0.5c-0.2,0.1-0.3,0.2-0.5,0.2s-0.4-0.1-0.5-0.2
		C-50.7,184.6-50.7,184.4-50.7,184.2z"/>
	<path d="M-44.6,190.7h-1.2l0.6-2.9c0-0.2,0.1-0.4,0.1-0.6c-0.1-0.3-0.4-0.5-0.9-0.5c-0.4,0-0.8,0.2-1.1,0.5l-0.7,3.5H-49l0.7-3.7
		c0-0.1,0-0.2,0-0.3c0-0.3,0-0.6-0.1-0.9l1.2-0.1l0.1,0.6c0.4-0.4,0.9-0.6,1.6-0.6c1,0,1.6,0.5,1.6,1.4c-0.1,0.2-0.1,0.4-0.1,0.6
		L-44.6,190.7z"/>
	<path d="M-39,189c0,0.1,0,0.2,0,0.4c0,0.7,0.1,1.1,0.2,1.4h-0.7c-0.2,0-0.4-0.2-0.5-0.5c-0.4,0.4-0.9,0.6-1.5,0.6
		c-0.5,0-1-0.2-1.3-0.5s-0.5-0.7-0.5-1.3c0-0.9,0.3-1.7,0.9-2.4s1.3-1,2.2-1c0.9,0,1.5,0.1,1.9,0.2L-39,189z M-40.3,186.6
		c-0.5,0-1,0.2-1.3,0.7s-0.5,1.1-0.5,1.7c0,0.5,0.3,0.8,0.8,0.8c0.3,0,0.6-0.2,0.9-0.6s0.5-1.3,0.7-2.5
		C-39.9,186.7-40.1,186.6-40.3,186.6z"/>
	<path d="M-33.4,190.7h-1.2l0.6-2.9c0-0.2,0-0.4,0-0.5c0-0.4-0.2-0.6-0.7-0.6c-0.4,0-0.8,0.2-1.1,0.5l-0.8,3.5h-1.2l0.8-3.7
		c0-0.1,0-0.2,0-0.3c0-0.3,0-0.6-0.1-0.9l1.1-0.1l0.1,0.6c0.4-0.4,1-0.6,1.6-0.6c1,0,1.6,0.5,1.6,1.4c0,0.2,0,0.4-0.1,0.6
		L-33.4,190.7z"/>
	<path d="M-28,187c-0.4-0.2-0.7-0.3-1-0.3c-0.5,0-1,0.2-1.3,0.6c-0.3,0.4-0.5,0.9-0.5,1.5c0,0.3,0.1,0.6,0.3,0.8
		c0.2,0.2,0.4,0.3,0.7,0.3c0.4,0,0.9-0.2,1.5-0.5l-0.1,1.2c-0.5,0.2-1,0.3-1.5,0.3c-0.6,0-1.1-0.2-1.5-0.5s-0.6-0.8-0.6-1.4
		c0-0.9,0.3-1.7,0.8-2.3c0.5-0.7,1.2-1,2.1-1c0.5,0,0.9,0.1,1.3,0.3L-28,187z"/>
	<path d="M-25.8,190.7H-27l0.8-4h-0.6l0.2-0.9h1.8L-25.8,190.7z M-26.1,184.2c0-0.2,0.1-0.4,0.2-0.5s0.3-0.2,0.5-0.2
		s0.4,0.1,0.5,0.2c0.2,0.1,0.2,0.3,0.2,0.5s-0.1,0.4-0.2,0.5c-0.2,0.1-0.3,0.2-0.5,0.2s-0.4-0.1-0.5-0.2S-26.1,184.4-26.1,184.2z"/>
	<path d="M-22.8,188.6c0,0.1,0,0.1,0,0.2c0,0.3,0.1,0.6,0.3,0.8c0.2,0.2,0.5,0.3,0.9,0.3c0.2,0,0.4-0.1,0.7-0.2
		c0.3-0.1,0.5-0.2,0.6-0.4l-0.1,1.2c-0.4,0.2-0.9,0.3-1.5,0.3s-1.1-0.2-1.5-0.6s-0.6-0.9-0.6-1.6c0-0.8,0.3-1.6,0.8-2.1
		c0.6-0.6,1.3-0.8,2.2-0.8c0.5,0,1,0.1,1.3,0.3s0.5,0.5,0.5,0.9c0,0.6-0.2,1-0.7,1.3s-1.1,0.5-1.8,0.5
		C-22.2,188.8-22.5,188.7-22.8,188.6z M-22.6,187.7c0.2,0.1,0.4,0.1,0.7,0.1c0.4,0,0.8-0.1,1.1-0.2c0.3-0.1,0.4-0.3,0.4-0.6
		s-0.3-0.4-0.9-0.4c-0.2,0-0.5,0.1-0.7,0.3C-22.3,187.2-22.5,187.4-22.6,187.7z"/>
	<path d="M-15,187c-0.3-0.2-0.5-0.3-0.7-0.3c-0.3,0-0.6,0.1-0.8,0.4c-0.3,0.3-0.4,0.6-0.5,0.9l-0.5,2.8h-1.2l0.9-4.9h1.2l-0.1,0.4
		c0.4-0.3,0.9-0.5,1.4-0.5c0.1,0,0.4,0,0.7,0.1L-15,187z"/>
	<path d="M-10.1,189c0,0.1,0,0.2,0,0.4c0,0.7,0.1,1.1,0.2,1.4h-0.7c-0.2,0-0.4-0.2-0.5-0.5c-0.4,0.4-0.9,0.6-1.5,0.6
		c-0.5,0-1-0.2-1.3-0.5s-0.5-0.7-0.5-1.3c0-0.9,0.3-1.7,0.9-2.4s1.3-1,2.2-1c0.9,0,1.5,0.1,1.9,0.2L-10.1,189z M-11.5,186.6
		c-0.5,0-1,0.2-1.3,0.7s-0.5,1.1-0.5,1.7c0,0.5,0.3,0.8,0.8,0.8c0.3,0,0.6-0.2,0.9-0.6s0.5-1.3,0.7-2.5
		C-11.1,186.7-11.3,186.6-11.5,186.6z"/>
</g>
<g>
	<path d="M-110.8,391.1l-0.5,2.5h-1.3l1.3-6.7c0.7-0.1,1.2-0.1,1.5-0.1c1.8,0,2.8,0.7,2.8,2c0,0.8-0.3,1.3-0.8,1.8
		c-0.6,0.4-1.3,0.6-2.2,0.6C-110.3,391.2-110.6,391.2-110.8,391.1z M-110.2,387.9l-0.4,2.2c0.2,0,0.4,0.1,0.6,0.1
		c0.5,0,1-0.1,1.3-0.3c0.3-0.2,0.5-0.5,0.5-1c0-0.7-0.4-1.1-1.2-1.1C-109.7,387.8-110,387.8-110.2,387.9z"/>
	<path d="M-105.5,391.5c0,0.1,0,0.1,0,0.2c0,0.3,0.1,0.6,0.3,0.8c0.2,0.2,0.5,0.3,0.9,0.3c0.2,0,0.4-0.1,0.7-0.2
		c0.3-0.1,0.5-0.2,0.6-0.4l-0.1,1.2c-0.4,0.2-0.9,0.3-1.5,0.3s-1.1-0.2-1.5-0.6c-0.4-0.4-0.6-0.9-0.6-1.6c0-0.8,0.3-1.6,0.8-2.1
		c0.6-0.6,1.3-0.8,2.2-0.8c0.5,0,1,0.1,1.3,0.3c0.3,0.2,0.5,0.5,0.5,0.9c0,0.6-0.2,1-0.7,1.3c-0.5,0.3-1.1,0.5-1.8,0.5
		C-104.8,391.6-105.2,391.6-105.5,391.5z M-105.3,390.6c0.2,0.1,0.4,0.1,0.7,0.1c0.4,0,0.8-0.1,1.1-0.2s0.4-0.3,0.4-0.6
		c0-0.3-0.3-0.4-0.9-0.4c-0.2,0-0.5,0.1-0.7,0.3C-105,390-105.2,390.3-105.3,390.6z"/>
	<path d="M-97.7,389.8c-0.3-0.2-0.5-0.3-0.7-0.3c-0.3,0-0.6,0.1-0.8,0.4c-0.3,0.3-0.4,0.6-0.5,0.9l-0.5,2.8h-1.2l0.9-4.9h1.2
		l-0.1,0.4c0.4-0.3,0.9-0.5,1.4-0.5c0.1,0,0.4,0,0.7,0.1L-97.7,389.8z"/>
	<path d="M-93.7,390c-0.4-0.3-0.7-0.5-1-0.5c-0.2,0-0.4,0-0.5,0.1c-0.1,0.1-0.2,0.2-0.2,0.4c0,0.2,0.2,0.4,0.5,0.5
		c0.3,0.2,0.6,0.3,0.8,0.4c0.2,0.1,0.3,0.2,0.5,0.4c0.1,0.2,0.2,0.4,0.2,0.6c0,0.5-0.2,1-0.6,1.3c-0.4,0.3-1,0.5-1.6,0.5
		c-0.6,0-1.1-0.2-1.6-0.5l0.6-1c0.4,0.4,0.8,0.5,1.2,0.5c0.2,0,0.4-0.1,0.6-0.2c0.2-0.1,0.2-0.3,0.2-0.5c0-0.2-0.1-0.3-0.4-0.5
		c-0.3-0.1-0.6-0.3-0.8-0.4c-0.2-0.1-0.4-0.3-0.5-0.5c-0.1-0.2-0.2-0.4-0.2-0.6c0-0.5,0.2-0.9,0.6-1.1c0.4-0.3,0.9-0.4,1.4-0.4
		c0.4,0,0.9,0.1,1.5,0.4L-93.7,390z"/>
	<path d="M-91.6,393.5l-0.4,2.1h-1.2l1-5.3c0-0.2,0.1-0.4,0.1-0.6c0-0.3,0-0.5-0.1-0.8l1.2-0.2c0,0.1,0.1,0.3,0.1,0.5
		c0.4-0.3,0.9-0.5,1.3-0.5c1.4,0,2,0.6,2,1.9c0,0.9-0.3,1.7-0.8,2.3c-0.6,0.6-1.3,0.9-2.2,0.9C-90.9,393.7-91.3,393.6-91.6,393.5z
		 M-91.4,392.5c0.2,0.2,0.4,0.2,0.7,0.2c0.6,0,1.1-0.2,1.4-0.6s0.5-0.9,0.5-1.6c0-0.3-0.1-0.6-0.3-0.8c-0.2-0.2-0.5-0.3-0.8-0.3
		c-0.2,0-0.3,0-0.5,0.1c-0.2,0.1-0.4,0.2-0.5,0.3L-91.4,392.5z"/>
	<path d="M-85.6,391.5c0,0.1,0,0.1,0,0.2c0,0.3,0.1,0.6,0.3,0.8c0.2,0.2,0.5,0.3,0.9,0.3c0.2,0,0.4-0.1,0.7-0.2s0.5-0.2,0.6-0.4
		l-0.1,1.2c-0.4,0.2-0.9,0.3-1.5,0.3s-1.1-0.2-1.5-0.6c-0.4-0.4-0.6-0.9-0.6-1.6c0-0.8,0.3-1.6,0.8-2.1c0.6-0.6,1.3-0.8,2.2-0.8
		c0.5,0,1,0.1,1.3,0.3c0.3,0.2,0.5,0.5,0.5,0.9c0,0.6-0.2,1-0.7,1.3c-0.5,0.3-1.1,0.5-1.8,0.5C-84.9,391.6-85.2,391.6-85.6,391.5z
		 M-85.3,390.6c0.2,0.1,0.4,0.1,0.7,0.1c0.4,0,0.8-0.1,1.1-0.2s0.4-0.3,0.4-0.6c0-0.3-0.3-0.4-0.9-0.4c-0.2,0-0.5,0.1-0.7,0.3
		C-85,390-85.2,390.3-85.3,390.6z"/>
	<path d="M-77.4,389.9c-0.3-0.2-0.7-0.4-1-0.4c-0.5,0-1,0.2-1.3,0.6c-0.3,0.4-0.5,0.9-0.5,1.5c0,0.3,0.1,0.6,0.3,0.8
		c0.2,0.2,0.4,0.3,0.7,0.3c0.4,0,0.9-0.2,1.5-0.5l-0.1,1.2c-0.5,0.2-1,0.3-1.5,0.3c-0.6,0-1.1-0.2-1.5-0.5c-0.4-0.3-0.6-0.8-0.6-1.4
		c0-0.9,0.3-1.7,0.8-2.3s1.3-0.9,2.1-0.9c0.5,0,0.9,0.1,1.3,0.3L-77.4,389.9z"/>
	<path d="M-73.1,389.6h-1.4l-0.5,2.2c0,0.2-0.1,0.3-0.1,0.4c0,0.3,0.2,0.5,0.6,0.5c0.2,0,0.5-0.1,0.9-0.2v1
		c-0.3,0.1-0.8,0.2-1.4,0.2c-0.4,0-0.7-0.1-0.9-0.4c-0.2-0.2-0.4-0.5-0.4-0.9c0-0.1,0-0.2,0-0.4l0.6-2.5h-0.6l0.3-0.8h0.6l0.2-1
		l1.4-0.5l-0.4,1.5h1.4L-73.1,389.6z"/>
	<path d="M-70.9,393.6h-1.2l0.8-4H-72l0.2-0.9h1.8L-70.9,393.6z M-71.3,387.1c0-0.2,0.1-0.4,0.2-0.5s0.3-0.2,0.5-0.2
		s0.4,0.1,0.5,0.2c0.2,0.1,0.2,0.3,0.2,0.5c0,0.2-0.1,0.4-0.2,0.5c-0.2,0.1-0.3,0.2-0.5,0.2s-0.4-0.1-0.5-0.2
		C-71.2,387.5-71.3,387.3-71.3,387.1z"/>
	<path d="M-67.2,393.7h-0.4l-1.6-5h1.2l0.9,3l1.8-3h1.4L-67.2,393.7z"/>
	<path d="M-59.6,391.8c0,0.1,0,0.2,0,0.4c0,0.7,0.1,1.1,0.2,1.4h-0.7c-0.2,0-0.4-0.2-0.5-0.5c-0.4,0.4-0.9,0.6-1.5,0.6
		c-0.5,0-1-0.2-1.3-0.5c-0.3-0.3-0.5-0.7-0.5-1.3c0-0.9,0.3-1.7,0.9-2.4c0.6-0.7,1.3-1,2.2-1s1.5,0.1,1.9,0.2L-59.6,391.8z
		 M-61,389.5c-0.5,0-1,0.2-1.3,0.7s-0.5,1.1-0.5,1.7c0,0.5,0.3,0.8,0.8,0.8c0.3,0,0.6-0.2,0.9-0.6c0.3-0.4,0.5-1.3,0.7-2.5
		C-60.6,389.5-60.8,389.5-61,389.5z"/>
	<path d="M-54,393.6h-1.2l1.3-6.8h1.2L-54,393.6z"/>
	<path d="M-48.4,393.6h-1.2l0.6-2.9c0-0.2,0.1-0.4,0.1-0.6c0-0.4-0.2-0.6-0.7-0.6c-0.4,0-0.8,0.2-1.1,0.5l-0.7,3.5h-1.2l0.7-3.7
		c0-0.1,0-0.2,0-0.3c0-0.3,0-0.6-0.1-0.9l1.2-0.2l0.1,0.6c0.4-0.4,0.9-0.5,1.6-0.5c1,0,1.6,0.5,1.6,1.4c0,0.2,0,0.4-0.1,0.6
		L-48.4,393.6z"/>
	<path d="M-43.5,389.6h-1.4l-0.5,2.2c0,0.2-0.1,0.3-0.1,0.4c0,0.3,0.2,0.5,0.6,0.5c0.2,0,0.5-0.1,0.9-0.2v1
		c-0.3,0.1-0.8,0.2-1.4,0.2c-0.4,0-0.7-0.1-0.9-0.4c-0.2-0.2-0.4-0.5-0.4-0.9c0-0.1,0-0.2,0-0.4l0.6-2.5h-0.6l0.2-0.9h0.6l0.2-1
		l1.4-0.5l-0.4,1.5h1.4L-43.5,389.6z"/>
	<path d="M-41.6,391.5c0,0.1,0,0.1,0,0.2c0,0.3,0.1,0.6,0.3,0.8c0.2,0.2,0.5,0.3,0.9,0.3c0.2,0,0.4-0.1,0.7-0.2
		c0.3-0.1,0.5-0.2,0.6-0.4l-0.1,1.2c-0.4,0.2-0.9,0.3-1.5,0.3s-1.1-0.2-1.5-0.6c-0.4-0.4-0.6-0.9-0.6-1.6c0-0.8,0.3-1.6,0.8-2.1
		c0.6-0.6,1.3-0.8,2.2-0.8c0.5,0,1,0.1,1.3,0.3c0.3,0.2,0.5,0.5,0.5,0.9c0,0.6-0.2,1-0.7,1.3c-0.5,0.3-1.1,0.5-1.8,0.5
		C-40.9,391.6-41.2,391.6-41.6,391.5z M-41.3,390.6c0.2,0.1,0.4,0.1,0.7,0.1c0.4,0,0.8-0.1,1.1-0.2c0.3-0.1,0.4-0.3,0.4-0.6
		c0-0.3-0.3-0.4-0.9-0.4c-0.2,0-0.5,0.1-0.7,0.3C-41,390-41.2,390.3-41.3,390.6z"/>
	<path d="M-33.7,389.8c-0.3-0.2-0.5-0.3-0.7-0.3c-0.3,0-0.6,0.1-0.8,0.4c-0.3,0.3-0.4,0.6-0.5,0.9l-0.5,2.8h-1.2l0.9-4.9h1.2
		l-0.1,0.4c0.4-0.3,0.9-0.5,1.4-0.5c0.1,0,0.4,0,0.7,0.1L-33.7,389.8z"/>
	<path d="M-29,393.6h-1.2l0.6-2.9c0-0.2,0.1-0.4,0.1-0.6c0-0.4-0.2-0.6-0.7-0.6c-0.4,0-0.8,0.2-1.1,0.5l-0.7,3.5h-1.2l0.7-3.7
		c0-0.1,0-0.2,0-0.3c0-0.3,0-0.6-0.1-0.9l1.2-0.2l0.1,0.6c0.4-0.4,0.9-0.5,1.6-0.5c1,0,1.6,0.5,1.6,1.4c0,0.2,0,0.4-0.1,0.6
		L-29,393.6z"/>
	<path d="M-23.4,391.8c0,0.1,0,0.2,0,0.4c0,0.7,0.1,1.1,0.2,1.4H-24c-0.2,0-0.4-0.2-0.5-0.5c-0.4,0.4-0.9,0.6-1.5,0.6
		c-0.5,0-1-0.2-1.3-0.5c-0.3-0.3-0.5-0.7-0.5-1.3c0-0.9,0.3-1.7,0.9-2.4c0.6-0.7,1.3-1,2.2-1c0.9,0,1.5,0.1,1.9,0.2L-23.4,391.8z
		 M-24.7,389.5c-0.5,0-1,0.2-1.3,0.7s-0.5,1.1-0.5,1.7c0,0.5,0.3,0.8,0.8,0.8c0.3,0,0.6-0.2,0.9-0.6s0.5-1.3,0.7-2.5
		C-24.3,389.5-24.5,389.5-24.7,389.5z"/>
</g>
<g>
	<path fill="#FFFFFF" d="M-111.4,596.9l-0.5,2.5h-1.2l1.3-6.7c0.7-0.1,1.2-0.1,1.5-0.1c1.8,0,2.8,0.7,2.8,2c0,0.8-0.3,1.3-0.8,1.8
		c-0.6,0.4-1.3,0.6-2.2,0.6C-110.8,597-111.1,597-111.4,596.9z M-110.8,593.7l-0.4,2.2c0.2,0,0.4,0.1,0.6,0.1c0.5,0,1-0.1,1.3-0.3
		c0.3-0.2,0.5-0.5,0.5-1c0-0.7-0.4-1.1-1.2-1.1C-110.3,593.6-110.5,593.6-110.8,593.7z"/>
	<path fill="#FFFFFF" d="M-106.1,597.3c0,0.1,0,0.1,0,0.2c0,0.3,0.1,0.6,0.3,0.8c0.2,0.2,0.5,0.3,0.9,0.3c0.2,0,0.4-0.1,0.7-0.2
		c0.3-0.1,0.5-0.2,0.6-0.4l-0.1,1.2c-0.4,0.2-0.9,0.3-1.5,0.3c-0.6,0-1.1-0.2-1.5-0.6c-0.4-0.4-0.6-0.9-0.6-1.6
		c0-0.8,0.3-1.6,0.8-2.1c0.6-0.6,1.3-0.8,2.2-0.8c0.5,0,1,0.1,1.3,0.3c0.3,0.2,0.5,0.5,0.5,0.9c0,0.6-0.2,1-0.7,1.3
		s-1.1,0.5-1.8,0.5C-105.4,597.4-105.7,597.4-106.1,597.3z M-105.8,596.4c0.2,0.1,0.4,0.1,0.7,0.1c0.4,0,0.8-0.1,1.1-0.2
		c0.3-0.1,0.4-0.3,0.4-0.6s-0.3-0.4-0.9-0.4c-0.2,0-0.5,0.1-0.7,0.3C-105.5,595.8-105.7,596.1-105.8,596.4z"/>
	<path fill="#FFFFFF" d="M-98.2,595.7c-0.3-0.2-0.5-0.3-0.7-0.3c-0.3,0-0.6,0.1-0.8,0.4c-0.3,0.3-0.4,0.6-0.5,0.9l-0.5,2.8h-1.3
		l0.9-4.9h1.2l-0.1,0.4c0.4-0.3,0.9-0.5,1.4-0.5c0.1,0,0.4,0,0.7,0.1L-98.2,595.7z"/>
	<path fill="#FFFFFF" d="M-94.2,595.8c-0.4-0.3-0.7-0.5-1-0.5c-0.2,0-0.4,0-0.5,0.1c-0.1,0.1-0.2,0.2-0.2,0.4c0,0.2,0.2,0.4,0.5,0.5
		c0.3,0.2,0.6,0.3,0.8,0.4c0.2,0.1,0.3,0.2,0.5,0.4c0.1,0.2,0.2,0.4,0.2,0.6c0,0.5-0.2,1-0.6,1.3c-0.4,0.3-1,0.5-1.6,0.5
		c-0.6,0-1.1-0.2-1.6-0.5l0.6-1c0.4,0.4,0.8,0.5,1.2,0.5c0.2,0,0.4-0.1,0.6-0.2c0.2-0.1,0.2-0.3,0.2-0.5s-0.1-0.3-0.4-0.5
		s-0.6-0.3-0.8-0.4c-0.2-0.1-0.4-0.3-0.5-0.5c-0.1-0.2-0.2-0.4-0.2-0.6c0-0.5,0.2-0.9,0.6-1.1c0.4-0.3,0.9-0.4,1.4-0.4
		c0.4,0,0.9,0.1,1.5,0.4L-94.2,595.8z"/>
	<path fill="#FFFFFF" d="M-92.1,599.3l-0.4,2.1h-1.2l1-5.3c0-0.2,0.1-0.4,0.1-0.6c0-0.3,0-0.5-0.1-0.8l1.2-0.2
		c0,0.1,0.1,0.3,0.1,0.5c0.4-0.3,0.9-0.5,1.3-0.5c1.4,0,2,0.6,2,1.9c0,0.9-0.3,1.7-0.8,2.3c-0.6,0.6-1.3,0.9-2.2,0.9
		C-91.5,599.5-91.8,599.4-92.1,599.3z M-91.9,598.3c0.2,0.2,0.4,0.2,0.7,0.2c0.6,0,1.1-0.2,1.4-0.6c0.3-0.4,0.5-0.9,0.5-1.6
		c0-0.3-0.1-0.6-0.3-0.8s-0.5-0.3-0.8-0.3c-0.2,0-0.3,0-0.5,0.2c-0.2,0.1-0.4,0.2-0.5,0.3L-91.9,598.3z"/>
	<path fill="#FFFFFF" d="M-86.1,597.3c0,0.1,0,0.1,0,0.2c0,0.3,0.1,0.6,0.3,0.8c0.2,0.2,0.5,0.3,0.9,0.3c0.2,0,0.4-0.1,0.7-0.2
		c0.3-0.1,0.5-0.2,0.6-0.4l-0.1,1.2c-0.4,0.2-0.9,0.3-1.5,0.3s-1.1-0.2-1.5-0.6c-0.4-0.4-0.6-0.9-0.6-1.6c0-0.8,0.3-1.6,0.8-2.1
		c0.6-0.6,1.3-0.8,2.2-0.8c0.5,0,1,0.1,1.3,0.3c0.3,0.2,0.5,0.5,0.5,0.9c0,0.6-0.2,1-0.7,1.3s-1.1,0.5-1.8,0.5
		C-85.4,597.4-85.8,597.4-86.1,597.3z M-85.9,596.4c0.2,0.1,0.4,0.1,0.7,0.1c0.4,0,0.8-0.1,1.1-0.2c0.3-0.1,0.4-0.3,0.4-0.6
		s-0.3-0.4-0.9-0.4c-0.2,0-0.5,0.1-0.7,0.3C-85.5,595.8-85.7,596.1-85.9,596.4z"/>
	<path fill="#FFFFFF" d="M-78,595.7c-0.3-0.2-0.7-0.4-1-0.4c-0.5,0-1,0.2-1.3,0.6c-0.3,0.4-0.5,0.9-0.5,1.5c0,0.3,0.1,0.6,0.3,0.8
		s0.4,0.3,0.7,0.3c0.4,0,0.9-0.2,1.5-0.5l-0.1,1.2c-0.5,0.2-1,0.3-1.5,0.3c-0.6,0-1.1-0.2-1.5-0.5c-0.4-0.3-0.6-0.8-0.6-1.4
		c0-0.9,0.3-1.7,0.8-2.3s1.3-0.9,2.1-0.9c0.5,0,0.9,0.1,1.3,0.3L-78,595.7z"/>
	<path fill="#FFFFFF" d="M-73.6,595.4H-75l-0.5,2.2c0,0.2-0.1,0.3-0.1,0.4c0,0.3,0.2,0.5,0.6,0.5c0.2,0,0.5-0.1,0.9-0.2v1
		c-0.3,0.1-0.8,0.2-1.4,0.2c-0.4,0-0.7-0.1-0.9-0.4c-0.2-0.2-0.4-0.5-0.4-0.9c0-0.1,0-0.2,0-0.4l0.6-2.5h-0.6l0.2-0.9h0.6l0.2-1
		l1.4-0.5l-0.4,1.5h1.4L-73.6,595.4z"/>
	<path fill="#FFFFFF" d="M-71.5,599.4h-1.2l0.8-4h-0.6l0.2-0.9h1.8L-71.5,599.4z M-71.8,592.9c0-0.2,0.1-0.4,0.2-0.5
		c0.2-0.1,0.3-0.2,0.5-0.2s0.4,0.1,0.5,0.2c0.2,0.1,0.2,0.3,0.2,0.5s-0.1,0.4-0.2,0.5c-0.2,0.1-0.3,0.2-0.5,0.2s-0.4-0.1-0.5-0.2
		C-71.7,593.3-71.8,593.1-71.8,592.9z"/>
	<path fill="#FFFFFF" d="M-67.8,599.5h-0.4l-1.6-5h1.2l0.9,3l1.8-3h1.4L-67.8,599.5z"/>
	<path fill="#FFFFFF" d="M-60.1,597.6c0,0.1,0,0.2,0,0.4c0,0.7,0.1,1.1,0.2,1.4h-0.7c-0.2,0-0.4-0.2-0.5-0.5
		c-0.4,0.4-0.9,0.6-1.5,0.6c-0.5,0-1-0.2-1.3-0.5s-0.5-0.7-0.5-1.3c0-0.9,0.3-1.7,0.9-2.4c0.6-0.7,1.3-1,2.2-1s1.5,0.1,1.9,0.2
		L-60.1,597.6z M-61.5,595.3c-0.5,0-1,0.2-1.3,0.7s-0.5,1.1-0.5,1.7c0,0.5,0.3,0.8,0.8,0.8c0.3,0,0.6-0.2,0.9-0.6
		c0.3-0.4,0.5-1.3,0.7-2.5C-61.1,595.4-61.3,595.3-61.5,595.3z"/>
	<path fill="#FFFFFF" d="M-51.5,599.4h-1.2l0.1-0.5c-0.3,0.4-0.7,0.6-1.3,0.6c-0.6,0-1.1-0.2-1.4-0.5s-0.5-0.8-0.5-1.4
		c0-0.9,0.3-1.7,0.8-2.3c0.5-0.6,1.3-0.9,2.2-0.9c0.2,0,0.4,0,0.6,0.1c0.2,0.1,0.4,0.1,0.5,0.2l0.4-2.2h1.1L-51.5,599.4z
		 M-52.8,595.4c-0.5,0-1,0.2-1.3,0.6c-0.3,0.4-0.5,0.9-0.5,1.5c0,0.7,0.3,1.1,1,1.1s1.1-0.5,1.3-1.6l0.2-1.2
		C-52.2,595.5-52.4,595.4-52.8,595.4z"/>
	<path fill="#FFFFFF" d="M-48.8,597.3c0,0.1,0,0.1,0,0.2c0,0.3,0.1,0.6,0.3,0.8c0.2,0.2,0.5,0.3,0.9,0.3c0.2,0,0.4-0.1,0.7-0.2
		c0.3-0.1,0.5-0.2,0.6-0.4l-0.1,1.2c-0.4,0.2-0.9,0.3-1.5,0.3s-1.1-0.2-1.5-0.6c-0.4-0.4-0.6-0.9-0.6-1.6c0-0.8,0.3-1.6,0.8-2.1
		c0.6-0.6,1.3-0.8,2.2-0.8c0.5,0,1,0.1,1.3,0.3c0.3,0.2,0.5,0.5,0.5,0.9c0,0.6-0.2,1-0.7,1.3s-1.1,0.5-1.8,0.5
		C-48.1,597.4-48.4,597.4-48.8,597.3z M-48.5,596.4c0.2,0.1,0.4,0.1,0.7,0.1c0.4,0,0.8-0.1,1.1-0.2c0.3-0.1,0.4-0.3,0.4-0.6
		s-0.3-0.4-0.9-0.4c-0.2,0-0.5,0.1-0.7,0.3C-48.2,595.8-48.4,596.1-48.5,596.4z"/>
	<path fill="#FFFFFF" d="M-36.6,594c-0.4-0.3-0.8-0.4-1.2-0.4c-0.7,0-1.3,0.3-1.8,1s-0.7,1.4-0.7,2.2c0,0.5,0.1,0.9,0.4,1.2
		s0.6,0.5,1.1,0.5c0.7,0,1.3-0.2,1.7-0.6v1.1c-0.4,0.4-1.1,0.6-1.9,0.6s-1.4-0.2-1.8-0.7c-0.5-0.5-0.7-1.1-0.7-1.9
		c0-1.2,0.4-2.3,1.1-3.1s1.6-1.3,2.8-1.3c0.6,0,1.1,0.1,1.5,0.3L-36.6,594z"/>
	<path fill="#FFFFFF" d="M-32,595.7c-0.3-0.2-0.5-0.3-0.7-0.3c-0.3,0-0.6,0.1-0.8,0.4c-0.3,0.3-0.4,0.6-0.5,0.9l-0.5,2.8h-1.2
		l0.9-4.9h1.2l-0.1,0.4c0.4-0.3,0.9-0.5,1.4-0.5c0.1,0,0.4,0,0.7,0.1L-32,595.7z"/>
	<path fill="#FFFFFF" d="M-30.2,597.3c0,0.1,0,0.1,0,0.2c0,0.3,0.1,0.6,0.3,0.8c0.2,0.2,0.5,0.3,0.9,0.3c0.2,0,0.4-0.1,0.7-0.2
		c0.3-0.1,0.5-0.2,0.6-0.4l-0.1,1.2c-0.4,0.2-0.9,0.3-1.5,0.3s-1.1-0.2-1.5-0.6c-0.4-0.4-0.6-0.9-0.6-1.6c0-0.8,0.3-1.6,0.8-2.1
		c0.6-0.6,1.3-0.8,2.2-0.8c0.5,0,1,0.1,1.3,0.3c0.3,0.2,0.5,0.5,0.5,0.9c0,0.6-0.2,1-0.7,1.3s-1.1,0.5-1.8,0.5
		C-29.5,597.4-29.9,597.4-30.2,597.3z M-30,596.4c0.2,0.1,0.4,0.1,0.7,0.1c0.4,0,0.8-0.1,1.1-0.2c0.3-0.1,0.4-0.3,0.4-0.6
		s-0.3-0.4-0.9-0.4c-0.2,0-0.5,0.1-0.7,0.3C-29.6,595.8-29.8,596.1-30,596.4z"/>
	<path fill="#FFFFFF" d="M-22.1,595.7c-0.3-0.2-0.7-0.4-1-0.4c-0.5,0-1,0.2-1.3,0.6c-0.3,0.4-0.5,0.9-0.5,1.5c0,0.3,0.1,0.6,0.3,0.8
		c0.2,0.2,0.4,0.3,0.7,0.3c0.4,0,0.9-0.2,1.5-0.5l-0.1,1.2c-0.5,0.2-1,0.3-1.5,0.3c-0.6,0-1.1-0.2-1.5-0.5s-0.6-0.8-0.6-1.4
		c0-0.9,0.3-1.7,0.8-2.3s1.3-0.9,2.1-0.9c0.5,0,0.9,0.1,1.3,0.3L-22.1,595.7z"/>
	<path fill="#FFFFFF" d="M-19.8,599.4H-21l0.8-4h-0.6l0.2-0.9h1.8L-19.8,599.4z M-20.1,592.9c0-0.2,0.1-0.4,0.2-0.5
		c0.2-0.1,0.3-0.2,0.5-0.2s0.4,0.1,0.5,0.2c0.2,0.1,0.2,0.3,0.2,0.5s-0.1,0.4-0.2,0.5c-0.2,0.1-0.3,0.2-0.5,0.2s-0.4-0.1-0.5-0.2
		C-20.1,593.3-20.1,593.1-20.1,592.9z"/>
	<path fill="#FFFFFF" d="M-10.7,596.2l-0.6,3.2h-1.2l0.6-3.1c0-0.1,0-0.2,0-0.3c0-0.4-0.2-0.6-0.7-0.6c-0.2,0-0.3,0.1-0.5,0.2
		c-0.2,0.1-0.3,0.2-0.4,0.4l-0.7,3.5h-1.2l0.7-3.5v-0.1c0-0.3-0.3-0.5-0.8-0.5c-0.2,0-0.3,0.1-0.5,0.2c-0.2,0.1-0.3,0.2-0.5,0.4
		l-0.7,3.5h-1.2l0.7-3.6c0-0.1,0-0.2,0-0.4c0-0.3,0-0.6-0.1-0.9l1.2-0.2c0,0.2,0.1,0.3,0.1,0.4c0.4-0.3,0.9-0.4,1.4-0.4
		c0.7,0,1.1,0.2,1.4,0.5c0.4-0.4,0.9-0.5,1.5-0.5c1,0,1.5,0.4,1.5,1.3C-10.6,595.9-10.7,596-10.7,596.2z"/>
	<path fill="#FFFFFF" d="M-8.6,599.4h-1.2l0.8-4h-0.6l0.2-0.9h1.8L-8.6,599.4z M-8.9,592.9c0-0.2,0.1-0.4,0.2-0.5
		c0.1-0.1,0.3-0.2,0.5-0.2s0.4,0.1,0.5,0.2c0.2,0.1,0.2,0.3,0.2,0.5s-0.1,0.4-0.2,0.5c-0.2,0.1-0.3,0.2-0.5,0.2s-0.4-0.1-0.5-0.2
		C-8.8,593.3-8.9,593.1-8.9,592.9z"/>
	<path fill="#FFFFFF" d="M-5.7,597.3c0,0.1,0,0.1,0,0.2c0,0.3,0.1,0.6,0.3,0.8c0.2,0.2,0.5,0.3,0.9,0.3c0.2,0,0.4-0.1,0.7-0.2
		c0.3-0.1,0.5-0.2,0.6-0.4l-0.1,1.2c-0.4,0.2-0.9,0.3-1.5,0.3s-1.1-0.2-1.5-0.6c-0.4-0.4-0.6-0.9-0.6-1.6c0-0.8,0.3-1.6,0.8-2.1
		c0.6-0.6,1.3-0.8,2.2-0.8c0.5,0,1,0.1,1.3,0.3c0.3,0.2,0.5,0.5,0.5,0.9c0,0.6-0.2,1-0.7,1.3s-1.1,0.5-1.8,0.5
		C-5,597.4-5.3,597.4-5.7,597.3z M-5.4,596.4c0.2,0.1,0.4,0.1,0.7,0.1c0.4,0,0.8-0.1,1.1-0.2c0.3-0.1,0.4-0.3,0.4-0.6
		s-0.3-0.4-0.9-0.4c-0.2,0-0.5,0.1-0.7,0.3C-5.1,595.8-5.3,596.1-5.4,596.4z"/>
	<path fill="#FFFFFF" d="M2.6,599.4H1.4l0.6-2.9c0-0.2,0.1-0.4,0.1-0.6c0-0.4-0.2-0.6-0.7-0.6c-0.4,0-0.8,0.2-1.1,0.5l-0.7,3.5h-1.2
		l0.7-3.7c0-0.1,0-0.2,0-0.3c0-0.3,0-0.6-0.1-0.9l1.2-0.2l0.1,0.6c0.4-0.4,0.9-0.5,1.6-0.5c1,0,1.6,0.5,1.6,1.4c0,0.2,0,0.4-0.1,0.6
		L2.6,599.4z"/>
	<path fill="#FFFFFF" d="M7.5,595.4H6.1l-0.5,2.2c0,0.2-0.1,0.3-0.1,0.4c0,0.3,0.2,0.5,0.6,0.5c0.2,0,0.5-0.1,0.9-0.2v1
		c-0.3,0.1-0.8,0.2-1.4,0.2c-0.4,0-0.7-0.1-0.9-0.4c-0.2-0.2-0.4-0.5-0.4-0.9c0-0.1,0-0.2,0-0.4l0.6-2.5H4.3l0.2-0.9h0.6l0.2-1
		l1.4-0.5l-0.4,1.5h1.4L7.5,595.4z"/>
	<path fill="#FFFFFF" d="M8.1,597.6c0-0.9,0.3-1.6,0.8-2.3c0.6-0.6,1.3-0.9,2.1-0.9c0.7,0,1.2,0.2,1.5,0.5c0.4,0.3,0.5,0.8,0.5,1.4
		c0,0.9-0.3,1.7-0.8,2.3c-0.6,0.6-1.3,0.9-2.1,0.9c-0.6,0-1.1-0.2-1.5-0.5C8.3,598.7,8.1,598.2,8.1,597.6z M9.3,597.5
		c0,0.7,0.3,1.1,0.9,1.1c0.5,0,0.9-0.2,1.2-0.7c0.3-0.4,0.4-1,0.4-1.6c0-0.7-0.3-1-0.9-1c-0.5,0-0.9,0.2-1.2,0.7
		C9.5,596.4,9.3,596.9,9.3,597.5z"/>
	<path fill="#FFFFFF" d="M19.2,599.9c-0.5,1-1.4,1.4-2.7,1.4v-1.1c0.9,0,1.5-0.3,1.7-0.8l0.2-0.6c-0.4-0.1-0.7-0.6-0.9-1.3l-0.6-3
		h1.2c0.4,2.2,0.6,3.3,0.7,3.4l1.6-3.4h1.3L19.2,599.9z"/>
	<path fill="#FFFFFF" d="M28.6,599.4l-0.2-1.4h-2.5l-0.8,1.4h-1.3l4.2-6.8h0.4l1.4,6.8H28.6z M27.9,594.6l-1.4,2.5h1.8L27.9,594.6z"
		/>
	<path fill="#FFFFFF" d="M31.7,599.3l-0.4,2.1h-1.2l1-5.3c0-0.2,0.1-0.4,0.1-0.6c0-0.3,0-0.5-0.1-0.8l1.2-0.2c0,0.1,0.1,0.3,0.1,0.5
		c0.4-0.3,0.9-0.5,1.3-0.5c1.4,0,2,0.6,2,1.9c0,0.9-0.3,1.7-0.8,2.3c-0.6,0.6-1.3,0.9-2.2,0.9C32.3,599.5,32,599.4,31.7,599.3z
		 M31.9,598.3c0.2,0.2,0.4,0.2,0.7,0.2c0.6,0,1.1-0.2,1.4-0.6c0.3-0.4,0.5-0.9,0.5-1.6c0-0.3-0.1-0.6-0.3-0.8s-0.5-0.3-0.8-0.3
		c-0.2,0-0.3,0-0.5,0.2c-0.2,0.1-0.4,0.2-0.5,0.3L31.9,598.3z"/>
	<path fill="#FFFFFF" d="M40.2,595.7c-0.3-0.2-0.5-0.3-0.7-0.3c-0.3,0-0.6,0.1-0.8,0.4c-0.3,0.3-0.4,0.6-0.5,0.9l-0.5,2.8h-1.2
		l0.9-4.9h1.2l-0.1,0.4c0.4-0.3,0.9-0.5,1.4-0.5c0.1,0,0.4,0,0.7,0.1L40.2,595.7z"/>
	<path fill="#FFFFFF" d="M42,597.3c0,0.1,0,0.1,0,0.2c0,0.3,0.1,0.6,0.3,0.8c0.2,0.2,0.5,0.3,0.9,0.3c0.2,0,0.4-0.1,0.7-0.2
		c0.3-0.1,0.5-0.2,0.6-0.4l-0.1,1.2c-0.4,0.2-0.9,0.3-1.5,0.3s-1.1-0.2-1.5-0.6c-0.4-0.4-0.6-0.9-0.6-1.6c0-0.8,0.3-1.6,0.8-2.1
		c0.6-0.6,1.3-0.8,2.2-0.8c0.5,0,1,0.1,1.3,0.3c0.3,0.2,0.5,0.5,0.5,0.9c0,0.6-0.2,1-0.7,1.3s-1.1,0.5-1.8,0.5
		C42.7,597.4,42.3,597.4,42,597.3z M42.2,596.4c0.2,0.1,0.4,0.1,0.7,0.1c0.4,0,0.8-0.1,1.1-0.2c0.3-0.1,0.4-0.3,0.4-0.6
		s-0.3-0.4-0.9-0.4c-0.2,0-0.5,0.1-0.7,0.3C42.6,595.8,42.4,596.1,42.2,596.4z"/>
	<path fill="#FFFFFF" d="M50.2,599.4H49l0.6-2.9c0-0.2,0.1-0.4,0.1-0.6c0-0.4-0.2-0.6-0.7-0.6c-0.4,0-0.8,0.2-1.1,0.5l-0.7,3.5H46
		l0.7-3.7c0-0.1,0-0.2,0-0.3c0-0.3,0-0.6-0.1-0.9l1.2-0.2l0.1,0.6c0.4-0.4,0.9-0.5,1.6-0.5c1,0,1.6,0.5,1.6,1.4c0,0.2,0,0.4-0.1,0.6
		L50.2,599.4z"/>
	<path fill="#FFFFFF" d="M55.8,599.4h-1.2l0.1-0.5c-0.3,0.4-0.7,0.6-1.3,0.6s-1.1-0.2-1.4-0.5c-0.3-0.3-0.5-0.8-0.5-1.4
		c0-0.9,0.3-1.7,0.8-2.3c0.5-0.6,1.3-0.9,2.2-0.9c0.2,0,0.4,0,0.6,0.1c0.2,0.1,0.4,0.1,0.5,0.2l0.4-2.2h1.1L55.8,599.4z M54.5,595.4
		c-0.5,0-1,0.2-1.3,0.6c-0.3,0.4-0.5,0.9-0.5,1.5c0,0.7,0.3,1.1,1,1.1s1.1-0.5,1.3-1.6l0.2-1.2C55.1,595.5,54.9,595.4,54.5,595.4z"
		/>
	<path fill="#FFFFFF" d="M58.8,599.4h-1.2l0.8-4h-0.6l0.2-0.9h1.8L58.8,599.4z M58.5,592.9c0-0.2,0.1-0.4,0.2-0.5
		c0.1-0.1,0.3-0.2,0.5-0.2s0.4,0.1,0.5,0.2c0.2,0.1,0.2,0.3,0.2,0.5s-0.1,0.4-0.2,0.5c-0.2,0.1-0.3,0.2-0.5,0.2s-0.4-0.1-0.5-0.2
		C58.5,593.3,58.5,593.1,58.5,592.9z"/>
	<path fill="#FFFFFF" d="M62.2,598.4h2.4l-0.2,1h-4.2V599l3-3.5h-2.5l0.2-1h4.2v0.4L62.2,598.4z"/>
	<path fill="#FFFFFF" d="M70,597.6c0,0.1,0,0.2,0,0.4c0,0.7,0.1,1.1,0.2,1.4h-0.7c-0.2,0-0.4-0.2-0.5-0.5c-0.4,0.4-0.9,0.6-1.5,0.6
		c-0.5,0-1-0.2-1.3-0.5s-0.5-0.7-0.5-1.3c0-0.9,0.3-1.7,0.9-2.4c0.6-0.7,1.3-1,2.2-1s1.5,0.1,1.9,0.2L70,597.6z M68.6,595.3
		c-0.5,0-1,0.2-1.3,0.7s-0.5,1.1-0.5,1.7c0,0.5,0.3,0.8,0.8,0.8c0.3,0,0.6-0.2,0.9-0.6c0.3-0.4,0.5-1.3,0.7-2.5
		C69,595.4,68.8,595.3,68.6,595.3z"/>
	<path fill="#FFFFFF" d="M73.5,599.3c-0.1,0.7-0.4,1.2-0.9,1.5s-1.2,0.5-2.2,0.5l0.1-1c0.4,0,0.8,0,1-0.1c0.2-0.1,0.4-0.2,0.6-0.3
		c0.1-0.2,0.2-0.4,0.3-0.6l0.7-3.9h-0.7l0.2-0.9h1.8L73.5,599.3z M73.1,592.9c0-0.2,0.1-0.4,0.2-0.5c0.2-0.1,0.3-0.2,0.5-0.2
		s0.4,0.1,0.5,0.2c0.2,0.1,0.2,0.3,0.2,0.5s-0.1,0.4-0.2,0.5c-0.2,0.1-0.3,0.2-0.5,0.2s-0.4-0.1-0.5-0.2
		C73.2,593.3,73.1,593.1,73.1,592.9z"/>
	<path fill="#FFFFFF" d="M76.4,597.3c0,0.1,0,0.1,0,0.2c0,0.3,0.1,0.6,0.3,0.8c0.2,0.2,0.5,0.3,0.9,0.3c0.2,0,0.4-0.1,0.7-0.2
		c0.3-0.1,0.5-0.2,0.6-0.4l-0.1,1.2c-0.4,0.2-0.9,0.3-1.5,0.3s-1.1-0.2-1.5-0.6c-0.4-0.4-0.6-0.9-0.6-1.6c0-0.8,0.3-1.6,0.8-2.1
		c0.6-0.6,1.3-0.8,2.2-0.8c0.5,0,1,0.1,1.3,0.3c0.3,0.2,0.5,0.5,0.5,0.9c0,0.6-0.2,1-0.7,1.3s-1.1,0.5-1.8,0.5
		C77.1,597.4,76.8,597.4,76.4,597.3z M76.6,596.4c0.2,0.1,0.4,0.1,0.7,0.1c0.4,0,0.8-0.1,1.1-0.2c0.3-0.1,0.4-0.3,0.4-0.6
		s-0.3-0.4-0.9-0.4c-0.2,0-0.5,0.1-0.7,0.3C77,595.8,76.8,596.1,76.6,596.4z"/>
</g>
<g>
	<path d="M-113.6,286.7l-0.5,2.5h-1.3l1.3-6.7c0.7-0.1,1.2-0.1,1.5-0.1c1.8,0,2.8,0.7,2.8,2c0,0.8-0.3,1.3-0.8,1.8
		c-0.6,0.4-1.3,0.6-2.2,0.6C-113.1,286.8-113.3,286.8-113.6,286.7z M-113,283.5l-0.4,2.2c0.2,0,0.4,0.1,0.6,0.1c0.5,0,1-0.1,1.3-0.3
		s0.5-0.5,0.5-1c0-0.7-0.4-1.1-1.2-1.1C-112.5,283.4-112.8,283.4-113,283.5z"/>
	<path d="M-108.3,287.1c0,0.1,0,0.1,0,0.2c0,0.3,0.1,0.6,0.3,0.8c0.2,0.2,0.5,0.3,0.9,0.3c0.2,0,0.4-0.1,0.7-0.2
		c0.3-0.1,0.5-0.2,0.6-0.4l-0.1,1.2c-0.4,0.2-0.9,0.3-1.5,0.3s-1.1-0.2-1.5-0.6s-0.6-0.9-0.6-1.6c0-0.8,0.3-1.6,0.8-2.1
		c0.6-0.6,1.3-0.8,2.2-0.8c0.5,0,1,0.1,1.3,0.3c0.3,0.2,0.5,0.5,0.5,0.9c0,0.6-0.2,1-0.7,1.3c-0.5,0.3-1.1,0.5-1.8,0.5
		C-107.6,287.2-108,287.2-108.3,287.1z M-108.1,286.2c0.2,0.1,0.4,0.1,0.7,0.1c0.4,0,0.8-0.1,1.1-0.2c0.3-0.1,0.4-0.3,0.4-0.6
		s-0.3-0.4-0.9-0.4c-0.2,0-0.5,0.1-0.7,0.3C-107.7,285.6-107.9,285.9-108.1,286.2z"/>
	<path d="M-100.5,285.5c-0.3-0.2-0.5-0.3-0.7-0.3c-0.3,0-0.6,0.1-0.8,0.4c-0.3,0.3-0.4,0.6-0.5,0.9l-0.5,2.8h-1.2l0.9-4.9h1.2
		l-0.1,0.4c0.4-0.3,0.9-0.5,1.4-0.5c0.1,0,0.4,0,0.7,0.1L-100.5,285.5z"/>
	<path d="M-96.5,285.6c-0.4-0.3-0.7-0.5-1-0.5c-0.2,0-0.4,0-0.5,0.1c-0.1,0.1-0.2,0.2-0.2,0.4c0,0.2,0.2,0.4,0.5,0.5
		c0.3,0.2,0.6,0.3,0.8,0.4c0.2,0.1,0.3,0.2,0.5,0.4c0.1,0.2,0.2,0.4,0.2,0.6c0,0.5-0.2,1-0.6,1.3c-0.4,0.3-1,0.5-1.6,0.5
		s-1.1-0.2-1.6-0.5l0.6-1c0.4,0.4,0.8,0.5,1.2,0.5c0.2,0,0.4-0.1,0.6-0.2c0.2-0.1,0.2-0.3,0.2-0.5c0-0.2-0.1-0.3-0.4-0.5
		c-0.3-0.2-0.6-0.3-0.8-0.4c-0.2-0.1-0.4-0.3-0.5-0.5c-0.1-0.2-0.2-0.4-0.2-0.6c0-0.5,0.2-0.9,0.6-1.1c0.4-0.3,0.9-0.4,1.4-0.4
		c0.4,0,0.9,0.1,1.5,0.4L-96.5,285.6z"/>
	<path d="M-94.3,289.1l-0.4,2.1h-1.2l1-5.3c0-0.2,0.1-0.4,0.1-0.6c0-0.3,0-0.5-0.1-0.8l1.2-0.2c0,0.1,0.1,0.3,0.1,0.5
		c0.4-0.3,0.9-0.5,1.3-0.5c1.4,0,2,0.6,2,1.9c0,0.9-0.3,1.7-0.8,2.3c-0.6,0.6-1.3,0.9-2.2,0.9C-93.7,289.3-94,289.2-94.3,289.1z
		 M-94.1,288.1c0.2,0.2,0.4,0.2,0.7,0.2c0.6,0,1.1-0.2,1.4-0.6c0.3-0.4,0.5-0.9,0.5-1.6c0-0.3-0.1-0.6-0.3-0.8
		c-0.2-0.2-0.5-0.3-0.8-0.3c-0.2,0-0.3,0.1-0.5,0.1c-0.2,0.1-0.4,0.2-0.5,0.3L-94.1,288.1z"/>
	<path d="M-88.3,287.1c0,0.1,0,0.1,0,0.2c0,0.3,0.1,0.6,0.3,0.8c0.2,0.2,0.5,0.3,0.9,0.3c0.2,0,0.4-0.1,0.7-0.2
		c0.3-0.1,0.5-0.2,0.6-0.4l-0.1,1.2c-0.4,0.2-0.9,0.3-1.5,0.3c-0.6,0-1.1-0.2-1.5-0.6c-0.4-0.4-0.6-0.9-0.6-1.6
		c0-0.8,0.3-1.6,0.8-2.1c0.6-0.6,1.3-0.8,2.2-0.8c0.5,0,1,0.1,1.3,0.3c0.3,0.2,0.5,0.5,0.5,0.9c0,0.6-0.2,1-0.7,1.3
		c-0.5,0.3-1.1,0.5-1.8,0.5C-87.7,287.2-88,287.2-88.3,287.1z M-88.1,286.2c0.2,0.1,0.4,0.1,0.7,0.1c0.4,0,0.8-0.1,1.1-0.2
		c0.3-0.1,0.4-0.3,0.4-0.6s-0.3-0.4-0.9-0.4c-0.2,0-0.5,0.1-0.7,0.3C-87.8,285.6-88,285.9-88.1,286.2z"/>
	<path d="M-80.2,285.5c-0.3-0.2-0.7-0.4-1-0.4c-0.5,0-1,0.2-1.3,0.6c-0.3,0.4-0.5,0.9-0.5,1.5c0,0.3,0.1,0.6,0.3,0.8
		c0.2,0.2,0.4,0.3,0.7,0.3c0.4,0,0.9-0.2,1.5-0.5l-0.1,1.2c-0.5,0.2-1,0.3-1.5,0.3c-0.6,0-1.1-0.2-1.5-0.5c-0.4-0.3-0.6-0.8-0.6-1.4
		c0-0.9,0.3-1.7,0.8-2.3s1.3-0.9,2.1-0.9c0.5,0,0.9,0.1,1.3,0.3L-80.2,285.5z"/>
	<path d="M-75.8,285.2h-1.4l-0.5,2.2c0,0.2-0.1,0.3-0.1,0.4c0,0.3,0.2,0.5,0.6,0.5c0.2,0,0.5-0.1,0.9-0.2v1
		c-0.3,0.1-0.8,0.2-1.4,0.2c-0.4,0-0.7-0.1-0.9-0.4c-0.2-0.2-0.4-0.5-0.4-0.9c0-0.1,0-0.2,0-0.4l0.6-2.5H-79l0.2-0.9h0.6l0.2-1
		l1.4-0.5l-0.4,1.5h1.4L-75.8,285.2z"/>
	<path d="M-73.7,289.2h-1.2l0.8-4h-0.6l0.2-0.9h1.8L-73.7,289.2z M-74.1,282.7c0-0.2,0.1-0.4,0.2-0.5c0.2-0.1,0.3-0.2,0.5-0.2
		c0.2,0,0.4,0.1,0.5,0.2c0.2,0.1,0.2,0.3,0.2,0.5c0,0.2-0.1,0.4-0.2,0.5c-0.2,0.1-0.3,0.2-0.5,0.2c-0.2,0-0.4-0.1-0.5-0.2
		C-74,283.1-74.1,282.9-74.1,282.7z"/>
	<path d="M-70,289.3h-0.4l-1.6-5h1.2l0.9,3l1.8-3h1.4L-70,289.3z"/>
	<path d="M-62.4,287.4c0,0.1,0,0.2,0,0.4c0,0.7,0.1,1.1,0.2,1.4H-63c-0.2,0-0.4-0.2-0.5-0.5c-0.4,0.4-0.9,0.6-1.5,0.6
		c-0.5,0-1-0.2-1.3-0.5c-0.3-0.3-0.5-0.7-0.5-1.3c0-0.9,0.3-1.7,0.9-2.4c0.6-0.7,1.3-1,2.2-1s1.5,0.1,1.9,0.2L-62.4,287.4z
		 M-63.7,285.1c-0.5,0-1,0.2-1.3,0.7s-0.5,1.1-0.5,1.7c0,0.5,0.3,0.8,0.8,0.8c0.3,0,0.6-0.2,0.9-0.6c0.3-0.4,0.5-1.3,0.7-2.5
		C-63.3,285.2-63.5,285.1-63.7,285.1z"/>
	<path d="M-53.8,289.2H-55l0.1-0.5c-0.3,0.4-0.7,0.6-1.3,0.6c-0.6,0-1.1-0.2-1.4-0.5c-0.3-0.3-0.5-0.8-0.5-1.4
		c0-0.9,0.3-1.7,0.8-2.3s1.3-0.9,2.2-0.9c0.2,0,0.4,0,0.6,0.1s0.4,0.1,0.5,0.2l0.4-2.2h1.1L-53.8,289.2z M-55,285.2
		c-0.5,0-1,0.2-1.3,0.6c-0.3,0.4-0.5,0.9-0.5,1.5c0,0.7,0.3,1.1,1,1.1s1.1-0.5,1.3-1.6l0.2-1.2C-54.4,285.3-54.7,285.2-55,285.2z"/>
	<path d="M-51,287.1c0,0.1,0,0.1,0,0.2c0,0.3,0.1,0.6,0.3,0.8c0.2,0.2,0.5,0.3,0.9,0.3c0.2,0,0.4-0.1,0.7-0.2
		c0.3-0.1,0.5-0.2,0.6-0.4l-0.1,1.2c-0.4,0.2-0.9,0.3-1.5,0.3s-1.1-0.2-1.5-0.6s-0.6-0.9-0.6-1.6c0-0.8,0.3-1.6,0.8-2.1
		c0.6-0.6,1.3-0.8,2.2-0.8c0.5,0,1,0.1,1.3,0.3c0.3,0.2,0.5,0.5,0.5,0.9c0,0.6-0.2,1-0.7,1.3c-0.5,0.3-1.1,0.5-1.8,0.5
		C-50.3,287.2-50.7,287.2-51,287.1z M-50.8,286.2c0.2,0.1,0.4,0.1,0.7,0.1c0.4,0,0.8-0.1,1.1-0.2c0.3-0.1,0.4-0.3,0.4-0.6
		s-0.3-0.4-0.9-0.4c-0.2,0-0.5,0.1-0.7,0.3C-50.4,285.6-50.6,285.9-50.8,286.2z"/>
	<path d="M-45,288.8c-0.2,0.3-0.5,0.4-0.8,0.4s-0.5-0.1-0.7-0.3c-0.2-0.2-0.2-0.4-0.2-0.7c0-0.4,0.1-0.9,0.2-1.6l1-4.4h1.2l-1,4.6
		c-0.1,0.7-0.2,1.1-0.2,1.4c0,0.2,0.1,0.3,0.2,0.4C-45.3,288.8-45.2,288.8-45,288.8z"/>
	<path d="M-35.7,283.8c-0.4-0.2-0.8-0.4-1.2-0.4c-0.7,0-1.3,0.3-1.8,1c-0.5,0.7-0.7,1.4-0.7,2.2c0,0.5,0.1,0.9,0.4,1.2
		c0.3,0.3,0.6,0.5,1.1,0.5c0.7,0,1.3-0.2,1.7-0.6v1.1c-0.4,0.4-1.1,0.6-1.9,0.6s-1.4-0.2-1.8-0.7c-0.5-0.5-0.7-1.1-0.7-1.9
		c0-1.2,0.4-2.3,1.1-3.1c0.7-0.8,1.6-1.3,2.8-1.3c0.6,0,1.1,0.1,1.5,0.3L-35.7,283.8z"/>
	<path d="M-33,288.8c-0.2,0.3-0.5,0.4-0.8,0.4s-0.5-0.1-0.7-0.3c-0.2-0.2-0.2-0.4-0.2-0.7c0-0.4,0.1-0.9,0.2-1.6l1-4.4h1.2l-1,4.6
		c-0.1,0.7-0.2,1.1-0.2,1.4c0,0.2,0.1,0.3,0.2,0.4C-33.3,288.8-33.2,288.8-33,288.8z"/>
	<path d="M-30.3,289.2h-1.2l0.8-4h-0.6l0.2-0.9h1.8L-30.3,289.2z M-30.7,282.7c0-0.2,0.1-0.4,0.2-0.5c0.2-0.1,0.3-0.2,0.5-0.2
		s0.4,0.1,0.5,0.2c0.2,0.1,0.2,0.3,0.2,0.5c0,0.2-0.1,0.4-0.2,0.5c-0.2,0.1-0.3,0.2-0.5,0.2s-0.4-0.1-0.5-0.2
		C-30.6,283.1-30.7,282.9-30.7,282.7z"/>
	<path d="M-27.4,287.1c0,0.1,0,0.1,0,0.2c0,0.3,0.1,0.6,0.3,0.8c0.2,0.2,0.5,0.3,0.9,0.3c0.2,0,0.4-0.1,0.7-0.2
		c0.3-0.1,0.5-0.2,0.6-0.4L-25,289c-0.4,0.2-0.9,0.3-1.5,0.3s-1.1-0.2-1.5-0.6s-0.6-0.9-0.6-1.6c0-0.8,0.3-1.6,0.8-2.1
		c0.6-0.6,1.3-0.8,2.2-0.8c0.5,0,1,0.1,1.3,0.3c0.3,0.2,0.5,0.5,0.5,0.9c0,0.6-0.2,1-0.7,1.3c-0.5,0.3-1.1,0.5-1.8,0.5
		C-26.7,287.2-27,287.2-27.4,287.1z M-27.2,286.2c0.2,0.1,0.4,0.1,0.7,0.1c0.4,0,0.8-0.1,1.1-0.2c0.3-0.1,0.4-0.3,0.4-0.6
		s-0.3-0.4-0.9-0.4c-0.2,0-0.5,0.1-0.7,0.3C-26.8,285.6-27,285.9-27.2,286.2z"/>
	<path d="M-19.2,289.2h-1.2l0.6-2.9c0-0.2,0.1-0.4,0.1-0.6c0-0.4-0.2-0.6-0.7-0.6c-0.4,0-0.8,0.2-1.1,0.5l-0.7,3.5h-1.2l0.7-3.7
		c0-0.1,0-0.2,0-0.3c0-0.3,0-0.6-0.1-0.9l1.2-0.2l0.1,0.6c0.4-0.4,0.9-0.5,1.6-0.5c1,0,1.6,0.5,1.6,1.4c0,0.2,0,0.4-0.1,0.6
		L-19.2,289.2z"/>
	<path d="M-14.2,285.2h-1.4l-0.5,2.2c0,0.2-0.1,0.3-0.1,0.4c0,0.3,0.2,0.5,0.6,0.5c0.2,0,0.5-0.1,0.9-0.2v1
		c-0.3,0.1-0.8,0.2-1.4,0.2c-0.4,0-0.7-0.1-0.9-0.4c-0.2-0.2-0.4-0.5-0.4-0.9c0-0.1,0-0.2,0-0.4l0.6-2.5h-0.6l0.2-0.9h0.6l0.2-1
		l1.4-0.5l-0.4,1.5h1.4L-14.2,285.2z"/>
	<path d="M-12.3,287.1c0,0.1,0,0.1,0,0.2c0,0.3,0.1,0.6,0.3,0.8c0.2,0.2,0.5,0.3,0.9,0.3c0.2,0,0.4-0.1,0.7-0.2
		c0.3-0.1,0.5-0.2,0.6-0.4l-0.1,1.2c-0.4,0.2-0.9,0.3-1.5,0.3s-1.1-0.2-1.5-0.6s-0.6-0.9-0.6-1.6c0-0.8,0.3-1.6,0.8-2.1
		c0.6-0.6,1.3-0.8,2.2-0.8c0.5,0,1,0.1,1.3,0.3c0.3,0.2,0.5,0.5,0.5,0.9c0,0.6-0.2,1-0.7,1.3c-0.5,0.3-1.1,0.5-1.8,0.5
		C-11.6,287.2-12,287.2-12.3,287.1z M-12.1,286.2c0.2,0.1,0.4,0.1,0.7,0.1c0.4,0,0.8-0.1,1.1-0.2c0.3-0.1,0.4-0.3,0.4-0.6
		s-0.3-0.4-0.9-0.4c-0.2,0-0.5,0.1-0.7,0.3C-11.8,285.6-12,285.9-12.1,286.2z"/>
</g>
<g>
	<g>
		<rect x="-114.8" y="358.1" fill="#5BB4EA" width="22" height="13.8"/>
	</g>
	<g>
		<rect x="-92.3" y="358.1" fill="#5BB4EA" width="41.5" height="13.8"/>
	</g>
	<g>
		<rect x="-12.6" y="358.1" fill="#B6C932" width="33.6" height="13.8"/>
	</g>
	<g>
		<g>
			<defs>
				<rect id="SVGID_1_" x="32.5" y="354.9" width="36.4" height="21.2"/>
			</defs>
			<clipPath id="SVGID_2_">
				<use xlink:href="#SVGID_1_"  overflow="visible"/>
			</clipPath>
			<g clip-path="url(#SVGID_2_)">
				<path fill="#5BB4EA" d="M57.3,374.3c0-0.2,0-0.4,0.1-0.4l0,0c0-0.1-0.1-0.2-0.1-0.4l0,0c0-0.2,0-0.4,0.1-0.4l0,0
					c0-0.1-0.1-0.2-0.1-0.4l0,0c0-0.2,0-0.4,0.1-0.5l0,0c0,0-0.1-0.2-0.1-0.4l0,0c0-0.2,0-0.4,0.1-0.4l0,0c0-0.1-0.1-0.2-0.1-0.4
					l0,0c0-0.2,0-0.4,0.1-0.4l0,0c0-0.1-0.1-0.2-0.1-0.4l0,0c0-0.2,0-0.4,0.1-0.4l0,0c0-0.1-0.1-0.2-0.1-0.5l0,0
					c0-0.2,0-0.4,0.1-0.4l0,0c0-0.1-0.1-0.2-0.1-0.4l0,0c0-0.2,0-0.4,0.1-0.4l0,0c0-0.1-0.1-0.2-0.1-0.4l0,0c0-0.2,0-0.4,0.1-0.4
					l0,0c0-0.1-0.1-0.2-0.1-0.5l0,0c0-0.2,0-0.4,0.1-0.4l0,0c0,0-0.1-0.2-0.1-0.4l0,0c0-0.2,0-0.4,0.1-0.4l0,0
					c0-0.1-0.1-0.2-0.1-0.4l0,0c0-0.2,0-0.4,0.1-0.4l0,0c0-0.1-0.1-0.2-0.1-0.4l0,0c0-0.2,0-0.4,0.1-0.4l0,0c0-0.1-0.1-0.2-0.1-0.5
					l0,0c0-0.2,0-0.4,0.1-0.4l0,0c0-0.1-0.1-0.2-0.1-0.4l0,0c0-0.2,0-0.4,0.1-0.4l0,0c0-0.1-0.1-0.2-0.1-0.4l0,0
					c0-0.2,0-0.4,0.1-0.4l0,0c0-0.1-0.1-0.2-0.1-0.5l0,0c0-0.2,0-0.4,0.1-0.4l0,0c0,0-0.1-0.2-0.1-0.4l0,0c0-0.2,0-0.4,0.1-0.4l0,0
					c0-0.1-0.1-0.2-0.1-0.4l0,0c0-0.2,0-0.4,0.1-0.4l0,0c0-0.1-0.1-0.2-0.1-0.4l0,0c0-0.2,0-0.4,0.1-0.4l0,0c0-0.1-0.1-0.2-0.1-0.4
					l0,0c0-0.3,0-0.5,0.1-0.5l0,0c0,0,0.1,0.2,0.1,0.5l0,0c0,0.2,0,0.4-0.1,0.4l0,0c0,0.1,0.1,0.2,0.1,0.4l0,0c0,0.2,0,0.4-0.1,0.4
					l0,0c0,0,0.1,0.2,0.1,0.4l0,0c0,0.2,0,0.4-0.1,0.4l0,0c0,0.1,0.1,0.2,0.1,0.4l0,0c0,0.2,0,0.4-0.1,0.4l0,0
					c0,0.1,0.1,0.2,0.1,0.4l0,0c0,0.2,0,0.4-0.1,0.5l0,0c0,0,0.1,0.2,0.1,0.4l0,0c0,0.2,0,0.4-0.1,0.4l0,0c0,0.1,0.1,0.2,0.1,0.4
					l0,0c0,0.2,0,0.4-0.1,0.4l0,0c0,0.1,0.1,0.2,0.1,0.4l0,0c0,0.2,0,0.4-0.1,0.5l0,0c0,0,0.1,0.2,0.1,0.4l0,0c0,0.2,0,0.4-0.1,0.4
					l0,0c0,0.1,0.1,0.2,0.1,0.4l0,0c0,0.2,0,0.4-0.1,0.4l0,0c0,0.1,0.1,0.2,0.1,0.4l0,0c0,0.2,0,0.4-0.1,0.4l0,0
					c0,0.1,0.1,0.2,0.1,0.4l0,0c0,0.2,0,0.4-0.1,0.5l0,0c0,0,0.1,0.2,0.1,0.4l0,0c0,0.2,0,0.4-0.1,0.4l0,0c0,0.1,0.1,0.2,0.1,0.4
					l0,0c0,0.2,0,0.4-0.1,0.4l0,0c0,0.1,0.1,0.2,0.1,0.4l0,0c0,0.2,0,0.4-0.1,0.5l0,0c0,0,0.1,0.2,0.1,0.4l0,0c0,0.2,0,0.4-0.1,0.4
					l0,0c0,0.1,0.1,0.2,0.1,0.4l0,0c0,0.2,0,0.4-0.1,0.4l0,0c0,0.1,0.1,0.2,0.1,0.4l0,0c0,0.2,0,0.4-0.1,0.4l0,0
					c0,0.1,0.1,0.2,0.1,0.5l0,0c0,0.2,0,0.4-0.1,0.4l0,0c0,0.1,0.1,0.2,0.1,0.4l0,0c0,0.2,0,0.4-0.1,0.4l0,0c0,0.1,0.1,0.2,0.1,0.4
					l0,0c0,0.3,0,0.5-0.1,0.5l0,0C57.3,374.8,57.3,374.6,57.3,374.3z"/>
			</g>
		</g>
	</g>
	<g>
		<g>
			<defs>
				<rect id="SVGID_3_" x="129.4" y="354.9" width="36.4" height="21.2"/>
			</defs>
			<clipPath id="SVGID_4_">
				<use xlink:href="#SVGID_3_"  overflow="visible"/>
			</clipPath>
			<g clip-path="url(#SVGID_4_)">
				<path fill="#5BB4EA" d="M154.3,374.3c0-0.2,0-0.4,0.1-0.4l0,0c0-0.1-0.1-0.2-0.1-0.4l0,0c0-0.2,0-0.4,0.1-0.4l0,0
					c0-0.1-0.1-0.2-0.1-0.4l0,0c0-0.2,0-0.4,0.1-0.5l0,0c0,0-0.1-0.2-0.1-0.4l0,0c0-0.2,0-0.4,0.1-0.4l0,0c0-0.1-0.1-0.2-0.1-0.4
					l0,0c0-0.2,0-0.4,0.1-0.4l0,0c0-0.1-0.1-0.2-0.1-0.4l0,0c0-0.2,0-0.4,0.1-0.4l0,0c0-0.1-0.1-0.2-0.1-0.5l0,0
					c0-0.2,0-0.4,0.1-0.4l0,0c0-0.1-0.1-0.2-0.1-0.4l0,0c0-0.2,0-0.4,0.1-0.4l0,0c0-0.1-0.1-0.2-0.1-0.4l0,0c0-0.2,0-0.4,0.1-0.4
					l0,0c0-0.1-0.1-0.2-0.1-0.5l0,0c0-0.2,0-0.4,0.1-0.4l0,0c0,0-0.1-0.2-0.1-0.4l0,0c0-0.2,0-0.4,0.1-0.4l0,0
					c0-0.1-0.1-0.2-0.1-0.4l0,0c0-0.2,0-0.4,0.1-0.4l0,0c0-0.1-0.1-0.2-0.1-0.4l0,0c0-0.2,0-0.4,0.1-0.4l0,0c0-0.1-0.1-0.2-0.1-0.5
					l0,0c0-0.2,0-0.4,0.1-0.4l0,0c0-0.1-0.1-0.2-0.1-0.4l0,0c0-0.2,0-0.4,0.1-0.4l0,0c0-0.1-0.1-0.2-0.1-0.4l0,0
					c0-0.2,0-0.4,0.1-0.4l0,0c0-0.1-0.1-0.2-0.1-0.5l0,0c0-0.2,0-0.4,0.1-0.4l0,0c0,0-0.1-0.2-0.1-0.4l0,0c0-0.2,0-0.4,0.1-0.4l0,0
					c0-0.1-0.1-0.2-0.1-0.4l0,0c0-0.2,0-0.4,0.1-0.4l0,0c0-0.1-0.1-0.2-0.1-0.4l0,0c0-0.2,0-0.4,0.1-0.4l0,0c0-0.1-0.1-0.2-0.1-0.4
					l0,0c0-0.3,0-0.5,0.1-0.5l0,0c0,0,0.1,0.2,0.1,0.5l0,0c0,0.2,0,0.4-0.1,0.4l0,0c0,0.1,0.1,0.2,0.1,0.4l0,0c0,0.2,0,0.4-0.1,0.4
					l0,0c0,0,0.1,0.2,0.1,0.4l0,0c0,0.2,0,0.4-0.1,0.4l0,0c0,0.1,0.1,0.2,0.1,0.4l0,0c0,0.2,0,0.4-0.1,0.4l0,0
					c0,0.1,0.1,0.2,0.1,0.4l0,0c0,0.2,0,0.4-0.1,0.5l0,0c0,0,0.1,0.2,0.1,0.4l0,0c0,0.2,0,0.4-0.1,0.4l0,0c0,0.1,0.1,0.2,0.1,0.4
					l0,0c0,0.2,0,0.4-0.1,0.4l0,0c0,0.1,0.1,0.2,0.1,0.4l0,0c0,0.2,0,0.4-0.1,0.5l0,0c0,0,0.1,0.2,0.1,0.4l0,0c0,0.2,0,0.4-0.1,0.4
					l0,0c0,0.1,0.1,0.2,0.1,0.4l0,0c0,0.2,0,0.4-0.1,0.4l0,0c0,0.1,0.1,0.2,0.1,0.4l0,0c0,0.2,0,0.4-0.1,0.4l0,0
					c0,0.1,0.1,0.2,0.1,0.4l0,0c0,0.2,0,0.4-0.1,0.5l0,0c0,0,0.1,0.2,0.1,0.4l0,0c0,0.2,0,0.4-0.1,0.4l0,0c0,0.1,0.1,0.2,0.1,0.4
					l0,0c0,0.2,0,0.4-0.1,0.4l0,0c0,0.1,0.1,0.2,0.1,0.4l0,0c0,0.2,0,0.4-0.1,0.5l0,0c0,0,0.1,0.2,0.1,0.4l0,0c0,0.2,0,0.4-0.1,0.4
					l0,0c0,0.1,0.1,0.2,0.1,0.4l0,0c0,0.2,0,0.4-0.1,0.4l0,0c0,0.1,0.1,0.2,0.1,0.4l0,0c0,0.2,0,0.4-0.1,0.4l0,0
					c0,0.1,0.1,0.2,0.1,0.5l0,0c0,0.2,0,0.4-0.1,0.4l0,0c0,0.1,0.1,0.2,0.1,0.4l0,0c0,0.2,0,0.4-0.1,0.4l0,0c0,0.1,0.1,0.2,0.1,0.4
					l0,0c0,0.3,0,0.5-0.1,0.5l0,0C154.3,374.8,154.3,374.6,154.3,374.3z"/>
			</g>
		</g>
	</g>
	<rect x="-117.5" y="362.3" fill="none" width="27" height="8.2"/>
	<g enable-background="new    ">
		<path fill="#FFFFFF" d="M-111.8,365.1v1.5h-0.8v-4.2c0.5,0,0.8,0,0.9,0c0.7,0,1.2,0.1,1.5,0.3s0.5,0.5,0.5,1c0,1-0.6,1.4-1.7,1.4
			C-111.5,365.1-111.6,365.1-111.8,365.1z M-111.8,363.1v1.3c0.1,0,0.2,0,0.3,0c0.3,0,0.6-0.1,0.8-0.2c0.2-0.1,0.2-0.3,0.2-0.6
			c0-0.4-0.4-0.7-1.1-0.7C-111.6,363.1-111.7,363.1-111.8,363.1z"/>
		<path fill="#FFFFFF" d="M-107.2,364.3c-0.1-0.1-0.3-0.1-0.4-0.1c-0.2,0-0.3,0.1-0.5,0.2s-0.2,0.3-0.2,0.6v1.7h-0.7v-3.1h0.7v0.3
			c0.2-0.2,0.5-0.3,0.8-0.3c0.3,0,0.4,0,0.6,0.1L-107.2,364.3z"/>
		<path fill="#FFFFFF" d="M-103.6,365.3h-2.3c0,0.2,0.1,0.4,0.3,0.6c0.2,0.1,0.4,0.2,0.6,0.2c0.3,0,0.6-0.1,0.8-0.3l0.3,0.5
			c-0.3,0.2-0.6,0.3-1.2,0.3c-0.5,0-0.9-0.1-1.1-0.4c-0.3-0.3-0.4-0.7-0.4-1.1c0-0.5,0.2-0.9,0.5-1.2s0.7-0.4,1.1-0.4
			c0.5,0,0.8,0.1,1.1,0.4c0.3,0.3,0.4,0.6,0.4,1C-103.6,365-103.6,365.2-103.6,365.3z M-105.9,364.8h1.5c-0.1-0.4-0.3-0.7-0.8-0.7
			C-105.5,364.1-105.8,364.4-105.9,364.8z"/>
		<path fill="#FFFFFF" d="M-100.5,363.8l-0.3,0.5c-0.2-0.2-0.4-0.2-0.7-0.2c-0.3,0-0.5,0.1-0.7,0.3c-0.2,0.2-0.2,0.4-0.2,0.7
			c0,0.6,0.3,1,0.9,1c0.3,0,0.5-0.1,0.7-0.3l0.3,0.6c-0.2,0.1-0.4,0.2-0.6,0.2c-0.2,0-0.3,0.1-0.6,0.1c-0.5,0-0.9-0.1-1.2-0.4
			s-0.4-0.7-0.4-1.1c0-0.5,0.2-0.9,0.5-1.2s0.7-0.4,1.3-0.4C-101.1,363.5-100.8,363.6-100.5,363.8z"/>
		<path fill="#FFFFFF" d="M-99.7,366.7v-2.5h-0.4v-0.6h1.1v3.1H-99.7z M-99.3,362.4c0.1,0,0.2,0,0.3,0.1c0.1,0.1,0.1,0.2,0.1,0.3
			c0,0.1,0,0.2-0.1,0.3c-0.1,0.1-0.2,0.1-0.3,0.1c-0.1,0-0.2,0-0.3-0.1c-0.1-0.1-0.1-0.2-0.1-0.3c0-0.1,0-0.2,0.1-0.3
			C-99.5,362.4-99.4,362.4-99.3,362.4z"/>
		<path fill="#FFFFFF" d="M-98.3,365.1c0-0.5,0.1-0.8,0.4-1.1c0.3-0.3,0.6-0.4,1.1-0.4c0.5,0,0.9,0.1,1.1,0.4
			c0.3,0.3,0.4,0.7,0.4,1.2c0,0.5-0.1,0.9-0.4,1.2s-0.6,0.4-1.1,0.4c-0.5,0-0.9-0.1-1.1-0.4S-98.3,365.6-98.3,365.1z M-97.5,365.1
			c0,0.7,0.3,1,0.8,1c0.2,0,0.4-0.1,0.5-0.3c0.1-0.2,0.2-0.4,0.2-0.8c0-0.7-0.2-1-0.7-1c-0.2,0-0.4,0.1-0.5,0.3
			C-97.5,364.6-97.5,364.8-97.5,365.1z"/>
	</g>
	<g>
		<rect x="191.2" y="358.1" fill="#5BB4EA" width="25.1" height="13.8"/>
	</g>
	<rect x="189.7" y="362.1" fill="none" width="27" height="8.4"/>
	<g enable-background="new    ">
		<path fill="#FFFFFF" d="M199.4,366.5h-0.7l-0.4-2.3l-0.9,2.3H197l-0.9-2.3l-0.5,2.3H195l0.9-4.2h0.4l0.9,2.8l0.9-2.8h0.4
			L199.4,366.5z"/>
		<path fill="#FFFFFF" d="M201.6,366.2c-0.1,0.1-0.2,0.2-0.3,0.3s-0.3,0.1-0.5,0.1c-0.3,0-0.6-0.1-0.8-0.2s-0.3-0.4-0.3-0.7
			c0-0.4,0.1-0.6,0.4-0.8c0.3-0.2,0.7-0.3,1.2-0.3c0.1,0,0.2,0,0.3,0c0-0.4-0.2-0.5-0.7-0.5c-0.3,0-0.5,0-0.7,0.1l-0.2-0.6
			c0.3-0.1,0.6-0.2,0.9-0.2c0.5,0,0.8,0.1,1.1,0.3s0.3,0.6,0.3,1.2v0.7c0,0.4,0.1,0.7,0.3,0.8c-0.1,0.1-0.1,0.2-0.2,0.2
			c-0.1,0-0.2,0-0.3,0c-0.1,0-0.2,0-0.3-0.1C201.6,366.3,201.6,366.2,201.6,366.2z M201.5,365c-0.1,0-0.2,0-0.3,0
			c-0.6,0-0.9,0.2-0.9,0.6c0,0.3,0.2,0.4,0.5,0.4c0.4,0,0.7-0.2,0.7-0.6V365z"/>
		<path fill="#FFFFFF" d="M204.8,364.1c-0.1-0.1-0.3-0.1-0.4-0.1c-0.2,0-0.3,0.1-0.5,0.2c-0.1,0.2-0.2,0.3-0.2,0.6v1.7H203v-3.1h0.7
			v0.3c0.2-0.2,0.5-0.3,0.8-0.3c0.3,0,0.4,0,0.6,0.1L204.8,364.1z"/>
		<path fill="#FFFFFF" d="M208.1,363.6l-0.3,0.5c-0.2-0.2-0.4-0.2-0.7-0.2c-0.3,0-0.5,0.1-0.7,0.3c-0.2,0.2-0.2,0.4-0.2,0.7
			c0,0.6,0.3,1,0.9,1c0.3,0,0.5-0.1,0.7-0.3l0.3,0.6c-0.2,0.1-0.4,0.2-0.6,0.2c-0.2,0-0.3,0.1-0.6,0.1c-0.5,0-0.9-0.1-1.2-0.4
			c-0.3-0.3-0.4-0.7-0.4-1.1c0-0.5,0.2-0.9,0.5-1.2c0.3-0.3,0.7-0.4,1.3-0.4C207.5,363.3,207.8,363.4,208.1,363.6z"/>
		<path fill="#FFFFFF" d="M210.4,366.2c-0.1,0.1-0.2,0.2-0.3,0.3s-0.3,0.1-0.5,0.1c-0.3,0-0.6-0.1-0.8-0.2s-0.3-0.4-0.3-0.7
			c0-0.4,0.1-0.6,0.4-0.8c0.3-0.2,0.7-0.3,1.2-0.3c0.1,0,0.2,0,0.3,0c0-0.4-0.2-0.5-0.7-0.5c-0.3,0-0.5,0-0.7,0.1l-0.2-0.6
			c0.3-0.1,0.6-0.2,0.9-0.2c0.5,0,0.8,0.1,1.1,0.3s0.3,0.6,0.3,1.2v0.7c0,0.4,0.1,0.7,0.3,0.8c-0.1,0.1-0.1,0.2-0.2,0.2
			c-0.1,0-0.2,0-0.3,0c-0.1,0-0.2,0-0.3-0.1C210.5,366.3,210.5,366.2,210.4,366.2z M210.4,365c-0.1,0-0.2,0-0.3,0
			c-0.6,0-0.9,0.2-0.9,0.6c0,0.3,0.2,0.4,0.5,0.4c0.4,0,0.7-0.2,0.7-0.6V365z"/>
	</g>
	<g>
		<rect x="128.1" y="358.1" fill="#5BB4EA" width="25.1" height="13.8"/>
	</g>
	<rect x="126.6" y="359.7" fill="none" width="27" height="12.3"/>
	<g enable-background="new    ">
		<path fill="#FFFFFF" d="M136.5,362.6v1.5h-0.8v-4.2c0.5,0,0.8,0,0.9,0c0.7,0,1.2,0.1,1.5,0.3c0.3,0.2,0.5,0.5,0.5,1
			c0,1-0.6,1.4-1.7,1.4C136.8,362.6,136.6,362.6,136.5,362.6z M136.5,360.6v1.3c0.1,0,0.2,0,0.3,0c0.3,0,0.6-0.1,0.8-0.2
			c0.2-0.1,0.2-0.3,0.2-0.6c0-0.4-0.4-0.7-1.1-0.7C136.7,360.5,136.6,360.5,136.5,360.6z"/>
		<path fill="#FFFFFF" d="M138.7,362.6c0-0.5,0.1-0.8,0.4-1.1c0.3-0.3,0.6-0.4,1.1-0.4c0.5,0,0.9,0.1,1.1,0.4
			c0.3,0.3,0.4,0.7,0.4,1.2c0,0.5-0.1,0.9-0.4,1.2c-0.3,0.3-0.6,0.4-1.1,0.4c-0.5,0-0.9-0.1-1.1-0.4
			C138.9,363.4,138.7,363,138.7,362.6z M139.5,362.6c0,0.7,0.3,1,0.8,1c0.2,0,0.4-0.1,0.5-0.3c0.1-0.2,0.2-0.4,0.2-0.8
			c0-0.7-0.2-1-0.7-1c-0.2,0-0.4,0.1-0.5,0.3C139.6,362,139.5,362.3,139.5,362.6z"/>
		<path fill="#FFFFFF" d="M142.2,363.9l0.3-0.6c0.2,0.2,0.5,0.3,0.7,0.3c0.3,0,0.4-0.1,0.4-0.3c0-0.1,0-0.2-0.1-0.3
			c-0.1-0.1-0.3-0.2-0.5-0.3c-0.5-0.2-0.8-0.5-0.8-0.9c0-0.3,0.1-0.5,0.3-0.6c0.2-0.1,0.5-0.2,0.8-0.2c0.3,0,0.6,0.1,0.9,0.2
			l-0.2,0.6c-0.2-0.1-0.4-0.2-0.7-0.2c-0.3,0-0.4,0.1-0.4,0.3c0,0.1,0,0.1,0.1,0.2c0.1,0.1,0.3,0.1,0.5,0.3c0.3,0.1,0.5,0.2,0.6,0.4
			c0.1,0.2,0.2,0.3,0.2,0.5c0,0.3-0.1,0.5-0.3,0.7s-0.5,0.2-0.9,0.2c-0.2,0-0.4,0-0.5,0C142.5,364.1,142.4,364,142.2,363.9z"/>
	</g>
	<g enable-background="new    ">
		<path fill="#FFFFFF" d="M134,371.2h-0.4l-1.6-4.3h0.8l1,2.8l1.1-2.8h0.8L134,371.2z"/>
		<path fill="#FFFFFF" d="M138.5,369.8h-2.3c0,0.2,0.1,0.4,0.3,0.6c0.2,0.1,0.4,0.2,0.6,0.2c0.3,0,0.6-0.1,0.8-0.3l0.3,0.5
			c-0.3,0.2-0.6,0.3-1.2,0.3c-0.5,0-0.9-0.1-1.1-0.4c-0.3-0.3-0.4-0.7-0.4-1.1c0-0.5,0.2-0.9,0.5-1.2c0.3-0.3,0.7-0.4,1.1-0.4
			c0.5,0,0.8,0.1,1.1,0.4c0.3,0.3,0.4,0.6,0.4,1C138.6,369.5,138.6,369.6,138.5,369.8z M136.3,369.3h1.5c-0.1-0.4-0.3-0.7-0.8-0.7
			C136.7,368.6,136.4,368.8,136.3,369.3z"/>
		<path fill="#FFFFFF" d="M141.2,371.1v-1.8c0-0.3-0.1-0.5-0.2-0.6c-0.1-0.1-0.3-0.2-0.5-0.2c-0.1,0-0.2,0-0.3,0.1s-0.2,0.1-0.3,0.2
			v2.2h-0.7V368h0.5l0.1,0.3c0.2-0.2,0.5-0.3,0.9-0.3c0.4,0,0.7,0.1,0.9,0.3c0.2,0.2,0.3,0.5,0.3,0.9v1.9H141.2z"/>
		<path fill="#FFFFFF" d="M142.9,368.6h-0.4V368h0.4v-0.6l0.7-0.3v0.9h0.9v0.6h-0.9v1.3c0,0.2,0,0.4,0.1,0.5
			c0.1,0.1,0.2,0.1,0.4,0.1c0.2,0,0.3,0,0.5-0.1v0.7c-0.2,0.1-0.4,0.1-0.7,0.1c-0.3,0-0.6-0.1-0.7-0.3c-0.2-0.2-0.3-0.4-0.3-0.7
			V368.6z"/>
		<path fill="#FFFFFF" d="M146.9,370.8c-0.1,0.1-0.2,0.2-0.3,0.3s-0.3,0.1-0.5,0.1c-0.3,0-0.6-0.1-0.8-0.2s-0.3-0.4-0.3-0.7
			c0-0.4,0.1-0.6,0.4-0.8s0.7-0.3,1.2-0.3c0.1,0,0.2,0,0.3,0c0-0.4-0.2-0.5-0.7-0.5c-0.3,0-0.5,0-0.7,0.1l-0.2-0.6
			c0.3-0.1,0.6-0.2,0.9-0.2c0.5,0,0.8,0.1,1.1,0.3c0.2,0.2,0.3,0.6,0.3,1.2v0.7c0,0.4,0.1,0.7,0.3,0.8c-0.1,0.1-0.1,0.2-0.2,0.2
			c-0.1,0-0.2,0-0.3,0c-0.1,0-0.2,0-0.3-0.1C147,371,146.9,370.9,146.9,370.8z M146.8,369.7c-0.1,0-0.2,0-0.3,0
			c-0.6,0-0.9,0.2-0.9,0.6c0,0.3,0.2,0.4,0.5,0.4c0.4,0,0.7-0.2,0.7-0.6V369.7z"/>
	</g>
	<rect x="-94.4" y="362.3" fill="none" width="44.6" height="8.2"/>
	<g enable-background="new    ">
		<path fill="#FFFFFF" d="M-88.3,362.7l-0.3,0.6c-0.2-0.2-0.4-0.2-0.8-0.2c-0.4,0-0.7,0.1-0.9,0.4c-0.2,0.3-0.3,0.7-0.3,1.1
			c0,0.4,0.1,0.8,0.3,1.1c0.2,0.3,0.5,0.4,0.9,0.4c0.4,0,0.7-0.1,1-0.4l0.4,0.6c-0.3,0.3-0.8,0.5-1.4,0.5c-0.6,0-1.1-0.2-1.4-0.6
			c-0.3-0.4-0.5-0.9-0.5-1.6c0-0.6,0.2-1.1,0.6-1.6s0.8-0.6,1.4-0.6C-89,362.4-88.6,362.5-88.3,362.7z"/>
		<path fill="#FFFFFF" d="M-85.6,366.7v-0.3c-0.1,0.1-0.2,0.2-0.4,0.2s-0.4,0.1-0.5,0.1c-0.7,0-1.1-0.4-1.1-1.1v-2h0.7v1.9
			c0,0.4,0.2,0.6,0.5,0.6c0.2,0,0.3,0,0.5-0.1c0.1-0.1,0.2-0.2,0.3-0.3v-2.1h0.7v3.1H-85.6z"/>
		<path fill="#FFFFFF" d="M-80.4,366.7v-1.9c0-0.4-0.2-0.6-0.6-0.6c-0.1,0-0.2,0-0.3,0.1c-0.1,0.1-0.2,0.1-0.2,0.2v2.2h-0.7v-2
			c0-0.2,0-0.3-0.1-0.4c-0.1-0.1-0.2-0.1-0.4-0.1c-0.1,0-0.2,0-0.3,0.1c-0.1,0.1-0.2,0.1-0.2,0.2v2.2h-0.7v-3.1h0.5l0.1,0.3
			c0.2-0.2,0.5-0.3,0.8-0.3c0.4,0,0.7,0.1,0.9,0.3c0.1-0.1,0.2-0.2,0.4-0.2c0.2-0.1,0.3-0.1,0.5-0.1c0.4,0,0.6,0.1,0.8,0.3
			c0.2,0.2,0.3,0.5,0.3,0.8v2H-80.4z"/>
		<path fill="#FFFFFF" d="M-78.2,366.6v1.3h-0.7v-4.3h0.7v0.2c0.2-0.2,0.4-0.3,0.7-0.3c1,0,1.5,0.5,1.5,1.6c0,0.5-0.1,0.9-0.4,1.2
			s-0.7,0.4-1.1,0.4C-77.8,366.7-78,366.7-78.2,366.6z M-78.2,364.3v1.6c0.1,0.1,0.3,0.2,0.5,0.2c0.3,0,0.6-0.1,0.7-0.2
			c0.1-0.2,0.2-0.4,0.2-0.7c0-0.4-0.1-0.6-0.2-0.8c-0.1-0.1-0.4-0.2-0.7-0.2C-77.9,364.1-78.1,364.2-78.2,364.3z"/>
		<path fill="#FFFFFF" d="M-75.2,362.4l0.7-0.2v3.4c0,0.4,0.1,0.6,0.3,0.7c-0.1,0.2-0.3,0.3-0.6,0.3c-0.3,0-0.5-0.2-0.5-0.7V362.4z"
			/>
		<path fill="#FFFFFF" d="M-73.4,366.7v-2.5h-0.4v-0.6h1.1v3.1H-73.4z M-73,362.4c0.1,0,0.2,0,0.3,0.1c0.1,0.1,0.1,0.2,0.1,0.3
			c0,0.1,0,0.2-0.1,0.3c-0.1,0.1-0.2,0.1-0.3,0.1c-0.1,0-0.2,0-0.3-0.1c-0.1-0.1-0.1-0.2-0.1-0.3c0-0.1,0-0.2,0.1-0.3
			C-73.2,362.4-73.1,362.4-73,362.4z"/>
		<path fill="#FFFFFF" d="M-68.1,366.7v-1.9c0-0.4-0.2-0.6-0.6-0.6c-0.1,0-0.2,0-0.3,0.1c-0.1,0.1-0.2,0.1-0.2,0.2v2.2H-70v-2
			c0-0.2,0-0.3-0.1-0.4c-0.1-0.1-0.2-0.1-0.4-0.1c-0.1,0-0.2,0-0.3,0.1c-0.1,0.1-0.2,0.1-0.2,0.2v2.2h-0.7v-3.1h0.5l0.1,0.3
			c0.2-0.2,0.5-0.3,0.8-0.3c0.4,0,0.7,0.1,0.9,0.3c0.1-0.1,0.2-0.2,0.4-0.2c0.2-0.1,0.3-0.1,0.5-0.1c0.4,0,0.6,0.1,0.8,0.3
			c0.2,0.2,0.3,0.5,0.3,0.8v2H-68.1z"/>
		<path fill="#FFFFFF" d="M-66.4,366.7v-2.5h-0.4v-0.6h1.1v3.1H-66.4z M-66,362.4c0.1,0,0.2,0,0.3,0.1c0.1,0.1,0.1,0.2,0.1,0.3
			c0,0.1,0,0.2-0.1,0.3c-0.1,0.1-0.2,0.1-0.3,0.1c-0.1,0-0.2,0-0.3-0.1c-0.1-0.1-0.1-0.2-0.1-0.3c0-0.1,0-0.2,0.1-0.3
			C-66.3,362.4-66.2,362.4-66,362.4z"/>
		<path fill="#FFFFFF" d="M-62,365.3h-2.3c0,0.2,0.1,0.4,0.3,0.6c0.2,0.1,0.4,0.2,0.6,0.2c0.3,0,0.6-0.1,0.8-0.3l0.3,0.5
			c-0.3,0.2-0.6,0.3-1.2,0.3c-0.5,0-0.9-0.1-1.1-0.4c-0.3-0.3-0.4-0.7-0.4-1.1c0-0.5,0.2-0.9,0.5-1.2s0.7-0.4,1.1-0.4
			c0.5,0,0.8,0.1,1.1,0.4c0.3,0.3,0.4,0.6,0.4,1C-61.9,365-62,365.2-62,365.3z M-64.2,364.8h1.5c-0.1-0.4-0.3-0.7-0.8-0.7
			C-63.9,364.1-64.1,364.4-64.2,364.8z"/>
		<path fill="#FFFFFF" d="M-59.3,366.7v-1.8c0-0.3-0.1-0.5-0.2-0.6c-0.1-0.1-0.3-0.2-0.5-0.2c-0.1,0-0.2,0-0.3,0.1s-0.2,0.1-0.3,0.2
			v2.2h-0.7v-3.1h0.5l0.1,0.3c0.2-0.2,0.5-0.3,0.9-0.3c0.4,0,0.7,0.1,0.9,0.3c0.2,0.2,0.3,0.5,0.3,0.9v1.9H-59.3z"/>
		<path fill="#FFFFFF" d="M-57.7,364.2H-58v-0.6h0.4V363l0.7-0.3v0.9h0.9v0.6h-0.9v1.3c0,0.2,0,0.4,0.1,0.5c0.1,0.1,0.2,0.1,0.4,0.1
			s0.3,0,0.5-0.1v0.7c-0.2,0.1-0.4,0.1-0.7,0.1c-0.3,0-0.6-0.1-0.7-0.3c-0.2-0.2-0.3-0.4-0.3-0.7V364.2z"/>
		<path fill="#FFFFFF" d="M-55.6,365.1c0-0.5,0.1-0.8,0.4-1.1c0.3-0.3,0.6-0.4,1.1-0.4c0.5,0,0.9,0.1,1.1,0.4
			c0.3,0.3,0.4,0.7,0.4,1.2c0,0.5-0.1,0.9-0.4,1.2s-0.6,0.4-1.1,0.4c-0.5,0-0.9-0.1-1.1-0.4S-55.6,365.6-55.6,365.1z M-54.8,365.1
			c0,0.7,0.3,1,0.8,1c0.2,0,0.4-0.1,0.5-0.3c0.1-0.2,0.2-0.4,0.2-0.8c0-0.7-0.2-1-0.7-1c-0.2,0-0.4,0.1-0.5,0.3
			C-54.8,364.6-54.8,364.8-54.8,365.1z"/>
	</g>
	<g>
		<rect x="-50" y="358.1" fill="#5BB4EA" width="36.8" height="13.8"/>
	</g>
	<rect x="-54.4" y="362.3" fill="none" width="44.6" height="8.2"/>
	<g enable-background="new    ">
		<path fill="#FFFFFF" d="M-47.3,363.1v1h1.5v0.6h-1.5v1.9h-0.8v-4.2h2.8v0.7H-47.3z"/>
		<path fill="#FFFFFF" d="M-44.5,362.4l0.7-0.2v3.4c0,0.4,0.1,0.6,0.3,0.7c-0.1,0.2-0.3,0.3-0.6,0.3c-0.3,0-0.5-0.2-0.5-0.7V362.4z"
			/>
		<path fill="#FFFFFF" d="M-40,365.3h-2.3c0,0.2,0.1,0.4,0.3,0.6c0.2,0.1,0.4,0.2,0.6,0.2c0.3,0,0.6-0.1,0.8-0.3l0.3,0.5
			c-0.3,0.2-0.6,0.3-1.2,0.3c-0.5,0-0.9-0.1-1.1-0.4c-0.3-0.3-0.4-0.7-0.4-1.1c0-0.5,0.2-0.9,0.5-1.2s0.7-0.4,1.1-0.4
			c0.5,0,0.8,0.1,1.1,0.4c0.3,0.3,0.4,0.6,0.4,1C-40,365-40,365.2-40,365.3z M-42.3,364.8h1.5c-0.1-0.4-0.3-0.7-0.8-0.7
			C-41.9,364.1-42.2,364.4-42.3,364.8z"/>
		<path fill="#FFFFFF" d="M-37.4,366.7l-0.8-1l-0.7,1h-0.9l1.2-1.6l-1.1-1.5h0.8l0.7,0.9l0.7-0.9h0.8l-1.2,1.5l1.3,1.6H-37.4z"/>
		<path fill="#FFFFFF" d="M-35.9,366.7v-2.5h-0.4v-0.6h1.1v3.1H-35.9z M-35.5,362.4c0.1,0,0.2,0,0.3,0.1c0.1,0.1,0.1,0.2,0.1,0.3
			c0,0.1,0,0.2-0.1,0.3c-0.1,0.1-0.2,0.1-0.3,0.1c-0.1,0-0.2,0-0.3-0.1c-0.1-0.1-0.1-0.2-0.1-0.3c0-0.1,0-0.2,0.1-0.3
			C-35.7,362.4-35.6,362.4-35.5,362.4z"/>
		<path fill="#FFFFFF" d="M-33.7,366.5l-0.2,0.2h-0.4v-4.3l0.7-0.2v1.4c0.2-0.1,0.4-0.2,0.6-0.2c0.5,0,0.8,0.1,1.1,0.4
			c0.3,0.3,0.4,0.6,0.4,1.1c0,0.5-0.1,0.9-0.4,1.2c-0.3,0.3-0.7,0.4-1.2,0.4C-33.3,366.7-33.5,366.6-33.7,366.5z M-33.6,364.3v1.6
			c0.1,0.1,0.3,0.2,0.4,0.2c0.4,0,0.6-0.1,0.8-0.2s0.2-0.4,0.2-0.8c0-0.6-0.3-0.9-0.9-0.9C-33.3,364.1-33.5,364.2-33.6,364.3z"/>
		<path fill="#FFFFFF" d="M-30.6,366.7v-2.5H-31v-0.6h1.1v3.1H-30.6z M-30.2,362.4c0.1,0,0.2,0,0.3,0.1c0.1,0.1,0.1,0.2,0.1,0.3
			c0,0.1,0,0.2-0.1,0.3c-0.1,0.1-0.2,0.1-0.3,0.1c-0.1,0-0.2,0-0.3-0.1c-0.1-0.1-0.1-0.2-0.1-0.3c0-0.1,0-0.2,0.1-0.3
			C-30.4,362.4-30.3,362.4-30.2,362.4z"/>
		<path fill="#FFFFFF" d="M-28.8,362.4l0.7-0.2v3.4c0,0.4,0.1,0.6,0.3,0.7c-0.1,0.2-0.3,0.3-0.6,0.3c-0.3,0-0.5-0.2-0.5-0.7V362.4z"
			/>
		<path fill="#FFFFFF" d="M-27,366.7v-2.5h-0.4v-0.6h1.1v3.1H-27z M-26.6,362.4c0.1,0,0.2,0,0.3,0.1c0.1,0.1,0.1,0.2,0.1,0.3
			c0,0.1,0,0.2-0.1,0.3c-0.1,0.1-0.2,0.1-0.3,0.1c-0.1,0-0.2,0-0.3-0.1c-0.1-0.1-0.1-0.2-0.1-0.3c0-0.1,0-0.2,0.1-0.3
			C-26.8,362.4-26.7,362.4-26.6,362.4z"/>
		<path fill="#FFFFFF" d="M-23.3,366.7v-0.2c-0.1,0.1-0.2,0.1-0.3,0.2c-0.1,0-0.3,0.1-0.5,0.1c-0.4,0-0.8-0.1-1-0.4
			c-0.3-0.3-0.4-0.6-0.4-1.1c0-0.5,0.1-0.9,0.4-1.2c0.3-0.3,0.7-0.5,1.1-0.5c0.2,0,0.5,0,0.7,0.1v-1.2l0.7-0.2v4.4H-23.3z
			 M-23.3,364.3c-0.2-0.1-0.3-0.2-0.5-0.2c-0.3,0-0.5,0.1-0.7,0.3c-0.2,0.2-0.2,0.4-0.2,0.8c0,0.6,0.3,1,0.9,1c0.1,0,0.2,0,0.3-0.1
			c0.1,0,0.2-0.1,0.2-0.1V364.3z"/>
		<path fill="#FFFFFF" d="M-20.1,366.3c-0.1,0.1-0.2,0.2-0.3,0.3s-0.3,0.1-0.5,0.1c-0.3,0-0.6-0.1-0.8-0.2s-0.3-0.4-0.3-0.7
			c0-0.4,0.1-0.6,0.4-0.8s0.7-0.3,1.2-0.3c0.1,0,0.2,0,0.3,0c0-0.4-0.2-0.5-0.7-0.5c-0.3,0-0.5,0-0.7,0.1l-0.2-0.6
			c0.3-0.1,0.6-0.2,0.9-0.2c0.5,0,0.8,0.1,1.1,0.3c0.2,0.2,0.3,0.6,0.3,1.2v0.7c0,0.4,0.1,0.7,0.3,0.8c-0.1,0.1-0.1,0.2-0.2,0.2
			s-0.2,0-0.3,0c-0.1,0-0.2,0-0.3-0.1C-20,366.5-20.1,366.4-20.1,366.3z M-20.2,365.2c-0.1,0-0.2,0-0.3,0c-0.6,0-0.9,0.2-0.9,0.6
			c0,0.3,0.2,0.4,0.5,0.4c0.4,0,0.7-0.2,0.7-0.6V365.2z"/>
		<path fill="#FFFFFF" d="M-16.6,366.7v-0.2c-0.1,0.1-0.2,0.1-0.3,0.2c-0.1,0-0.3,0.1-0.5,0.1c-0.4,0-0.8-0.1-1-0.4
			c-0.3-0.3-0.4-0.6-0.4-1.1c0-0.5,0.1-0.9,0.4-1.2c0.3-0.3,0.7-0.5,1.1-0.5c0.2,0,0.5,0,0.7,0.1v-1.2l0.7-0.2v4.4H-16.6z
			 M-16.6,364.3c-0.2-0.1-0.3-0.2-0.5-0.2c-0.3,0-0.5,0.1-0.7,0.3c-0.2,0.2-0.2,0.4-0.2,0.8c0,0.6,0.3,1,0.9,1c0.1,0,0.2,0,0.3-0.1
			c0.1,0,0.2-0.1,0.2-0.1V364.3z"/>
	</g>
	<rect x="-18.3" y="359.5" fill="none" width="44.6" height="12.1"/>
	<g enable-background="new    ">
		<path fill="#FFFFFF" d="M-10.8,363.9v-4.2h0.8v4.2H-10.8z"/>
		<path fill="#FFFFFF" d="M-7.1,363.9v-1.8c0-0.3-0.1-0.5-0.2-0.6c-0.1-0.1-0.3-0.2-0.5-0.2c-0.1,0-0.2,0-0.3,0.1s-0.2,0.1-0.3,0.2
			v2.2h-0.7v-3.1h0.5l0.1,0.3c0.2-0.2,0.5-0.3,0.9-0.3c0.4,0,0.7,0.1,0.9,0.3c0.2,0.2,0.3,0.5,0.3,0.9v1.9H-7.1z"/>
		<path fill="#FFFFFF" d="M-3.6,363.9v-1.8c0-0.3-0.1-0.5-0.2-0.6c-0.1-0.1-0.3-0.2-0.5-0.2c-0.1,0-0.2,0-0.3,0.1s-0.2,0.1-0.3,0.2
			v2.2h-0.7v-3.1H-5l0.1,0.3c0.2-0.2,0.5-0.3,0.9-0.3c0.4,0,0.7,0.1,0.9,0.3c0.2,0.2,0.3,0.5,0.3,0.9v1.9H-3.6z"/>
		<path fill="#FFFFFF" d="M-2.2,362.4c0-0.5,0.1-0.8,0.4-1.1c0.3-0.3,0.6-0.4,1.1-0.4c0.5,0,0.9,0.1,1.1,0.4
			c0.3,0.3,0.4,0.7,0.4,1.2c0,0.5-0.1,0.9-0.4,1.2s-0.6,0.4-1.1,0.4c-0.5,0-0.9-0.1-1.1-0.4S-2.2,362.9-2.2,362.4z M-1.5,362.4
			c0,0.7,0.3,1,0.8,1c0.2,0,0.4-0.1,0.5-0.3c0.1-0.2,0.2-0.4,0.2-0.8c0-0.7-0.2-1-0.7-1c-0.2,0-0.4,0.1-0.5,0.3
			C-1.4,361.8-1.5,362.1-1.5,362.4z"/>
		<path fill="#FFFFFF" d="M2.7,364H2.4L1,360.8h0.8l0.8,1.9l0.8-1.9h0.8L2.7,364z"/>
		<path fill="#FFFFFF" d="M6.3,363.6c-0.1,0.1-0.2,0.2-0.3,0.3S5.6,364,5.5,364c-0.3,0-0.6-0.1-0.8-0.2s-0.3-0.4-0.3-0.7
			c0-0.4,0.1-0.6,0.4-0.8s0.7-0.3,1.2-0.3c0.1,0,0.2,0,0.3,0c0-0.4-0.2-0.5-0.7-0.5c-0.3,0-0.5,0-0.7,0.1L4.7,361
			c0.3-0.1,0.6-0.2,0.9-0.2c0.5,0,0.8,0.1,1.1,0.3c0.2,0.2,0.3,0.6,0.3,1.2v0.7c0,0.4,0.1,0.7,0.3,0.8c-0.1,0.1-0.1,0.2-0.2,0.2
			s-0.2,0-0.3,0c-0.1,0-0.2,0-0.3-0.1C6.4,363.8,6.4,363.7,6.3,363.6z M6.3,362.5c-0.1,0-0.2,0-0.3,0c-0.6,0-0.9,0.2-0.9,0.6
			c0,0.3,0.2,0.4,0.5,0.4c0.4,0,0.7-0.2,0.7-0.6V362.5z"/>
		<path fill="#FFFFFF" d="M10.3,361.1l-0.3,0.5c-0.2-0.2-0.4-0.2-0.7-0.2c-0.3,0-0.5,0.1-0.7,0.3c-0.2,0.2-0.2,0.4-0.2,0.7
			c0,0.6,0.3,1,0.9,1c0.3,0,0.5-0.1,0.7-0.3l0.3,0.6c-0.2,0.1-0.4,0.2-0.6,0.2c-0.2,0-0.3,0.1-0.6,0.1c-0.5,0-0.9-0.1-1.2-0.4
			s-0.4-0.7-0.4-1.1c0-0.5,0.2-0.9,0.5-1.2s0.7-0.4,1.3-0.4C9.7,360.8,10,360.9,10.3,361.1z"/>
		<path fill="#FFFFFF" d="M11.1,363.9v-2.5h-0.4v-0.6h1.1v3.1H11.1z M11.5,359.7c0.1,0,0.2,0,0.3,0.1c0.1,0.1,0.1,0.2,0.1,0.3
			c0,0.1,0,0.2-0.1,0.3c-0.1,0.1-0.2,0.1-0.3,0.1c-0.1,0-0.2,0-0.3-0.1c-0.1-0.1-0.1-0.2-0.1-0.3c0-0.1,0-0.2,0.1-0.3
			C11.2,359.7,11.3,359.7,11.5,359.7z"/>
		<path fill="#FFFFFF" d="M12.5,362.4c0-0.5,0.1-0.8,0.4-1.1c0.3-0.3,0.6-0.4,1.1-0.4c0.5,0,0.9,0.1,1.1,0.4
			c0.3,0.3,0.4,0.7,0.4,1.2c0,0.5-0.1,0.9-0.4,1.2S14.5,364,14,364c-0.5,0-0.9-0.1-1.1-0.4S12.5,362.9,12.5,362.4z M13.2,362.4
			c0,0.7,0.3,1,0.8,1c0.2,0,0.4-0.1,0.5-0.3c0.1-0.2,0.2-0.4,0.2-0.8c0-0.7-0.2-1-0.7-1c-0.2,0-0.4,0.1-0.5,0.3
			C13.3,361.8,13.2,362.1,13.2,362.4z M14.7,359.6l-0.7,0.8h-0.6l0.5-0.8H14.7z"/>
		<path fill="#FFFFFF" d="M18.1,363.9v-1.8c0-0.3-0.1-0.5-0.2-0.6c-0.1-0.1-0.3-0.2-0.5-0.2c-0.1,0-0.2,0-0.3,0.1s-0.2,0.1-0.3,0.2
			v2.2h-0.7v-3.1h0.5l0.1,0.3c0.2-0.2,0.5-0.3,0.9-0.3c0.4,0,0.7,0.1,0.9,0.3c0.2,0.2,0.3,0.5,0.3,0.9v1.9H18.1z"/>
	</g>
	<g enable-background="new    ">
		<path fill="#FFFFFF" d="M-3.9,370.7l0.3-0.7c0.3,0.2,0.6,0.3,0.9,0.3c0.4,0,0.7-0.2,0.7-0.5c0-0.1-0.1-0.3-0.2-0.4
			s-0.3-0.3-0.7-0.4c-0.3-0.2-0.6-0.3-0.7-0.4c-0.1-0.1-0.2-0.2-0.3-0.4c-0.1-0.1-0.1-0.3-0.1-0.5c0-0.3,0.1-0.6,0.4-0.8
			c0.2-0.2,0.6-0.3,0.9-0.3c0.5,0,0.9,0.1,1.1,0.3l-0.2,0.6c-0.3-0.2-0.6-0.3-0.9-0.3c-0.2,0-0.3,0-0.4,0.1s-0.1,0.2-0.1,0.4
			c0,0.2,0.3,0.5,0.8,0.8c0.3,0.1,0.5,0.3,0.6,0.4c0.1,0.1,0.2,0.3,0.3,0.4c0.1,0.2,0.1,0.3,0.1,0.5c0,0.3-0.1,0.6-0.4,0.8
			c-0.3,0.2-0.6,0.3-1.1,0.3C-3.2,371-3.6,370.9-3.9,370.7z"/>
		<path fill="#FFFFFF" d="M-0.8,369.4c0-0.5,0.1-0.8,0.4-1.1c0.3-0.3,0.6-0.4,1.1-0.4c0.5,0,0.9,0.1,1.1,0.4
			c0.3,0.3,0.4,0.7,0.4,1.2c0,0.5-0.1,0.9-0.4,1.2S1.1,371,0.7,371c-0.5,0-0.9-0.1-1.1-0.4S-0.8,369.9-0.8,369.4z M-0.1,369.4
			c0,0.7,0.3,1,0.8,1c0.2,0,0.4-0.1,0.5-0.3c0.1-0.2,0.2-0.4,0.2-0.8c0-0.7-0.2-1-0.7-1c-0.2,0-0.4,0.1-0.5,0.3
			C0,368.8-0.1,369.1-0.1,369.4z"/>
		<path fill="#FFFFFF" d="M5.2,368.1l-0.3,0.5c-0.2-0.2-0.4-0.2-0.7-0.2c-0.3,0-0.5,0.1-0.7,0.3c-0.2,0.2-0.2,0.4-0.2,0.7
			c0,0.6,0.3,1,0.9,1c0.3,0,0.5-0.1,0.7-0.3l0.3,0.6c-0.2,0.1-0.4,0.2-0.6,0.2c-0.2,0-0.3,0.1-0.6,0.1c-0.5,0-0.9-0.1-1.2-0.4
			s-0.4-0.7-0.4-1.1c0-0.5,0.2-0.9,0.5-1.2s0.7-0.4,1.3-0.4C4.7,367.8,5,367.9,5.2,368.1z"/>
		<path fill="#FFFFFF" d="M6.1,370.9v-2.5H5.7v-0.6h1.1v3.1H6.1z M6.4,366.7c0.1,0,0.2,0,0.3,0.1c0.1,0.1,0.1,0.2,0.1,0.3
			c0,0.1,0,0.2-0.1,0.3c-0.1,0.1-0.2,0.1-0.3,0.1c-0.1,0-0.2,0-0.3-0.1c-0.1-0.1-0.1-0.2-0.1-0.3c0-0.1,0-0.2,0.1-0.3
			C6.2,366.7,6.3,366.7,6.4,366.7z"/>
		<path fill="#FFFFFF" d="M9.4,370.6c-0.1,0.1-0.2,0.2-0.3,0.3S8.7,371,8.5,371c-0.3,0-0.6-0.1-0.8-0.2s-0.3-0.4-0.3-0.7
			c0-0.4,0.1-0.6,0.4-0.8s0.7-0.3,1.2-0.3c0.1,0,0.2,0,0.3,0c0-0.4-0.2-0.5-0.7-0.5c-0.3,0-0.5,0-0.7,0.1L7.8,368
			c0.3-0.1,0.6-0.2,0.9-0.2c0.5,0,0.8,0.1,1.1,0.3c0.2,0.2,0.3,0.6,0.3,1.2v0.7c0,0.4,0.1,0.7,0.3,0.8c-0.1,0.1-0.1,0.2-0.2,0.2
			s-0.2,0-0.3,0c-0.1,0-0.2,0-0.3-0.1C9.5,370.8,9.4,370.7,9.4,370.6z M9.3,369.5c-0.1,0-0.2,0-0.3,0c-0.6,0-0.9,0.2-0.9,0.6
			c0,0.3,0.2,0.4,0.5,0.4c0.4,0,0.7-0.2,0.7-0.6V369.5z"/>
		<path fill="#FFFFFF" d="M11,366.7l0.7-0.2v3.4c0,0.4,0.1,0.6,0.3,0.7c-0.1,0.2-0.3,0.3-0.6,0.3c-0.3,0-0.5-0.2-0.5-0.7V366.7z"/>
	</g>
	<g>
		<rect x="93.6" y="358.1" fill="#B6C932" width="33.6" height="13.8"/>
	</g>
	<rect x="88" y="362.3" fill="none" width="44.6" height="9.4"/>
	<g enable-background="new    ">
		<path fill="#FFFFFF" d="M94.9,363.1v1h1.4v0.6h-1.4v1.3h2v0.7h-2.7v-4.2h2.8v0.7H94.9z"/>
		<path fill="#FFFFFF" d="M99.5,366.7l-0.8-1l-0.7,1h-0.9l1.2-1.6l-1.1-1.5H98l0.7,0.9l0.7-0.9h0.8l-1.2,1.5l1.3,1.6H99.5z"/>
		<path fill="#FFFFFF" d="M101.5,366.6v1.3h-0.7v-4.3h0.7v0.2c0.2-0.2,0.4-0.3,0.7-0.3c1,0,1.5,0.5,1.5,1.6c0,0.5-0.1,0.9-0.4,1.2
			c-0.3,0.3-0.7,0.4-1.1,0.4C101.9,366.7,101.7,366.7,101.5,366.6z M101.5,364.3v1.6c0.1,0.1,0.3,0.2,0.5,0.2c0.3,0,0.6-0.1,0.7-0.2
			c0.1-0.2,0.2-0.4,0.2-0.7c0-0.4-0.1-0.6-0.2-0.8c-0.1-0.1-0.4-0.2-0.7-0.2C101.8,364.1,101.6,364.2,101.5,364.3z"/>
		<path fill="#FFFFFF" d="M107.1,365.3h-2.3c0,0.2,0.1,0.4,0.3,0.6c0.2,0.1,0.4,0.2,0.6,0.2c0.3,0,0.6-0.1,0.8-0.3l0.3,0.5
			c-0.3,0.2-0.6,0.3-1.2,0.3c-0.5,0-0.9-0.1-1.1-0.4c-0.3-0.3-0.4-0.7-0.4-1.1c0-0.5,0.2-0.9,0.5-1.2s0.7-0.4,1.1-0.4
			c0.5,0,0.8,0.1,1.1,0.4c0.3,0.3,0.4,0.6,0.4,1C107.2,365,107.2,365.2,107.1,365.3z M104.9,364.8h1.5c-0.1-0.4-0.3-0.7-0.8-0.7
			C105.3,364.1,105,364.4,104.9,364.8z"/>
		<path fill="#FFFFFF" d="M109.6,364.3c-0.1-0.1-0.3-0.1-0.4-0.1c-0.2,0-0.3,0.1-0.5,0.2c-0.1,0.2-0.2,0.3-0.2,0.6v1.7h-0.7v-3.1
			h0.7v0.3c0.2-0.2,0.5-0.3,0.8-0.3c0.3,0,0.4,0,0.6,0.1L109.6,364.3z"/>
		<path fill="#FFFFFF" d="M110.6,366.7v-2.5h-0.4v-0.6h1.1v3.1H110.6z M110.9,362.4c0.1,0,0.2,0,0.3,0.1c0.1,0.1,0.1,0.2,0.1,0.3
			c0,0.1,0,0.2-0.1,0.3c-0.1,0.1-0.2,0.1-0.3,0.1c-0.1,0-0.2,0-0.3-0.1c-0.1-0.1-0.1-0.2-0.1-0.3c0-0.1,0-0.2,0.1-0.3
			C110.7,362.4,110.8,362.4,110.9,362.4z"/>
		<path fill="#FFFFFF" d="M115,365.3h-2.3c0,0.2,0.1,0.4,0.3,0.6c0.2,0.1,0.4,0.2,0.6,0.2c0.3,0,0.6-0.1,0.8-0.3l0.3,0.5
			c-0.3,0.2-0.6,0.3-1.2,0.3c-0.5,0-0.9-0.1-1.1-0.4c-0.3-0.3-0.4-0.7-0.4-1.1c0-0.5,0.2-0.9,0.5-1.2s0.7-0.4,1.1-0.4
			c0.5,0,0.8,0.1,1.1,0.4c0.3,0.3,0.4,0.6,0.4,1C115,365,115,365.2,115,365.3z M112.8,364.8h1.5c-0.1-0.4-0.3-0.7-0.8-0.7
			C113.1,364.1,112.9,364.4,112.8,364.8z"/>
		<path fill="#FFFFFF" d="M117.7,366.7v-1.8c0-0.3-0.1-0.5-0.2-0.6c-0.1-0.1-0.3-0.2-0.5-0.2c-0.1,0-0.2,0-0.3,0.1
			c-0.1,0.1-0.2,0.1-0.3,0.2v2.2h-0.7v-3.1h0.5l0.1,0.3c0.2-0.2,0.5-0.3,0.9-0.3c0.4,0,0.7,0.1,0.9,0.3c0.2,0.2,0.3,0.5,0.3,0.9v1.9
			H117.7z"/>
		<path fill="#FFFFFF" d="M121.7,363.8l-0.3,0.5c-0.2-0.2-0.4-0.2-0.7-0.2c-0.3,0-0.5,0.1-0.7,0.3c-0.2,0.2-0.2,0.4-0.2,0.7
			c0,0.6,0.3,1,0.9,1c0.3,0,0.5-0.1,0.7-0.3l0.3,0.6c-0.2,0.1-0.4,0.2-0.6,0.2c-0.2,0-0.3,0.1-0.6,0.1c-0.5,0-0.9-0.1-1.2-0.4
			s-0.4-0.7-0.4-1.1c0-0.5,0.2-0.9,0.5-1.2s0.7-0.4,1.3-0.4C121.1,363.5,121.4,363.6,121.7,363.8z"/>
		<path fill="#FFFFFF" d="M122.5,366.7v-2.5h-0.4v-0.6h1.1v3.1H122.5z M122.9,362.4c0.1,0,0.2,0,0.3,0.1c0.1,0.1,0.1,0.2,0.1,0.3
			c0,0.1,0,0.2-0.1,0.3c-0.1,0.1-0.2,0.1-0.3,0.1c-0.1,0-0.2,0-0.3-0.1c-0.1-0.1-0.1-0.2-0.1-0.3c0-0.1,0-0.2,0.1-0.3
			C122.6,362.4,122.7,362.4,122.9,362.4z"/>
		<path fill="#FFFFFF" d="M125.8,366.3c-0.1,0.1-0.2,0.2-0.3,0.3s-0.3,0.1-0.5,0.1c-0.3,0-0.6-0.1-0.8-0.2c-0.2-0.2-0.3-0.4-0.3-0.7
			c0-0.4,0.1-0.6,0.4-0.8c0.3-0.2,0.7-0.3,1.2-0.3c0.1,0,0.2,0,0.3,0c0-0.4-0.2-0.5-0.7-0.5c-0.3,0-0.5,0-0.7,0.1l-0.2-0.6
			c0.3-0.1,0.6-0.2,0.9-0.2c0.5,0,0.8,0.1,1.1,0.3c0.2,0.2,0.3,0.6,0.3,1.2v0.7c0,0.4,0.1,0.7,0.3,0.8c-0.1,0.1-0.1,0.2-0.2,0.2
			s-0.2,0-0.3,0c-0.1,0-0.2,0-0.3-0.1C125.9,366.5,125.9,366.4,125.8,366.3z M125.8,365.2c-0.1,0-0.2,0-0.3,0
			c-0.6,0-0.9,0.2-0.9,0.6c0,0.3,0.2,0.4,0.5,0.4c0.4,0,0.7-0.2,0.7-0.6V365.2z"/>
	</g>
	<g>
		<rect x="21.9" y="358.1" fill="#68A8DE" width="33.6" height="13.8"/>
	</g>
	<rect x="16.2" y="359.5" fill="none" width="44.6" height="12.1"/>
	<g enable-background="new    ">
		<path fill="#FFFFFF" d="M27.7,359.9l-0.3,0.6c-0.2-0.2-0.4-0.2-0.8-0.2c-0.4,0-0.7,0.1-0.9,0.4c-0.2,0.3-0.3,0.7-0.3,1.1
			c0,0.4,0.1,0.8,0.3,1.1c0.2,0.3,0.5,0.4,0.9,0.4c0.4,0,0.7-0.1,1-0.4l0.4,0.6c-0.3,0.3-0.8,0.5-1.4,0.5c-0.6,0-1.1-0.2-1.4-0.6
			c-0.3-0.4-0.5-0.9-0.5-1.6c0-0.6,0.2-1.1,0.6-1.6s0.8-0.6,1.4-0.6C27,359.6,27.4,359.7,27.7,359.9z"/>
		<path fill="#FFFFFF" d="M28.2,362.4c0-0.5,0.1-0.8,0.4-1.1c0.3-0.3,0.6-0.4,1.1-0.4c0.5,0,0.9,0.1,1.1,0.4
			c0.3,0.3,0.4,0.7,0.4,1.2c0,0.5-0.1,0.9-0.4,1.2s-0.6,0.4-1.1,0.4c-0.5,0-0.9-0.1-1.1-0.4S28.2,362.9,28.2,362.4z M29,362.4
			c0,0.7,0.3,1,0.8,1c0.2,0,0.4-0.1,0.5-0.3c0.1-0.2,0.2-0.4,0.2-0.8c0-0.7-0.2-1-0.7-1c-0.2,0-0.4,0.1-0.5,0.3
			C29,361.8,29,362.1,29,362.4z"/>
		<path fill="#FFFFFF" d="M32.3,363.7l-0.2,0.2h-0.4v-4.3l0.7-0.2v1.4c0.2-0.1,0.4-0.2,0.6-0.2c0.5,0,0.8,0.1,1.1,0.4
			c0.3,0.3,0.4,0.6,0.4,1.1c0,0.5-0.1,0.9-0.4,1.2c-0.3,0.3-0.7,0.4-1.2,0.4C32.8,364,32.6,363.9,32.3,363.7z M32.5,361.6v1.6
			c0.1,0.1,0.3,0.2,0.4,0.2c0.4,0,0.6-0.1,0.8-0.2s0.2-0.4,0.2-0.8c0-0.6-0.3-0.9-0.9-0.9C32.8,361.4,32.6,361.5,32.5,361.6z"/>
		<path fill="#FFFFFF" d="M38.1,362.6h-2.3c0,0.2,0.1,0.4,0.3,0.6c0.2,0.1,0.4,0.2,0.6,0.2c0.3,0,0.6-0.1,0.8-0.3l0.3,0.5
			c-0.3,0.2-0.6,0.3-1.2,0.3c-0.5,0-0.9-0.1-1.1-0.4c-0.3-0.3-0.4-0.7-0.4-1.1c0-0.5,0.2-0.9,0.5-1.2s0.7-0.4,1.1-0.4
			c0.5,0,0.8,0.1,1.1,0.4c0.3,0.3,0.4,0.6,0.4,1C38.2,362.3,38.2,362.4,38.1,362.6z M35.9,362.1h1.5c-0.1-0.4-0.3-0.7-0.8-0.7
			C36.3,361.4,36,361.6,35.9,362.1z"/>
		<path fill="#FFFFFF" d="M40.6,361.5c-0.1-0.1-0.3-0.1-0.4-0.1c-0.2,0-0.3,0.1-0.5,0.2s-0.2,0.3-0.2,0.6v1.7h-0.7v-3.1h0.7v0.3
			c0.2-0.2,0.5-0.3,0.8-0.3c0.3,0,0.4,0,0.6,0.1L40.6,361.5z"/>
		<path fill="#FFFFFF" d="M41.5,361.4h-0.4v-0.6h0.4v-0.6l0.7-0.3v0.9h0.9v0.6h-0.9v1.3c0,0.2,0,0.4,0.1,0.5
			c0.1,0.1,0.2,0.1,0.4,0.1s0.3,0,0.5-0.1v0.7c-0.2,0.1-0.4,0.1-0.7,0.1c-0.3,0-0.6-0.1-0.7-0.3c-0.2-0.2-0.3-0.4-0.3-0.7V361.4z"/>
		<path fill="#FFFFFF" d="M45.8,363.9v-0.3c-0.1,0.1-0.2,0.2-0.4,0.2S45,364,44.9,364c-0.7,0-1.1-0.4-1.1-1.1v-2h0.7v1.9
			c0,0.4,0.2,0.6,0.5,0.6c0.2,0,0.3,0,0.5-0.1c0.1-0.1,0.2-0.2,0.3-0.3v-2.1h0.7v3.1H45.8z"/>
		<path fill="#FFFFFF" d="M49.1,361.5c-0.1-0.1-0.3-0.1-0.4-0.1c-0.2,0-0.3,0.1-0.5,0.2s-0.2,0.3-0.2,0.6v1.7h-0.7v-3.1h0.7v0.3
			c0.2-0.2,0.5-0.3,0.8-0.3c0.3,0,0.4,0,0.6,0.1L49.1,361.5z"/>
		<path fill="#FFFFFF" d="M51.5,363.6c-0.1,0.1-0.2,0.2-0.3,0.3s-0.3,0.1-0.5,0.1c-0.3,0-0.6-0.1-0.8-0.2s-0.3-0.4-0.3-0.7
			c0-0.4,0.1-0.6,0.4-0.8s0.7-0.3,1.2-0.3c0.1,0,0.2,0,0.3,0c0-0.4-0.2-0.5-0.7-0.5c-0.3,0-0.5,0-0.7,0.1l-0.2-0.6
			c0.3-0.1,0.6-0.2,0.9-0.2c0.5,0,0.8,0.1,1.1,0.3c0.2,0.2,0.3,0.6,0.3,1.2v0.7c0,0.4,0.1,0.7,0.3,0.8c-0.1,0.1-0.1,0.2-0.2,0.2
			c-0.1,0-0.2,0-0.3,0c-0.1,0-0.2,0-0.3-0.1C51.6,363.8,51.5,363.7,51.5,363.6z M51.4,362.5c-0.1,0-0.2,0-0.3,0
			c-0.6,0-0.9,0.2-0.9,0.6c0,0.3,0.2,0.4,0.5,0.4c0.4,0,0.7-0.2,0.7-0.6V362.5z"/>
	</g>
	<g enable-background="new    ">
		<path fill="#FFFFFF" d="M27.1,367.1l-0.3,0.6c-0.1-0.1-0.2-0.2-0.4-0.2c-0.2-0.1-0.4-0.1-0.5-0.1c-0.4,0-0.8,0.1-1,0.4
			c-0.2,0.3-0.4,0.7-0.4,1.1c0,0.4,0.1,0.8,0.4,1.1c0.2,0.3,0.6,0.4,1,0.4c0.3,0,0.5-0.1,0.7-0.2v-0.8h-0.6v-0.6h1.4v1.9
			c-0.2,0.1-0.4,0.3-0.7,0.3S26,371,25.7,371c-0.6,0-1.1-0.2-1.5-0.6c-0.4-0.4-0.5-0.9-0.5-1.6s0.2-1.2,0.6-1.6s0.9-0.6,1.6-0.6
			C26.4,366.6,26.8,366.8,27.1,367.1z"/>
		<path fill="#FFFFFF" d="M30.8,369.6h-2.3c0,0.2,0.1,0.4,0.3,0.6c0.2,0.1,0.4,0.2,0.6,0.2c0.3,0,0.6-0.1,0.8-0.3l0.3,0.5
			c-0.3,0.2-0.6,0.3-1.2,0.3c-0.5,0-0.9-0.1-1.1-0.4c-0.3-0.3-0.4-0.7-0.4-1.1c0-0.5,0.2-0.9,0.5-1.2s0.7-0.4,1.1-0.4
			c0.5,0,0.8,0.1,1.1,0.4c0.3,0.3,0.4,0.6,0.4,1C30.8,369.3,30.8,369.4,30.8,369.6z M28.5,369.1h1.5c-0.1-0.4-0.3-0.7-0.8-0.7
			C28.9,368.4,28.6,368.6,28.5,369.1z"/>
		<path fill="#FFFFFF" d="M31.2,369.4c0-0.5,0.1-0.8,0.4-1.1c0.3-0.3,0.6-0.4,1.1-0.4c0.5,0,0.9,0.1,1.1,0.4
			c0.3,0.3,0.4,0.7,0.4,1.2c0,0.5-0.1,0.9-0.4,1.2s-0.6,0.4-1.1,0.4c-0.5,0-0.9-0.1-1.1-0.4S31.2,369.9,31.2,369.4z M32,369.4
			c0,0.7,0.3,1,0.8,1c0.2,0,0.4-0.1,0.5-0.3c0.1-0.2,0.2-0.4,0.2-0.8c0-0.7-0.2-1-0.7-1c-0.2,0-0.4,0.1-0.5,0.3
			C32,368.8,32,369.1,32,369.4z"/>
		<path fill="#FFFFFF" d="M34.6,371.7l0.5-0.6c0.3,0.2,0.5,0.3,0.9,0.3c0.2,0,0.4,0,0.5-0.1c0.1-0.1,0.2-0.1,0.2-0.3
			c0-0.2-0.2-0.3-0.5-0.3c-0.1,0-0.2,0-0.4,0c-0.2,0-0.3,0-0.4,0c-0.5,0-0.8-0.2-0.8-0.5c0-0.1,0-0.2,0.1-0.3
			c0.1-0.1,0.2-0.2,0.3-0.2c-0.4-0.2-0.5-0.5-0.5-1c0-0.3,0.1-0.6,0.4-0.8c0.2-0.2,0.6-0.3,0.9-0.3c0.3,0,0.5,0.1,0.7,0.2l0.3-0.3
			l0.5,0.4l-0.4,0.2c0.1,0.2,0.2,0.4,0.2,0.6c0,0.3-0.1,0.6-0.3,0.8c-0.2,0.2-0.5,0.3-0.8,0.3c-0.1,0-0.1,0-0.2,0l-0.1,0
			c0,0-0.1,0-0.2,0.1s-0.1,0.1-0.1,0.1c0,0.1,0.1,0.1,0.2,0.1c0.1,0,0.2,0,0.3,0c0.1,0,0.3,0,0.4,0c0.7,0,1.1,0.3,1.1,0.8
			c0,0.3-0.1,0.6-0.4,0.7c-0.3,0.2-0.6,0.3-1,0.3C35.4,372.1,35,372,34.6,371.7z M35.3,368.9c0,0.2,0.1,0.3,0.2,0.4s0.2,0.2,0.4,0.2
			c0.2,0,0.3-0.1,0.4-0.2s0.1-0.3,0.1-0.4c0-0.2-0.1-0.3-0.2-0.4s-0.2-0.2-0.4-0.2c-0.2,0-0.3,0.1-0.4,0.2
			C35.4,368.6,35.3,368.8,35.3,368.9z"/>
		<path fill="#FFFFFF" d="M39.7,368.5c-0.1-0.1-0.3-0.1-0.4-0.1c-0.2,0-0.3,0.1-0.5,0.2s-0.2,0.3-0.2,0.6v1.7h-0.7v-3.1h0.7v0.3
			c0.2-0.2,0.5-0.3,0.8-0.3c0.3,0,0.4,0,0.6,0.1L39.7,368.5z"/>
		<path fill="#FFFFFF" d="M42.2,370.6c-0.1,0.1-0.2,0.2-0.3,0.3s-0.3,0.1-0.5,0.1c-0.3,0-0.6-0.1-0.8-0.2s-0.3-0.4-0.3-0.7
			c0-0.4,0.1-0.6,0.4-0.8s0.7-0.3,1.2-0.3c0.1,0,0.2,0,0.3,0c0-0.4-0.2-0.5-0.7-0.5c-0.3,0-0.5,0-0.7,0.1l-0.2-0.6
			c0.3-0.1,0.6-0.2,0.9-0.2c0.5,0,0.8,0.1,1.1,0.3c0.2,0.2,0.3,0.6,0.3,1.2v0.7c0,0.4,0.1,0.7,0.3,0.8c-0.1,0.1-0.1,0.2-0.2,0.2
			s-0.2,0-0.3,0c-0.1,0-0.2,0-0.3-0.1C42.3,370.8,42.2,370.7,42.2,370.6z M42.1,369.5c-0.1,0-0.2,0-0.3,0c-0.6,0-0.9,0.2-0.9,0.6
			c0,0.3,0.2,0.4,0.5,0.4c0.4,0,0.7-0.2,0.7-0.6V369.5z M42.3,366.6l-0.7,0.8h-0.6l0.5-0.8H42.3z"/>
		<path fill="#FFFFFF" d="M45.4,367.2c-0.2-0.1-0.3-0.1-0.4-0.1c-0.1,0-0.3,0.1-0.4,0.2c-0.1,0.1-0.1,0.3-0.1,0.4c0,0,0,0,0,0.1h0.7
			v0.6h-0.6v2.5h-0.7v-2.5h-0.5v-0.6h0.5c0-0.4,0.1-0.7,0.3-0.9c0.2-0.2,0.5-0.3,0.8-0.3c0.2,0,0.4,0,0.6,0.1L45.4,367.2z"/>
		<path fill="#FFFFFF" d="M46.1,370.9v-2.5h-0.4v-0.6h1.1v3.1H46.1z M46.4,366.7c0.1,0,0.2,0,0.3,0.1c0.1,0.1,0.1,0.2,0.1,0.3
			c0,0.1,0,0.2-0.1,0.3c-0.1,0.1-0.2,0.1-0.3,0.1c-0.1,0-0.2,0-0.3-0.1c-0.1-0.1-0.1-0.2-0.1-0.3c0-0.1,0-0.2,0.1-0.3
			C46.2,366.7,46.3,366.7,46.4,366.7z"/>
		<path fill="#FFFFFF" d="M50.1,368.1l-0.3,0.5c-0.2-0.2-0.4-0.2-0.7-0.2c-0.3,0-0.5,0.1-0.7,0.3c-0.2,0.2-0.2,0.4-0.2,0.7
			c0,0.6,0.3,1,0.9,1c0.3,0,0.5-0.1,0.7-0.3l0.3,0.6c-0.2,0.1-0.4,0.2-0.6,0.2c-0.2,0-0.3,0.1-0.6,0.1c-0.5,0-0.9-0.1-1.2-0.4
			s-0.4-0.7-0.4-1.1c0-0.5,0.2-0.9,0.5-1.2s0.7-0.4,1.3-0.4C49.6,367.8,49.9,367.9,50.1,368.1z"/>
		<path fill="#FFFFFF" d="M52.5,370.6c-0.1,0.1-0.2,0.2-0.3,0.3s-0.3,0.1-0.5,0.1c-0.3,0-0.6-0.1-0.8-0.2s-0.3-0.4-0.3-0.7
			c0-0.4,0.1-0.6,0.4-0.8s0.7-0.3,1.2-0.3c0.1,0,0.2,0,0.3,0c0-0.4-0.2-0.5-0.7-0.5c-0.3,0-0.5,0-0.7,0.1l-0.2-0.6
			c0.3-0.1,0.6-0.2,0.9-0.2c0.5,0,0.8,0.1,1.1,0.3c0.2,0.2,0.3,0.6,0.3,1.2v0.7c0,0.4,0.1,0.7,0.3,0.8c-0.1,0.1-0.1,0.2-0.2,0.2
			s-0.2,0-0.3,0c-0.1,0-0.2,0-0.3-0.1C52.6,370.8,52.5,370.7,52.5,370.6z M52.4,369.5c-0.1,0-0.2,0-0.3,0c-0.6,0-0.9,0.2-0.9,0.6
			c0,0.3,0.2,0.4,0.5,0.4c0.4,0,0.7-0.2,0.7-0.6V369.5z"/>
	</g>
	<g>
		<rect x="58.7" y="358.1" fill="#68A8DE" width="33.6" height="13.8"/>
	</g>
	
		<rect x="56.6" y="359.5" transform="matrix(-0.9999 1.512223e-002 -1.512223e-002 -0.9999 155.924 729.9059)" fill="none" width="37.2" height="12.1"/>
	<g enable-background="new    ">
		<path fill="#FFFFFF" d="M68,363.6l-0.3-0.9h-1.5l-0.3,0.9H65l1.7-4.3h0.3l1.7,4.3H68z M66.9,360.6l-0.5,1.5h1L66.9,360.6z"/>
		<path fill="#FFFFFF" d="M69.4,359.4l0.7-0.2v3.4c0,0.4,0.1,0.6,0.3,0.7c-0.1,0.2-0.3,0.3-0.6,0.3c-0.3,0-0.5-0.2-0.5-0.7V359.4z"
			/>
		<path fill="#FFFFFF" d="M71.2,363.6v-2.5h-0.4v-0.6H72v3.1H71.2z M71.6,359.4c0.1,0,0.2,0,0.3,0.1c0.1,0.1,0.1,0.2,0.1,0.3
			c0,0.1,0,0.2-0.1,0.3c-0.1,0.1-0.2,0.1-0.3,0.1c-0.1,0-0.2,0-0.3-0.1c-0.1-0.1-0.1-0.2-0.1-0.3c0-0.1,0-0.2,0.1-0.3
			C71.4,359.4,71.5,359.4,71.6,359.4z"/>
		<path fill="#FFFFFF" d="M74.6,363.3c-0.1,0.1-0.2,0.2-0.3,0.3s-0.3,0.1-0.5,0.1c-0.3,0-0.6-0.1-0.8-0.2s-0.3-0.4-0.3-0.7
			c0-0.4,0.1-0.6,0.4-0.8s0.7-0.3,1.2-0.3c0.1,0,0.2,0,0.3,0c0-0.4-0.2-0.5-0.7-0.5c-0.3,0-0.5,0-0.7,0.1l-0.2-0.6
			c0.3-0.1,0.6-0.2,0.9-0.2c0.5,0,0.8,0.1,1.1,0.3c0.2,0.2,0.3,0.6,0.3,1.2v0.7c0,0.4,0.1,0.7,0.3,0.8c-0.1,0.1-0.1,0.2-0.2,0.2
			c-0.1,0-0.2,0-0.3,0c-0.1,0-0.2,0-0.3-0.1C74.7,363.5,74.6,363.4,74.6,363.3z M74.5,362.2c-0.1,0-0.2,0-0.3,0
			c-0.6,0-0.9,0.2-0.9,0.6c0,0.3,0.2,0.4,0.5,0.4c0.4,0,0.7-0.2,0.7-0.6V362.2z"/>
		<path fill="#FFFFFF" d="M78.1,363.6v-1.8c0-0.3-0.1-0.5-0.2-0.6c-0.1-0.1-0.3-0.2-0.5-0.2c-0.1,0-0.2,0-0.3,0.1
			c-0.1,0.1-0.2,0.1-0.3,0.2v2.2H76v-3.1h0.5l0.1,0.3c0.2-0.2,0.5-0.3,0.9-0.3c0.4,0,0.7,0.1,0.9,0.3c0.2,0.2,0.3,0.5,0.3,0.9v1.9
			H78.1z"/>
		<path fill="#FFFFFF" d="M79.4,363.6v-0.2l1.7-2.2h-1.7v-0.6h2.8v0.3l-1.6,2.2h1.7v0.6H79.4z"/>
		<path fill="#FFFFFF" d="M84.5,363.3c-0.1,0.1-0.2,0.2-0.3,0.3s-0.3,0.1-0.5,0.1c-0.3,0-0.6-0.1-0.8-0.2c-0.2-0.2-0.3-0.4-0.3-0.7
			c0-0.4,0.1-0.6,0.4-0.8c0.3-0.2,0.7-0.3,1.2-0.3c0.1,0,0.2,0,0.3,0c0-0.4-0.2-0.5-0.7-0.5c-0.3,0-0.5,0-0.7,0.1l-0.2-0.6
			c0.3-0.1,0.6-0.2,0.9-0.2c0.5,0,0.8,0.1,1.1,0.3c0.2,0.2,0.3,0.6,0.3,1.2v0.7c0,0.4,0.1,0.7,0.3,0.8c-0.1,0.1-0.1,0.2-0.2,0.2
			s-0.2,0-0.3,0c-0.1,0-0.2,0-0.3-0.1C84.6,363.5,84.6,363.4,84.5,363.3z M84.5,362.2c-0.1,0-0.2,0-0.3,0c-0.6,0-0.9,0.2-0.9,0.6
			c0,0.3,0.2,0.4,0.5,0.4c0.4,0,0.7-0.2,0.7-0.6V362.2z"/>
		<path fill="#FFFFFF" d="M85.8,363.4l0.3-0.6c0.2,0.2,0.5,0.3,0.7,0.3c0.3,0,0.4-0.1,0.4-0.3c0-0.1,0-0.2-0.1-0.3
			c-0.1-0.1-0.3-0.2-0.5-0.3c-0.5-0.2-0.8-0.5-0.8-0.9c0-0.3,0.1-0.5,0.3-0.6c0.2-0.1,0.5-0.2,0.8-0.2c0.3,0,0.6,0.1,0.9,0.2
			l-0.2,0.6c-0.2-0.1-0.4-0.2-0.7-0.2c-0.3,0-0.4,0.1-0.4,0.3c0,0.1,0,0.1,0.1,0.2c0.1,0.1,0.3,0.1,0.5,0.3c0.3,0.1,0.5,0.2,0.6,0.4
			c0.1,0.2,0.2,0.3,0.2,0.5c0,0.3-0.1,0.5-0.3,0.7s-0.5,0.2-0.9,0.2c-0.2,0-0.4,0-0.5,0C86.2,363.6,86,363.5,85.8,363.4z"/>
	</g>
	<g enable-background="new    ">
		<path fill="#FFFFFF" d="M59.6,367.1v1H61v0.6h-1.4v1.3h2v0.7h-2.7v-4.2h2.8v0.7H59.6z"/>
		<path fill="#FFFFFF" d="M62,370.4l0.3-0.6c0.2,0.2,0.5,0.3,0.7,0.3c0.3,0,0.4-0.1,0.4-0.3c0-0.1,0-0.2-0.1-0.3
			c-0.1-0.1-0.3-0.2-0.5-0.3c-0.5-0.2-0.8-0.5-0.8-0.9c0-0.3,0.1-0.5,0.3-0.6s0.5-0.2,0.8-0.2c0.3,0,0.6,0.1,0.9,0.2l-0.2,0.6
			c-0.2-0.1-0.4-0.2-0.7-0.2c-0.3,0-0.4,0.1-0.4,0.3c0,0.1,0,0.1,0.1,0.2s0.3,0.1,0.5,0.3s0.5,0.2,0.6,0.4s0.2,0.3,0.2,0.5
			c0,0.3-0.1,0.5-0.3,0.7s-0.5,0.2-0.9,0.2c-0.2,0-0.4,0-0.5,0C62.3,370.6,62.2,370.5,62,370.4z"/>
		<path fill="#FFFFFF" d="M64.9,368.1h-0.4v-0.6h0.4v-0.6l0.7-0.3v0.9h0.9v0.6h-0.9v1.3c0,0.2,0,0.4,0.1,0.5
			c0.1,0.1,0.2,0.1,0.4,0.1c0.2,0,0.3,0,0.5-0.1v0.7c-0.2,0.1-0.4,0.1-0.7,0.1c-0.3,0-0.6-0.1-0.7-0.3c-0.2-0.2-0.3-0.4-0.3-0.7
			V368.1z"/>
		<path fill="#FFFFFF" d="M69,368.2c-0.1-0.1-0.3-0.1-0.4-0.1c-0.2,0-0.3,0.1-0.5,0.2c-0.1,0.2-0.2,0.3-0.2,0.6v1.7h-0.7v-3.1h0.7
			v0.3c0.2-0.2,0.5-0.3,0.8-0.3c0.3,0,0.4,0,0.6,0.1L69,368.2z"/>
		<path fill="#FFFFFF" d="M71.3,370.3c-0.1,0.1-0.2,0.2-0.3,0.3s-0.3,0.1-0.5,0.1c-0.3,0-0.6-0.1-0.8-0.2s-0.3-0.4-0.3-0.7
			c0-0.4,0.1-0.6,0.4-0.8s0.7-0.3,1.2-0.3c0.1,0,0.2,0,0.3,0c0-0.4-0.2-0.5-0.7-0.5c-0.3,0-0.5,0-0.7,0.1l-0.2-0.6
			c0.3-0.1,0.6-0.2,0.9-0.2c0.5,0,0.8,0.1,1.1,0.3c0.2,0.2,0.3,0.6,0.3,1.2v0.7c0,0.4,0.1,0.7,0.3,0.8c-0.1,0.1-0.1,0.2-0.2,0.2
			c-0.1,0-0.2,0-0.3,0c-0.1,0-0.2,0-0.3-0.1C71.4,370.5,71.3,370.4,71.3,370.3z M71.2,369.2c-0.1,0-0.2,0-0.3,0
			c-0.6,0-0.9,0.2-0.9,0.6c0,0.3,0.2,0.4,0.5,0.4c0.4,0,0.7-0.2,0.7-0.6V369.2z"/>
		<path fill="#FFFFFF" d="M72.9,368.1h-0.4v-0.6h0.4v-0.6l0.7-0.3v0.9h0.9v0.6h-0.9v1.3c0,0.2,0,0.4,0.1,0.5
			c0.1,0.1,0.2,0.1,0.4,0.1c0.2,0,0.3,0,0.5-0.1v0.7c-0.2,0.1-0.4,0.1-0.7,0.1c-0.3,0-0.6-0.1-0.7-0.3c-0.2-0.2-0.3-0.4-0.3-0.7
			V368.1z"/>
		<path fill="#FFFFFF" d="M78,369.3h-2.3c0,0.2,0.1,0.4,0.3,0.6c0.2,0.1,0.4,0.2,0.6,0.2c0.3,0,0.6-0.1,0.8-0.3l0.3,0.5
			c-0.3,0.2-0.6,0.3-1.2,0.3c-0.5,0-0.9-0.1-1.1-0.4c-0.3-0.3-0.4-0.7-0.4-1.1c0-0.5,0.2-0.9,0.5-1.2s0.7-0.4,1.1-0.4
			c0.5,0,0.8,0.1,1.1,0.4c0.3,0.3,0.4,0.6,0.4,1C78,369,78,369.1,78,369.3z M75.7,368.8h1.5c-0.1-0.4-0.3-0.7-0.8-0.7
			C76.1,368.1,75.8,368.3,75.7,368.8z M77.4,366.3l-0.7,0.8h-0.6l0.5-0.8H77.4z"/>
		<path fill="#FFFFFF" d="M78.4,371.4l0.5-0.6c0.3,0.2,0.5,0.3,0.9,0.3c0.2,0,0.4,0,0.5-0.1c0.1-0.1,0.2-0.1,0.2-0.3
			c0-0.2-0.2-0.3-0.5-0.3c-0.1,0-0.2,0-0.4,0s-0.3,0-0.4,0c-0.5,0-0.8-0.2-0.8-0.5c0-0.1,0-0.2,0.1-0.3c0.1-0.1,0.2-0.2,0.3-0.2
			c-0.4-0.2-0.5-0.5-0.5-1c0-0.3,0.1-0.6,0.4-0.8c0.2-0.2,0.6-0.3,0.9-0.3c0.3,0,0.5,0.1,0.7,0.2l0.3-0.3l0.5,0.4l-0.4,0.2
			c0.1,0.2,0.2,0.4,0.2,0.6c0,0.3-0.1,0.6-0.3,0.8s-0.5,0.3-0.8,0.3c-0.1,0-0.1,0-0.2,0l-0.1,0c0,0-0.1,0-0.2,0.1s-0.1,0.1-0.1,0.1
			c0,0.1,0.1,0.1,0.2,0.1c0.1,0,0.2,0,0.3,0c0.1,0,0.3,0,0.4,0c0.7,0,1.1,0.3,1.1,0.8c0,0.3-0.1,0.6-0.4,0.7c-0.3,0.2-0.6,0.3-1,0.3
			C79.2,371.8,78.8,371.7,78.4,371.4z M79.1,368.6c0,0.2,0.1,0.3,0.2,0.4c0.1,0.1,0.2,0.2,0.4,0.2c0.2,0,0.3-0.1,0.4-0.2
			c0.1-0.1,0.1-0.3,0.1-0.4c0-0.2,0-0.3-0.2-0.4s-0.2-0.2-0.4-0.2c-0.2,0-0.3,0.1-0.4,0.2C79.2,368.3,79.1,368.5,79.1,368.6z"/>
		<path fill="#FFFFFF" d="M81.8,370.6v-2.5h-0.4v-0.6h1.1v3.1H81.8z M82.2,366.4c0.1,0,0.2,0,0.3,0.1c0.1,0.1,0.1,0.2,0.1,0.3
			c0,0.1,0,0.2-0.1,0.3c-0.1,0.1-0.2,0.1-0.3,0.1c-0.1,0-0.2,0-0.3-0.1c-0.1-0.1-0.1-0.2-0.1-0.3c0-0.1,0-0.2,0.1-0.3
			C82,366.4,82.1,366.4,82.2,366.4z"/>
		<path fill="#FFFFFF" d="M85.9,367.8l-0.3,0.5c-0.2-0.2-0.4-0.2-0.7-0.2c-0.3,0-0.5,0.1-0.7,0.3c-0.2,0.2-0.2,0.4-0.2,0.7
			c0,0.6,0.3,1,0.9,1c0.3,0,0.5-0.1,0.7-0.3l0.3,0.6c-0.2,0.1-0.4,0.2-0.6,0.2c-0.2,0-0.3,0.1-0.6,0.1c-0.5,0-0.9-0.1-1.2-0.4
			c-0.3-0.3-0.4-0.7-0.4-1.1c0-0.5,0.2-0.9,0.5-1.2c0.3-0.3,0.7-0.4,1.3-0.4C85.3,367.5,85.6,367.6,85.9,367.8z"/>
		<path fill="#FFFFFF" d="M88.3,370.3c-0.1,0.1-0.2,0.2-0.3,0.3s-0.3,0.1-0.5,0.1c-0.3,0-0.6-0.1-0.8-0.2s-0.3-0.4-0.3-0.7
			c0-0.4,0.1-0.6,0.4-0.8s0.7-0.3,1.2-0.3c0.1,0,0.2,0,0.3,0c0-0.4-0.2-0.5-0.7-0.5c-0.3,0-0.5,0-0.7,0.1l-0.2-0.6
			c0.3-0.1,0.6-0.2,0.9-0.2c0.5,0,0.8,0.1,1.1,0.3c0.2,0.2,0.3,0.6,0.3,1.2v0.7c0,0.4,0.1,0.7,0.3,0.8c-0.1,0.1-0.1,0.2-0.2,0.2
			c-0.1,0-0.2,0-0.3,0c-0.1,0-0.2,0-0.3-0.1C88.4,370.5,88.3,370.4,88.3,370.3z M88.2,369.2c-0.1,0-0.2,0-0.3,0
			c-0.6,0-0.9,0.2-0.9,0.6c0,0.3,0.2,0.4,0.5,0.4c0.4,0,0.7-0.2,0.7-0.6V369.2z"/>
		<path fill="#FFFFFF" d="M89.5,370.4l0.3-0.6c0.2,0.2,0.5,0.3,0.7,0.3c0.3,0,0.4-0.1,0.4-0.3c0-0.1,0-0.2-0.1-0.3
			c-0.1-0.1-0.3-0.2-0.5-0.3c-0.5-0.2-0.8-0.5-0.8-0.9c0-0.3,0.1-0.5,0.3-0.6c0.2-0.1,0.5-0.2,0.8-0.2c0.3,0,0.6,0.1,0.9,0.2
			l-0.2,0.6c-0.2-0.1-0.4-0.2-0.7-0.2c-0.3,0-0.4,0.1-0.4,0.3c0,0.1,0,0.1,0.1,0.2c0.1,0.1,0.3,0.1,0.5,0.3c0.3,0.1,0.5,0.2,0.6,0.4
			c0.1,0.2,0.2,0.3,0.2,0.5c0,0.3-0.1,0.5-0.3,0.7s-0.5,0.2-0.9,0.2c-0.2,0-0.4,0-0.5,0C89.9,370.6,89.7,370.5,89.5,370.4z"/>
	</g>
	<g>
		<rect x="156.3" y="358.1" fill="#68A8DE" width="33.6" height="13.8"/>
	</g>
	<rect x="150.9" y="359.4" fill="none" width="44.8" height="12.1"/>
	<g enable-background="new    ">
		<path fill="#FFFFFF" d="M162.3,359.7l-0.3,0.6c-0.2-0.2-0.4-0.2-0.8-0.2c-0.4,0-0.7,0.1-0.9,0.4c-0.2,0.3-0.3,0.7-0.3,1.1
			c0,0.4,0.1,0.8,0.3,1.1c0.2,0.3,0.5,0.4,0.9,0.4c0.4,0,0.7-0.1,1-0.4l0.4,0.6c-0.3,0.3-0.8,0.5-1.4,0.5c-0.6,0-1.1-0.2-1.4-0.6
			c-0.3-0.4-0.5-0.9-0.5-1.6c0-0.6,0.2-1.1,0.6-1.6s0.8-0.6,1.4-0.6C161.6,359.5,162,359.6,162.3,359.7z"/>
		<path fill="#FFFFFF" d="M164.7,363.4c-0.1,0.1-0.2,0.2-0.3,0.3s-0.3,0.1-0.5,0.1c-0.3,0-0.6-0.1-0.8-0.2c-0.2-0.2-0.3-0.4-0.3-0.7
			c0-0.4,0.1-0.6,0.4-0.8c0.3-0.2,0.7-0.3,1.2-0.3c0.1,0,0.2,0,0.3,0c0-0.4-0.2-0.5-0.7-0.5c-0.3,0-0.5,0-0.7,0.1l-0.2-0.6
			c0.3-0.1,0.6-0.2,0.9-0.2c0.5,0,0.8,0.1,1.1,0.3s0.3,0.6,0.3,1.2v0.7c0,0.4,0.1,0.7,0.3,0.8c-0.1,0.1-0.1,0.2-0.2,0.2
			s-0.2,0-0.3,0c-0.1,0-0.2,0-0.3-0.1C164.8,363.6,164.8,363.5,164.7,363.4z M164.7,362.3c-0.1,0-0.2,0-0.3,0
			c-0.6,0-0.9,0.2-0.9,0.6c0,0.3,0.2,0.4,0.5,0.4c0.4,0,0.7-0.2,0.7-0.6V362.3z"/>
		<path fill="#FFFFFF" d="M166.9,363.6v1.3h-0.7v-4.3h0.7v0.2c0.2-0.2,0.4-0.3,0.7-0.3c1,0,1.5,0.5,1.5,1.6c0,0.5-0.1,0.9-0.4,1.2
			c-0.3,0.3-0.7,0.4-1.1,0.4C167.3,363.8,167.1,363.7,166.9,363.6z M166.9,361.4v1.6c0.1,0.1,0.3,0.2,0.5,0.2c0.3,0,0.6-0.1,0.7-0.2
			c0.1-0.2,0.2-0.4,0.2-0.7c0-0.4-0.1-0.6-0.2-0.8s-0.4-0.2-0.7-0.2C167.2,361.2,167,361.3,166.9,361.4z"/>
		<path fill="#FFFFFF" d="M171.5,363.4c-0.1,0.1-0.2,0.2-0.3,0.3s-0.3,0.1-0.5,0.1c-0.3,0-0.6-0.1-0.8-0.2s-0.3-0.4-0.3-0.7
			c0-0.4,0.1-0.6,0.4-0.8s0.7-0.3,1.2-0.3c0.1,0,0.2,0,0.3,0c0-0.4-0.2-0.5-0.7-0.5c-0.3,0-0.5,0-0.7,0.1l-0.2-0.6
			c0.3-0.1,0.6-0.2,0.9-0.2c0.5,0,0.8,0.1,1.1,0.3c0.2,0.2,0.3,0.6,0.3,1.2v0.7c0,0.4,0.1,0.7,0.3,0.8c-0.1,0.1-0.1,0.2-0.2,0.2
			c-0.1,0-0.2,0-0.3,0c-0.1,0-0.2,0-0.3-0.1C171.6,363.6,171.5,363.5,171.5,363.4z M171.4,362.3c-0.1,0-0.2,0-0.3,0
			c-0.6,0-0.9,0.2-0.9,0.6c0,0.3,0.2,0.4,0.5,0.4c0.4,0,0.7-0.2,0.7-0.6V362.3z"/>
		<path fill="#FFFFFF" d="M175.4,360.9l-0.3,0.5c-0.2-0.2-0.4-0.2-0.7-0.2c-0.3,0-0.5,0.1-0.7,0.3c-0.2,0.2-0.2,0.4-0.2,0.7
			c0,0.6,0.3,1,0.9,1c0.3,0,0.5-0.1,0.7-0.3l0.3,0.6c-0.2,0.1-0.4,0.2-0.6,0.2c-0.2,0-0.3,0.1-0.6,0.1c-0.5,0-0.9-0.1-1.2-0.4
			s-0.4-0.7-0.4-1.1c0-0.5,0.2-0.9,0.5-1.2s0.7-0.4,1.3-0.4C174.8,360.6,175.1,360.7,175.4,360.9z"/>
		<path fill="#FFFFFF" d="M176.2,363.7v-2.5h-0.4v-0.6h1.1v3.1H176.2z M176.6,359.5c0.1,0,0.2,0,0.3,0.1c0.1,0.1,0.1,0.2,0.1,0.3
			c0,0.1,0,0.2-0.1,0.3c-0.1,0.1-0.2,0.1-0.3,0.1c-0.1,0-0.2,0-0.3-0.1c-0.1-0.1-0.1-0.2-0.1-0.3c0-0.1,0-0.2,0.1-0.3
			C176.4,359.5,176.5,359.5,176.6,359.5z"/>
		<path fill="#FFFFFF" d="M179.8,363.7v-0.2c-0.1,0.1-0.2,0.1-0.3,0.2c-0.1,0-0.3,0.1-0.5,0.1c-0.4,0-0.8-0.1-1-0.4
			c-0.3-0.3-0.4-0.6-0.4-1.1c0-0.5,0.1-0.9,0.4-1.2c0.3-0.3,0.7-0.5,1.1-0.5c0.2,0,0.5,0,0.7,0.1v-1.2l0.7-0.2v4.4H179.8z
			 M179.8,361.4c-0.2-0.1-0.3-0.2-0.5-0.2c-0.3,0-0.5,0.1-0.7,0.3c-0.2,0.2-0.2,0.4-0.2,0.8c0,0.6,0.3,1,0.9,1c0.1,0,0.2,0,0.3-0.1
			c0.1,0,0.2-0.1,0.2-0.1V361.4z"/>
		<path fill="#FFFFFF" d="M183.1,363.4c-0.1,0.1-0.2,0.2-0.3,0.3s-0.3,0.1-0.5,0.1c-0.3,0-0.6-0.1-0.8-0.2s-0.3-0.4-0.3-0.7
			c0-0.4,0.1-0.6,0.4-0.8c0.3-0.2,0.7-0.3,1.2-0.3c0.1,0,0.2,0,0.3,0c0-0.4-0.2-0.5-0.7-0.5c-0.3,0-0.5,0-0.7,0.1l-0.2-0.6
			c0.3-0.1,0.6-0.2,0.9-0.2c0.5,0,0.8,0.1,1.1,0.3s0.3,0.6,0.3,1.2v0.7c0,0.4,0.1,0.7,0.3,0.8c-0.1,0.1-0.1,0.2-0.2,0.2
			c-0.1,0-0.2,0-0.3,0c-0.1,0-0.2,0-0.3-0.1C183.2,363.6,183.1,363.5,183.1,363.4z M183,362.3c-0.1,0-0.2,0-0.3,0
			c-0.6,0-0.9,0.2-0.9,0.6c0,0.3,0.2,0.4,0.5,0.4c0.4,0,0.7-0.2,0.7-0.6V362.3z"/>
		<path fill="#FFFFFF" d="M186.6,363.7v-0.2c-0.1,0.1-0.2,0.1-0.3,0.2c-0.1,0-0.3,0.1-0.5,0.1c-0.4,0-0.8-0.1-1-0.4
			c-0.3-0.3-0.4-0.6-0.4-1.1c0-0.5,0.1-0.9,0.4-1.2c0.3-0.3,0.7-0.5,1.1-0.5c0.2,0,0.5,0,0.7,0.1v-1.2l0.7-0.2v4.4H186.6z
			 M186.6,361.4c-0.2-0.1-0.3-0.2-0.5-0.2c-0.3,0-0.5,0.1-0.7,0.3c-0.2,0.2-0.2,0.4-0.2,0.8c0,0.6,0.3,1,0.9,1c0.1,0,0.2,0,0.3-0.1
			c0.1,0,0.2-0.1,0.2-0.1V361.4z"/>
	</g>
	<g enable-background="new    ">
		<path fill="#FFFFFF" d="M159.6,367.2v1h1.5v0.6h-1.5v1.9h-0.8v-4.2h2.8v0.7H159.6z"/>
		<path fill="#FFFFFF" d="M162.5,370.7v-2.5h-0.4v-0.6h1.1v3.1H162.5z M162.9,366.5c0.1,0,0.2,0,0.3,0.1c0.1,0.1,0.1,0.2,0.1,0.3
			c0,0.1,0,0.2-0.1,0.3c-0.1,0.1-0.2,0.1-0.3,0.1c-0.1,0-0.2,0-0.3-0.1c-0.1-0.1-0.1-0.2-0.1-0.3c0-0.1,0-0.2,0.1-0.3
			C162.7,366.5,162.8,366.5,162.9,366.5z"/>
		<path fill="#FFFFFF" d="M166.1,370.7v-1.8c0-0.3-0.1-0.5-0.2-0.6c-0.1-0.1-0.3-0.2-0.5-0.2c-0.1,0-0.2,0-0.3,0.1s-0.2,0.1-0.3,0.2
			v2.2h-0.7v-3.1h0.5l0.1,0.3c0.2-0.2,0.5-0.3,0.9-0.3c0.4,0,0.7,0.1,0.9,0.3c0.2,0.2,0.3,0.5,0.3,0.9v1.9H166.1z"/>
		<path fill="#FFFFFF" d="M169.4,370.4c-0.1,0.1-0.2,0.2-0.3,0.3s-0.3,0.1-0.5,0.1c-0.3,0-0.6-0.1-0.8-0.2c-0.2-0.2-0.3-0.4-0.3-0.7
			c0-0.4,0.1-0.6,0.4-0.8c0.3-0.2,0.7-0.3,1.2-0.3c0.1,0,0.2,0,0.3,0c0-0.4-0.2-0.5-0.7-0.5c-0.3,0-0.5,0-0.7,0.1l-0.2-0.6
			c0.3-0.1,0.6-0.2,0.9-0.2c0.5,0,0.8,0.1,1.1,0.3c0.2,0.2,0.3,0.6,0.3,1.2v0.7c0,0.4,0.1,0.7,0.3,0.8c-0.1,0.1-0.1,0.2-0.2,0.2
			s-0.2,0-0.3,0c-0.1,0-0.2,0-0.3-0.1C169.5,370.6,169.5,370.5,169.4,370.4z M169.4,369.3c-0.1,0-0.2,0-0.3,0
			c-0.6,0-0.9,0.2-0.9,0.6c0,0.3,0.2,0.4,0.5,0.4c0.4,0,0.7-0.2,0.7-0.6V369.3z"/>
		<path fill="#FFFFFF" d="M172.9,370.7v-1.8c0-0.3-0.1-0.5-0.2-0.6c-0.1-0.1-0.3-0.2-0.5-0.2c-0.1,0-0.2,0-0.3,0.1s-0.2,0.1-0.3,0.2
			v2.2h-0.7v-3.1h0.5l0.1,0.3c0.2-0.2,0.5-0.3,0.9-0.3c0.4,0,0.7,0.1,0.9,0.3c0.2,0.2,0.3,0.5,0.3,0.9v1.9H172.9z"/>
		<path fill="#FFFFFF" d="M176.9,367.9l-0.3,0.5c-0.2-0.2-0.4-0.2-0.7-0.2c-0.3,0-0.5,0.1-0.7,0.3c-0.2,0.2-0.2,0.4-0.2,0.7
			c0,0.6,0.3,1,0.9,1c0.3,0,0.5-0.1,0.7-0.3l0.3,0.6c-0.2,0.1-0.4,0.2-0.6,0.2c-0.2,0-0.3,0.1-0.6,0.1c-0.5,0-0.9-0.1-1.2-0.4
			s-0.4-0.7-0.4-1.1c0-0.5,0.2-0.9,0.5-1.2s0.7-0.4,1.3-0.4C176.3,367.6,176.6,367.7,176.9,367.9z"/>
		<path fill="#FFFFFF" d="M177.7,370.7v-2.5h-0.4v-0.6h1.1v3.1H177.7z M178.1,366.5c0.1,0,0.2,0,0.3,0.1c0.1,0.1,0.1,0.2,0.1,0.3
			c0,0.1,0,0.2-0.1,0.3c-0.1,0.1-0.2,0.1-0.3,0.1c-0.1,0-0.2,0-0.3-0.1c-0.1-0.1-0.1-0.2-0.1-0.3c0-0.1,0-0.2,0.1-0.3
			C177.9,366.5,178,366.5,178.1,366.5z"/>
		<path fill="#FFFFFF" d="M182.1,369.4h-2.3c0,0.2,0.1,0.4,0.3,0.6c0.2,0.1,0.4,0.2,0.6,0.2c0.3,0,0.6-0.1,0.8-0.3l0.3,0.5
			c-0.3,0.2-0.6,0.3-1.2,0.3c-0.5,0-0.9-0.1-1.1-0.4c-0.3-0.3-0.4-0.7-0.4-1.1c0-0.5,0.2-0.9,0.5-1.2s0.7-0.4,1.1-0.4
			c0.5,0,0.8,0.1,1.1,0.4c0.3,0.3,0.4,0.6,0.4,1C182.2,369.1,182.2,369.2,182.1,369.4z M179.9,368.9h1.5c-0.1-0.4-0.3-0.7-0.8-0.7
			C180.3,368.2,180,368.4,179.9,368.9z"/>
		<path fill="#FFFFFF" d="M184.6,368.3c-0.1-0.1-0.3-0.1-0.4-0.1c-0.2,0-0.3,0.1-0.5,0.2c-0.1,0.2-0.2,0.3-0.2,0.6v1.7h-0.7v-3.1
			h0.7v0.3c0.2-0.2,0.5-0.3,0.8-0.3c0.3,0,0.4,0,0.6,0.1L184.6,368.3z"/>
		<path fill="#FFFFFF" d="M186.9,370.4c-0.1,0.1-0.2,0.2-0.3,0.3s-0.3,0.1-0.5,0.1c-0.3,0-0.6-0.1-0.8-0.2s-0.3-0.4-0.3-0.7
			c0-0.4,0.1-0.6,0.4-0.8c0.3-0.2,0.7-0.3,1.2-0.3c0.1,0,0.2,0,0.3,0c0-0.4-0.2-0.5-0.7-0.5c-0.3,0-0.5,0-0.7,0.1l-0.2-0.6
			c0.3-0.1,0.6-0.2,0.9-0.2c0.5,0,0.8,0.1,1.1,0.3s0.3,0.6,0.3,1.2v0.7c0,0.4,0.1,0.7,0.3,0.8c-0.1,0.1-0.1,0.2-0.2,0.2
			c-0.1,0-0.2,0-0.3,0c-0.1,0-0.2,0-0.3-0.1C187,370.6,187,370.5,186.9,370.4z M186.9,369.3c-0.1,0-0.2,0-0.3,0
			c-0.6,0-0.9,0.2-0.9,0.6c0,0.3,0.2,0.4,0.5,0.4c0.4,0,0.7-0.2,0.7-0.6V369.3z"/>
	</g>
</g>
</svg>
