<!-- Generator: Adobe Illustrator 18.1.0, SVG Export Plug-In  -->
<svg version="1.1"
	 xmlns="http://www.w3.org/2000/svg" xmlns:xlink="http://www.w3.org/1999/xlink" xmlns:a="http://ns.adobe.com/AdobeSVGViewerExtensions/3.0/"
	 x="0px" y="0px" width="135.6px" height="57.8px" viewBox="0 0 135.6 57.8" enable-background="new 0 0 135.6 57.8"
	 xml:space="preserve">
<defs>
</defs>
<g>
	<path fill="#0059A7" d="M135.6,28.9c0,16-30.4,28.9-67.8,28.9S0,44.9,0,28.9C0,12.9,30.4,0,67.8,0S135.6,12.9,135.6,28.9z"/>
</g>
<g>
	<path fill="#FFFFFF" d="M42.8,15l-0.7,1.4c-0.2-0.2-0.5-0.4-0.9-0.5c-0.4-0.2-0.8-0.3-1.1-0.3c-1,0-1.7,0.3-2.3,1
		c-0.6,0.7-0.8,1.5-0.8,2.6c0,1,0.3,1.9,0.8,2.5c0.5,0.6,1.3,0.9,2.2,0.9c0.6,0,1.1-0.2,1.5-0.5v-1.9h-1.4v-1.5h3.1v4.4
		c-0.4,0.3-0.9,0.6-1.6,0.8c-0.7,0.2-1.3,0.3-1.9,0.3c-1.4,0-2.5-0.5-3.3-1.4c-0.8-0.9-1.2-2.1-1.2-3.6c0-1.5,0.4-2.7,1.3-3.7
		c0.9-0.9,2.1-1.4,3.6-1.4C41.2,14,42.1,14.3,42.8,15z"/>
	<path fill="#FFFFFF" d="M51.1,20.9H46c0,0.6,0.2,1,0.6,1.3c0.4,0.3,0.8,0.5,1.5,0.5c0.8,0,1.3-0.2,1.7-0.6l0.6,1.3
		c-0.6,0.5-1.5,0.7-2.6,0.7c-1.1,0-2-0.3-2.6-1c-0.6-0.6-1-1.5-1-2.7c0-1.1,0.3-2,1-2.7c0.7-0.7,1.5-1,2.5-1c1,0,1.9,0.3,2.5,0.9
		c0.6,0.6,0.9,1.4,0.9,2.4C51.2,20.2,51.2,20.5,51.1,20.9z M46,19.7h3.5c-0.1-1-0.7-1.6-1.7-1.6C46.8,18.1,46.3,18.6,46,19.7z"/>
	<path fill="#FFFFFF" d="M52.1,23.5l0.6-1.3c0.5,0.4,1.1,0.6,1.7,0.6c0.6,0,1-0.2,1-0.7c0-0.3-0.1-0.5-0.3-0.7
		c-0.2-0.2-0.6-0.4-1.1-0.6c-1.2-0.5-1.8-1.2-1.8-2.1c0-0.6,0.2-1.1,0.7-1.4c0.5-0.3,1.1-0.5,1.8-0.5c0.7,0,1.4,0.2,2.1,0.5
		l-0.5,1.3c-0.4-0.3-0.9-0.5-1.5-0.5c-0.6,0-0.9,0.2-0.9,0.7c0,0.2,0.1,0.3,0.3,0.5c0.2,0.1,0.6,0.3,1.2,0.6
		c0.6,0.2,1.1,0.5,1.4,0.9c0.3,0.3,0.4,0.8,0.4,1.3c0,0.7-0.2,1.2-0.7,1.6c-0.5,0.4-1.2,0.6-2,0.6c-0.5,0-0.9,0-1.1-0.1
		C52.9,23.9,52.6,23.8,52.1,23.5z"/>
	<path fill="#FFFFFF" d="M58.7,18.2h-0.8v-1.3h0.8v-1.5l1.7-0.6v2.1h2v1.3h-2v3.1c0,0.5,0.1,0.9,0.2,1.1c0.2,0.2,0.4,0.3,0.8,0.3
		c0.4,0,0.8-0.1,1.1-0.3v1.5c-0.4,0.1-0.9,0.2-1.7,0.2c-0.7,0-1.3-0.2-1.6-0.6c-0.4-0.4-0.6-1-0.6-1.7V18.2z"/>
	<path fill="#FFFFFF" d="M64.3,24v-5.8h-0.9v-1.4H66V24H64.3z M65.2,14.1c0.3,0,0.5,0.1,0.7,0.3c0.2,0.2,0.3,0.4,0.3,0.7
		c0,0.3-0.1,0.5-0.3,0.7c-0.2,0.2-0.4,0.3-0.7,0.3c-0.3,0-0.5-0.1-0.7-0.3c-0.2-0.2-0.3-0.4-0.3-0.7c0-0.3,0.1-0.5,0.3-0.7
		C64.7,14.1,64.9,14.1,65.2,14.1z"/>
	<path fill="#FFFFFF" d="M67.5,20.4c0-1.1,0.3-2,0.9-2.7c0.6-0.7,1.5-1,2.5-1c1.1,0,1.9,0.3,2.5,1c0.6,0.7,0.9,1.6,0.9,2.7
		c0,1.1-0.3,2-0.9,2.7c-0.6,0.7-1.4,1-2.5,1c-1.1,0-1.9-0.3-2.5-1C67.8,22.4,67.5,21.5,67.5,20.4z M69.2,20.4c0,1.6,0.6,2.4,1.7,2.4
		c0.5,0,0.9-0.2,1.2-0.6c0.3-0.4,0.5-1,0.5-1.7c0-1.6-0.6-2.3-1.7-2.3c-0.5,0-0.9,0.2-1.2,0.6C69.4,19.1,69.2,19.6,69.2,20.4z
		 M72.5,13.9l-1.5,2h-1.3l1.1-2H72.5z"/>
	<path fill="#FFFFFF" d="M80.3,24v-4.1c0-0.6-0.1-1.1-0.4-1.3c-0.2-0.3-0.6-0.4-1.1-0.4c-0.2,0-0.5,0.1-0.8,0.2
		c-0.3,0.1-0.5,0.3-0.7,0.5V24h-1.7v-7.1h1.2l0.3,0.7c0.5-0.5,1.1-0.8,2-0.8c0.8,0,1.5,0.3,2,0.8c0.5,0.5,0.7,1.2,0.7,2.1V24H80.3z"
		/>
	<path fill="#FFFFFF" d="M92.5,24v-0.4c-0.1,0.2-0.4,0.3-0.7,0.4c-0.3,0.1-0.7,0.2-1,0.2c-1,0-1.8-0.3-2.4-0.9
		c-0.6-0.6-0.9-1.5-0.9-2.6c0-1.1,0.3-2,1-2.8c0.7-0.7,1.5-1.1,2.5-1.1c0.5,0,1,0.1,1.5,0.3v-2.9l1.7-0.4V24H92.5z M92.5,18.5
		c-0.4-0.3-0.7-0.4-1.1-0.4c-0.7,0-1.2,0.2-1.5,0.6c-0.4,0.4-0.5,1-0.5,1.8c0,1.5,0.7,2.2,2.1,2.2c0.2,0,0.4,0,0.6-0.1
		c0.2-0.1,0.4-0.2,0.5-0.3V18.5z"/>
	<path fill="#FFFFFF" d="M102.2,20.9h-5.1c0,0.6,0.2,1,0.6,1.3c0.4,0.3,0.8,0.5,1.5,0.5c0.8,0,1.3-0.2,1.7-0.6l0.6,1.3
		c-0.6,0.5-1.5,0.7-2.6,0.7c-1.1,0-2-0.3-2.6-1c-0.6-0.6-1-1.5-1-2.7c0-1.1,0.3-2,1-2.7c0.7-0.7,1.5-1,2.5-1c1,0,1.9,0.3,2.5,0.9
		c0.6,0.6,0.9,1.4,0.9,2.4C102.3,20.2,102.3,20.5,102.2,20.9z M97.1,19.7h3.5c-0.1-1-0.7-1.6-1.7-1.6C97.9,18.1,97.4,18.6,97.1,19.7
		z"/>
	<path fill="#FFFFFF" d="M18,30.6l1.7-0.4v8c0,0.9,0.3,1.4,0.8,1.6c-0.3,0.5-0.7,0.7-1.3,0.7c-0.8,0-1.1-0.5-1.1-1.6V30.6z"/>
	<path fill="#FFFFFF" d="M25.7,39.7c-0.2,0.2-0.4,0.5-0.8,0.6c-0.4,0.2-0.8,0.2-1.2,0.2c-0.8,0-1.4-0.2-1.8-0.6
		c-0.4-0.4-0.7-0.9-0.7-1.6c0-0.8,0.3-1.5,0.9-1.9c0.6-0.5,1.5-0.7,2.6-0.7c0.2,0,0.4,0,0.7,0.1c0-0.8-0.5-1.3-1.6-1.3
		c-0.6,0-1.2,0.1-1.6,0.3L22,33.5c0.6-0.3,1.3-0.4,2-0.4c1.1,0,1.9,0.2,2.4,0.7c0.5,0.5,0.8,1.4,0.8,2.8v1.5c0,1,0.2,1.6,0.6,1.8
		c-0.1,0.2-0.3,0.4-0.5,0.4c-0.2,0.1-0.4,0.1-0.6,0.1c-0.2,0-0.5-0.1-0.6-0.3C25.9,40.1,25.8,39.9,25.7,39.7z M25.6,37
		c-0.3-0.1-0.5-0.1-0.6-0.1c-1.3,0-2,0.4-2,1.3c0,0.6,0.4,1,1.1,1c1,0,1.5-0.5,1.5-1.5V37z"/>
	<path fill="#FFFFFF" d="M36.2,40.4h-3v-9.8c1.3-0.1,2.2-0.1,2.8-0.1c1,0,1.8,0.2,2.4,0.7c0.6,0.4,0.9,1.1,0.9,1.9
		c0,0.8-0.4,1.4-1.2,1.8c1.2,0.4,1.8,1.3,1.8,2.6c0,0.9-0.3,1.6-1,2.1C38.2,40.1,37.3,40.4,36.2,40.4z M35,32v2.3c0.3,0,0.5,0,0.8,0
		c1.1,0,1.7-0.4,1.7-1.3c0-0.8-0.5-1.1-1.5-1.1C35.7,32,35.4,32,35,32z M35,35.7v3.2c0.4,0,0.6,0,0.9,0c0.8,0,1.3-0.1,1.7-0.4
		c0.3-0.3,0.5-0.7,0.5-1.3c0-0.6-0.2-1-0.5-1.2c-0.3-0.3-0.9-0.4-1.7-0.4C35.7,35.7,35.4,35.7,35,35.7z"/>
	<path fill="#FFFFFF" d="M45.3,39.7c-0.2,0.2-0.4,0.5-0.8,0.6c-0.4,0.2-0.8,0.2-1.2,0.2c-0.8,0-1.4-0.2-1.8-0.6
		c-0.4-0.4-0.7-0.9-0.7-1.6c0-0.8,0.3-1.5,0.9-1.9c0.6-0.5,1.5-0.7,2.6-0.7c0.2,0,0.4,0,0.7,0.1c0-0.8-0.5-1.3-1.6-1.3
		c-0.6,0-1.2,0.1-1.6,0.3l-0.4-1.3c0.6-0.3,1.3-0.4,2-0.4c1.1,0,1.9,0.2,2.4,0.7c0.5,0.5,0.8,1.4,0.8,2.8v1.5c0,1,0.2,1.6,0.6,1.8
		c-0.1,0.2-0.3,0.4-0.5,0.4c-0.2,0.1-0.4,0.1-0.6,0.1c-0.2,0-0.5-0.1-0.6-0.3C45.5,40.1,45.3,39.9,45.3,39.7z M45.1,37
		c-0.3-0.1-0.5-0.1-0.6-0.1c-1.3,0-2,0.4-2,1.3c0,0.6,0.4,1,1.1,1c1,0,1.5-0.5,1.5-1.5V37z"/>
	<path fill="#FFFFFF" d="M48.1,39.9l0.6-1.3c0.5,0.4,1.1,0.6,1.7,0.6c0.7,0,1-0.2,1-0.7c0-0.3-0.1-0.5-0.3-0.7
		c-0.2-0.2-0.6-0.4-1.1-0.6c-1.2-0.5-1.8-1.2-1.8-2.1c0-0.6,0.2-1.1,0.7-1.4c0.5-0.3,1.1-0.5,1.8-0.5c0.7,0,1.4,0.2,2.1,0.5
		l-0.5,1.3c-0.4-0.3-0.9-0.5-1.5-0.5c-0.6,0-0.9,0.2-0.9,0.7c0,0.2,0.1,0.3,0.3,0.5c0.2,0.1,0.6,0.3,1.2,0.6
		c0.6,0.2,1.1,0.5,1.4,0.9c0.3,0.4,0.4,0.8,0.4,1.3c0,0.7-0.2,1.2-0.7,1.6c-0.5,0.4-1.2,0.6-2,0.6c-0.5,0-0.9,0-1.1-0.1
		C48.9,40.3,48.6,40.2,48.1,39.9z"/>
	<path fill="#FFFFFF" d="M60.8,37.3h-5.1c0,0.6,0.2,1,0.6,1.3c0.4,0.3,0.8,0.5,1.5,0.5c0.8,0,1.3-0.2,1.7-0.6l0.6,1.3
		c-0.6,0.5-1.5,0.7-2.6,0.7c-1.1,0-2-0.3-2.6-1c-0.6-0.6-1-1.5-1-2.7c0-1.1,0.3-2,1-2.7c0.7-0.7,1.5-1,2.5-1c1,0,1.9,0.3,2.5,0.9
		c0.6,0.6,0.9,1.4,0.9,2.4C61,36.6,60.9,36.9,60.8,37.3z M55.8,36.1h3.5c-0.1-1-0.7-1.6-1.7-1.6C56.6,34.5,56,35,55.8,36.1z"/>
	<path fill="#FFFFFF" d="M71,40.4v-0.4c-0.1,0.2-0.4,0.3-0.7,0.4c-0.3,0.1-0.7,0.2-1,0.2c-1,0-1.8-0.3-2.4-0.9
		c-0.6-0.6-0.9-1.5-0.9-2.6c0-1.1,0.3-2.1,1-2.8c0.7-0.7,1.5-1.1,2.5-1.1c0.5,0,1,0.1,1.5,0.3v-2.9l1.7-0.4v10.2H71z M71,34.9
		c-0.4-0.3-0.7-0.4-1.1-0.4c-0.7,0-1.2,0.2-1.5,0.6c-0.4,0.4-0.5,1-0.5,1.8c0,1.5,0.7,2.2,2.1,2.2c0.2,0,0.4,0,0.6-0.1
		c0.2-0.1,0.4-0.2,0.5-0.3V34.9z"/>
	<path fill="#FFFFFF" d="M80.7,37.3h-5.1c0,0.6,0.2,1,0.6,1.3c0.4,0.3,0.8,0.5,1.5,0.5c0.8,0,1.3-0.2,1.7-0.6l0.6,1.3
		c-0.6,0.5-1.5,0.7-2.6,0.7c-1.1,0-2-0.3-2.6-1c-0.6-0.6-1-1.5-1-2.7c0-1.1,0.3-2,1-2.7c0.7-0.7,1.5-1,2.5-1c1,0,1.9,0.3,2.5,0.9
		c0.6,0.6,0.9,1.4,0.9,2.4C80.9,36.6,80.8,36.9,80.7,37.3z M75.7,36.1h3.5c-0.1-1-0.7-1.6-1.7-1.6C76.5,34.5,75.9,35,75.7,36.1z"/>
	<path fill="#FFFFFF" d="M88.6,40.4h-2.2v-9.8c1.4,0,2.3-0.1,2.6-0.1c1.4,0,2.6,0.4,3.4,1.3c0.8,0.8,1.3,1.9,1.3,3.3
		C93.7,38.6,92,40.4,88.6,40.4z M88.2,32.1v6.7c0.3,0,0.6,0,0.9,0c0.9,0,1.6-0.3,2.1-1c0.5-0.6,0.7-1.5,0.7-2.7c0-2.1-1-3.1-2.9-3.1
		C88.8,32.1,88.5,32.1,88.2,32.1z"/>
	<path fill="#FFFFFF" d="M99.1,39.7c-0.2,0.2-0.4,0.5-0.8,0.6c-0.4,0.2-0.8,0.2-1.2,0.2c-0.8,0-1.4-0.2-1.8-0.6
		c-0.4-0.4-0.7-0.9-0.7-1.6c0-0.8,0.3-1.5,0.9-1.9c0.6-0.5,1.5-0.7,2.6-0.7c0.2,0,0.4,0,0.7,0.1c0-0.8-0.5-1.3-1.6-1.3
		c-0.6,0-1.2,0.1-1.6,0.3l-0.4-1.3c0.6-0.3,1.3-0.4,2-0.4c1.1,0,1.9,0.2,2.4,0.7c0.5,0.5,0.8,1.4,0.8,2.8v1.5c0,1,0.2,1.6,0.6,1.8
		c-0.1,0.2-0.3,0.4-0.5,0.4c-0.2,0.1-0.4,0.1-0.6,0.1c-0.2,0-0.5-0.1-0.6-0.3C99.3,40.1,99.2,39.9,99.1,39.7z M98.9,37
		c-0.3-0.1-0.5-0.1-0.6-0.1c-1.3,0-2,0.4-2,1.3c0,0.6,0.4,1,1.1,1c1,0,1.5-0.5,1.5-1.5V37z"/>
	<path fill="#FFFFFF" d="M102.7,34.6h-0.8v-1.3h0.8v-1.5l1.7-0.6v2.1h2v1.3h-2v3.1c0,0.5,0.1,0.9,0.2,1.1c0.2,0.2,0.4,0.3,0.8,0.3
		c0.4,0,0.8-0.1,1.1-0.3v1.5c-0.4,0.1-0.9,0.2-1.7,0.2c-0.7,0-1.3-0.2-1.6-0.6c-0.4-0.4-0.6-1-0.6-1.7V34.6z"/>
	<path fill="#FFFFFF" d="M107.4,36.8c0-1.1,0.3-2,0.9-2.7c0.6-0.7,1.5-1,2.5-1c1.1,0,1.9,0.3,2.5,1c0.6,0.7,0.9,1.6,0.9,2.7
		c0,1.1-0.3,2-0.9,2.7c-0.6,0.7-1.5,1-2.5,1c-1.1,0-1.9-0.3-2.5-1C107.7,38.8,107.4,37.9,107.4,36.8z M109.1,36.8
		c0,1.6,0.6,2.4,1.7,2.4c0.5,0,0.9-0.2,1.2-0.6c0.3-0.4,0.5-1,0.5-1.7c0-1.6-0.6-2.3-1.7-2.3c-0.5,0-0.9,0.2-1.2,0.6
		C109.2,35.5,109.1,36,109.1,36.8z"/>
	<path fill="#FFFFFF" d="M115.1,39.9l0.6-1.3c0.5,0.4,1.1,0.6,1.7,0.6c0.7,0,1-0.2,1-0.7c0-0.3-0.1-0.5-0.3-0.7
		c-0.2-0.2-0.6-0.4-1.1-0.6c-1.2-0.5-1.8-1.2-1.8-2.1c0-0.6,0.2-1.1,0.7-1.4c0.5-0.3,1.1-0.5,1.8-0.5c0.7,0,1.4,0.2,2.1,0.5
		l-0.5,1.3c-0.4-0.3-0.9-0.5-1.5-0.5c-0.6,0-0.9,0.2-0.9,0.7c0,0.2,0.1,0.3,0.3,0.5c0.2,0.1,0.6,0.3,1.2,0.6
		c0.6,0.2,1.1,0.5,1.4,0.9c0.3,0.4,0.4,0.8,0.4,1.3c0,0.7-0.2,1.2-0.7,1.6c-0.5,0.4-1.2,0.6-2,0.6c-0.5,0-0.9,0-1.1-0.1
		C115.9,40.3,115.6,40.2,115.1,39.9z"/>
</g>
</svg>
