<?xml version="1.0" encoding="utf-8"?>
<!-- Generator: Adobe Illustrator 18.1.0, SVG Export Plug-In . SVG Version: 6.00 Build 0)  -->
<!DOCTYPE svg PUBLIC "-//W3C//DTD SVG 1.1//EN" "http://www.w3.org/Graphics/SVG/1.1/DTD/svg11.dtd">
<svg version="1.1" id="Capa_1" xmlns="http://www.w3.org/2000/svg" xmlns:xlink="http://www.w3.org/1999/xlink" x="0px" y="0px"
	 viewBox="-245 399.6 104.3 43.3" enable-background="new -245 399.6 104.3 43.3" xml:space="preserve">
<g>
	<ellipse fill="#285AA3" cx="-192.8" cy="421.2" rx="52.2" ry="21.6"/>
</g>
<rect x="-239.2" y="410.3" fill="none" width="92.3" height="27.6"/>
<g enable-background="new    ">
	<path fill="#FFFFFF" d="M-205.5,411.2l-0.6,1.1c-0.2-0.1-0.4-0.3-0.7-0.4c-0.3-0.1-0.6-0.2-0.9-0.2c-0.8,0-1.4,0.3-1.8,0.7
		c-0.4,0.5-0.7,1.2-0.7,2c0,0.8,0.2,1.4,0.6,1.9c0.4,0.5,1,0.7,1.8,0.7c0.5,0,0.9-0.1,1.2-0.4v-1.5h-1.1V414h2.4v3.4
		c-0.3,0.3-0.7,0.5-1.3,0.6c-0.5,0.1-1,0.2-1.5,0.2c-1.1,0-2-0.4-2.6-1.1s-1-1.6-1-2.8s0.4-2.1,1.1-2.8c0.7-0.7,1.7-1.1,2.8-1.1
		C-206.9,410.5-206.1,410.7-205.5,411.2z"/>
	<path fill="#FFFFFF" d="M-199.1,415.7h-4c0,0.4,0.2,0.8,0.5,1c0.3,0.2,0.7,0.4,1.1,0.4c0.6,0,1.1-0.2,1.4-0.5l0.5,1
		c-0.5,0.4-1.2,0.5-2.1,0.5c-0.9,0-1.5-0.2-2-0.7c-0.5-0.5-0.7-1.2-0.7-2c0-0.9,0.3-1.6,0.8-2.1c0.5-0.5,1.2-0.8,2-0.8
		c0.8,0,1.5,0.2,2,0.7c0.5,0.5,0.7,1.1,0.7,1.8C-198.9,415.2-199,415.4-199.1,415.7z M-203,414.8h2.8c-0.1-0.8-0.5-1.2-1.4-1.2
		C-202.4,413.6-202.8,414-203,414.8z"/>
	<path fill="#FFFFFF" d="M-198.2,417.7l0.5-1c0.4,0.3,0.8,0.5,1.3,0.5c0.5,0,0.8-0.2,0.8-0.5c0-0.2-0.1-0.4-0.2-0.5
		s-0.5-0.3-0.9-0.5c-1-0.4-1.5-0.9-1.5-1.6c0-0.5,0.2-0.8,0.6-1.1c0.4-0.3,0.8-0.4,1.4-0.4c0.6,0,1.1,0.1,1.7,0.4l-0.4,1
		c-0.3-0.2-0.7-0.4-1.2-0.4c-0.5,0-0.7,0.2-0.7,0.5c0,0.1,0.1,0.3,0.2,0.4c0.2,0.1,0.5,0.3,1,0.5c0.5,0.2,0.8,0.4,1.1,0.7
		c0.2,0.3,0.3,0.6,0.3,1c0,0.5-0.2,0.9-0.6,1.2c-0.4,0.3-0.9,0.4-1.6,0.4c-0.4,0-0.7,0-0.9-0.1S-197.9,417.9-198.2,417.7z"/>
	<path fill="#FFFFFF" d="M-193.1,413.6h-0.7v-1h0.7v-1.1l1.3-0.5v1.6h1.5v1h-1.5v2.4c0,0.4,0.1,0.7,0.2,0.8c0.1,0.2,0.3,0.2,0.7,0.2
		c0.3,0,0.6-0.1,0.9-0.3v1.2c-0.3,0.1-0.7,0.2-1.3,0.2c-0.6,0-1-0.2-1.3-0.5c-0.3-0.3-0.5-0.7-0.5-1.3V413.6z"/>
	<path fill="#FFFFFF" d="M-188.6,418.1v-4.4h-0.7v-1h2v5.5H-188.6z M-188,410.5c0.2,0,0.4,0.1,0.5,0.2c0.1,0.1,0.2,0.3,0.2,0.5
		s-0.1,0.4-0.2,0.5c-0.1,0.1-0.3,0.2-0.5,0.2c-0.2,0-0.4-0.1-0.5-0.2c-0.1-0.1-0.2-0.3-0.2-0.5s0.1-0.4,0.2-0.5
		C-188.3,410.6-188.2,410.5-188,410.5z"/>
	<path fill="#FFFFFF" d="M-186.1,415.3c0-0.8,0.2-1.5,0.7-2c0.5-0.5,1.2-0.8,2-0.8c0.9,0,1.5,0.3,2,0.8s0.7,1.2,0.7,2.1
		c0,0.9-0.2,1.6-0.7,2.1c-0.5,0.5-1.1,0.8-2,0.8c-0.9,0-1.5-0.3-2-0.8C-185.9,416.9-186.1,416.2-186.1,415.3z M-184.8,415.3
		c0,1.2,0.4,1.8,1.3,1.8c0.4,0,0.7-0.2,1-0.5c0.2-0.3,0.4-0.8,0.4-1.3c0-1.2-0.4-1.8-1.3-1.8c-0.4,0-0.7,0.2-1,0.5
		S-184.8,414.8-184.8,415.3z M-182.2,410.4l-1.2,1.5h-1l0.9-1.5H-182.2z"/>
	<path fill="#FFFFFF" d="M-176.1,418.1v-3.2c0-0.5-0.1-0.8-0.3-1c-0.2-0.2-0.5-0.3-0.9-0.3c-0.2,0-0.4,0.1-0.6,0.2
		c-0.2,0.1-0.4,0.2-0.5,0.4v4h-1.3v-5.5h0.9l0.2,0.5c0.4-0.4,0.9-0.6,1.6-0.6c0.7,0,1.2,0.2,1.6,0.6c0.4,0.4,0.6,0.9,0.6,1.6v3.4
		H-176.1z"/>
</g>
<g enable-background="new    ">
	<path fill="#FFFFFF" d="M-221.3,430.7v-0.3c-0.1,0.1-0.3,0.2-0.6,0.3s-0.5,0.1-0.8,0.1c-0.8,0-1.4-0.2-1.9-0.7
		c-0.5-0.5-0.7-1.2-0.7-2c0-0.9,0.3-1.6,0.8-2.1c0.5-0.5,1.2-0.8,1.9-0.8c0.4,0,0.8,0.1,1.2,0.3v-2.2l1.3-0.3v7.8H-221.3z
		 M-221.3,426.5c-0.3-0.2-0.6-0.3-0.9-0.3c-0.5,0-0.9,0.2-1.2,0.5c-0.3,0.3-0.4,0.8-0.4,1.3c0,1.1,0.6,1.7,1.7,1.7
		c0.1,0,0.3,0,0.5-0.1c0.2-0.1,0.3-0.1,0.4-0.2V426.5z"/>
	<path fill="#FFFFFF" d="M-213.6,428.3h-4c0,0.4,0.2,0.8,0.5,1c0.3,0.2,0.7,0.4,1.1,0.4c0.6,0,1.1-0.2,1.4-0.5l0.5,1
		c-0.5,0.4-1.2,0.5-2.1,0.5c-0.9,0-1.5-0.2-2-0.7c-0.5-0.5-0.7-1.2-0.7-2c0-0.9,0.3-1.6,0.8-2.1c0.5-0.5,1.2-0.8,2-0.8
		c0.8,0,1.5,0.2,2,0.7c0.5,0.5,0.7,1.1,0.7,1.8C-213.5,427.8-213.5,428-213.6,428.3z M-217.6,427.4h2.8c-0.1-0.8-0.5-1.2-1.4-1.2
		C-216.9,426.2-217.4,426.6-217.6,427.4z"/>
	<path fill="#FFFFFF" d="M-208,430.5v2.3h-1.3v-7.6h1.3v0.4c0.3-0.3,0.7-0.5,1.2-0.5c1.8,0,2.7,1,2.7,2.9c0,0.9-0.2,1.6-0.7,2.1
		c-0.5,0.5-1.2,0.7-2,0.7C-207.3,430.8-207.7,430.7-208,430.5z M-208,426.5v2.9c0.2,0.2,0.5,0.3,0.8,0.3c0.6,0,1-0.1,1.3-0.4
		s0.4-0.7,0.4-1.3c0-0.6-0.1-1.1-0.4-1.4c-0.3-0.3-0.7-0.4-1.3-0.4C-207.5,426.2-207.7,426.3-208,426.5z"/>
	<path fill="#FFFFFF" d="M-199.7,426.4c-0.2-0.2-0.5-0.2-0.8-0.2c-0.3,0-0.6,0.1-0.8,0.4c-0.2,0.3-0.4,0.6-0.4,1v3.1h-1.3v-5.5h1.3
		v0.5c0.4-0.4,0.9-0.6,1.5-0.6c0.4,0,0.8,0.1,1,0.2L-199.7,426.4z"/>
	<path fill="#FFFFFF" d="M-198.7,427.9c0-0.8,0.2-1.5,0.7-2c0.5-0.5,1.2-0.8,2-0.8c0.9,0,1.5,0.3,2,0.8s0.7,1.2,0.7,2.1
		c0,0.9-0.2,1.6-0.7,2.1c-0.5,0.5-1.1,0.8-2,0.8c-0.9,0-1.5-0.3-2-0.8S-198.7,428.8-198.7,427.9z M-197.3,427.9
		c0,1.2,0.4,1.8,1.3,1.8c0.4,0,0.7-0.2,1-0.5c0.2-0.3,0.4-0.8,0.4-1.3c0-1.2-0.4-1.8-1.3-1.8c-0.4,0-0.7,0.2-1,0.5
		C-197.2,426.9-197.3,427.4-197.3,427.9z"/>
	<path fill="#FFFFFF" d="M-189.7,431.6c-0.1,0.4-0.4,0.7-0.9,0.9s-1,0.4-1.6,0.4v-1.1c1,0,1.5-0.2,1.5-0.7c0-0.3-0.1-0.8-0.4-1.5
		l-1.8-4.2h1.4l1.5,3.8l1.4-3.8h1.4L-189.7,431.6z"/>
	<path fill="#FFFFFF" d="M-181.5,428.3h-4c0,0.4,0.2,0.8,0.5,1c0.3,0.2,0.7,0.4,1.1,0.4c0.6,0,1.1-0.2,1.4-0.5l0.5,1
		c-0.5,0.4-1.2,0.5-2.1,0.5c-0.9,0-1.5-0.2-2-0.7c-0.5-0.5-0.7-1.2-0.7-2c0-0.9,0.3-1.6,0.8-2.1s1.2-0.8,2-0.8c0.8,0,1.5,0.2,2,0.7
		c0.5,0.5,0.7,1.1,0.7,1.8C-181.4,427.8-181.4,428-181.5,428.3z M-185.4,427.4h2.8c-0.1-0.8-0.5-1.2-1.4-1.2
		C-184.8,426.2-185.3,426.6-185.4,427.4z"/>
	<path fill="#FFFFFF" d="M-175.9,425.6l-0.6,1c-0.3-0.3-0.7-0.4-1.2-0.4c-0.5,0-0.9,0.2-1.2,0.5s-0.4,0.8-0.4,1.3
		c0,1.1,0.6,1.7,1.7,1.7c0.5,0,0.9-0.2,1.3-0.5l0.5,1c-0.4,0.2-0.7,0.4-1,0.4c-0.3,0.1-0.6,0.1-1,0.1c-0.9,0-1.6-0.2-2.1-0.7
		s-0.8-1.2-0.8-2.1c0-0.9,0.3-1.6,0.8-2.1c0.5-0.5,1.3-0.8,2.3-0.8C-176.9,425.1-176.4,425.3-175.9,425.6z"/>
	<path fill="#FFFFFF" d="M-174.6,426.2h-0.7v-1h0.7v-1.1l1.3-0.5v1.6h1.5v1h-1.5v2.4c0,0.4,0.1,0.7,0.2,0.8c0.1,0.2,0.3,0.2,0.7,0.2
		s0.6-0.1,0.9-0.3v1.2c-0.3,0.1-0.7,0.2-1.3,0.2c-0.6,0-1-0.2-1.3-0.5s-0.5-0.7-0.5-1.3V426.2z"/>
	<path fill="#FFFFFF" d="M-170.9,427.9c0-0.8,0.2-1.5,0.7-2s1.2-0.8,2-0.8c0.9,0,1.5,0.3,2,0.8c0.5,0.5,0.7,1.2,0.7,2.1
		c0,0.9-0.2,1.6-0.7,2.1c-0.5,0.5-1.1,0.8-2,0.8c-0.9,0-1.5-0.3-2-0.8S-170.9,428.8-170.9,427.9z M-169.5,427.9
		c0,1.2,0.4,1.8,1.3,1.8c0.4,0,0.7-0.2,1-0.5c0.2-0.3,0.4-0.8,0.4-1.3c0-1.2-0.4-1.8-1.3-1.8c-0.4,0-0.7,0.2-1,0.5
		C-169.4,426.9-169.5,427.4-169.5,427.9z"/>
	<path fill="#FFFFFF" d="M-164.8,430.3l0.5-1c0.4,0.3,0.8,0.5,1.3,0.5c0.5,0,0.8-0.2,0.8-0.5c0-0.2-0.1-0.4-0.2-0.5
		s-0.5-0.3-0.9-0.5c-1-0.4-1.5-0.9-1.5-1.6c0-0.5,0.2-0.8,0.6-1.1c0.4-0.3,0.8-0.4,1.4-0.4c0.6,0,1.1,0.1,1.7,0.4l-0.4,1
		c-0.3-0.2-0.7-0.4-1.2-0.4c-0.5,0-0.7,0.2-0.7,0.5c0,0.1,0.1,0.3,0.2,0.4c0.2,0.1,0.5,0.3,1,0.5s0.8,0.4,1.1,0.7s0.3,0.6,0.3,1
		c0,0.5-0.2,0.9-0.6,1.2c-0.4,0.3-0.9,0.4-1.6,0.4c-0.4,0-0.7,0-0.9-0.1C-164.1,430.6-164.4,430.5-164.8,430.3z"/>
</g>
</svg>
