<?xml version="1.0" encoding="utf-8"?>
<!-- Generator: Adobe Illustrator 18.1.0, SVG Export Plug-In . SVG Version: 6.00 Build 0)  -->
<!DOCTYPE svg PUBLIC "-//W3C//DTD SVG 1.1//EN" "http://www.w3.org/Graphics/SVG/1.1/DTD/svg11.dtd">
<svg version="1.1" id="Capa_1" xmlns="http://www.w3.org/2000/svg" xmlns:xlink="http://www.w3.org/1999/xlink" x="0px" y="0px"
	 viewBox="-245 396.1 104.3 43.2" enable-background="new -245 396.1 104.3 43.2" xml:space="preserve">
<g>
	<ellipse fill="#285AA3" cx="-192.8" cy="417.7" rx="52.2" ry="21.6"/>
</g>
<rect x="-239.4" y="401.6" fill="none" width="92.3" height="45.2"/>
<g enable-background="new    ">
	<path fill="#FFFFFF" d="M-218.2,402.4l-0.4,0.8c-0.1-0.1-0.3-0.2-0.6-0.3c-0.3-0.1-0.5-0.2-0.7-0.2c-0.6,0-1,0.2-1.4,0.6
		c-0.3,0.4-0.5,0.9-0.5,1.5c0,0.6,0.2,1.1,0.5,1.5s0.8,0.5,1.3,0.5c0.4,0,0.7-0.1,0.9-0.3v-1.1h-0.8v-0.9h1.9v2.6
		c-0.2,0.2-0.6,0.4-1,0.5c-0.4,0.1-0.8,0.2-1.2,0.2c-0.8,0-1.5-0.3-2-0.8s-0.7-1.2-0.7-2.1s0.3-1.6,0.8-2.2c0.5-0.6,1.3-0.8,2.2-0.8
		C-219.2,401.8-218.6,402-218.2,402.4z"/>
	<path fill="#FFFFFF" d="M-213.2,405.8h-3.1c0,0.3,0.1,0.6,0.4,0.8c0.2,0.2,0.5,0.3,0.9,0.3c0.5,0,0.8-0.1,1-0.3l0.4,0.7
		c-0.4,0.3-0.9,0.4-1.6,0.4c-0.7,0-1.2-0.2-1.6-0.6c-0.4-0.4-0.6-0.9-0.6-1.6c0-0.7,0.2-1.2,0.6-1.6c0.4-0.4,0.9-0.6,1.5-0.6
		c0.6,0,1.1,0.2,1.5,0.5c0.4,0.4,0.6,0.8,0.6,1.4C-213.1,405.4-213.2,405.6-213.2,405.8z M-216.3,405.1h2.1c-0.1-0.6-0.4-0.9-1-0.9
		C-215.8,404.2-216.1,404.5-216.3,405.1z"/>
	<path fill="#FFFFFF" d="M-212.6,407.3l0.4-0.8c0.3,0.2,0.6,0.3,1,0.3c0.4,0,0.6-0.1,0.6-0.4c0-0.2-0.1-0.3-0.2-0.4
		s-0.3-0.2-0.7-0.4c-0.7-0.3-1.1-0.7-1.1-1.3c0-0.4,0.1-0.6,0.4-0.8c0.3-0.2,0.6-0.3,1.1-0.3c0.4,0,0.9,0.1,1.3,0.3l-0.3,0.8
		c-0.2-0.2-0.5-0.3-0.9-0.3c-0.4,0-0.5,0.1-0.5,0.4c0,0.1,0.1,0.2,0.2,0.3s0.4,0.2,0.7,0.3c0.4,0.1,0.6,0.3,0.8,0.5s0.2,0.5,0.2,0.7
		c0,0.4-0.1,0.7-0.4,0.9s-0.7,0.3-1.2,0.3c-0.3,0-0.5,0-0.7-0.1C-212.1,407.6-212.3,407.5-212.6,407.3z"/>
	<path fill="#FFFFFF" d="M-208.6,404.2h-0.5v-0.8h0.5v-0.9l1-0.4v1.2h1.2v0.8h-1.2v1.8c0,0.3,0,0.5,0.1,0.6c0.1,0.1,0.3,0.2,0.5,0.2
		c0.2,0,0.5-0.1,0.7-0.2v0.9c-0.2,0.1-0.6,0.1-1,0.1c-0.4,0-0.8-0.1-1-0.4s-0.3-0.6-0.3-1V404.2z"/>
	<path fill="#FFFFFF" d="M-205.3,407.6v-3.4h-0.6v-0.8h1.6v4.2H-205.3z M-204.8,401.8c0.2,0,0.3,0.1,0.4,0.2s0.2,0.2,0.2,0.4
		s-0.1,0.3-0.2,0.4s-0.3,0.2-0.4,0.2c-0.2,0-0.3-0.1-0.4-0.2s-0.2-0.2-0.2-0.4s0.1-0.3,0.2-0.4S-204.9,401.8-204.8,401.8z"/>
	<path fill="#FFFFFF" d="M-203.4,405.5c0-0.6,0.2-1.2,0.6-1.6s0.9-0.6,1.5-0.6c0.7,0,1.2,0.2,1.5,0.6c0.4,0.4,0.5,0.9,0.5,1.6
		c0,0.7-0.2,1.2-0.6,1.6s-0.9,0.6-1.5,0.6c-0.7,0-1.2-0.2-1.5-0.6C-203.2,406.7-203.4,406.2-203.4,405.5z M-202.3,405.5
		c0,0.9,0.3,1.4,1,1.4c0.3,0,0.6-0.1,0.7-0.4c0.2-0.2,0.3-0.6,0.3-1c0-0.9-0.3-1.4-1-1.4c-0.3,0-0.6,0.1-0.7,0.4
		C-202.2,404.7-202.3,405.1-202.3,405.5z M-200.3,401.7l-0.9,1.1h-0.8l0.7-1.1H-200.3z"/>
	<path fill="#FFFFFF" d="M-195.7,407.6v-2.4c0-0.4-0.1-0.6-0.2-0.8s-0.4-0.2-0.7-0.2c-0.1,0-0.3,0-0.5,0.1s-0.3,0.2-0.4,0.3v3h-1
		v-4.2h0.7l0.2,0.4c0.3-0.3,0.7-0.5,1.2-0.5c0.5,0,0.9,0.1,1.2,0.4s0.4,0.7,0.4,1.2v2.6H-195.7z"/>
	<path fill="#FFFFFF" d="M-187,402.2l-0.4,0.8c-0.2-0.2-0.6-0.3-1.1-0.3c-0.5,0-0.9,0.2-1.2,0.6s-0.5,0.9-0.5,1.5s0.1,1.1,0.4,1.5
		s0.7,0.5,1.2,0.5c0.6,0,1-0.2,1.3-0.6l0.5,0.8c-0.4,0.4-1,0.7-1.9,0.7s-1.5-0.3-1.9-0.8s-0.7-1.2-0.7-2.2c0-0.8,0.3-1.6,0.8-2.1
		c0.5-0.6,1.2-0.9,1.9-0.9C-187.9,401.8-187.4,401.9-187,402.2z"/>
	<path fill="#FFFFFF" d="M-183.3,407.6v-0.4c-0.1,0.1-0.3,0.2-0.6,0.3s-0.5,0.1-0.7,0.1c-1,0-1.5-0.5-1.5-1.5v-2.7h1v2.6
		c0,0.5,0.2,0.8,0.7,0.8c0.2,0,0.4-0.1,0.6-0.2s0.3-0.2,0.4-0.4v-2.9h1v4.2H-183.3z"/>
	<path fill="#FFFFFF" d="M-181,401.9l1-0.2v4.7c0,0.5,0.2,0.8,0.5,0.9c-0.2,0.3-0.4,0.4-0.8,0.4c-0.5,0-0.7-0.3-0.7-0.9V401.9z"/>
	<path fill="#FFFFFF" d="M-178.6,404.2h-0.5v-0.8h0.5v-0.9l1-0.4v1.2h1.2v0.8h-1.2v1.8c0,0.3,0,0.5,0.1,0.6c0.1,0.1,0.3,0.2,0.5,0.2
		c0.2,0,0.5-0.1,0.7-0.2v0.9c-0.2,0.1-0.6,0.1-1,0.1c-0.4,0-0.8-0.1-1-0.4s-0.3-0.6-0.3-1V404.2z"/>
	<path fill="#FFFFFF" d="M-172.7,407.6v-0.4c-0.1,0.1-0.3,0.2-0.6,0.3c-0.3,0.1-0.5,0.1-0.7,0.1c-1,0-1.5-0.5-1.5-1.5v-2.7h1v2.6
		c0,0.5,0.2,0.8,0.7,0.8c0.2,0,0.4-0.1,0.6-0.2s0.3-0.2,0.4-0.4v-2.9h1v4.2H-172.7z"/>
	<path fill="#FFFFFF" d="M-168.2,404.3c-0.2-0.1-0.4-0.2-0.6-0.2c-0.2,0-0.4,0.1-0.6,0.3c-0.2,0.2-0.3,0.5-0.3,0.8v2.4h-1v-4.2h1
		v0.4c0.3-0.3,0.7-0.5,1.1-0.5c0.3,0,0.6,0.1,0.8,0.2L-168.2,404.3z"/>
	<path fill="#FFFFFF" d="M-165,407.2c-0.1,0.1-0.3,0.3-0.5,0.4s-0.5,0.1-0.7,0.1c-0.5,0-0.8-0.1-1.1-0.3s-0.4-0.5-0.4-1
		c0-0.5,0.2-0.9,0.6-1.1c0.4-0.3,0.9-0.4,1.6-0.4c0.1,0,0.3,0,0.4,0.1c0-0.5-0.3-0.7-1-0.7c-0.4,0-0.7,0.1-0.9,0.2l-0.2-0.8
		c0.3-0.2,0.8-0.2,1.2-0.2c0.7,0,1.1,0.1,1.4,0.4c0.3,0.3,0.5,0.8,0.5,1.7v0.9c0,0.6,0.1,0.9,0.3,1.1c-0.1,0.1-0.2,0.2-0.3,0.3
		c-0.1,0-0.2,0-0.3,0c-0.1,0-0.3-0.1-0.4-0.2S-165,407.3-165,407.2z M-165.1,405.6c-0.2,0-0.3-0.1-0.4-0.1c-0.8,0-1.2,0.3-1.2,0.8
		c0,0.4,0.2,0.6,0.7,0.6c0.6,0,0.9-0.3,0.9-0.9V405.6z"/>
</g>
<g enable-background="new    ">
	<path fill="#FFFFFF" d="M-220.1,417.2V417c-0.1,0.1-0.2,0.2-0.4,0.2s-0.4,0.1-0.6,0.1c-0.6,0-1.1-0.2-1.4-0.6
		c-0.3-0.4-0.5-0.9-0.5-1.5s0.2-1.2,0.6-1.6s0.9-0.6,1.5-0.6c0.3,0,0.6,0.1,0.9,0.2v-1.7l1-0.2v6H-220.1z M-220.1,414
		c-0.2-0.2-0.4-0.3-0.7-0.3c-0.4,0-0.7,0.1-0.9,0.4s-0.3,0.6-0.3,1c0,0.9,0.4,1.3,1.3,1.3c0.1,0,0.2,0,0.4-0.1s0.2-0.1,0.3-0.2V414z
		"/>
	<path fill="#FFFFFF" d="M-214.3,415.4h-3.1c0,0.3,0.1,0.6,0.4,0.8c0.2,0.2,0.5,0.3,0.9,0.3c0.5,0,0.8-0.1,1-0.3l0.4,0.7
		c-0.4,0.3-0.9,0.4-1.6,0.4c-0.7,0-1.2-0.2-1.6-0.6c-0.4-0.4-0.6-0.9-0.6-1.6c0-0.7,0.2-1.2,0.6-1.6c0.4-0.4,0.9-0.6,1.5-0.6
		c0.6,0,1.1,0.2,1.5,0.5c0.4,0.4,0.6,0.8,0.6,1.4C-214.2,415-214.2,415.2-214.3,415.4z M-217.3,414.7h2.1c-0.1-0.6-0.4-0.9-1-0.9
		C-216.8,413.8-217.2,414.1-217.3,414.7z"/>
	<path fill="#FFFFFF" d="M-213.2,411.5l1-0.2v4.7c0,0.5,0.2,0.8,0.5,0.9c-0.2,0.3-0.4,0.4-0.8,0.4c-0.5,0-0.7-0.3-0.7-0.9V411.5z"/>
	<path fill="#FFFFFF" d="M-208.8,416.9l0.4-0.8c0.3,0.2,0.6,0.3,1,0.3c0.4,0,0.6-0.1,0.6-0.4c0-0.2-0.1-0.3-0.2-0.4
		s-0.3-0.2-0.7-0.4c-0.7-0.3-1.1-0.7-1.1-1.3c0-0.4,0.1-0.6,0.4-0.8c0.3-0.2,0.6-0.3,1.1-0.3c0.4,0,0.9,0.1,1.3,0.3l-0.3,0.8
		c-0.2-0.2-0.5-0.3-0.9-0.3c-0.4,0-0.5,0.1-0.5,0.4c0,0.1,0.1,0.2,0.2,0.3s0.4,0.2,0.7,0.3c0.4,0.1,0.6,0.3,0.8,0.5s0.2,0.5,0.2,0.7
		c0,0.4-0.1,0.7-0.4,0.9s-0.7,0.3-1.2,0.3c-0.3,0-0.5,0-0.7-0.1C-208.3,417.2-208.5,417.1-208.8,416.9z"/>
	<path fill="#FFFFFF" d="M-201.1,415.4h-3.1c0,0.3,0.1,0.6,0.4,0.8c0.2,0.2,0.5,0.3,0.9,0.3c0.5,0,0.8-0.1,1-0.3l0.4,0.7
		c-0.4,0.3-0.9,0.4-1.6,0.4c-0.7,0-1.2-0.2-1.6-0.6c-0.4-0.4-0.6-0.9-0.6-1.6c0-0.7,0.2-1.2,0.6-1.6c0.4-0.4,0.9-0.6,1.5-0.6
		c0.6,0,1.1,0.2,1.5,0.5c0.4,0.4,0.6,0.8,0.6,1.4C-201,415-201.1,415.2-201.1,415.4z M-204.1,414.7h2.1c-0.1-0.6-0.4-0.9-1-0.9
		C-203.7,413.8-204,414.1-204.1,414.7z"/>
	<path fill="#FFFFFF" d="M-197.7,413.9c-0.2-0.1-0.4-0.2-0.6-0.2c-0.2,0-0.4,0.1-0.6,0.3s-0.3,0.5-0.3,0.8v2.4h-1V413h1v0.4
		c0.3-0.3,0.7-0.5,1.1-0.5c0.3,0,0.6,0.1,0.8,0.2L-197.7,413.9z"/>
	<path fill="#FFFFFF" d="M-194.9,417.3h-0.4l-1.9-4.3h1.1l1,2.6l1.1-2.6h1.1L-194.9,417.3z"/>
	<path fill="#FFFFFF" d="M-191.8,417.2v-3.4h-0.5V413h1.6v4.2H-191.8z M-191.3,411.4c0.2,0,0.3,0.1,0.4,0.2s0.2,0.2,0.2,0.4
		s-0.1,0.3-0.2,0.4s-0.3,0.2-0.4,0.2s-0.3-0.1-0.4-0.2c-0.1-0.1-0.2-0.2-0.2-0.4s0.1-0.3,0.2-0.4
		C-191.6,411.5-191.5,411.4-191.3,411.4z"/>
	<path fill="#FFFFFF" d="M-186.3,413.4l-0.4,0.7c-0.2-0.2-0.6-0.3-0.9-0.3c-0.4,0-0.7,0.1-0.9,0.4s-0.3,0.6-0.3,1
		c0,0.9,0.4,1.3,1.3,1.3c0.4,0,0.7-0.1,1-0.4l0.4,0.8c-0.3,0.2-0.5,0.3-0.8,0.3s-0.5,0.1-0.8,0.1c-0.7,0-1.2-0.2-1.6-0.6
		c-0.4-0.4-0.6-0.9-0.6-1.6c0-0.7,0.2-1.2,0.6-1.6s1-0.6,1.7-0.6C-187.1,412.9-186.7,413.1-186.3,413.4z"/>
	<path fill="#FFFFFF" d="M-185.2,417.2v-3.4h-0.6V413h1.6v4.2H-185.2z M-184.7,411.4c0.2,0,0.3,0.1,0.4,0.2c0.1,0.1,0.2,0.2,0.2,0.4
		s-0.1,0.3-0.2,0.4c-0.1,0.1-0.3,0.2-0.4,0.2c-0.2,0-0.3-0.1-0.4-0.2s-0.2-0.2-0.2-0.4s0.1-0.3,0.2-0.4S-184.8,411.4-184.7,411.4z"
		/>
	<path fill="#FFFFFF" d="M-183.3,415.1c0-0.6,0.2-1.2,0.6-1.6s0.9-0.6,1.5-0.6c0.7,0,1.2,0.2,1.5,0.6s0.5,0.9,0.5,1.6
		c0,0.7-0.2,1.2-0.6,1.6c-0.4,0.4-0.9,0.6-1.5,0.6c-0.7,0-1.2-0.2-1.5-0.6C-183.1,416.3-183.3,415.8-183.3,415.1z M-182.2,415.1
		c0,0.9,0.3,1.4,1,1.4c0.3,0,0.6-0.1,0.7-0.4s0.3-0.6,0.3-1c0-0.9-0.3-1.4-1-1.4c-0.3,0-0.6,0.1-0.7,0.4
		C-182.1,414.3-182.2,414.7-182.2,415.1z"/>
	<path fill="#FFFFFF" d="M-172.5,413.4l-0.4,0.7c-0.2-0.2-0.6-0.3-0.9-0.3c-0.4,0-0.7,0.1-0.9,0.4c-0.2,0.2-0.3,0.6-0.3,1
		c0,0.9,0.4,1.3,1.3,1.3c0.4,0,0.7-0.1,1-0.4l0.4,0.8c-0.3,0.2-0.5,0.3-0.8,0.3c-0.2,0-0.5,0.1-0.8,0.1c-0.7,0-1.2-0.2-1.6-0.6
		c-0.4-0.4-0.6-0.9-0.6-1.6c0-0.7,0.2-1.2,0.6-1.6c0.4-0.4,1-0.6,1.7-0.6C-173.3,412.9-172.9,413.1-172.5,413.4z"/>
	<path fill="#FFFFFF" d="M-171.9,415.1c0-0.6,0.2-1.2,0.6-1.6s0.9-0.6,1.5-0.6c0.7,0,1.2,0.2,1.5,0.6s0.5,0.9,0.5,1.6
		c0,0.7-0.2,1.2-0.6,1.6c-0.4,0.4-0.9,0.6-1.5,0.6c-0.7,0-1.2-0.2-1.5-0.6C-171.7,416.3-171.9,415.8-171.9,415.1z M-170.9,415.1
		c0,0.9,0.3,1.4,1,1.4c0.3,0,0.6-0.1,0.7-0.4s0.3-0.6,0.3-1c0-0.9-0.3-1.4-1-1.4c-0.3,0-0.6,0.1-0.7,0.4
		C-170.8,414.3-170.9,414.7-170.9,415.1z"/>
	<path fill="#FFFFFF" d="M-164.2,417.2v-2.4c0-0.4-0.1-0.6-0.2-0.8s-0.4-0.2-0.7-0.2c-0.1,0-0.3,0-0.5,0.1c-0.2,0.1-0.3,0.2-0.4,0.3
		v3h-1V413h0.7l0.2,0.4c0.3-0.3,0.7-0.5,1.2-0.5c0.5,0,0.9,0.1,1.2,0.4c0.3,0.3,0.4,0.7,0.4,1.2v2.6H-164.2z"/>
</g>
<g enable-background="new    ">
	<path fill="#FFFFFF" d="M-232.5,426.8l-1.6-2.4c-0.2,0-0.4,0-0.7,0v2.4h-1.1v-5.7c0.1,0,0.3,0,0.7,0c0.4,0,0.7,0,1,0
		c1.5,0,2.2,0.6,2.2,1.7c0,0.3-0.1,0.6-0.3,0.9c-0.2,0.3-0.5,0.5-0.8,0.6l1.7,2.6H-232.5z M-234.7,422v1.6c0.2,0,0.3,0,0.4,0
		c0.4,0,0.8-0.1,1-0.2s0.3-0.4,0.3-0.7c0-0.3-0.1-0.5-0.3-0.6s-0.6-0.2-1-0.2C-234.5,421.9-234.6,422-234.7,422z"/>
	<path fill="#FFFFFF" d="M-227,425h-3.1c0,0.3,0.1,0.6,0.4,0.8c0.2,0.2,0.5,0.3,0.9,0.3c0.5,0,0.8-0.1,1-0.3l0.4,0.7
		c-0.4,0.3-0.9,0.4-1.6,0.4c-0.7,0-1.2-0.2-1.6-0.6c-0.4-0.4-0.6-0.9-0.6-1.6c0-0.7,0.2-1.2,0.6-1.6c0.4-0.4,0.9-0.6,1.5-0.6
		c0.6,0,1.1,0.2,1.5,0.5c0.4,0.4,0.6,0.8,0.6,1.4C-226.9,424.6-226.9,424.8-227,425z M-230,424.3h2.1c-0.1-0.6-0.4-0.9-1-0.9
		C-229.5,423.4-229.9,423.7-230,424.3z"/>
	<path fill="#FFFFFF" d="M-226.4,426.5l0.4-0.8c0.3,0.2,0.6,0.3,1,0.3c0.4,0,0.6-0.1,0.6-0.4c0-0.2-0.1-0.3-0.2-0.4
		s-0.3-0.2-0.7-0.4c-0.7-0.3-1.1-0.7-1.1-1.3c0-0.4,0.1-0.6,0.4-0.8c0.3-0.2,0.6-0.3,1.1-0.3c0.4,0,0.9,0.1,1.3,0.3l-0.3,0.8
		c-0.2-0.2-0.5-0.3-0.9-0.3c-0.4,0-0.5,0.1-0.5,0.4c0,0.1,0.1,0.2,0.2,0.3s0.4,0.2,0.7,0.3c0.4,0.1,0.6,0.3,0.8,0.5s0.2,0.5,0.2,0.7
		c0,0.4-0.1,0.7-0.4,0.9s-0.7,0.3-1.2,0.3c-0.3,0-0.5,0-0.7-0.1C-225.9,426.8-226.1,426.7-226.4,426.5z"/>
	<path fill="#FFFFFF" d="M-221.6,426.7v1.7h-1v-5.8h1v0.3c0.3-0.2,0.6-0.4,0.9-0.4c1.4,0,2.1,0.7,2.1,2.2c0,0.7-0.2,1.2-0.6,1.6
		s-0.9,0.6-1.6,0.6C-221.1,426.9-221.4,426.8-221.6,426.7z M-221.6,423.6v2.2c0.2,0.1,0.4,0.2,0.6,0.2c0.5,0,0.8-0.1,1-0.3
		s0.3-0.6,0.3-1c0-0.5-0.1-0.8-0.3-1c-0.2-0.2-0.5-0.3-1-0.3C-221.2,423.4-221.5,423.5-221.6,423.6z"/>
	<path fill="#FFFFFF" d="M-218.1,424.7c0-0.6,0.2-1.2,0.6-1.6c0.4-0.4,0.9-0.6,1.5-0.6c0.7,0,1.2,0.2,1.5,0.6
		c0.4,0.4,0.5,0.9,0.5,1.6c0,0.7-0.2,1.2-0.6,1.6s-0.9,0.6-1.5,0.6c-0.7,0-1.2-0.2-1.5-0.6C-217.9,425.9-218.1,425.4-218.1,424.7z
		 M-217,424.7c0,0.9,0.3,1.4,1,1.4c0.3,0,0.6-0.1,0.7-0.4c0.2-0.2,0.3-0.6,0.3-1c0-0.9-0.3-1.4-1-1.4c-0.3,0-0.6,0.1-0.7,0.4
		C-216.9,423.9-217,424.3-217,424.7z"/>
	<path fill="#FFFFFF" d="M-210.4,426.8v-2.4c0-0.4-0.1-0.6-0.2-0.8s-0.4-0.2-0.7-0.2c-0.1,0-0.3,0-0.5,0.1s-0.3,0.2-0.4,0.3v3h-1
		v-4.2h0.7l0.2,0.4c0.3-0.3,0.7-0.5,1.2-0.5c0.5,0,0.9,0.1,1.2,0.4c0.3,0.3,0.4,0.7,0.4,1.2v2.6H-210.4z"/>
	<path fill="#FFFFFF" d="M-208.5,426.5l0.4-0.8c0.3,0.2,0.6,0.3,1,0.3c0.4,0,0.6-0.1,0.6-0.4c0-0.2-0.1-0.3-0.2-0.4
		s-0.3-0.2-0.7-0.4c-0.7-0.3-1.1-0.7-1.1-1.3c0-0.4,0.1-0.6,0.4-0.8c0.3-0.2,0.6-0.3,1.1-0.3c0.4,0,0.9,0.1,1.3,0.3l-0.3,0.8
		c-0.2-0.2-0.5-0.3-0.9-0.3c-0.4,0-0.5,0.1-0.5,0.4c0,0.1,0.1,0.2,0.2,0.3s0.4,0.2,0.7,0.3c0.4,0.1,0.6,0.3,0.8,0.5s0.2,0.5,0.2,0.7
		c0,0.4-0.1,0.7-0.4,0.9s-0.7,0.3-1.2,0.3c-0.3,0-0.5,0-0.7-0.1C-208,426.8-208.3,426.7-208.5,426.5z"/>
	<path fill="#FFFFFF" d="M-202.3,426.4c-0.1,0.1-0.3,0.3-0.5,0.4c-0.2,0.1-0.5,0.1-0.7,0.1c-0.5,0-0.8-0.1-1.1-0.3s-0.4-0.5-0.4-1
		c0-0.5,0.2-0.9,0.6-1.1c0.4-0.3,0.9-0.4,1.6-0.4c0.1,0,0.3,0,0.4,0.1c0-0.5-0.3-0.7-1-0.7c-0.4,0-0.7,0.1-0.9,0.2l-0.2-0.8
		c0.3-0.2,0.8-0.2,1.2-0.2c0.7,0,1.1,0.1,1.4,0.4c0.3,0.3,0.5,0.8,0.5,1.7v0.9c0,0.6,0.1,0.9,0.3,1.1c-0.1,0.1-0.2,0.2-0.3,0.3
		c-0.1,0-0.2,0-0.3,0c-0.1,0-0.3-0.1-0.4-0.2S-202.3,426.5-202.3,426.4z M-202.4,424.8c-0.2,0-0.3-0.1-0.4-0.1
		c-0.8,0-1.2,0.3-1.2,0.8c0,0.4,0.2,0.6,0.7,0.6c0.6,0,0.9-0.3,0.9-0.9V424.8z"/>
	<path fill="#FFFFFF" d="M-199.6,426.6l-0.2,0.3h-0.6v-5.8l1-0.2v2c0.3-0.2,0.6-0.2,0.9-0.2c0.6,0,1.1,0.2,1.5,0.6s0.6,0.9,0.6,1.5
		c0,0.7-0.2,1.3-0.6,1.7s-0.9,0.6-1.6,0.6C-199,426.9-199.3,426.8-199.6,426.6z M-199.4,423.6v2.2c0.1,0.2,0.3,0.3,0.6,0.3
		c0.5,0,0.8-0.1,1-0.3c0.2-0.2,0.3-0.6,0.3-1.1c0-0.8-0.4-1.3-1.3-1.3C-199,423.4-199.3,423.5-199.4,423.6z"/>
	<path fill="#FFFFFF" d="M-195.3,426.8v-3.4h-0.6v-0.8h1.6v4.2H-195.3z M-194.8,421c0.2,0,0.3,0.1,0.4,0.2s0.2,0.2,0.2,0.4
		s-0.1,0.3-0.2,0.4s-0.3,0.2-0.4,0.2c-0.2,0-0.3-0.1-0.4-0.2s-0.2-0.2-0.2-0.4s0.1-0.3,0.2-0.4S-194.9,421-194.8,421z"/>
	<path fill="#FFFFFF" d="M-192.9,421.1l1-0.2v4.7c0,0.5,0.2,0.8,0.5,0.9c-0.2,0.3-0.4,0.4-0.8,0.4c-0.5,0-0.7-0.3-0.7-0.9V421.1z"/>
	<path fill="#FFFFFF" d="M-190.4,426.8v-3.4h-0.6v-0.8h1.6v4.2H-190.4z M-189.9,421c0.2,0,0.3,0.1,0.4,0.2s0.2,0.2,0.2,0.4
		s-0.1,0.3-0.2,0.4s-0.3,0.2-0.4,0.2c-0.2,0-0.3-0.1-0.4-0.2c-0.1-0.1-0.2-0.2-0.2-0.4s0.1-0.3,0.2-0.4
		C-190.2,421.1-190,421-189.9,421z"/>
	<path fill="#FFFFFF" d="M-185.4,426.8v-0.3c-0.1,0.1-0.2,0.2-0.4,0.2s-0.4,0.1-0.6,0.1c-0.6,0-1.1-0.2-1.4-0.6s-0.5-0.9-0.5-1.5
		s0.2-1.2,0.6-1.6c0.4-0.4,0.9-0.6,1.5-0.6c0.3,0,0.6,0.1,0.9,0.2v-1.7l1-0.2v6H-185.4z M-185.4,423.6c-0.2-0.2-0.4-0.3-0.7-0.3
		c-0.4,0-0.7,0.1-0.9,0.4s-0.3,0.6-0.3,1c0,0.9,0.4,1.3,1.3,1.3c0.1,0,0.2,0,0.4-0.1s0.2-0.1,0.3-0.2V423.6z"/>
	<path fill="#FFFFFF" d="M-181,426.4c-0.1,0.1-0.3,0.3-0.5,0.4c-0.2,0.1-0.5,0.1-0.7,0.1c-0.5,0-0.8-0.1-1.1-0.3s-0.4-0.5-0.4-1
		c0-0.5,0.2-0.9,0.6-1.1s0.9-0.4,1.6-0.4c0.1,0,0.3,0,0.4,0.1c0-0.5-0.3-0.7-1-0.7c-0.4,0-0.7,0.1-0.9,0.2l-0.2-0.8
		c0.3-0.2,0.8-0.2,1.2-0.2c0.7,0,1.1,0.1,1.4,0.4c0.3,0.3,0.5,0.8,0.5,1.7v0.9c0,0.6,0.1,0.9,0.3,1.1c-0.1,0.1-0.2,0.2-0.3,0.3
		s-0.2,0-0.3,0c-0.1,0-0.3-0.1-0.4-0.2S-181,426.5-181,426.4z M-181.1,424.8c-0.2,0-0.3-0.1-0.4-0.1c-0.8,0-1.2,0.3-1.2,0.8
		c0,0.4,0.2,0.6,0.7,0.6c0.6,0,0.9-0.3,0.9-0.9V424.8z"/>
	<path fill="#FFFFFF" d="M-176.3,426.8v-0.3c-0.1,0.1-0.2,0.2-0.4,0.2s-0.4,0.1-0.6,0.1c-0.6,0-1.1-0.2-1.4-0.6s-0.5-0.9-0.5-1.5
		s0.2-1.2,0.6-1.6c0.4-0.4,0.9-0.6,1.5-0.6c0.3,0,0.6,0.1,0.9,0.2v-1.7l1-0.2v6H-176.3z M-176.3,423.6c-0.2-0.2-0.4-0.3-0.7-0.3
		c-0.4,0-0.7,0.1-0.9,0.4s-0.3,0.6-0.3,1c0,0.9,0.4,1.3,1.3,1.3c0.1,0,0.2,0,0.4-0.1s0.2-0.1,0.3-0.2V423.6z"/>
	<path fill="#FFFFFF" d="M-172,426.5l0.4-0.9c0.4,0.3,0.8,0.4,1.2,0.4c0.6,0,0.9-0.2,0.9-0.6c0-0.2-0.1-0.4-0.2-0.6
		s-0.4-0.4-0.9-0.6c-0.5-0.2-0.8-0.4-0.9-0.5c-0.2-0.1-0.3-0.3-0.4-0.5s-0.1-0.4-0.1-0.6c0-0.4,0.2-0.8,0.5-1.1
		c0.3-0.3,0.8-0.4,1.3-0.4c0.7,0,1.2,0.1,1.5,0.4l-0.3,0.9c-0.4-0.3-0.8-0.4-1.2-0.4c-0.2,0-0.4,0.1-0.6,0.2
		c-0.1,0.1-0.2,0.3-0.2,0.5c0,0.3,0.4,0.7,1.1,1c0.4,0.2,0.7,0.4,0.9,0.5c0.2,0.2,0.3,0.3,0.4,0.6c0.1,0.2,0.1,0.4,0.1,0.7
		c0,0.5-0.2,0.8-0.6,1.1c-0.4,0.3-0.9,0.4-1.5,0.4C-171.1,426.9-171.6,426.8-172,426.5z"/>
	<path fill="#FFFFFF" d="M-167.9,424.7c0-0.6,0.2-1.2,0.6-1.6c0.4-0.4,0.9-0.6,1.5-0.6c0.7,0,1.2,0.2,1.5,0.6
		c0.4,0.4,0.5,0.9,0.5,1.6c0,0.7-0.2,1.2-0.6,1.6s-0.9,0.6-1.5,0.6c-0.7,0-1.2-0.2-1.5-0.6S-167.9,425.4-167.9,424.7z M-166.8,424.7
		c0,0.9,0.3,1.4,1,1.4c0.3,0,0.6-0.1,0.7-0.4s0.3-0.6,0.3-1c0-0.9-0.3-1.4-1-1.4c-0.3,0-0.6,0.1-0.7,0.4
		C-166.7,423.9-166.8,424.3-166.8,424.7z"/>
	<path fill="#FFFFFF" d="M-159.6,423l-0.4,0.7c-0.2-0.2-0.6-0.3-0.9-0.3c-0.4,0-0.7,0.1-0.9,0.4c-0.2,0.2-0.3,0.6-0.3,1
		c0,0.9,0.4,1.3,1.3,1.3c0.4,0,0.7-0.1,1-0.4l0.4,0.8c-0.3,0.2-0.5,0.3-0.8,0.3c-0.2,0-0.5,0.1-0.8,0.1c-0.7,0-1.2-0.2-1.6-0.6
		c-0.4-0.4-0.6-0.9-0.6-1.6c0-0.7,0.2-1.2,0.6-1.6c0.4-0.4,1-0.6,1.7-0.6C-160.4,422.5-159.9,422.7-159.6,423z"/>
	<path fill="#FFFFFF" d="M-158.5,426.8v-3.4h-0.6v-0.8h1.6v4.2H-158.5z M-157.9,421c0.2,0,0.3,0.1,0.4,0.2s0.2,0.2,0.2,0.4
		s-0.1,0.3-0.2,0.4s-0.3,0.2-0.4,0.2c-0.2,0-0.3-0.1-0.4-0.2c-0.1-0.1-0.2-0.2-0.2-0.4s0.1-0.3,0.2-0.4
		C-158.2,421.1-158.1,421-157.9,421z"/>
	<path fill="#FFFFFF" d="M-153.9,426.4c-0.1,0.1-0.3,0.3-0.5,0.4s-0.5,0.1-0.7,0.1c-0.5,0-0.8-0.1-1.1-0.3s-0.4-0.5-0.4-1
		c0-0.5,0.2-0.9,0.6-1.1c0.4-0.3,0.9-0.4,1.6-0.4c0.1,0,0.3,0,0.4,0.1c0-0.5-0.3-0.7-1-0.7c-0.4,0-0.7,0.1-0.9,0.2l-0.2-0.8
		c0.3-0.2,0.8-0.2,1.2-0.2c0.7,0,1.1,0.1,1.4,0.4c0.3,0.3,0.5,0.8,0.5,1.7v0.9c0,0.6,0.1,0.9,0.3,1.1c-0.1,0.1-0.2,0.2-0.3,0.3
		c-0.1,0-0.2,0-0.3,0c-0.1,0-0.3-0.1-0.4-0.2S-153.8,426.5-153.9,426.4z M-154,424.8c-0.2,0-0.3-0.1-0.4-0.1c-0.8,0-1.2,0.3-1.2,0.8
		c0,0.4,0.2,0.6,0.7,0.6c0.6,0,0.9-0.3,0.9-0.9V424.8z"/>
	<path fill="#FFFFFF" d="M-151.7,421.1l1-0.2v4.7c0,0.5,0.2,0.8,0.5,0.9c-0.2,0.3-0.4,0.4-0.8,0.4c-0.5,0-0.7-0.3-0.7-0.9V421.1z"/>
</g>
</svg>
