<!-- Generator: Adobe Illustrator 18.1.0, SVG Export Plug-In  -->
<svg version="1.1"
	 xmlns="http://www.w3.org/2000/svg" xmlns:xlink="http://www.w3.org/1999/xlink" xmlns:a="http://ns.adobe.com/AdobeSVGViewerExtensions/3.0/"
	 x="0px" y="0px" width="135.6px" height="57.8px" viewBox="0 0 135.6 57.8" enable-background="new 0 0 135.6 57.8"
	 xml:space="preserve">
<defs>
</defs>
<g>
	<ellipse fill="#0059A7" cx="67.8" cy="28.9" rx="67.8" ry="28.9"/>
</g>
<g>
	<path fill="#FFFFFF" d="M49.9,15.8l-0.7,1.4c-0.2-0.2-0.5-0.4-0.9-0.5c-0.4-0.2-0.8-0.3-1.1-0.3c-1,0-1.7,0.3-2.3,1
		C44.3,18,44,18.9,44,20c0,1,0.3,1.9,0.8,2.5c0.5,0.6,1.3,0.9,2.2,0.9c0.6,0,1.1-0.2,1.5-0.5V21h-1.4v-1.5h3.1v4.4
		c-0.4,0.3-0.9,0.6-1.6,0.8c-0.7,0.2-1.3,0.3-1.9,0.3c-1.4,0-2.5-0.5-3.3-1.4c-0.8-0.9-1.2-2.1-1.2-3.6c0-1.5,0.4-2.7,1.3-3.7
		c0.9-0.9,2.1-1.4,3.6-1.4C48.2,14.8,49.1,15.1,49.9,15.8z"/>
	<path fill="#FFFFFF" d="M58.1,21.7H53c0,0.6,0.2,1,0.6,1.3c0.4,0.3,0.8,0.5,1.5,0.5c0.8,0,1.3-0.2,1.7-0.6l0.6,1.3
		c-0.6,0.5-1.5,0.7-2.6,0.7c-1.1,0-2-0.3-2.6-1c-0.6-0.6-1-1.5-1-2.7c0-1.1,0.3-2,1-2.7c0.7-0.7,1.5-1,2.5-1c1,0,1.9,0.3,2.5,0.9
		c0.6,0.6,0.9,1.4,0.9,2.4C58.3,21,58.2,21.3,58.1,21.7z M53.1,20.4h3.5c-0.1-1-0.7-1.6-1.7-1.6C53.9,18.9,53.3,19.4,53.1,20.4z"/>
	<path fill="#FFFFFF" d="M59.2,24.3l0.6-1.3c0.5,0.4,1.1,0.6,1.7,0.6c0.6,0,1-0.2,1-0.7c0-0.3-0.1-0.5-0.3-0.7
		c-0.2-0.2-0.6-0.4-1.1-0.6c-1.2-0.5-1.8-1.2-1.8-2.1c0-0.6,0.2-1.1,0.7-1.4c0.5-0.3,1.1-0.5,1.8-0.5c0.7,0,1.4,0.2,2.1,0.5
		l-0.5,1.3c-0.4-0.3-0.9-0.5-1.5-0.5c-0.6,0-0.9,0.2-0.9,0.7c0,0.2,0.1,0.3,0.3,0.5c0.2,0.1,0.6,0.3,1.2,0.6
		c0.6,0.2,1.1,0.5,1.4,0.9c0.3,0.4,0.4,0.8,0.4,1.3c0,0.7-0.2,1.2-0.7,1.6c-0.5,0.4-1.2,0.6-2,0.6c-0.5,0-0.9,0-1.1-0.1
		C60,24.7,59.6,24.5,59.2,24.3z"/>
	<path fill="#FFFFFF" d="M65.7,19h-0.8v-1.3h0.8v-1.5l1.7-0.6v2.1h2V19h-2v3.1c0,0.5,0.1,0.9,0.2,1.1c0.2,0.2,0.4,0.3,0.8,0.3
		c0.4,0,0.8-0.1,1.1-0.3v1.5c-0.4,0.1-0.9,0.2-1.7,0.2c-0.7,0-1.3-0.2-1.6-0.6c-0.4-0.4-0.6-1-0.6-1.7V19z"/>
	<path fill="#FFFFFF" d="M71.4,24.8V19h-0.9v-1.4h2.6v7.1H71.4z M72.2,14.8c0.3,0,0.5,0.1,0.7,0.3c0.2,0.2,0.3,0.4,0.3,0.7
		s-0.1,0.5-0.3,0.7c-0.2,0.2-0.4,0.3-0.7,0.3s-0.5-0.1-0.7-0.3c-0.2-0.2-0.3-0.4-0.3-0.7s0.1-0.5,0.3-0.7
		C71.7,14.9,72,14.8,72.2,14.8z"/>
	<path fill="#FFFFFF" d="M74.5,21.2c0-1.1,0.3-2,0.9-2.7c0.6-0.7,1.5-1,2.5-1c1.1,0,1.9,0.3,2.5,1c0.6,0.7,0.9,1.6,0.9,2.7
		c0,1.1-0.3,2-0.9,2.7c-0.6,0.7-1.4,1-2.5,1c-1.1,0-1.9-0.3-2.5-1C74.8,23.2,74.5,22.3,74.5,21.2z M76.3,21.2c0,1.6,0.6,2.4,1.7,2.4
		c0.5,0,0.9-0.2,1.2-0.6c0.3-0.4,0.5-1,0.5-1.7c0-1.6-0.6-2.3-1.7-2.3c-0.5,0-0.9,0.2-1.2,0.6C76.4,19.9,76.3,20.4,76.3,21.2z
		 M79.5,14.7l-1.5,2h-1.3l1.1-2H79.5z"/>
	<path fill="#FFFFFF" d="M87.3,24.8v-4.1c0-0.6-0.1-1.1-0.4-1.3c-0.2-0.3-0.6-0.4-1.1-0.4c-0.2,0-0.5,0.1-0.8,0.2
		c-0.3,0.1-0.5,0.3-0.7,0.5v5.2h-1.7v-7.1h1.2l0.3,0.7c0.5-0.5,1.1-0.8,2-0.8c0.9,0,1.5,0.3,2,0.8c0.5,0.5,0.7,1.2,0.7,2.1v4.4H87.3
		z"/>
	<path fill="#FFFFFF" d="M35,32.9v2.3h3.4v1.5H35v4.5h-1.7v-9.8h6.4v1.5H35z"/>
	<path fill="#FFFFFF" d="M41.6,41.2v-5.8h-0.9V34h2.6v7.2H41.6z M42.4,31.2c0.3,0,0.5,0.1,0.7,0.3c0.2,0.2,0.3,0.4,0.3,0.7
		c0,0.3-0.1,0.5-0.3,0.7c-0.2,0.2-0.4,0.3-0.7,0.3c-0.3,0-0.5-0.1-0.7-0.3c-0.2-0.2-0.3-0.4-0.3-0.7c0-0.3,0.1-0.5,0.3-0.7
		C41.9,31.3,42.2,31.2,42.4,31.2z"/>
	<path fill="#FFFFFF" d="M49.8,41.2V37c0-0.6-0.1-1.1-0.3-1.3c-0.2-0.3-0.6-0.4-1.1-0.4c-0.2,0-0.5,0.1-0.8,0.2
		c-0.3,0.1-0.5,0.3-0.7,0.5v5.2h-1.7V34h1.2l0.3,0.7c0.5-0.5,1.1-0.8,2-0.8c0.9,0,1.5,0.3,2,0.8c0.5,0.5,0.7,1.2,0.7,2.1v4.4H49.8z"
		/>
	<path fill="#FFFFFF" d="M57.2,40.4c-0.2,0.3-0.4,0.5-0.8,0.6c-0.4,0.2-0.8,0.2-1.2,0.2c-0.8,0-1.4-0.2-1.8-0.6
		c-0.4-0.4-0.7-0.9-0.7-1.6c0-0.8,0.3-1.5,0.9-1.9c0.6-0.5,1.5-0.7,2.6-0.7c0.2,0,0.4,0,0.7,0.1c0-0.8-0.5-1.3-1.6-1.3
		c-0.6,0-1.2,0.1-1.6,0.3l-0.4-1.3c0.6-0.3,1.3-0.4,2-0.4c1.1,0,1.9,0.2,2.4,0.7s0.8,1.4,0.8,2.8V39c0,1,0.2,1.6,0.6,1.8
		c-0.1,0.2-0.3,0.4-0.5,0.4c-0.2,0.1-0.4,0.1-0.6,0.1c-0.2,0-0.5-0.1-0.6-0.3C57.4,40.9,57.3,40.7,57.2,40.4z M57.1,37.8
		c-0.3-0.1-0.5-0.1-0.6-0.1c-1.3,0-2,0.4-2,1.3c0,0.6,0.4,1,1.1,1c1,0,1.5-0.5,1.5-1.5V37.8z"/>
	<path fill="#FFFFFF" d="M65.1,41.2V37c0-0.6-0.1-1.1-0.4-1.3c-0.2-0.3-0.6-0.4-1.1-0.4c-0.2,0-0.5,0.1-0.8,0.2
		c-0.3,0.1-0.5,0.3-0.7,0.5v5.2h-1.7V34h1.2l0.3,0.7c0.5-0.5,1.1-0.8,2-0.8c0.9,0,1.5,0.3,2,0.8c0.5,0.5,0.7,1.2,0.7,2.1v4.4H65.1z"
		/>
	<path fill="#FFFFFF" d="M74.2,34.6l-0.7,1.2c-0.4-0.4-0.9-0.6-1.6-0.6c-0.6,0-1.1,0.2-1.5,0.6c-0.4,0.4-0.6,1-0.6,1.7
		c0,1.5,0.7,2.3,2.1,2.3c0.6,0,1.2-0.2,1.6-0.6l0.6,1.3c-0.5,0.3-0.9,0.5-1.3,0.6c-0.4,0.1-0.8,0.1-1.3,0.1c-1.1,0-2-0.3-2.6-1
		c-0.6-0.6-1-1.5-1-2.7c0-1.1,0.3-2,1-2.7c0.7-0.7,1.7-1,2.9-1C72.9,33.9,73.6,34.1,74.2,34.6z"/>
	<path fill="#FFFFFF" d="M76.1,41.2v-5.8h-0.9V34h2.6v7.2H76.1z M76.9,31.2c0.3,0,0.5,0.1,0.7,0.3c0.2,0.2,0.3,0.4,0.3,0.7
		c0,0.3-0.1,0.5-0.3,0.7c-0.2,0.2-0.4,0.3-0.7,0.3c-0.3,0-0.5-0.1-0.7-0.3c-0.2-0.2-0.3-0.4-0.3-0.7c0-0.3,0.1-0.5,0.3-0.7
		C76.4,31.3,76.6,31.2,76.9,31.2z"/>
	<path fill="#FFFFFF" d="M86.1,38.1H81c0,0.6,0.2,1,0.6,1.3c0.4,0.3,0.8,0.5,1.5,0.5c0.8,0,1.3-0.2,1.7-0.6l0.6,1.3
		c-0.6,0.5-1.5,0.7-2.6,0.7c-1.1,0-2-0.3-2.6-1c-0.6-0.6-1-1.5-1-2.7c0-1.1,0.3-2,1-2.7c0.7-0.7,1.5-1,2.5-1c1,0,1.9,0.3,2.5,0.9
		c0.6,0.6,0.9,1.4,0.9,2.4C86.2,37.4,86.2,37.7,86.1,38.1z M81,36.8h3.5c-0.1-1-0.7-1.6-1.7-1.6C81.8,35.3,81.3,35.8,81,36.8z"/>
	<path fill="#FFFFFF" d="M91.7,35.6c-0.3-0.2-0.6-0.3-1-0.3c-0.4,0-0.7,0.2-1,0.5c-0.3,0.4-0.5,0.8-0.5,1.3v4.1h-1.7V34h1.7v0.7
		c0.5-0.5,1.1-0.8,1.9-0.8c0.6,0,1,0.1,1.3,0.3L91.7,35.6z"/>
	<path fill="#FFFFFF" d="M96.9,40.4c-0.2,0.3-0.4,0.5-0.8,0.6c-0.4,0.2-0.8,0.2-1.2,0.2c-0.8,0-1.4-0.2-1.8-0.6
		c-0.4-0.4-0.7-0.9-0.7-1.6c0-0.8,0.3-1.5,0.9-1.9c0.6-0.5,1.5-0.7,2.6-0.7c0.2,0,0.4,0,0.7,0.1c0-0.8-0.5-1.3-1.6-1.3
		c-0.6,0-1.2,0.1-1.6,0.3l-0.4-1.3c0.6-0.3,1.3-0.4,2-0.4c1.1,0,1.9,0.2,2.4,0.7s0.8,1.4,0.8,2.8V39c0,1,0.2,1.6,0.6,1.8
		c-0.1,0.2-0.3,0.4-0.5,0.4c-0.2,0.1-0.4,0.1-0.6,0.1c-0.2,0-0.5-0.1-0.6-0.3C97.1,40.9,97,40.7,96.9,40.4z M96.8,37.8
		c-0.3-0.1-0.5-0.1-0.6-0.1c-1.3,0-2,0.4-2,1.3c0,0.6,0.4,1,1.1,1c1,0,1.5-0.5,1.5-1.5V37.8z"/>
</g>
</svg>
