<!-- Generator: Adobe Illustrator 18.1.0, SVG Export Plug-In  -->
<svg version="1.1"
	 xmlns="http://www.w3.org/2000/svg" xmlns:xlink="http://www.w3.org/1999/xlink" xmlns:a="http://ns.adobe.com/AdobeSVGViewerExtensions/3.0/"
	 x="0px" y="0px" width="117.5px" height="57.8px" viewBox="0 0 117.5 57.8" enable-background="new 0 0 117.5 57.8"
	 xml:space="preserve">
<defs>
</defs>
<g>
	<ellipse fill="#95C11F" cx="58.8" cy="28.9" rx="58.8" ry="28.9"/>
</g>
<g>
	<path fill="#FFFFFF" d="M21.6,11.8l-0.7,1.4c-0.2-0.2-0.5-0.4-0.9-0.5c-0.4-0.2-0.8-0.3-1.1-0.3c-1,0-1.7,0.3-2.3,1
		C16,14,15.7,14.9,15.7,16c0,1,0.3,1.9,0.8,2.5c0.5,0.6,1.3,0.9,2.2,0.9c0.6,0,1.1-0.2,1.5-0.5V17h-1.4v-1.5H22v4.4
		c-0.4,0.3-0.9,0.6-1.6,0.8c-0.7,0.2-1.3,0.3-1.9,0.3c-1.4,0-2.5-0.5-3.3-1.4c-0.8-0.9-1.2-2.1-1.2-3.6c0-1.5,0.4-2.7,1.3-3.7
		c0.9-0.9,2.1-1.4,3.6-1.4C19.9,10.9,20.8,11.2,21.6,11.8z"/>
	<path fill="#FFFFFF" d="M29.8,17.8h-5.1c0,0.6,0.2,1,0.6,1.3c0.4,0.3,0.8,0.5,1.5,0.5c0.8,0,1.3-0.2,1.7-0.6l0.6,1.3
		c-0.6,0.5-1.5,0.7-2.6,0.7c-1.1,0-2-0.3-2.6-1c-0.6-0.6-1-1.5-1-2.7c0-1.1,0.3-2,1-2.7c0.7-0.7,1.5-1,2.5-1c1,0,1.9,0.3,2.5,0.9
		c0.6,0.6,0.9,1.4,0.9,2.4C30,17,29.9,17.3,29.8,17.8z M24.8,16.5h3.5c-0.1-1-0.7-1.6-1.7-1.6C25.6,14.9,25,15.4,24.8,16.5z"/>
	<path fill="#FFFFFF" d="M30.9,20.4l0.6-1.3c0.5,0.4,1.1,0.6,1.7,0.6c0.6,0,1-0.2,1-0.7c0-0.3-0.1-0.5-0.3-0.7
		c-0.2-0.2-0.6-0.4-1.1-0.6c-1.2-0.5-1.8-1.2-1.8-2.2c0-0.6,0.2-1.1,0.7-1.4c0.5-0.3,1.1-0.5,1.8-0.5c0.7,0,1.4,0.2,2.1,0.5L35,15.3
		c-0.4-0.3-0.9-0.5-1.5-0.5c-0.6,0-0.9,0.2-0.9,0.7c0,0.2,0.1,0.3,0.3,0.5c0.2,0.1,0.6,0.3,1.2,0.6c0.6,0.2,1.1,0.5,1.4,0.9
		c0.3,0.4,0.4,0.8,0.4,1.3c0,0.7-0.2,1.2-0.7,1.6c-0.5,0.4-1.2,0.6-2,0.6c-0.5,0-0.9,0-1.1-0.1C31.7,20.8,31.3,20.6,30.9,20.4z"/>
	<path fill="#FFFFFF" d="M37.4,15h-0.8v-1.3h0.8v-1.5l1.7-0.6v2.1h2V15h-2v3.1c0,0.5,0.1,0.9,0.2,1.1c0.2,0.2,0.4,0.3,0.8,0.3
		c0.4,0,0.8-0.1,1.1-0.3v1.5c-0.4,0.1-0.9,0.2-1.7,0.2c-0.7,0-1.3-0.2-1.6-0.6c-0.4-0.4-0.6-1-0.6-1.7V15z"/>
	<path fill="#FFFFFF" d="M43,20.8V15h-0.9v-1.4h2.6v7.1H43z M43.9,10.9c0.3,0,0.5,0.1,0.7,0.3c0.2,0.2,0.3,0.4,0.3,0.7
		c0,0.3-0.1,0.5-0.3,0.7c-0.2,0.2-0.4,0.3-0.7,0.3c-0.3,0-0.5-0.1-0.7-0.3c-0.2-0.2-0.3-0.4-0.3-0.7c0-0.3,0.1-0.5,0.3-0.7
		C43.4,11,43.6,10.9,43.9,10.9z"/>
	<path fill="#FFFFFF" d="M46.2,17.2c0-1.1,0.3-2,0.9-2.7c0.6-0.7,1.5-1,2.5-1c1.1,0,1.9,0.3,2.5,1c0.6,0.7,0.9,1.6,0.9,2.7
		c0,1.1-0.3,2-0.9,2.7c-0.6,0.7-1.4,1-2.5,1c-1.1,0-1.9-0.3-2.5-1C46.5,19.3,46.2,18.3,46.2,17.2z M47.9,17.2c0,1.6,0.6,2.4,1.7,2.4
		c0.5,0,0.9-0.2,1.2-0.6c0.3-0.4,0.5-1,0.5-1.8c0-1.6-0.6-2.3-1.7-2.3c-0.5,0-0.9,0.2-1.2,0.6C48.1,15.9,47.9,16.5,47.9,17.2z
		 M51.2,10.7l-1.5,2h-1.3l1.1-2H51.2z"/>
	<path fill="#FFFFFF" d="M59,20.8v-4.1c0-0.6-0.1-1.1-0.4-1.3c-0.2-0.3-0.6-0.4-1.1-0.4c-0.2,0-0.5,0.1-0.8,0.2
		c-0.3,0.1-0.5,0.3-0.7,0.5v5.2h-1.7v-7.1h1.2l0.3,0.7c0.5-0.5,1.1-0.8,2-0.8c0.9,0,1.5,0.3,2,0.8c0.5,0.5,0.7,1.2,0.7,2.1v4.4H59z"
		/>
	<path fill="#FFFFFF" d="M71.2,20.8v-0.4c-0.1,0.2-0.4,0.3-0.7,0.4c-0.3,0.1-0.7,0.2-1,0.2c-1,0-1.8-0.3-2.4-0.9
		c-0.6-0.6-0.9-1.5-0.9-2.6c0-1.1,0.3-2.1,1-2.8c0.7-0.7,1.5-1.1,2.5-1.1c0.5,0,1,0.1,1.5,0.3V11l1.7-0.4v10.2H71.2z M71.2,15.4
		c-0.4-0.3-0.7-0.4-1.1-0.4c-0.7,0-1.2,0.2-1.5,0.6c-0.4,0.4-0.5,1-0.5,1.8c0,1.5,0.7,2.2,2.1,2.2c0.2,0,0.4,0,0.6-0.1
		c0.2-0.1,0.4-0.2,0.5-0.3V15.4z"/>
	<path fill="#FFFFFF" d="M80.9,17.8h-5.1c0,0.6,0.2,1,0.6,1.3c0.4,0.3,0.8,0.5,1.5,0.5c0.8,0,1.3-0.2,1.7-0.6l0.6,1.3
		c-0.6,0.5-1.5,0.7-2.6,0.7c-1.1,0-2-0.3-2.6-1c-0.6-0.6-1-1.5-1-2.7c0-1.1,0.3-2,1-2.7c0.7-0.7,1.5-1,2.5-1c1,0,1.9,0.3,2.5,0.9
		c0.6,0.6,0.9,1.4,0.9,2.4C81.1,17,81,17.3,80.9,17.8z M75.9,16.5h3.5c-0.1-1-0.7-1.6-1.7-1.6C76.7,14.9,76.1,15.4,75.9,16.5z"/>
	<path fill="#FFFFFF" d="M86.8,11l1.7-0.4v8c0,0.9,0.3,1.4,0.8,1.6c-0.3,0.5-0.7,0.7-1.3,0.7c-0.8,0-1.1-0.5-1.1-1.6V11z"/>
	<path fill="#FFFFFF" d="M94.5,20.1c-0.2,0.3-0.4,0.5-0.8,0.6c-0.4,0.2-0.8,0.2-1.2,0.2c-0.8,0-1.4-0.2-1.8-0.6
		c-0.4-0.4-0.7-0.9-0.7-1.6c0-0.8,0.3-1.5,0.9-1.9c0.6-0.5,1.5-0.7,2.6-0.7c0.2,0,0.4,0,0.7,0.1c0-0.8-0.5-1.3-1.6-1.3
		c-0.6,0-1.2,0.1-1.6,0.3l-0.4-1.3c0.6-0.3,1.3-0.4,2-0.4c1.1,0,1.9,0.3,2.4,0.7c0.5,0.5,0.8,1.4,0.8,2.8v1.5c0,1,0.2,1.6,0.6,1.8
		c-0.1,0.2-0.3,0.4-0.5,0.4c-0.2,0.1-0.4,0.1-0.6,0.1c-0.2,0-0.5-0.1-0.6-0.3C94.7,20.5,94.6,20.3,94.5,20.1z M94.4,17.5
		c-0.3-0.1-0.5-0.1-0.6-0.1c-1.3,0-2,0.4-2,1.3c0,0.6,0.4,1,1.1,1c1,0,1.5-0.5,1.5-1.5V17.5z"/>
	<path fill="#FFFFFF" d="M97.4,20.4L98,19c0.5,0.4,1.1,0.6,1.7,0.6c0.6,0,1-0.2,1-0.7c0-0.3-0.1-0.5-0.3-0.7
		c-0.2-0.2-0.6-0.4-1.1-0.6c-1.2-0.5-1.8-1.2-1.8-2.2c0-0.6,0.2-1.1,0.7-1.4c0.5-0.3,1.1-0.5,1.8-0.5c0.7,0,1.4,0.2,2.1,0.5
		l-0.5,1.3c-0.4-0.3-0.9-0.5-1.5-0.5c-0.6,0-0.9,0.2-0.9,0.7c0,0.2,0.1,0.3,0.3,0.5c0.2,0.1,0.6,0.3,1.2,0.6
		c0.6,0.2,1.1,0.5,1.4,0.9c0.3,0.4,0.4,0.8,0.4,1.3c0,0.7-0.2,1.2-0.7,1.6c-0.5,0.4-1.2,0.6-2,0.6c-0.5,0-0.9,0-1.1-0.1
		C98.2,20.8,97.8,20.6,97.4,20.4z"/>
	<path fill="#FFFFFF" d="M21.2,28l-0.7,1.4c-0.4-0.4-1-0.6-1.9-0.6c-0.8,0-1.5,0.3-2,1c-0.5,0.7-0.8,1.5-0.8,2.6
		c0,1,0.2,1.9,0.7,2.5c0.5,0.6,1.1,0.9,1.9,0.9c0.9,0,1.6-0.3,2.2-1l0.8,1.4c-0.7,0.8-1.7,1.1-3.1,1.1c-1.4,0-2.4-0.5-3.2-1.3
		c-0.8-0.9-1.1-2.1-1.1-3.7c0-1.4,0.4-2.7,1.3-3.6c0.8-1,1.9-1.5,3.2-1.5C19.6,27.3,20.5,27.5,21.2,28z"/>
	<path fill="#FFFFFF" d="M22.3,33.6c0-1.1,0.3-2,0.9-2.7c0.6-0.7,1.5-1,2.5-1c1.1,0,1.9,0.3,2.5,1c0.6,0.7,0.9,1.6,0.9,2.7
		c0,1.1-0.3,2-0.9,2.7c-0.6,0.7-1.4,1-2.5,1c-1.1,0-1.9-0.3-2.5-1C22.6,35.7,22.3,34.8,22.3,33.6z M24,33.6c0,1.6,0.6,2.4,1.7,2.4
		c0.5,0,0.9-0.2,1.2-0.6c0.3-0.4,0.5-1,0.5-1.8c0-1.6-0.6-2.3-1.7-2.3c-0.5,0-0.9,0.2-1.2,0.6C24.1,32.3,24,32.9,24,33.6z"/>
	<path fill="#FFFFFF" d="M38.7,37.2v-4.5c0-0.9-0.4-1.4-1.3-1.4c-0.2,0-0.5,0.1-0.7,0.2c-0.2,0.1-0.4,0.3-0.5,0.5v5.2h-1.7v-4.7
		c0-0.3-0.1-0.6-0.3-0.8c-0.2-0.2-0.5-0.3-0.9-0.3c-0.2,0-0.4,0.1-0.7,0.2c-0.2,0.2-0.4,0.3-0.5,0.5v5.1h-1.7v-7.1h1.1l0.3,0.6
		c0.5-0.5,1.1-0.8,1.8-0.8c0.9,0,1.7,0.3,2.1,0.8c0.2-0.2,0.5-0.4,0.9-0.6c0.4-0.1,0.7-0.2,1.1-0.2c0.8,0,1.4,0.2,1.9,0.7
		c0.4,0.5,0.7,1.1,0.7,1.9v4.7H38.7z"/>
	<path fill="#FFFFFF" d="M43.7,37v3h-1.7v-10h1.7v0.5c0.4-0.4,0.9-0.6,1.5-0.6c2.3,0,3.4,1.3,3.4,3.8c0,1.2-0.3,2.1-0.9,2.7
		c-0.6,0.6-1.5,0.9-2.6,0.9C44.7,37.4,44.2,37.2,43.7,37z M43.7,31.8v3.8c0.3,0.2,0.7,0.4,1.1,0.4c0.8,0,1.3-0.2,1.7-0.6
		c0.3-0.4,0.5-0.9,0.5-1.7c0-0.8-0.2-1.4-0.5-1.8c-0.3-0.3-0.9-0.5-1.7-0.5C44.4,31.4,44.1,31.5,43.7,31.8z"/>
	<path fill="#FFFFFF" d="M56.6,34.2h-5.1c0,0.6,0.2,1,0.6,1.3c0.4,0.3,0.8,0.5,1.5,0.5c0.8,0,1.3-0.2,1.7-0.6l0.6,1.3
		c-0.6,0.5-1.5,0.7-2.6,0.7c-1.1,0-2-0.3-2.6-1c-0.6-0.6-1-1.5-1-2.7c0-1.1,0.3-2,1-2.7c0.7-0.7,1.5-1,2.5-1c1,0,1.9,0.3,2.5,0.9
		c0.6,0.6,0.9,1.4,0.9,2.4C56.7,33.4,56.6,33.7,56.6,34.2z M51.5,32.9H55c-0.1-1-0.7-1.6-1.7-1.6C52.3,31.3,51.7,31.9,51.5,32.9z"/>
	<path fill="#FFFFFF" d="M58.3,31.4h-0.8v-1.3h0.8v-1.5l1.7-0.6v2.1h2v1.3h-2v3.1c0,0.5,0.1,0.9,0.2,1.1c0.2,0.2,0.4,0.3,0.8,0.3
		c0.4,0,0.8-0.1,1.1-0.3v1.5c-0.4,0.1-0.9,0.2-1.7,0.2c-0.7,0-1.3-0.2-1.6-0.6c-0.4-0.4-0.6-1-0.6-1.7V31.4z"/>
	<path fill="#FFFFFF" d="M69.8,34.2h-5.1c0,0.6,0.2,1,0.6,1.3c0.4,0.3,0.8,0.5,1.5,0.5c0.8,0,1.3-0.2,1.7-0.6l0.6,1.3
		c-0.6,0.5-1.5,0.7-2.6,0.7c-1.1,0-2-0.3-2.6-1c-0.6-0.6-1-1.5-1-2.7c0-1.1,0.3-2,1-2.7c0.7-0.7,1.5-1,2.5-1c1,0,1.9,0.3,2.5,0.9
		c0.6,0.6,0.9,1.4,0.9,2.4C70,33.4,69.9,33.7,69.8,34.2z M64.8,32.9h3.5c-0.1-1-0.7-1.6-1.7-1.6C65.6,31.3,65,31.9,64.8,32.9z"/>
	<path fill="#FFFFFF" d="M75.9,37.2v-4.1c0-0.6-0.1-1.1-0.4-1.3c-0.2-0.3-0.6-0.4-1.1-0.4c-0.2,0-0.5,0.1-0.8,0.2
		c-0.3,0.1-0.5,0.3-0.7,0.5v5.2h-1.7v-7.1h1.2l0.3,0.7c0.5-0.5,1.1-0.8,2-0.8c0.8,0,1.5,0.3,2,0.8c0.5,0.5,0.7,1.2,0.7,2.1v4.4H75.9
		z"/>
	<path fill="#FFFFFF" d="M85,30.6l-0.7,1.3c-0.4-0.4-0.9-0.6-1.6-0.6c-0.6,0-1.1,0.2-1.5,0.6c-0.4,0.4-0.6,1-0.6,1.7
		c0,1.5,0.7,2.3,2.1,2.3c0.6,0,1.2-0.2,1.6-0.6l0.6,1.3c-0.5,0.3-0.9,0.5-1.3,0.6c-0.4,0.1-0.8,0.1-1.3,0.1c-1.1,0-2-0.3-2.6-1
		c-0.6-0.6-1-1.5-1-2.7c0-1.1,0.3-2,1-2.7c0.7-0.7,1.7-1,2.9-1C83.6,29.9,84.4,30.2,85,30.6z"/>
	<path fill="#FFFFFF" d="M86.8,37.2v-5.8h-0.9v-1.4h2.6v7.1H86.8z M87.7,27.3c0.3,0,0.5,0.1,0.7,0.3c0.2,0.2,0.3,0.4,0.3,0.7
		c0,0.3-0.1,0.5-0.3,0.7c-0.2,0.2-0.4,0.3-0.7,0.3S87.2,29.1,87,29c-0.2-0.2-0.3-0.4-0.3-0.7c0-0.3,0.1-0.5,0.3-0.7
		C87.2,27.4,87.4,27.3,87.7,27.3z"/>
	<path fill="#FFFFFF" d="M94.4,36.5c-0.2,0.3-0.4,0.5-0.8,0.6c-0.4,0.2-0.8,0.2-1.2,0.2c-0.8,0-1.4-0.2-1.8-0.6
		c-0.4-0.4-0.7-0.9-0.7-1.6c0-0.8,0.3-1.5,0.9-1.9c0.6-0.5,1.5-0.7,2.6-0.7c0.2,0,0.4,0,0.7,0.1c0-0.8-0.5-1.3-1.6-1.3
		c-0.6,0-1.2,0.1-1.6,0.3l-0.4-1.3c0.6-0.3,1.3-0.4,2-0.4c1.1,0,1.9,0.2,2.4,0.7c0.5,0.5,0.8,1.4,0.8,2.8V35c0,1,0.2,1.6,0.6,1.8
		c-0.1,0.2-0.3,0.4-0.5,0.4c-0.2,0.1-0.4,0.1-0.6,0.1c-0.2,0-0.5-0.1-0.6-0.3C94.6,36.9,94.5,36.7,94.4,36.5z M94.3,33.9
		c-0.3-0.1-0.5-0.1-0.6-0.1c-1.3,0-2,0.4-2,1.3c0,0.6,0.4,1,1.1,1c1,0,1.5-0.5,1.5-1.5V33.9z"/>
	<path fill="#FFFFFF" d="M97.3,36.8l0.6-1.3c0.5,0.4,1.1,0.6,1.7,0.6c0.6,0,1-0.2,1-0.7c0-0.3-0.1-0.5-0.3-0.7
		c-0.2-0.2-0.6-0.4-1.1-0.6c-1.2-0.5-1.8-1.2-1.8-2.2c0-0.6,0.2-1.1,0.7-1.4c0.5-0.3,1.1-0.5,1.8-0.5c0.7,0,1.4,0.2,2.1,0.5
		l-0.5,1.3c-0.4-0.3-0.9-0.5-1.5-0.5c-0.6,0-0.9,0.2-0.9,0.7c0,0.2,0.1,0.3,0.3,0.5c0.2,0.1,0.6,0.3,1.2,0.6
		c0.6,0.2,1.1,0.5,1.4,0.9c0.3,0.4,0.4,0.8,0.4,1.3c0,0.7-0.2,1.2-0.7,1.6c-0.5,0.4-1.2,0.6-2,0.6c-0.5,0-0.9,0-1.1-0.1
		C98.1,37.2,97.7,37,97.3,36.8z"/>
	<path fill="#FFFFFF" d="M45.5,44.4l-0.7,1.4c-0.4-0.4-1-0.6-1.9-0.6c-0.8,0-1.5,0.3-2,1c-0.5,0.7-0.8,1.5-0.8,2.6
		c0,1,0.2,1.9,0.7,2.5c0.5,0.6,1.1,0.9,1.9,0.9c0.9,0,1.6-0.3,2.2-1l0.8,1.4c-0.7,0.8-1.7,1.1-3.1,1.1c-1.4,0-2.4-0.4-3.2-1.3
		c-0.8-0.9-1.1-2.1-1.1-3.7c0-1.4,0.4-2.7,1.3-3.6c0.8-1,1.9-1.5,3.2-1.5C43.9,43.7,44.8,43.9,45.5,44.4z"/>
	<path fill="#FFFFFF" d="M47.3,43.8l1.7-0.4v8c0,0.9,0.3,1.4,0.8,1.6c-0.3,0.5-0.7,0.7-1.3,0.7c-0.8,0-1.1-0.5-1.1-1.6V43.8z"/>
	<path fill="#FFFFFF" d="M55,52.9c-0.2,0.3-0.4,0.5-0.8,0.6c-0.4,0.2-0.8,0.2-1.2,0.2c-0.8,0-1.4-0.2-1.8-0.6
		c-0.4-0.4-0.7-0.9-0.7-1.6c0-0.8,0.3-1.5,0.9-1.9c0.6-0.5,1.5-0.7,2.6-0.7c0.2,0,0.4,0,0.7,0.1c0-0.8-0.5-1.3-1.6-1.3
		c-0.6,0-1.2,0.1-1.6,0.3l-0.4-1.3c0.6-0.3,1.3-0.4,2-0.4c1.1,0,1.9,0.2,2.4,0.7c0.5,0.5,0.8,1.4,0.8,2.8v1.5c0,1,0.2,1.6,0.6,1.8
		c-0.1,0.2-0.3,0.4-0.5,0.4c-0.2,0.1-0.4,0.1-0.6,0.1c-0.2,0-0.5-0.1-0.6-0.3C55.2,53.3,55.1,53.1,55,52.9z M54.9,50.3
		c-0.3-0.1-0.5-0.1-0.6-0.1c-1.3,0-2,0.4-2,1.3c0,0.6,0.4,1,1.1,1c1,0,1.5-0.5,1.5-1.5V50.3z"/>
	<path fill="#FFFFFF" d="M61.3,53.8h-0.6l-3.2-7.3h1.8l1.7,4.4l1.8-4.4h1.8L61.3,53.8z"/>
	<path fill="#FFFFFF" d="M71.9,50.6h-5.1c0,0.6,0.2,1,0.6,1.3c0.4,0.3,0.8,0.5,1.5,0.5c0.8,0,1.3-0.2,1.7-0.6l0.6,1.3
		c-0.6,0.5-1.5,0.7-2.6,0.7c-1.1,0-2-0.3-2.6-1c-0.6-0.6-1-1.5-1-2.7c0-1.1,0.3-2,1-2.7c0.7-0.7,1.5-1,2.5-1c1,0,1.9,0.3,2.5,0.9
		c0.6,0.6,0.9,1.4,0.9,2.4C72.1,49.8,72,50.1,71.9,50.6z M66.9,49.3h3.5c-0.1-1-0.7-1.6-1.7-1.6C67.7,47.7,67.1,48.3,66.9,49.3z"/>
	<path fill="#FFFFFF" d="M73,53.2l0.6-1.3c0.5,0.4,1.1,0.6,1.7,0.6c0.6,0,1-0.2,1-0.7c0-0.3-0.1-0.5-0.3-0.7
		c-0.2-0.2-0.6-0.4-1.1-0.6c-1.2-0.5-1.8-1.2-1.8-2.2c0-0.6,0.2-1.1,0.7-1.4c0.5-0.3,1.1-0.5,1.8-0.5c0.7,0,1.4,0.2,2.1,0.5
		l-0.5,1.3c-0.4-0.3-0.9-0.5-1.5-0.5c-0.6,0-0.9,0.2-0.9,0.7c0,0.2,0.1,0.3,0.3,0.5c0.2,0.1,0.6,0.3,1.2,0.6
		c0.6,0.2,1.1,0.5,1.4,0.9c0.3,0.4,0.4,0.8,0.4,1.3c0,0.7-0.2,1.2-0.7,1.6c-0.5,0.4-1.2,0.6-2,0.6c-0.5,0-0.9,0-1.1-0.1
		C73.8,53.6,73.4,53.4,73,53.2z"/>
</g>
</svg>
