<!-- Generator: Adobe Illustrator 18.0.0, SVG Export Plug-In  -->
<svg version="1.1"
	 xmlns="http://www.w3.org/2000/svg" xmlns:xlink="http://www.w3.org/1999/xlink" xmlns:a="http://ns.adobe.com/AdobeSVGViewerExtensions/3.0/"
	 x="0px" y="0px" width="90.4px" height="43.2px" viewBox="0 0 90.4 43.2" enable-background="new 0 0 90.4 43.2"
	 xml:space="preserve">
<defs>
</defs>
<g>
	<ellipse fill="#A2C037" cx="45.2" cy="21.6" rx="45.2" ry="21.6"/>
</g>
<g>
	<path fill="#FFFFFF" d="M16.6,8.8l-0.6,1c-0.2-0.1-0.4-0.3-0.7-0.4c-0.3-0.1-0.6-0.2-0.8-0.2c-0.7,0-1.3,0.2-1.8,0.7
		c-0.4,0.5-0.6,1.1-0.6,2c0,0.8,0.2,1.4,0.6,1.9c0.4,0.5,1,0.7,1.7,0.7c0.5,0,0.9-0.1,1.2-0.4v-1.4h-1v-1.1h2.4v3.3
		c-0.3,0.3-0.7,0.5-1.2,0.6c-0.5,0.1-1,0.2-1.5,0.2c-1.1,0-1.9-0.3-2.6-1c-0.6-0.7-0.9-1.6-0.9-2.7c0-1.1,0.3-2,1-2.7
		c0.7-0.7,1.6-1.1,2.8-1.1C15.3,8.1,16,8.4,16.6,8.8z"/>
	<path fill="#FFFFFF" d="M22.9,13.3H19c0,0.4,0.2,0.8,0.5,1c0.3,0.2,0.7,0.4,1.1,0.4c0.6,0,1-0.1,1.3-0.4l0.5,1
		c-0.5,0.4-1.1,0.5-2,0.5c-0.8,0-1.5-0.2-2-0.7c-0.5-0.5-0.7-1.1-0.7-2c0-0.8,0.3-1.5,0.8-2c0.5-0.5,1.2-0.8,1.9-0.8
		c0.8,0,1.4,0.2,1.9,0.7c0.5,0.5,0.7,1,0.7,1.8C23,12.7,23,13,22.9,13.3z M19.1,12.3h2.7c-0.1-0.8-0.5-1.2-1.3-1.2
		C19.7,11.2,19.2,11.6,19.1,12.3z"/>
	<path fill="#FFFFFF" d="M23.7,15.2l0.5-1c0.4,0.3,0.8,0.4,1.3,0.4c0.5,0,0.7-0.2,0.7-0.5c0-0.2-0.1-0.4-0.2-0.5
		c-0.2-0.1-0.4-0.3-0.9-0.5c-0.9-0.4-1.4-0.9-1.4-1.6c0-0.5,0.2-0.8,0.5-1.1c0.4-0.3,0.8-0.4,1.4-0.4c0.6,0,1.1,0.1,1.6,0.4l-0.4,1
		c-0.3-0.2-0.7-0.3-1.2-0.3c-0.4,0-0.7,0.2-0.7,0.5c0,0.1,0.1,0.3,0.2,0.4c0.1,0.1,0.5,0.3,0.9,0.4c0.5,0.2,0.8,0.4,1,0.7
		c0.2,0.3,0.3,0.6,0.3,1c0,0.5-0.2,0.9-0.6,1.2c-0.4,0.3-0.9,0.4-1.5,0.4c-0.4,0-0.7,0-0.9-0.1C24.4,15.5,24.1,15.4,23.7,15.2z"/>
	<path fill="#FFFFFF" d="M28.8,11.2h-0.6v-1h0.6V9.1l1.3-0.5v1.5h1.5v1h-1.5v2.3c0,0.4,0.1,0.7,0.2,0.8c0.1,0.2,0.3,0.2,0.6,0.2
		c0.3,0,0.6-0.1,0.9-0.2v1.1c-0.3,0.1-0.7,0.1-1.3,0.1c-0.5,0-1-0.2-1.3-0.5c-0.3-0.3-0.4-0.7-0.4-1.3V11.2z"/>
	<path fill="#FFFFFF" d="M33.1,15.6v-4.3h-0.7v-1h2v5.3H33.1z M33.8,8.1c0.2,0,0.4,0.1,0.5,0.2c0.1,0.1,0.2,0.3,0.2,0.5
		c0,0.2-0.1,0.4-0.2,0.5c-0.1,0.1-0.3,0.2-0.5,0.2c-0.2,0-0.4-0.1-0.5-0.2C33.1,9.2,33,9.1,33,8.9c0-0.2,0.1-0.4,0.2-0.5
		C33.4,8.2,33.6,8.1,33.8,8.1z"/>
	<path fill="#FFFFFF" d="M35.5,12.9c0-0.8,0.2-1.5,0.7-2c0.5-0.5,1.1-0.8,1.9-0.8c0.8,0,1.5,0.2,1.9,0.7c0.5,0.5,0.7,1.2,0.7,2
		c0,0.9-0.2,1.5-0.7,2c-0.5,0.5-1.1,0.8-1.9,0.8c-0.8,0-1.5-0.3-1.9-0.8C35.8,14.4,35.5,13.7,35.5,12.9z M36.9,12.9
		c0,1.2,0.4,1.8,1.3,1.8c0.4,0,0.7-0.2,1-0.5c0.2-0.3,0.4-0.7,0.4-1.3c0-1.2-0.4-1.7-1.3-1.7c-0.4,0-0.7,0.2-1,0.5
		C37,11.9,36.9,12.3,36.9,12.9z M39.4,8l-1.2,1.5h-1L38.1,8H39.4z"/>
	<path fill="#FFFFFF" d="M45.4,15.6v-3.1c0-0.5-0.1-0.8-0.3-1c-0.2-0.2-0.5-0.3-0.9-0.3c-0.2,0-0.4,0.1-0.6,0.2
		c-0.2,0.1-0.4,0.2-0.5,0.4v3.9h-1.3v-5.3h0.9l0.2,0.5c0.3-0.4,0.9-0.6,1.5-0.6c0.7,0,1.2,0.2,1.5,0.6c0.4,0.4,0.6,0.9,0.6,1.6v3.3
		H45.4z"/>
	<path fill="#FFFFFF" d="M54.8,15.6v-0.3c-0.1,0.1-0.3,0.2-0.5,0.3c-0.3,0.1-0.5,0.1-0.8,0.1c-0.8,0-1.4-0.2-1.8-0.7
		c-0.4-0.5-0.7-1.1-0.7-2c0-0.8,0.3-1.5,0.8-2.1c0.5-0.5,1.1-0.8,1.9-0.8c0.4,0,0.8,0.1,1.1,0.2V8.2L56,7.9v7.6H54.8z M54.8,11.5
		c-0.3-0.2-0.6-0.3-0.9-0.3c-0.5,0-0.9,0.2-1.2,0.5c-0.3,0.3-0.4,0.7-0.4,1.3c0,1.1,0.6,1.7,1.7,1.7c0.1,0,0.3,0,0.5-0.1
		c0.2-0.1,0.3-0.1,0.4-0.2V11.5z"/>
	<path fill="#FFFFFF" d="M62.2,13.3h-3.9c0,0.4,0.2,0.8,0.5,1c0.3,0.2,0.7,0.4,1.1,0.4c0.6,0,1-0.1,1.3-0.4l0.5,1
		c-0.5,0.4-1.1,0.5-2,0.5c-0.8,0-1.5-0.2-2-0.7c-0.5-0.5-0.7-1.1-0.7-2c0-0.8,0.3-1.5,0.8-2c0.5-0.5,1.2-0.8,1.9-0.8
		c0.8,0,1.4,0.2,1.9,0.7c0.5,0.5,0.7,1,0.7,1.8C62.3,12.7,62.3,13,62.2,13.3z M58.4,12.3h2.7c-0.1-0.8-0.5-1.2-1.3-1.2
		C59,11.2,58.5,11.6,58.4,12.3z"/>
	<path fill="#FFFFFF" d="M66.8,8.2L68,7.9v6c0,0.7,0.2,1.1,0.6,1.2c-0.2,0.4-0.5,0.5-1,0.5c-0.6,0-0.9-0.4-0.9-1.2V8.2z"/>
	<path fill="#FFFFFF" d="M72.7,15c-0.1,0.2-0.3,0.3-0.6,0.5c-0.3,0.1-0.6,0.2-0.9,0.2c-0.6,0-1.1-0.1-1.4-0.4
		c-0.3-0.3-0.5-0.7-0.5-1.2c0-0.6,0.2-1.1,0.7-1.5c0.5-0.3,1.2-0.5,2-0.5c0.2,0,0.3,0,0.5,0.1c0-0.6-0.4-0.9-1.2-0.9
		c-0.5,0-0.9,0.1-1.2,0.2l-0.3-1c0.4-0.2,1-0.3,1.6-0.3c0.8,0,1.5,0.2,1.8,0.6c0.4,0.4,0.6,1.1,0.6,2.1v1.1c0,0.7,0.1,1.2,0.4,1.3
		c-0.1,0.2-0.2,0.3-0.4,0.3c-0.1,0-0.3,0.1-0.4,0.1c-0.2,0-0.4-0.1-0.5-0.2C72.9,15.3,72.8,15.2,72.7,15z M72.6,13
		c-0.2,0-0.4-0.1-0.5-0.1c-1,0-1.5,0.3-1.5,1c0,0.5,0.3,0.7,0.9,0.7c0.8,0,1.2-0.4,1.2-1.1V13z"/>
	<path fill="#FFFFFF" d="M74.9,15.2l0.5-1c0.4,0.3,0.8,0.4,1.3,0.4c0.5,0,0.7-0.2,0.7-0.5c0-0.2-0.1-0.4-0.2-0.5
		c-0.2-0.1-0.4-0.3-0.9-0.5c-0.9-0.4-1.4-0.9-1.4-1.6c0-0.5,0.2-0.8,0.5-1.1c0.4-0.3,0.8-0.4,1.4-0.4c0.6,0,1.1,0.1,1.6,0.4l-0.4,1
		c-0.3-0.2-0.7-0.3-1.2-0.3c-0.4,0-0.7,0.2-0.7,0.5c0,0.1,0.1,0.3,0.2,0.4c0.1,0.1,0.5,0.3,0.9,0.4c0.5,0.2,0.8,0.4,1,0.7
		c0.2,0.3,0.3,0.6,0.3,1c0,0.5-0.2,0.9-0.6,1.2c-0.4,0.3-0.9,0.4-1.5,0.4c-0.4,0-0.7,0-0.9-0.1C75.5,15.5,75.2,15.4,74.9,15.2z"/>
	<path fill="#FFFFFF" d="M16.3,20.9L15.7,22c-0.3-0.3-0.8-0.4-1.4-0.4c-0.6,0-1.1,0.3-1.5,0.8c-0.4,0.5-0.6,1.2-0.6,1.9
		c0,0.8,0.2,1.4,0.6,1.9c0.4,0.5,0.9,0.7,1.5,0.7c0.7,0,1.3-0.2,1.7-0.7l0.6,1c-0.5,0.6-1.3,0.8-2.4,0.8c-1.1,0-1.9-0.3-2.4-1
		c-0.6-0.7-0.9-1.6-0.9-2.8c0-1.1,0.3-2,1-2.7c0.6-0.7,1.5-1.1,2.5-1.1C15.1,20.4,15.8,20.6,16.3,20.9z"/>
	<path fill="#FFFFFF" d="M17.1,25.1c0-0.8,0.2-1.5,0.7-2c0.5-0.5,1.1-0.8,1.9-0.8c0.8,0,1.5,0.2,1.9,0.7c0.5,0.5,0.7,1.2,0.7,2
		c0,0.9-0.2,1.5-0.7,2c-0.5,0.5-1.1,0.8-1.9,0.8c-0.8,0-1.5-0.3-1.9-0.8C17.3,26.7,17.1,26,17.1,25.1z M18.5,25.1
		c0,1.2,0.4,1.8,1.3,1.8c0.4,0,0.7-0.2,1-0.5c0.2-0.3,0.4-0.7,0.4-1.3c0-1.2-0.4-1.7-1.3-1.7c-0.4,0-0.7,0.2-1,0.5
		C18.6,24.2,18.5,24.6,18.5,25.1z"/>
	<path fill="#FFFFFF" d="M29.8,27.8v-3.3c0-0.7-0.3-1.1-1-1.1c-0.2,0-0.4,0.1-0.6,0.2c-0.2,0.1-0.3,0.2-0.4,0.4v3.9h-1.3v-3.5
		c0-0.3-0.1-0.5-0.3-0.6c-0.2-0.2-0.4-0.2-0.7-0.2c-0.2,0-0.3,0.1-0.5,0.2c-0.2,0.1-0.3,0.2-0.4,0.4v3.8h-1.3v-5.3h0.9l0.3,0.5
		c0.4-0.4,0.8-0.6,1.4-0.6c0.7,0,1.3,0.2,1.6,0.6c0.2-0.2,0.4-0.3,0.7-0.4c0.3-0.1,0.6-0.2,0.9-0.2c0.6,0,1.1,0.2,1.4,0.5
		c0.3,0.3,0.5,0.8,0.5,1.4v3.5H29.8z"/>
	<path fill="#FFFFFF" d="M33.6,27.7v2.2h-1.3v-7.4h1.3v0.4c0.3-0.3,0.7-0.5,1.2-0.5c1.8,0,2.6,0.9,2.6,2.8c0,0.9-0.2,1.6-0.7,2
		c-0.5,0.5-1.1,0.7-2,0.7C34.3,27.9,34,27.9,33.6,27.7z M33.6,23.8v2.8c0.2,0.2,0.5,0.3,0.8,0.3c0.6,0,1-0.1,1.3-0.4
		c0.3-0.3,0.4-0.7,0.4-1.3c0-0.6-0.1-1.1-0.4-1.3c-0.3-0.3-0.7-0.4-1.3-0.4C34.2,23.4,33.9,23.6,33.6,23.8z"/>
	<path fill="#FFFFFF" d="M43.5,25.5h-3.9c0,0.4,0.2,0.8,0.5,1c0.3,0.2,0.7,0.4,1.1,0.4c0.6,0,1-0.1,1.3-0.4l0.5,1
		c-0.5,0.4-1.1,0.5-2,0.5c-0.8,0-1.5-0.2-2-0.7c-0.5-0.5-0.7-1.1-0.7-2c0-0.8,0.3-1.5,0.8-2c0.5-0.5,1.2-0.8,1.9-0.8
		c0.8,0,1.4,0.2,1.9,0.7c0.5,0.5,0.7,1.1,0.7,1.8C43.6,25,43.6,25.2,43.5,25.5z M39.6,24.6h2.7c-0.1-0.8-0.5-1.2-1.3-1.2
		C40.2,23.4,39.8,23.8,39.6,24.6z"/>
	<path fill="#FFFFFF" d="M44.8,23.5h-0.6v-1h0.6v-1.1l1.3-0.5v1.5h1.5v1h-1.5v2.3c0,0.4,0.1,0.7,0.2,0.8c0.1,0.2,0.3,0.2,0.6,0.2
		c0.3,0,0.6-0.1,0.9-0.2v1.1c-0.3,0.1-0.7,0.1-1.3,0.1c-0.5,0-1-0.2-1.3-0.5c-0.3-0.3-0.4-0.7-0.4-1.3V23.5z"/>
	<path fill="#FFFFFF" d="M53.7,25.5h-3.9c0,0.4,0.2,0.8,0.5,1c0.3,0.2,0.6,0.4,1.1,0.4c0.6,0,1-0.1,1.3-0.4l0.5,1
		c-0.5,0.4-1.1,0.5-2,0.5c-0.8,0-1.5-0.2-2-0.7c-0.5-0.5-0.7-1.1-0.7-2c0-0.8,0.3-1.5,0.8-2c0.5-0.5,1.2-0.8,1.9-0.8
		c0.8,0,1.4,0.2,1.9,0.7c0.5,0.5,0.7,1.1,0.7,1.8C53.8,25,53.8,25.2,53.7,25.5z M49.8,24.6h2.7c-0.1-0.8-0.5-1.2-1.3-1.2
		C50.5,23.4,50,23.8,49.8,24.6z"/>
	<path fill="#FFFFFF" d="M58.4,27.8v-3.1c0-0.5-0.1-0.8-0.3-1c-0.2-0.2-0.5-0.3-0.9-0.3c-0.2,0-0.4,0.1-0.6,0.2
		c-0.2,0.1-0.4,0.2-0.5,0.4v3.9h-1.3v-5.3h0.9L56,23c0.3-0.4,0.9-0.6,1.5-0.6c0.7,0,1.2,0.2,1.5,0.6c0.4,0.4,0.6,0.9,0.6,1.6v3.3
		H58.4z"/>
	<path fill="#FFFFFF" d="M65.4,22.9l-0.5,0.9c-0.3-0.3-0.7-0.4-1.2-0.4c-0.5,0-0.9,0.2-1.2,0.5c-0.3,0.3-0.4,0.7-0.4,1.3
		c0,1.1,0.5,1.7,1.6,1.7c0.5,0,0.9-0.2,1.3-0.5l0.5,1c-0.4,0.2-0.7,0.4-1,0.4c-0.3,0.1-0.6,0.1-1,0.1c-0.8,0-1.5-0.2-2-0.7
		c-0.5-0.5-0.7-1.1-0.7-2c0-0.8,0.3-1.5,0.8-2c0.5-0.5,1.3-0.8,2.2-0.8C64.3,22.4,64.9,22.6,65.4,22.9z"/>
	<path fill="#FFFFFF" d="M66.8,27.8v-4.3h-0.7v-1h2v5.3H66.8z M67.4,20.4c0.2,0,0.4,0.1,0.5,0.2c0.1,0.1,0.2,0.3,0.2,0.5
		c0,0.2-0.1,0.4-0.2,0.5c-0.1,0.1-0.3,0.2-0.5,0.2c-0.2,0-0.4-0.1-0.5-0.2c-0.1-0.1-0.2-0.3-0.2-0.5c0-0.2,0.1-0.4,0.2-0.5
		C67.1,20.5,67.2,20.4,67.4,20.4z"/>
	<path fill="#FFFFFF" d="M72.6,27.3c-0.1,0.2-0.3,0.3-0.6,0.5c-0.3,0.1-0.6,0.2-0.9,0.2c-0.6,0-1.1-0.1-1.4-0.4
		c-0.3-0.3-0.5-0.7-0.5-1.2c0-0.6,0.2-1.1,0.7-1.5c0.5-0.3,1.2-0.5,2-0.5c0.2,0,0.3,0,0.5,0.1c0-0.6-0.4-0.9-1.2-0.9
		c-0.5,0-0.9,0.1-1.2,0.2l-0.3-1c0.4-0.2,1-0.3,1.6-0.3c0.8,0,1.5,0.2,1.8,0.6c0.4,0.4,0.6,1.1,0.6,2.1v1.1c0,0.7,0.1,1.2,0.4,1.3
		c-0.1,0.2-0.2,0.3-0.4,0.3c-0.1,0-0.3,0.1-0.4,0.1c-0.2,0-0.4-0.1-0.5-0.2C72.8,27.6,72.7,27.5,72.6,27.3z M72.5,25.3
		c-0.2,0-0.4-0.1-0.5-0.1c-1,0-1.5,0.3-1.5,1c0,0.5,0.3,0.7,0.9,0.7c0.8,0,1.2-0.4,1.2-1.1V25.3z"/>
	<path fill="#FFFFFF" d="M74.8,27.5l0.5-1c0.4,0.3,0.8,0.4,1.3,0.4c0.5,0,0.7-0.2,0.7-0.5c0-0.2-0.1-0.4-0.2-0.5
		c-0.2-0.1-0.4-0.3-0.9-0.5c-0.9-0.4-1.4-0.9-1.4-1.6c0-0.5,0.2-0.8,0.5-1.1c0.4-0.3,0.8-0.4,1.4-0.4c0.6,0,1.1,0.1,1.6,0.4l-0.4,1
		c-0.3-0.2-0.7-0.4-1.2-0.4c-0.4,0-0.7,0.2-0.7,0.5c0,0.1,0.1,0.3,0.2,0.4c0.1,0.1,0.5,0.3,0.9,0.4c0.5,0.2,0.8,0.4,1,0.7
		c0.2,0.3,0.3,0.6,0.3,1c0,0.5-0.2,0.9-0.6,1.2c-0.4,0.3-0.9,0.4-1.5,0.4c-0.4,0-0.7,0-0.9-0.1C75.5,27.8,75.2,27.7,74.8,27.5z"/>
	<path fill="#FFFFFF" d="M35,33.2l-0.5,1.1c-0.3-0.3-0.8-0.4-1.4-0.4c-0.6,0-1.1,0.3-1.5,0.8c-0.4,0.5-0.6,1.2-0.6,1.9
		c0,0.8,0.2,1.4,0.6,1.9c0.4,0.5,0.9,0.7,1.5,0.7c0.7,0,1.3-0.2,1.7-0.7l0.6,1c-0.5,0.6-1.3,0.8-2.4,0.8c-1.1,0-1.9-0.3-2.4-1
		c-0.6-0.7-0.9-1.6-0.9-2.8c0-1.1,0.3-2,1-2.7c0.6-0.7,1.5-1.1,2.5-1.1C33.8,32.7,34.5,32.8,35,33.2z"/>
	<path fill="#FFFFFF" d="M36.4,32.8l1.3-0.3v6c0,0.7,0.2,1.1,0.6,1.2c-0.2,0.4-0.5,0.5-1,0.5c-0.6,0-0.9-0.4-0.9-1.2V32.8z"/>
	<path fill="#FFFFFF" d="M42.3,39.6c-0.1,0.2-0.3,0.3-0.6,0.5c-0.3,0.1-0.6,0.2-0.9,0.2c-0.6,0-1.1-0.1-1.4-0.4
		c-0.3-0.3-0.5-0.7-0.5-1.2c0-0.6,0.2-1.1,0.7-1.5c0.5-0.3,1.2-0.5,2-0.5c0.2,0,0.3,0,0.5,0.1c0-0.6-0.4-0.9-1.2-0.9
		c-0.5,0-0.9,0.1-1.2,0.2l-0.3-1c0.4-0.2,1-0.3,1.6-0.3c0.8,0,1.5,0.2,1.8,0.6c0.4,0.4,0.6,1.1,0.6,2.1v1.1c0,0.7,0.1,1.2,0.4,1.3
		c-0.1,0.2-0.2,0.3-0.4,0.3c-0.1,0-0.3,0.1-0.4,0.1c-0.2,0-0.4-0.1-0.5-0.2C42.5,39.9,42.4,39.7,42.3,39.6z M42.2,37.6
		c-0.2,0-0.4-0.1-0.5-0.1c-1,0-1.5,0.3-1.5,1c0,0.5,0.3,0.7,0.9,0.7c0.8,0,1.2-0.4,1.2-1.1V37.6z"/>
	<path fill="#FFFFFF" d="M47.2,40.2h-0.5l-2.5-5.4h1.4l1.3,3.3l1.4-3.3h1.4L47.2,40.2z"/>
	<path fill="#FFFFFF" d="M55.3,37.8h-3.9c0,0.4,0.2,0.8,0.5,1c0.3,0.2,0.7,0.4,1.1,0.4c0.6,0,1-0.2,1.3-0.4l0.5,1
		c-0.5,0.4-1.1,0.5-2,0.5c-0.8,0-1.5-0.2-2-0.7c-0.5-0.5-0.7-1.1-0.7-2c0-0.8,0.3-1.5,0.8-2c0.5-0.5,1.2-0.8,1.9-0.8
		c0.8,0,1.4,0.2,1.9,0.7c0.5,0.5,0.7,1.1,0.7,1.8C55.4,37.3,55.4,37.5,55.3,37.8z M51.4,36.9h2.7c-0.1-0.8-0.5-1.2-1.3-1.2
		C52.1,35.7,51.6,36.1,51.4,36.9z"/>
	<path fill="#FFFFFF" d="M56.1,39.8l0.5-1c0.4,0.3,0.8,0.4,1.3,0.4c0.5,0,0.8-0.2,0.8-0.5c0-0.2-0.1-0.4-0.2-0.5
		c-0.2-0.1-0.4-0.3-0.9-0.5c-0.9-0.4-1.4-0.9-1.4-1.6c0-0.5,0.2-0.8,0.5-1.1c0.4-0.3,0.8-0.4,1.4-0.4c0.6,0,1.1,0.1,1.6,0.4l-0.4,1
		c-0.3-0.2-0.7-0.3-1.2-0.3c-0.4,0-0.7,0.2-0.7,0.5c0,0.1,0.1,0.3,0.2,0.4c0.1,0.1,0.5,0.3,0.9,0.4c0.5,0.2,0.8,0.4,1,0.7
		c0.2,0.3,0.3,0.6,0.3,1c0,0.5-0.2,0.9-0.6,1.2c-0.4,0.3-0.9,0.4-1.5,0.4c-0.4,0-0.7,0-0.9-0.1C56.8,40.1,56.5,39.9,56.1,39.8z"/>
</g>
</svg>
