<!-- Generator: Adobe Illustrator 18.1.1, SVG Export Plug-In  -->
<svg version="1.1"
	 xmlns="http://www.w3.org/2000/svg" xmlns:xlink="http://www.w3.org/1999/xlink" xmlns:a="http://ns.adobe.com/AdobeSVGViewerExtensions/3.0/"
	 x="0px" y="0px" width="233.2px" height="253.6px" viewBox="0 0 233.2 253.6" enable-background="new 0 0 233.2 253.6"
	 xml:space="preserve">
<defs>
</defs>
<g>
	<path fill="#FFFFFF" d="M129.5,70.1c0-16.2,0.1-31.6,0-47.1c-0.1-14.7-14-25.8-27.8-22.4C91.7,3.1,84.5,13,84.5,24.6
		c0,50.2,0,100.3,0,150.5c0,1.7,0,3.4,0,6.4c-2.6-2.4-4.2-3.9-5.8-5.2c-11.6-9.9-22.9-20.3-35-29.6c-5.5-4.3-12.4-7.3-19.1-9.4
		c-11.9-3.7-19.4,1.1-23.1,13.1c-3.7,12-0.4,21.8,8.5,30.2c22.3,21,44.7,42,66.6,63.4c6.7,6.5,14.1,9.6,23.2,9.6
		c33.5,0,67,0,100.5,0c16.5,0,27.6-9.1,30-25.5c1.7-11.5,3-23.2,2.8-34.8c-0.5-31.6-1.7-63.3-2.8-94.9c-0.3-8.4-6.9-15.6-15.3-16.6
		c-4.8-0.6-9.7,0.4-15.4,0.7c-3.4-5.1-8.1-10.4-15.8-11.9c-7.7-1.5-13.9,1.8-19.7,6.3C154.5,65.4,143.1,64,129.5,70.1z"/>
	<path d="M129.5,70.1c13.5-6.1,25-4.7,34.6,6.7c5.8-4.5,12-7.8,19.7-6.3c7.7,1.5,12.3,6.8,15.8,11.9c5.7-0.3,10.7-1.3,15.4-0.7
		c8.4,1,15,8.3,15.3,16.6c1.1,31.6,2.4,63.2,2.8,94.9c0.2,11.6-1.1,23.3-2.8,34.8c-2.5,16.4-13.5,25.5-30,25.5
		c-33.5,0.1-67,0-100.5,0c-9.1,0-16.5-3.1-23.2-9.6c-22-21.4-44.3-42.4-66.6-63.4c-9-8.5-12.3-18.3-8.5-30.2
		c3.7-12,11.2-16.7,23.1-13.1c6.7,2.1,13.6,5.1,19.1,9.4c12.1,9.3,23.4,19.7,35,29.6c1.6,1.4,3.1,2.9,5.8,5.2c0-3,0-4.7,0-6.4
		c0-50.2,0-100.3,0-150.5c0-11.5,7.3-21.5,17.3-23.9c13.8-3.4,27.6,7.6,27.8,22.4C129.7,38.5,129.5,54,129.5,70.1z M95.1,107.9
		c0,26.8,0,53.6,0,80.5c0,1.7,0.1,3.3-0.1,5c-0.7,5.6-3.9,7-8.6,3.8c-1.4-0.9-2.5-2.1-3.8-3.3c-11.8-10.6-23.1-21.7-35.4-31.6
		c-7.4-5.9-16.2-10.3-24.7-14.7c-4.6-2.4-7.8-0.6-9.9,4.2c-3.2,7.6-1.4,14.8,5.7,21.5c21.7,20.7,43.5,41.3,65,62.2
		c5.3,5.1,11.2,7.3,18.4,7.3c32-0.1,64,0,96,0c13.2,0,21.7-7.5,22.9-20.7c1-11.6,2.2-23.3,2-34.9c-0.5-29.1-1.8-58.2-2.9-87.3
		c-0.2-4.5-4-8.1-8.4-8.2c-4-0.1-7.4,2.7-7.8,7.3c-0.6,5.8-0.7,11.6-0.9,17.4c-0.2,3.8-1.2,7.5-5.5,7.5c-4.3,0-5.5-3.2-5.4-7.4
		c0.2-7.7,0.1-15.3,0.1-23c0-7.2-4.9-12.6-11.2-12.8c-6.1-0.1-11.4,5.6-11.7,12.6c-0.1,3.8,0,7.7-0.1,11.5c0,3.6-1.6,6.2-5.5,6.3
		c-4,0.1-4.9-2.8-5.1-6.1c-0.2-4.7,0.1-9.3-0.2-14c-0.4-8.4-6.3-13.9-14.6-13.7c-8.2,0.1-13.7,5.9-13.8,14.5
		c-0.1,4.5,0.3,9-0.2,13.5c-0.2,1.9-1.9,4.3-3.6,5.1c-1.5,0.7-4.5-0.1-5.6-1.3c-1.2-1.4-1.4-4-1.4-6.1c-0.1-25.3,0-50.6-0.1-76
		c0-2.2,0.1-4.4-0.3-6.5c-1.8-9-11.7-12.4-18.8-6.7c-4.2,3.4-4.5,7.9-4.5,12.6C95.1,53.6,95.1,80.8,95.1,107.9z"/>
	<path fill="#FFFFFF" d="M95.1,107.9c0-27.2,0-54.3,0-81.5c0-4.7,0.2-9.2,4.5-12.6c7.1-5.7,17-2.4,18.8,6.7c0.4,2.1,0.3,4.3,0.3,6.5
		c0,25.3,0,50.6,0.1,76c0,2.1,0.1,4.7,1.4,6.1c1.1,1.2,4.2,2,5.6,1.3c1.7-0.7,3.3-3.2,3.6-5.1c0.5-4.4,0.1-9,0.2-13.5
		c0.1-8.6,5.6-14.4,13.8-14.5c8.3-0.1,14.2,5.3,14.6,13.7c0.2,4.7,0,9.3,0.2,14c0.1,3.2,1.1,6.2,5.1,6.1c3.9-0.1,5.5-2.6,5.5-6.3
		c0-3.8-0.1-7.7,0.1-11.5c0.2-7,5.6-12.7,11.7-12.6c6.3,0.1,11.2,5.6,11.2,12.8c0,7.7,0.2,15.3-0.1,23c-0.1,4.1,1.1,7.4,5.4,7.4
		c4.3,0,5.4-3.7,5.5-7.5c0.2-5.8,0.3-11.6,0.9-17.4c0.5-4.5,3.9-7.4,7.8-7.3c4.4,0.1,8.3,3.7,8.4,8.2c1.1,29.1,2.3,58.2,2.9,87.3
		c0.2,11.6-1,23.3-2,34.9c-1.1,13.2-9.6,20.7-22.9,20.7c-32,0-64-0.1-96,0c-7.2,0-13.1-2.2-18.4-7.3c-21.6-20.8-43.3-41.4-65-62.2
		c-7.1-6.7-8.9-14-5.7-21.5c2.1-4.8,5.3-6.7,9.9-4.2c8.5,4.5,17.3,8.8,24.7,14.7c12.3,9.9,23.7,21,35.4,31.6
		c1.2,1.1,2.4,2.3,3.8,3.3c4.7,3.2,7.9,1.8,8.6-3.8c0.2-1.6,0.1-3.3,0.1-5C95.1,161.6,95.1,134.7,95.1,107.9z"/>
</g>
</svg>
