<!-- Generator: Adobe Illustrator 18.1.0, SVG Export Plug-In  -->
<svg version="1.1"
	 xmlns="http://www.w3.org/2000/svg" xmlns:xlink="http://www.w3.org/1999/xlink" xmlns:a="http://ns.adobe.com/AdobeSVGViewerExtensions/3.0/"
	 x="0px" y="0px" width="111.3px" height="47.4px" viewBox="0 0 111.3 47.4" enable-background="new 0 0 111.3 47.4"
	 xml:space="preserve">
<defs>
</defs>
<g>
	<ellipse fill="#36A9E1" cx="55.6" cy="23.7" rx="55.6" ry="23.7"/>
</g>
<g>
	<path fill="#FFFFFF" d="M30.2,21.1h-1.5l-0.9-4.8l-1.8,4.9h-0.6l-1.8-4.9l-1,4.8h-1.5l1.8-8.9h0.8l1.9,6l1.9-6h0.8L30.2,21.1z"/>
	<path fill="#FFFFFF" d="M36.3,21.1l-0.7-1.8h-3.1L32,21.1h-1.8l3.6-9h0.7l3.6,9H36.3z M34.1,14.8l-1.1,3.3h2.1L34.1,14.8z"/>
	<path fill="#FFFFFF" d="M44,21.1l-2.4-3.7c-0.2,0-0.6,0-1,0v3.7H39v-8.9c0.1,0,0.4,0,1,0c0.6,0,1.1,0,1.4,0c2.3,0,3.4,0.9,3.4,2.6
		c0,0.5-0.2,1-0.5,1.4c-0.3,0.4-0.7,0.7-1.2,0.9l2.6,4H44z M40.7,13.5V16c0.3,0,0.5,0,0.7,0c0.7,0,1.1-0.1,1.5-0.3
		c0.3-0.2,0.5-0.5,0.5-1.1c0-0.4-0.2-0.7-0.5-0.9c-0.3-0.2-0.8-0.3-1.5-0.3C41,13.5,40.8,13.5,40.7,13.5z"/>
	<path fill="#FFFFFF" d="M53.2,12.9l-0.7,1.3c-0.2-0.2-0.5-0.3-0.9-0.5c-0.4-0.2-0.7-0.2-1-0.2c-0.9,0-1.6,0.3-2.1,0.9
		c-0.5,0.6-0.8,1.4-0.8,2.4c0,0.9,0.2,1.7,0.7,2.3c0.5,0.6,1.2,0.9,2,0.9c0.6,0,1-0.2,1.4-0.5v-1.8h-1.2v-1.4h2.8v4
		c-0.4,0.3-0.9,0.5-1.5,0.7c-0.6,0.2-1.2,0.3-1.8,0.3c-1.3,0-2.3-0.4-3-1.3c-0.7-0.8-1.1-1.9-1.1-3.3c0-1.4,0.4-2.5,1.2-3.4
		c0.8-0.9,1.9-1.3,3.3-1.3C51.7,12,52.5,12.3,53.2,12.9z"/>
	<path fill="#FFFFFF" d="M56.6,13.6v2.1h2.9V17h-2.9v2.7h4v1.4H55v-8.9h5.7v1.4H56.6z"/>
	<path fill="#FFFFFF" d="M67.9,21.2l-4.3-5.6v5.5h-1.5v-8.9h0.8l4.2,5.4v-5.4h1.5v9H67.9z"/>
	<path fill="#FFFFFF" d="M76.1,21.1h-2v-8.9c1.3,0,2.1-0.1,2.4-0.1c1.3,0,2.3,0.4,3.1,1.1c0.8,0.8,1.1,1.8,1.1,3
		C80.8,19.5,79.2,21.1,76.1,21.1z M75.7,13.6v6.1c0.3,0,0.5,0,0.8,0c0.8,0,1.4-0.3,1.9-0.9c0.5-0.6,0.7-1.4,0.7-2.4
		c0-1.9-0.9-2.9-2.7-2.9C76.3,13.5,76,13.5,75.7,13.6z"/>
	<path fill="#FFFFFF" d="M83.7,13.6v2.1h2.9V17h-2.9v2.7h4v1.4h-5.6v-8.9h5.7v1.4H83.7z"/>
	<path fill="#FFFFFF" d="M23.9,35.5l0.6-1.4c0.6,0.4,1.2,0.7,1.8,0.7c0.9,0,1.4-0.3,1.4-1c0-0.3-0.1-0.6-0.3-0.9
		c-0.2-0.3-0.7-0.6-1.4-0.9c-0.7-0.3-1.1-0.6-1.4-0.8c-0.2-0.2-0.4-0.5-0.5-0.8c-0.1-0.3-0.2-0.6-0.2-1c0-0.7,0.3-1.3,0.8-1.7
		c0.5-0.5,1.2-0.7,1.9-0.7c1,0,1.8,0.2,2.3,0.6l-0.5,1.4c-0.6-0.4-1.1-0.6-1.8-0.6c-0.4,0-0.6,0.1-0.8,0.3c-0.2,0.2-0.3,0.4-0.3,0.8
		c0,0.5,0.6,1,1.7,1.6c0.6,0.3,1,0.6,1.3,0.8c0.3,0.2,0.5,0.5,0.6,0.9c0.1,0.3,0.2,0.7,0.2,1.1c0,0.7-0.3,1.3-0.9,1.8
		c-0.6,0.5-1.3,0.7-2.3,0.7C25.3,36.2,24.5,36,23.9,35.5z"/>
	<path fill="#FFFFFF" d="M30.2,31.5c0-1.3,0.3-2.3,1-3.2c0.7-0.9,1.6-1.3,2.8-1.3c1.3,0,2.3,0.4,2.9,1.2c0.7,0.8,1,1.9,1,3.3
		c0,1.4-0.4,2.6-1.1,3.4c-0.7,0.8-1.7,1.3-3,1.3c-1.2,0-2.1-0.4-2.8-1.3C30.5,34.1,30.2,33,30.2,31.5z M31.9,31.5
		c0,1,0.2,1.8,0.5,2.4c0.4,0.6,0.9,0.9,1.5,0.9c0.8,0,1.4-0.3,1.8-0.8c0.4-0.6,0.6-1.4,0.6-2.4c0-2.1-0.8-3.1-2.3-3.1
		c-0.7,0-1.2,0.3-1.6,0.8C32.1,29.8,31.9,30.5,31.9,31.5z"/>
	<path fill="#FFFFFF" d="M39.4,36v-8.9H41v7.5h4V36H39.4z"/>
	<path fill="#FFFFFF" d="M48.7,36.2h-0.9l-3.3-9h1.7l2.1,6l2.2-6h1.7L48.7,36.2z"/>
	<path fill="#FFFFFF" d="M54.7,28.5v2.1h2.9V32h-2.9v2.7h4V36h-5.6v-8.9h5.7v1.4H54.7z"/>
	<path fill="#FFFFFF" d="M66,36.2l-4.3-5.6V36h-1.5v-8.9H61l4.2,5.4v-5.4h1.5v9H66z"/>
	<path fill="#FFFFFF" d="M74.6,27.6L74,28.9c-0.4-0.4-0.9-0.5-1.7-0.5c-0.7,0-1.4,0.3-1.8,0.9c-0.5,0.6-0.7,1.4-0.7,2.4
		c0,1,0.2,1.7,0.7,2.3c0.4,0.6,1,0.8,1.8,0.8c0.8,0,1.5-0.3,2-0.9l0.7,1.3c-0.6,0.7-1.6,1-2.8,1s-2.2-0.4-2.9-1.2
		c-0.7-0.8-1-1.9-1-3.4c0-1.3,0.4-2.4,1.1-3.3C70,27.4,71,27,72.2,27C73.2,27,74,27.2,74.6,27.6z"/>
	<path fill="#FFFFFF" d="M76.2,36v-8.9h1.6V36H76.2z"/>
	<path fill="#FFFFFF" d="M84.8,36l-0.7-1.8h-3.1L80.5,36h-1.8l3.6-9H83l3.6,9H84.8z M82.6,29.7L81.6,33h2.1L82.6,29.7z"/>
</g>
</svg>
