<?xml version="1.0" encoding="utf-8"?>
<!-- Generator: Adobe Illustrator 18.1.0, SVG Export Plug-In . SVG Version: 6.00 Build 0)  -->
<!DOCTYPE svg PUBLIC "-//W3C//DTD SVG 1.1//EN" "http://www.w3.org/Graphics/SVG/1.1/DTD/svg11.dtd">
<svg version="1.1" id="Capa_1" xmlns="http://www.w3.org/2000/svg" xmlns:xlink="http://www.w3.org/1999/xlink" x="0px" y="0px"
	 viewBox="-245 399.7 104.3 43.2" enable-background="new -245 399.7 104.3 43.2" xml:space="preserve">
<g>
	<ellipse fill="#68A8DE" cx="-192.8" cy="421.3" rx="52.2" ry="21.6"/>
</g>
<rect x="-238.8" y="409.7" fill="none" width="92.3" height="24.4"/>
<g enable-background="new    ">
	<path fill="#FFFFFF" d="M-205.7,417.5h-1.3l-0.8-4l-1.6,4.1h-0.5l-1.6-4.1l-0.8,4h-1.3l1.6-7.5h0.7l1.7,5l1.6-5h0.7L-205.7,417.5z"
		/>
	<path fill="#FFFFFF" d="M-200.3,417.5l-0.6-1.5h-2.6l-0.5,1.5h-1.5l3.1-7.6h0.6l3.1,7.6H-200.3z M-202.2,412.2l-0.9,2.8h1.9
		L-202.2,412.2z"/>
	<path fill="#FFFFFF" d="M-193.7,417.5l-2.1-3.1c-0.2,0-0.5,0-0.9,0v3.1h-1.4V410c0.1,0,0.4,0,0.9,0s0.9,0,1.2,0
		c2,0,2.9,0.7,2.9,2.2c0,0.4-0.1,0.8-0.4,1.2c-0.3,0.4-0.6,0.6-1,0.8l2.3,3.4H-193.7z M-196.6,411.2v2.1c0.3,0,0.4,0,0.6,0
		c0.6,0,1-0.1,1.3-0.2s0.4-0.5,0.4-0.9c0-0.4-0.1-0.6-0.4-0.8c-0.3-0.1-0.7-0.2-1.3-0.2C-196.3,411.2-196.4,411.2-196.6,411.2z"/>
	<path fill="#FFFFFF" d="M-185.7,410.7l-0.6,1.1c-0.2-0.1-0.4-0.3-0.7-0.4c-0.3-0.1-0.6-0.2-0.9-0.2c-0.8,0-1.4,0.3-1.8,0.7
		c-0.4,0.5-0.7,1.2-0.7,2c0,0.8,0.2,1.4,0.6,1.9s1,0.7,1.8,0.7c0.5,0,0.9-0.1,1.2-0.4v-1.5h-1.1v-1.1h2.4v3.4
		c-0.3,0.3-0.7,0.5-1.3,0.6c-0.5,0.1-1,0.2-1.5,0.2c-1.1,0-2-0.4-2.6-1.1s-1-1.6-1-2.8s0.4-2.1,1.1-2.8c0.7-0.7,1.7-1.1,2.8-1.1
		C-187.1,409.9-186.3,410.2-185.7,410.7z"/>
	<path fill="#FFFFFF" d="M-182.8,411.2v1.8h2.5v1.1h-2.5v2.2h3.5v1.2h-4.9V410h4.9v1.2H-182.8z"/>
	<path fill="#FFFFFF" d="M-173,417.6l-3.7-4.7v4.6h-1.3V410h0.7l3.6,4.5V410h1.3v7.6H-173z"/>
</g>
<g enable-background="new    ">
	<path fill="#FFFFFF" d="M-221.7,430.2l-3.7-4.7v4.6h-1.3v-7.5h0.7l3.6,4.5v-4.5h1.3v7.6H-221.7z"/>
	<path fill="#FFFFFF" d="M-218.2,423.8v1.8h2.5v1.1h-2.5v2.2h3.5v1.2h-4.9v-7.5h4.9v1.2H-218.2z"/>
	<path fill="#FFFFFF" d="M-210.3,423.8v6.3h-1.4v-6.3h-2.5v-1.2h6.4v1.2H-210.3z"/>
	<path fill="#FFFFFF" d="M-207.9,426.3c0-1.1,0.3-2,0.9-2.7s1.4-1.1,2.4-1.1c1.1,0,2,0.3,2.5,1c0.6,0.7,0.9,1.6,0.9,2.8
		c0,1.2-0.3,2.2-0.9,2.9s-1.5,1.1-2.6,1.1c-1,0-1.8-0.4-2.4-1.1C-207.6,428.5-207.9,427.5-207.9,426.3z M-206.4,426.3
		c0,0.9,0.2,1.6,0.5,2c0.3,0.5,0.7,0.7,1.3,0.7c0.7,0,1.2-0.2,1.6-0.7c0.4-0.5,0.5-1.2,0.5-2c0-1.8-0.7-2.6-2-2.6
		c-0.6,0-1.1,0.2-1.4,0.7C-206.3,424.9-206.4,425.5-206.4,426.3z"/>
	<path fill="#FFFFFF" d="M-193.8,430.2h-0.8l-2.9-7.6h1.5l1.8,5.1l1.9-5.1h1.5L-193.8,430.2z"/>
	<path fill="#FFFFFF" d="M-188.6,423.8v1.8h2.5v1.1h-2.5v2.2h3.5v1.2h-4.9v-7.5h4.9v1.2H-188.6z"/>
	<path fill="#FFFFFF" d="M-178.8,430.2l-3.7-4.7v4.6h-1.3v-7.5h0.7l3.6,4.5v-4.5h1.3v7.6H-178.8z"/>
	<path fill="#FFFFFF" d="M-173.5,423.8v6.3h-1.4v-6.3h-2.5v-1.2h6.4v1.2H-173.5z"/>
	<path fill="#FFFFFF" d="M-166.6,430.1l-0.6-1.5h-2.6l-0.5,1.5h-1.5l3.1-7.6h0.6l3.1,7.6H-166.6z M-168.5,424.8l-0.9,2.8h1.9
		L-168.5,424.8z"/>
	<path fill="#FFFFFF" d="M-164.6,429.7l0.5-1.2c0.5,0.4,1.1,0.6,1.6,0.6c0.8,0,1.2-0.3,1.2-0.8c0-0.3-0.1-0.5-0.3-0.7
		s-0.6-0.5-1.2-0.8c-0.6-0.3-1-0.5-1.2-0.7c-0.2-0.2-0.4-0.4-0.5-0.7c-0.1-0.3-0.2-0.5-0.2-0.8c0-0.6,0.2-1.1,0.7-1.4
		c0.4-0.4,1-0.6,1.7-0.6c0.9,0,1.5,0.2,2,0.5l-0.4,1.1c-0.5-0.3-1-0.5-1.5-0.5c-0.3,0-0.6,0.1-0.7,0.2c-0.2,0.2-0.3,0.4-0.3,0.6
		c0,0.4,0.5,0.9,1.5,1.3c0.5,0.2,0.9,0.5,1.1,0.7s0.4,0.4,0.5,0.7s0.2,0.6,0.2,0.9c0,0.6-0.2,1.1-0.7,1.5c-0.5,0.4-1.2,0.6-2,0.6
		C-163.4,430.3-164.1,430.1-164.6,429.7z"/>
</g>
</svg>
