<!-- Generator: Adobe Illustrator 18.1.0, SVG Export Plug-In  -->
<svg version="1.1"
	 xmlns="http://www.w3.org/2000/svg" xmlns:xlink="http://www.w3.org/1999/xlink" xmlns:a="http://ns.adobe.com/AdobeSVGViewerExtensions/3.0/"
	 x="0px" y="0px" width="111.3px" height="47.4px" viewBox="0 0 111.3 47.4" enable-background="new 0 0 111.3 47.4"
	 xml:space="preserve">
<defs>
</defs>
<g>
	<ellipse fill="#95C11F" cx="55.6" cy="23.7" rx="55.6" ry="23.7"/>
</g>
<g>
	<path fill="#FFFFFF" d="M40.6,21.1h-1.5l-0.9-4.6l-1.7,4.8H36l-1.7-4.8l-0.9,4.6h-1.5l1.7-8.6h0.8l1.9,5.8l1.8-5.8h0.8L40.6,21.1z"
		/>
	<path fill="#FFFFFF" d="M46.6,21.1L46,19.4h-3l-0.6,1.7h-1.7l3.4-8.7h0.7l3.5,8.7H46.6z M44.5,15l-1,3.2h2.1L44.5,15z"/>
	<path fill="#FFFFFF" d="M54.1,21.1l-2.3-3.6c-0.2,0-0.6,0-1,0v3.6h-1.6v-8.6c0.1,0,0.4,0,1,0c0.6,0,1,0,1.4,0
		c2.2,0,3.3,0.8,3.3,2.5c0,0.5-0.1,1-0.5,1.4c-0.3,0.4-0.7,0.7-1.1,0.9l2.5,3.9H54.1z M50.8,13.8v2.4c0.3,0,0.5,0,0.6,0
		c0.6,0,1.1-0.1,1.4-0.3c0.3-0.2,0.4-0.5,0.4-1.1c0-0.4-0.2-0.7-0.5-0.9c-0.3-0.2-0.8-0.3-1.5-0.3C51.1,13.8,51,13.8,50.8,13.8z"/>
	<path fill="#FFFFFF" d="M62.9,13.2l-0.6,1.2c-0.2-0.2-0.5-0.3-0.8-0.5c-0.4-0.2-0.7-0.2-1-0.2c-0.8,0-1.5,0.3-2,0.9
		c-0.5,0.6-0.7,1.3-0.7,2.3c0,0.9,0.2,1.6,0.7,2.2c0.5,0.5,1.1,0.8,2,0.8c0.5,0,1-0.2,1.3-0.4v-1.7h-1.2v-1.3h2.7v3.9
		c-0.4,0.3-0.8,0.5-1.4,0.7c-0.6,0.2-1.1,0.2-1.7,0.2c-1.2,0-2.2-0.4-2.9-1.2c-0.7-0.8-1.1-1.9-1.1-3.2c0-1.3,0.4-2.4,1.2-3.2
		c0.8-0.8,1.8-1.2,3.2-1.2C61.4,12.4,62.2,12.6,62.9,13.2z"/>
	<path fill="#FFFFFF" d="M66.2,13.9v2H69v1.3h-2.8v2.6h3.9v1.4h-5.4v-8.6h5.5v1.4H66.2z"/>
	<path fill="#FFFFFF" d="M77.1,21.2l-4.2-5.4v5.3h-1.5v-8.6h0.7l4.1,5.2v-5.2h1.5v8.7H77.1z"/>
	<path fill="#FFFFFF" d="M18.3,31.2c0-1.2,0.3-2.3,1-3.1c0.7-0.8,1.6-1.3,2.7-1.3c1.2,0,2.2,0.4,2.8,1.2c0.7,0.8,1,1.8,1,3.2
		c0,1.4-0.3,2.5-1,3.3c-0.7,0.8-1.7,1.2-2.9,1.2c-1.2,0-2-0.4-2.7-1.2C18.6,33.7,18.3,32.6,18.3,31.2z M19.8,31.2
		c0,1,0.2,1.8,0.5,2.3c0.3,0.6,0.8,0.8,1.5,0.8c0.8,0,1.3-0.3,1.7-0.8c0.4-0.5,0.6-1.3,0.6-2.4c0-2-0.7-3-2.2-3
		c-0.7,0-1.2,0.3-1.6,0.8C20,29.5,19.8,30.3,19.8,31.2z"/>
	<path fill="#FFFFFF" d="M28.7,32.4v3.2h-1.5v-8.6c1,0,1.6-0.1,1.8-0.1c1.4,0,2.4,0.2,3,0.6c0.6,0.4,0.9,1.1,0.9,2c0,2-1.2,3-3.5,3
		C29.2,32.4,29,32.4,28.7,32.4z M28.7,28.3V31c0.3,0,0.5,0,0.6,0c0.7,0,1.2-0.1,1.5-0.3c0.3-0.2,0.5-0.6,0.5-1.1
		c0-0.9-0.7-1.3-2.2-1.3C29,28.2,28.8,28.3,28.7,28.3z"/>
	<path fill="#FFFFFF" d="M35.7,28.3v2h2.8v1.3h-2.8v2.6h3.9v1.4h-5.4v-8.6h5.5v1.4H35.7z"/>
	<path fill="#FFFFFF" d="M45.9,35.6L43.6,32c-0.2,0-0.6,0-1,0v3.6H41v-8.6c0.1,0,0.4,0,1,0c0.6,0,1,0,1.4,0c2.2,0,3.3,0.8,3.3,2.5
		c0,0.5-0.2,1-0.5,1.4c-0.3,0.4-0.7,0.7-1.1,0.9l2.5,3.9H45.9z M42.6,28.3v2.4c0.3,0,0.5,0,0.6,0c0.6,0,1.1-0.1,1.4-0.3
		c0.3-0.2,0.4-0.5,0.4-1.1c0-0.4-0.2-0.7-0.5-0.9c-0.3-0.2-0.8-0.3-1.5-0.3C43,28.2,42.8,28.2,42.6,28.3z"/>
	<path fill="#FFFFFF" d="M53.4,35.6l-0.6-1.7h-3l-0.6,1.7h-1.7l3.4-8.7h0.7l3.5,8.7H53.4z M51.3,29.5l-1,3.2h2.1L51.3,29.5z"/>
	<path fill="#FFFFFF" d="M61.9,27.4l-0.6,1.3c-0.3-0.3-0.9-0.5-1.6-0.5c-0.7,0-1.3,0.3-1.8,0.9c-0.5,0.6-0.7,1.4-0.7,2.3
		c0,0.9,0.2,1.7,0.6,2.2c0.4,0.5,1,0.8,1.7,0.8c0.8,0,1.4-0.3,1.9-0.9l0.7,1.2c-0.6,0.7-1.5,1-2.7,1c-1.2,0-2.1-0.4-2.8-1.2
		c-0.7-0.8-1-1.9-1-3.2c0-1.3,0.4-2.3,1.1-3.2c0.7-0.9,1.7-1.3,2.8-1.3C60.5,26.8,61.3,27,61.9,27.4z"/>
	<path fill="#FFFFFF" d="M63.4,35.6v-8.6h1.5v8.6H63.4z"/>
	<path fill="#FFFFFF" d="M66.3,31.2c0-1.2,0.3-2.3,1-3.1c0.7-0.8,1.6-1.3,2.7-1.3c1.2,0,2.2,0.4,2.8,1.2c0.7,0.8,1,1.8,1,3.2
		c0,1.4-0.3,2.5-1,3.3c-0.7,0.8-1.7,1.2-2.9,1.2c-1.2,0-2-0.4-2.7-1.2C66.6,33.7,66.3,32.6,66.3,31.2z M67.9,31.2
		c0,1,0.2,1.8,0.5,2.3c0.3,0.6,0.8,0.8,1.5,0.8c0.8,0,1.3-0.3,1.7-0.8c0.4-0.5,0.6-1.3,0.6-2.4c0-2-0.7-3-2.2-3
		c-0.7,0-1.2,0.3-1.6,0.8C68.1,29.5,67.9,30.3,67.9,31.2z"/>
	<path fill="#FFFFFF" d="M80.9,35.7l-4.2-5.4v5.3h-1.5v-8.6h0.7l4.1,5.2v-5.2h1.5v8.7H80.9z"/>
	<path fill="#FFFFFF" d="M88.3,35.6l-0.6-1.7h-3l-0.6,1.7h-1.7l3.4-8.7h0.7l3.5,8.7H88.3z M86.2,29.5l-1,3.2h2.1L86.2,29.5z"/>
	<path fill="#FFFFFF" d="M90.9,35.6v-8.6h1.5v7.3h3.9v1.4H90.9z"/>
</g>
</svg>
