<?xml version="1.0" encoding="utf-8"?>
<!-- Generator: Adobe Illustrator 18.1.0, SVG Export Plug-In . SVG Version: 6.00 Build 0)  -->
<!DOCTYPE svg PUBLIC "-//W3C//DTD SVG 1.1//EN" "http://www.w3.org/Graphics/SVG/1.1/DTD/svg11.dtd">
<svg version="1.1" id="Capa_1" xmlns="http://www.w3.org/2000/svg" xmlns:xlink="http://www.w3.org/1999/xlink" x="0px" y="0px"
	 viewBox="-245 399.7 104.3 43.2" enable-background="new -245 399.7 104.3 43.2" xml:space="preserve">
<g>
	<ellipse fill="#4470B4" cx="-192.8" cy="421.3" rx="52.2" ry="21.6"/>
</g>
<rect x="-238.1" y="403.9" fill="none" width="92.3" height="36.4"/>
<g enable-background="new    ">
	<path fill="#FFFFFF" d="M-211.3,411.7h-1.3l-0.8-4l-1.6,4.1h-0.5l-1.6-4.1l-0.8,4h-1.3l1.6-7.5h0.7l1.7,5l1.6-5h0.7L-211.3,411.7z"
		/>
	<path fill="#FFFFFF" d="M-206,411.7l-0.6-1.5h-2.6l-0.5,1.5h-1.5l3.1-7.6h0.6l3.1,7.6H-206z M-207.9,406.4l-0.9,2.8h1.9
		L-207.9,406.4z"/>
	<path fill="#FFFFFF" d="M-199.5,411.7l-1.8-2.7l-1.7,2.7h-1.4l2.3-3.9l-2.1-3.6l1.4,0l1.6,2.5l1.7-2.5h1.4l-2.4,3.6l2.6,3.9H-199.5
		z"/>
	<path fill="#FFFFFF" d="M-197.2,411.7v-7.5h1.4v7.5H-197.2z"/>
	<path fill="#FFFFFF" d="M-187,411.7h-1.3l-0.8-4l-1.6,4.1h-0.5l-1.6-4.1l-0.8,4h-1.3l1.6-7.5h0.7l1.7,5l1.6-5h0.7L-187,411.7z"/>
	<path fill="#FFFFFF" d="M-186.1,411.7v-7.5h1.4v7.5H-186.1z"/>
	<path fill="#FFFFFF" d="M-183.5,411.7v-0.4l3.2-5.9h-3.2v-1.2h5v0.4l-3.2,5.9h3.3v1.2H-183.5z"/>
	<path fill="#FFFFFF" d="M-172.6,411.7l-0.6-1.5h-2.6l-0.5,1.5h-1.5l3.1-7.6h0.6l3.1,7.6H-172.6z M-174.5,406.4l-0.9,2.8h1.9
		L-174.5,406.4z"/>
	<path fill="#FFFFFF" d="M-166,411.7l-2.1-3.1c-0.2,0-0.5,0-0.9,0v3.1h-1.4v-7.5c0.1,0,0.4,0,0.9,0c0.5,0,0.9,0,1.2,0
		c2,0,2.9,0.7,2.9,2.2c0,0.4-0.1,0.8-0.4,1.2c-0.3,0.4-0.6,0.6-1,0.8l2.3,3.4H-166z M-168.9,405.4v2.1c0.3,0,0.4,0,0.6,0
		c0.6,0,1-0.1,1.3-0.2c0.3-0.2,0.4-0.5,0.4-0.9c0-0.4-0.1-0.6-0.4-0.8c-0.3-0.1-0.7-0.2-1.3-0.2
		C-168.6,405.3-168.7,405.3-168.9,405.4z"/>
</g>
<g enable-background="new    ">
	<path fill="#FFFFFF" d="M-222.9,424.3l-2.1-3.1c-0.2,0-0.5,0-0.9,0v3.1h-1.4v-7.5c0.1,0,0.4,0,0.9,0s0.9,0,1.2,0
		c2,0,2.9,0.7,2.9,2.2c0,0.4-0.1,0.8-0.4,1.2c-0.3,0.4-0.6,0.6-1,0.8l2.3,3.4H-222.9z M-225.8,418v2.1c0.3,0,0.4,0,0.6,0
		c0.6,0,1-0.1,1.3-0.2s0.4-0.5,0.4-0.9c0-0.4-0.1-0.6-0.4-0.8c-0.3-0.1-0.7-0.2-1.3-0.2C-225.5,417.9-225.7,417.9-225.8,418z"/>
	<path fill="#FFFFFF" d="M-219.3,418v1.8h2.5v1.1h-2.5v2.2h3.5v1.2h-4.9v-7.5h4.9v1.2H-219.3z"/>
	<path fill="#FFFFFF" d="M-209.5,424.4l-3.7-4.7v4.6h-1.3v-7.5h0.7l3.6,4.5v-4.5h1.3v7.6H-209.5z"/>
	<path fill="#FFFFFF" d="M-204.2,418v6.3h-1.4V418h-2.5v-1.2h6.4v1.2H-204.2z"/>
	<path fill="#FFFFFF" d="M-197.3,424.3l-0.6-1.5h-2.6l-0.5,1.5h-1.5l3.1-7.6h0.6l3.1,7.6H-197.3z M-199.2,419l-0.9,2.8h1.9
		L-199.2,419z"/>
	<path fill="#FFFFFF" d="M-192.6,424.3h-2.4v-7.5c1,0,1.8-0.1,2.2-0.1c0.8,0,1.4,0.2,1.9,0.5c0.5,0.3,0.7,0.8,0.7,1.4
		c0,0.6-0.3,1.1-1,1.4c1,0.3,1.4,1,1.4,2c0,0.7-0.3,1.2-0.8,1.6S-191.8,424.3-192.6,424.3z M-193.6,417.9v1.8c0.2,0,0.4,0,0.7,0
		c0.9,0,1.3-0.3,1.3-1c0-0.6-0.4-0.9-1.2-0.9C-193,417.9-193.3,417.9-193.6,417.9z M-193.6,420.7v2.5c0.3,0,0.5,0,0.7,0
		c0.6,0,1.1-0.1,1.3-0.3c0.3-0.2,0.4-0.5,0.4-1c0-0.4-0.1-0.7-0.4-0.9s-0.7-0.3-1.3-0.3C-193,420.7-193.3,420.7-193.6,420.7z"/>
	<path fill="#FFFFFF" d="M-188.5,424.3v-7.5h1.4v7.5H-188.5z"/>
	<path fill="#FFFFFF" d="M-185.6,424.3v-7.5h1.4v6.3h3.5v1.2H-185.6z"/>
	<path fill="#FFFFFF" d="M-179.6,424.3v-7.5h1.4v7.5H-179.6z"/>
	<path fill="#FFFFFF" d="M-174.9,424.3h-1.7v-7.5c1.1,0,1.8-0.1,2.1-0.1c1.1,0,2,0.3,2.7,1s1,1.5,1,2.5
		C-170.9,423-172.2,424.3-174.9,424.3z M-175.2,418v5.1c0.2,0,0.5,0,0.7,0c0.7,0,1.2-0.2,1.6-0.7c0.4-0.5,0.6-1.2,0.6-2
		c0-1.6-0.8-2.4-2.3-2.4C-174.8,417.9-175,418-175.2,418z"/>
	<path fill="#FFFFFF" d="M-165.2,424.3l-0.6-1.5h-2.6l-0.5,1.5h-1.5l3.1-7.6h0.6l3.1,7.6H-165.2z M-167.1,419l-0.9,2.8h1.8
		L-167.1,419z"/>
	<path fill="#FFFFFF" d="M-161.2,424.3h-1.7v-7.5c1.1,0,1.8-0.1,2.1-0.1c1.1,0,2,0.3,2.7,1c0.7,0.6,1,1.5,1,2.5
		C-157.2,423-158.5,424.3-161.2,424.3z M-161.5,418v5.1c0.2,0,0.5,0,0.7,0c0.7,0,1.2-0.2,1.6-0.7c0.4-0.5,0.6-1.2,0.6-2
		c0-1.6-0.8-2.4-2.3-2.4C-161,417.9-161.2,418-161.5,418z"/>
</g>
<g enable-background="new    ">
	<path fill="#FFFFFF" d="M-209.2,436.4l0.5-1.2c0.5,0.4,1.1,0.6,1.6,0.6c0.8,0,1.2-0.3,1.2-0.8c0-0.3-0.1-0.5-0.3-0.7
		c-0.2-0.2-0.6-0.5-1.2-0.8c-0.6-0.3-1-0.5-1.2-0.7c-0.2-0.2-0.4-0.4-0.5-0.7c-0.1-0.3-0.2-0.5-0.2-0.8c0-0.6,0.2-1.1,0.7-1.4
		c0.4-0.4,1-0.6,1.7-0.6c0.9,0,1.5,0.2,2,0.5l-0.4,1.1c-0.5-0.3-1-0.5-1.5-0.5c-0.3,0-0.6,0.1-0.7,0.2c-0.2,0.2-0.3,0.4-0.3,0.6
		c0,0.4,0.5,0.9,1.5,1.3c0.5,0.2,0.9,0.5,1.1,0.7c0.2,0.2,0.4,0.4,0.5,0.7c0.1,0.3,0.2,0.6,0.2,0.9c0,0.6-0.2,1.1-0.7,1.5
		c-0.5,0.4-1.2,0.6-2,0.6C-208,436.9-208.6,436.8-209.2,436.4z"/>
	<path fill="#FFFFFF" d="M-203.7,433c0-1.1,0.3-2,0.9-2.7c0.6-0.7,1.4-1.1,2.4-1.1c1.1,0,2,0.3,2.5,1c0.6,0.7,0.9,1.6,0.9,2.8
		s-0.3,2.2-0.9,2.9c-0.6,0.7-1.5,1.1-2.6,1.1c-1,0-1.8-0.4-2.4-1.1C-203.4,435.2-203.7,434.2-203.7,433z M-202.3,433
		c0,0.9,0.2,1.6,0.5,2c0.3,0.5,0.7,0.7,1.3,0.7c0.7,0,1.2-0.2,1.6-0.7s0.5-1.2,0.5-2c0-1.8-0.7-2.6-2-2.6c-0.6,0-1.1,0.2-1.4,0.7
		C-202.1,431.6-202.3,432.2-202.3,433z"/>
	<path fill="#FFFFFF" d="M-190.5,429.7l-0.6,1.1c-0.3-0.3-0.8-0.4-1.5-0.4c-0.6,0-1.2,0.3-1.6,0.8c-0.4,0.5-0.6,1.2-0.6,2
		s0.2,1.4,0.6,1.9s0.9,0.7,1.5,0.7c0.7,0,1.3-0.3,1.7-0.8l0.6,1.1c-0.6,0.6-1.4,0.9-2.4,0.9c-1.1,0-1.9-0.3-2.5-1
		c-0.6-0.7-0.9-1.6-0.9-2.8c0-1.1,0.3-2,1-2.8c0.7-0.7,1.5-1.1,2.5-1.1C-191.7,429.2-191,429.4-190.5,429.7z"/>
	<path fill="#FFFFFF" d="M-189.1,436.8v-7.5h1.4v7.5H-189.1z"/>
	<path fill="#FFFFFF" d="M-181.7,436.8l-0.6-1.5h-2.6l-0.5,1.5h-1.5l3.1-7.6h0.6l3.1,7.6H-181.7z M-183.6,431.5l-0.9,2.8h1.9
		L-183.6,431.5z"/>
	<path fill="#FFFFFF" d="M-179.4,436.8v-7.5h1.4v6.3h3.5v1.2H-179.4z"/>
</g>
</svg>
