<?xml version="1.0" encoding="utf-8"?>
<!-- Generator: Adobe Illustrator 18.1.0, SVG Export Plug-In . SVG Version: 6.00 Build 0)  -->
<!DOCTYPE svg PUBLIC "-//W3C//DTD SVG 1.1//EN" "http://www.w3.org/Graphics/SVG/1.1/DTD/svg11.dtd">
<svg version="1.1" id="Capa_1" xmlns="http://www.w3.org/2000/svg" xmlns:xlink="http://www.w3.org/1999/xlink" x="0px" y="0px"
	 viewBox="-245 399.6 104.3 43.3" enable-background="new -245 399.6 104.3 43.3" xml:space="preserve">
<g>
	<ellipse fill="#285AA3" cx="-192.8" cy="421.2" rx="52.2" ry="21.6"/>
</g>
<rect x="-240.4" y="410.4" fill="none" width="92.3" height="27.6"/>
<g enable-background="new    ">
	<path fill="#FFFFFF" d="M-210.5,418.2l-2.1-3.1c-0.2,0-0.5,0-0.9,0v3.1h-1.4v-7.5c0.1,0,0.4,0,0.9,0s0.9,0,1.2,0
		c2,0,2.9,0.7,2.9,2.2c0,0.4-0.1,0.8-0.4,1.2c-0.3,0.4-0.6,0.6-1,0.8l2.3,3.4H-210.5z M-213.4,411.9v2.1c0.3,0,0.4,0,0.6,0
		c0.6,0,1-0.1,1.3-0.2s0.4-0.5,0.4-0.9c0-0.4-0.1-0.6-0.4-0.8c-0.3-0.1-0.7-0.2-1.3-0.2C-213.1,411.9-213.2,411.9-213.4,411.9z"/>
	<path fill="#FFFFFF" d="M-203.3,415.9h-4c0,0.4,0.2,0.8,0.5,1c0.3,0.2,0.7,0.4,1.1,0.4c0.6,0,1.1-0.2,1.4-0.5l0.5,1
		c-0.5,0.4-1.2,0.5-2.1,0.5c-0.9,0-1.5-0.2-2-0.7c-0.5-0.5-0.7-1.2-0.7-2c0-0.9,0.3-1.6,0.8-2.1c0.5-0.5,1.2-0.8,2-0.8
		c0.8,0,1.5,0.2,2,0.7c0.5,0.5,0.7,1.1,0.7,1.8C-203.2,415.3-203.2,415.6-203.3,415.9z M-207.3,414.9h2.8c-0.1-0.8-0.5-1.2-1.4-1.2
		C-206.6,413.7-207.1,414.1-207.3,414.9z"/>
	<path fill="#FFFFFF" d="M-197.7,413.2l-0.6,1c-0.3-0.3-0.7-0.4-1.2-0.4c-0.5,0-0.9,0.2-1.2,0.5c-0.3,0.3-0.4,0.8-0.4,1.3
		c0,1.1,0.6,1.7,1.7,1.7c0.5,0,0.9-0.2,1.3-0.5l0.5,1c-0.4,0.2-0.7,0.4-1,0.4s-0.6,0.1-1,0.1c-0.9,0-1.6-0.2-2.1-0.7
		c-0.5-0.5-0.8-1.2-0.8-2.1c0-0.9,0.3-1.6,0.8-2.1c0.6-0.5,1.3-0.8,2.3-0.8C-198.8,412.6-198.2,412.8-197.7,413.2z"/>
	<path fill="#FFFFFF" d="M-193.5,417.7c-0.1,0.2-0.3,0.3-0.6,0.5c-0.3,0.1-0.6,0.2-0.9,0.2c-0.6,0-1.1-0.1-1.4-0.4s-0.5-0.7-0.5-1.3
		c0-0.6,0.2-1.1,0.7-1.5s1.2-0.5,2.1-0.5c0.2,0,0.3,0,0.5,0.1c0-0.6-0.4-1-1.3-1c-0.5,0-0.9,0.1-1.2,0.2l-0.3-1
		c0.5-0.2,1-0.3,1.6-0.3c0.9,0,1.5,0.2,1.9,0.6c0.4,0.4,0.6,1.1,0.6,2.2v1.2c0,0.7,0.2,1.2,0.5,1.4c-0.1,0.2-0.2,0.3-0.4,0.3
		c-0.1,0-0.3,0.1-0.5,0.1c-0.2,0-0.4-0.1-0.5-0.2C-193.3,418-193.4,417.8-193.5,417.7z M-193.6,415.6c-0.2,0-0.4-0.1-0.5-0.1
		c-1,0-1.6,0.3-1.6,1c0,0.5,0.3,0.7,0.9,0.7c0.8,0,1.2-0.4,1.2-1.2V415.6z"/>
	<path fill="#FFFFFF" d="M-187.2,418.2v-0.5c-0.2,0.2-0.4,0.3-0.8,0.4c-0.3,0.1-0.6,0.2-0.9,0.2c-1.3,0-2-0.7-2-2v-3.6h1.3v3.5
		c0,0.7,0.3,1.1,1,1.1c0.3,0,0.6-0.1,0.8-0.2s0.4-0.3,0.5-0.5v-3.8h1.3v5.5H-187.2z"/>
	<path fill="#FFFFFF" d="M-180.9,418.2v-0.3c-0.1,0.1-0.3,0.2-0.6,0.3s-0.5,0.1-0.8,0.1c-0.8,0-1.4-0.2-1.9-0.7
		c-0.5-0.5-0.7-1.2-0.7-2s0.3-1.6,0.8-2.1c0.5-0.5,1.2-0.8,1.9-0.8c0.4,0,0.8,0.1,1.2,0.3v-2.2l1.3-0.3v7.8H-180.9z M-180.9,414.1
		c-0.3-0.2-0.6-0.3-0.9-0.3c-0.5,0-0.9,0.2-1.2,0.5c-0.3,0.3-0.4,0.8-0.4,1.3c0,1.1,0.6,1.7,1.7,1.7c0.1,0,0.3,0,0.5-0.1
		c0.2-0.1,0.3-0.1,0.4-0.2V414.1z"/>
	<path fill="#FFFFFF" d="M-178.6,415.5c0-0.8,0.2-1.5,0.7-2c0.5-0.5,1.2-0.8,2-0.8c0.9,0,1.5,0.3,2,0.8c0.5,0.5,0.7,1.2,0.7,2.1
		c0,0.9-0.2,1.6-0.7,2.1c-0.5,0.5-1.1,0.8-2,0.8c-0.9,0-1.5-0.3-2-0.8S-178.6,416.3-178.6,415.5z M-177.3,415.5
		c0,1.2,0.4,1.8,1.3,1.8c0.4,0,0.7-0.2,1-0.5c0.2-0.3,0.4-0.8,0.4-1.3c0-1.2-0.4-1.8-1.3-1.8c-0.4,0-0.7,0.2-1,0.5
		S-177.3,414.9-177.3,415.5z"/>
</g>
<g enable-background="new    ">
	<path fill="#FFFFFF" d="M-217.6,427c0-1.1,0.3-2,0.9-2.7c0.6-0.7,1.4-1.1,2.4-1.1c1.1,0,2,0.3,2.5,1c0.6,0.7,0.9,1.6,0.9,2.8
		s-0.3,2.2-0.9,2.9c-0.6,0.7-1.5,1.1-2.6,1.1c-1,0-1.8-0.4-2.4-1.1C-217.4,429.2-217.6,428.2-217.6,427z M-216.2,427
		c0,0.9,0.2,1.6,0.5,2c0.3,0.5,0.7,0.7,1.3,0.7c0.7,0,1.2-0.2,1.6-0.7s0.5-1.2,0.5-2c0-1.8-0.7-2.6-2-2.6c-0.6,0-1.1,0.2-1.4,0.7
		C-216.1,425.6-216.2,426.2-216.2,427z"/>
	<path fill="#FFFFFF" d="M-208.6,430.7v2.3h-1.3v-7.6h1.3v0.4c0.3-0.3,0.7-0.5,1.2-0.5c1.8,0,2.7,1,2.7,2.9c0,0.9-0.2,1.6-0.7,2.1
		c-0.5,0.5-1.2,0.7-2,0.7C-207.9,430.9-208.2,430.8-208.6,430.7z M-208.6,426.7v2.9c0.2,0.2,0.5,0.3,0.8,0.3c0.6,0,1-0.1,1.3-0.4
		c0.3-0.3,0.4-0.7,0.4-1.3c0-0.6-0.1-1.1-0.4-1.4c-0.3-0.3-0.7-0.4-1.3-0.4C-208,426.3-208.3,426.4-208.6,426.7z"/>
	<path fill="#FFFFFF" d="M-203.9,428.1c0-0.8,0.2-1.5,0.7-2c0.5-0.5,1.2-0.8,2-0.8c0.9,0,1.5,0.3,2,0.8s0.7,1.2,0.7,2.1
		c0,0.9-0.2,1.6-0.7,2.1c-0.5,0.5-1.1,0.8-2,0.8c-0.9,0-1.5-0.3-2-0.8S-203.9,428.9-203.9,428.1z M-202.5,428.1
		c0,1.2,0.4,1.8,1.3,1.8c0.4,0,0.7-0.2,1-0.5c0.2-0.3,0.4-0.8,0.4-1.3c0-1.2-0.4-1.8-1.3-1.8c-0.4,0-0.7,0.2-1,0.5
		C-202.4,427.1-202.5,427.5-202.5,428.1z"/>
	<path fill="#FFFFFF" d="M-194.2,426.5c-0.2-0.1-0.5-0.2-0.8-0.2c-0.3,0-0.6,0.1-0.8,0.4c-0.2,0.3-0.4,0.6-0.4,1v3.1h-1.3v-5.5h1.3
		v0.5c0.4-0.4,0.9-0.6,1.5-0.6c0.4,0,0.8,0.1,1,0.2L-194.2,426.5z"/>
	<path fill="#FFFFFF" d="M-192.6,426.4h-0.7v-1h0.7v-1.1l1.3-0.5v1.6h1.5v1h-1.5v2.4c0,0.4,0.1,0.7,0.2,0.8c0.1,0.2,0.3,0.2,0.7,0.2
		c0.3,0,0.6-0.1,0.9-0.3v1.2c-0.3,0.1-0.7,0.2-1.3,0.2c-0.6,0-1-0.2-1.3-0.5c-0.3-0.3-0.5-0.7-0.5-1.3V426.4z"/>
	<path fill="#FFFFFF" d="M-184.9,430.8v-0.5c-0.2,0.2-0.4,0.3-0.8,0.4c-0.3,0.1-0.6,0.2-0.9,0.2c-1.3,0-2-0.7-2-2v-3.6h1.3v3.5
		c0,0.7,0.3,1.1,1,1.1c0.3,0,0.6-0.1,0.8-0.2c0.3-0.2,0.4-0.3,0.5-0.5v-3.8h1.3v5.5H-184.9z"/>
	<path fill="#FFFFFF" d="M-178.6,430.8v-3.2c0-0.5-0.1-0.8-0.3-1c-0.2-0.2-0.5-0.3-0.9-0.3c-0.2,0-0.4,0.1-0.6,0.2
		c-0.2,0.1-0.4,0.2-0.5,0.4v4h-1.3v-5.5h0.9l0.2,0.5c0.4-0.4,0.9-0.6,1.6-0.6c0.7,0,1.2,0.2,1.6,0.6c0.4,0.4,0.6,0.9,0.6,1.6v3.4
		H-178.6z"/>
	<path fill="#FFFFFF" d="M-176.2,428.1c0-0.8,0.2-1.5,0.7-2c0.5-0.5,1.2-0.8,2-0.8c0.9,0,1.5,0.3,2,0.8s0.7,1.2,0.7,2.1
		c0,0.9-0.2,1.6-0.7,2.1c-0.5,0.5-1.1,0.8-2,0.8c-0.9,0-1.5-0.3-2-0.8C-176,429.6-176.2,428.9-176.2,428.1z M-174.8,428.1
		c0,1.2,0.4,1.8,1.3,1.8c0.4,0,0.7-0.2,1-0.5c0.2-0.3,0.4-0.8,0.4-1.3c0-1.2-0.4-1.8-1.3-1.8c-0.4,0-0.7,0.2-1,0.5
		C-174.7,427.1-174.8,427.5-174.8,428.1z"/>
</g>
</svg>
