<!-- Generator: Adobe Illustrator 18.1.0, SVG Export Plug-In  -->
<svg version="1.1"
	 xmlns="http://www.w3.org/2000/svg" xmlns:xlink="http://www.w3.org/1999/xlink" xmlns:a="http://ns.adobe.com/AdobeSVGViewerExtensions/3.0/"
	 x="0px" y="0px" width="135.6px" height="57.8px" viewBox="0 0 135.6 57.8" enable-background="new 0 0 135.6 57.8"
	 xml:space="preserve">
<defs>
</defs>
<g>
	<ellipse fill="#0059A7" cx="67.8" cy="28.9" rx="67.8" ry="28.9"/>
</g>
<g>
	<path fill="#FFFFFF" d="M45.9,15.8l-2.6-4c-0.3,0-0.6,0-1.1,0v4.1h-1.8V6c0.1,0,0.5,0,1.1-0.1c0.7,0,1.2-0.1,1.6-0.1
		c2.5,0,3.7,1,3.7,2.9c0,0.6-0.2,1.1-0.5,1.6c-0.3,0.5-0.8,0.8-1.3,1l2.9,4.4H45.9z M42.2,7.6v2.7c0.3,0,0.6,0,0.7,0
		c0.7,0,1.3-0.1,1.6-0.3C44.8,9.8,45,9.4,45,8.8c0-0.5-0.2-0.8-0.5-1c-0.4-0.2-0.9-0.3-1.7-0.3C42.6,7.5,42.4,7.5,42.2,7.6z"/>
	<path fill="#FFFFFF" d="M55,12.8h-5.1c0,0.6,0.2,1,0.6,1.3c0.4,0.3,0.8,0.5,1.5,0.5c0.8,0,1.3-0.2,1.7-0.6l0.6,1.3
		c-0.6,0.5-1.5,0.7-2.6,0.7c-1.1,0-2-0.3-2.6-1c-0.6-0.6-1-1.5-1-2.7c0-1.1,0.3-2,1-2.7c0.7-0.7,1.5-1,2.5-1c1,0,1.9,0.3,2.5,0.9
		c0.6,0.6,0.9,1.4,0.9,2.4C55.1,12,55.1,12.3,55,12.8z M50,11.5h3.5c-0.1-1-0.7-1.6-1.7-1.6C50.8,9.9,50.2,10.5,50,11.5z"/>
	<path fill="#FFFFFF" d="M56.8,6l1.7-0.4v8c0,0.9,0.3,1.4,0.8,1.6C59,15.7,58.5,16,57.9,16c-0.8,0-1.1-0.5-1.1-1.6V6z"/>
	<path fill="#FFFFFF" d="M64.5,15.1c-0.2,0.2-0.4,0.5-0.8,0.6c-0.4,0.2-0.8,0.2-1.2,0.2c-0.8,0-1.4-0.2-1.8-0.6
		C60.3,15,60,14.4,60,13.7c0-0.8,0.3-1.5,0.9-1.9c0.6-0.5,1.5-0.7,2.6-0.7c0.2,0,0.4,0,0.7,0.1c0-0.8-0.5-1.3-1.6-1.3
		c-0.6,0-1.2,0.1-1.6,0.3L60.8,9c0.6-0.3,1.3-0.4,2-0.4c1.1,0,1.9,0.2,2.4,0.7c0.5,0.5,0.8,1.4,0.8,2.8v1.5c0,1,0.2,1.6,0.6,1.8
		c-0.1,0.2-0.3,0.4-0.5,0.4c-0.2,0.1-0.4,0.1-0.6,0.1c-0.2,0-0.5-0.1-0.6-0.3C64.7,15.5,64.6,15.3,64.5,15.1z M64.3,12.5
		c-0.3-0.1-0.5-0.1-0.6-0.1c-1.3,0-2,0.4-2,1.3c0,0.6,0.4,1,1.1,1c1,0,1.5-0.5,1.5-1.5V12.5z"/>
	<path fill="#FFFFFF" d="M73.4,9.2l-0.7,1.2c-0.4-0.4-0.9-0.6-1.6-0.6c-0.6,0-1.1,0.2-1.5,0.6c-0.4,0.4-0.5,1-0.5,1.7
		c0,1.5,0.7,2.3,2.1,2.3c0.6,0,1.2-0.2,1.6-0.6l0.6,1.3c-0.5,0.3-0.9,0.5-1.3,0.6c-0.4,0.1-0.8,0.1-1.3,0.1c-1.1,0-2-0.3-2.6-1
		c-0.6-0.6-1-1.5-1-2.7c0-1.1,0.3-2,1-2.7c0.7-0.7,1.7-1,2.9-1C72.1,8.5,72.8,8.8,73.4,9.2z"/>
	<path fill="#FFFFFF" d="M75.2,15.8V10h-0.9V8.7h2.6v7.1H75.2z M76.1,5.9c0.3,0,0.5,0.1,0.7,0.3c0.2,0.2,0.3,0.4,0.3,0.7
		c0,0.3-0.1,0.5-0.3,0.7c-0.2,0.2-0.4,0.3-0.7,0.3c-0.3,0-0.5-0.1-0.7-0.3c-0.2-0.2-0.3-0.4-0.3-0.7c0-0.3,0.1-0.5,0.3-0.7
		C75.6,6,75.8,5.9,76.1,5.9z"/>
	<path fill="#FFFFFF" d="M78.4,12.2c0-1.1,0.3-2,0.9-2.7c0.6-0.7,1.5-1,2.5-1c1.1,0,1.9,0.3,2.5,1c0.6,0.7,0.9,1.6,0.9,2.7
		c0,1.1-0.3,2-0.9,2.7c-0.6,0.7-1.5,1-2.5,1c-1.1,0-1.9-0.3-2.5-1C78.7,14.3,78.4,13.4,78.4,12.2z M80.1,12.2c0,1.6,0.6,2.4,1.7,2.4
		c0.5,0,0.9-0.2,1.2-0.6c0.3-0.4,0.5-1,0.5-1.7c0-1.6-0.6-2.3-1.7-2.3c-0.5,0-0.9,0.2-1.2,0.6C80.3,10.9,80.1,11.5,80.1,12.2z
		 M83.4,5.8l-1.5,2h-1.3l1.1-2H83.4z"/>
	<path fill="#FFFFFF" d="M91.2,15.8v-4.1c0-0.6-0.1-1.1-0.4-1.3c-0.2-0.3-0.6-0.4-1.1-0.4c-0.2,0-0.5,0.1-0.8,0.2
		c-0.3,0.1-0.5,0.3-0.7,0.5v5.2h-1.7V8.7h1.2l0.3,0.7c0.5-0.5,1.1-0.8,2-0.8c0.8,0,1.5,0.3,2,0.8c0.5,0.5,0.7,1.2,0.7,2.1v4.4H91.2z
		"/>
	<path fill="#FFFFFF" d="M29.4,31.5c-0.2,0.2-0.4,0.5-0.8,0.6c-0.4,0.2-0.8,0.2-1.2,0.2c-0.8,0-1.4-0.2-1.8-0.6
		c-0.4-0.4-0.7-0.9-0.7-1.6c0-0.8,0.3-1.5,0.9-1.9c0.6-0.5,1.5-0.7,2.6-0.7c0.2,0,0.4,0,0.7,0.1c0-0.8-0.5-1.3-1.6-1.3
		c-0.6,0-1.2,0.1-1.6,0.3l-0.4-1.3c0.6-0.3,1.3-0.4,2-0.4c1.1,0,1.9,0.2,2.4,0.7s0.8,1.4,0.8,2.8V30c0,1,0.2,1.6,0.6,1.8
		c-0.1,0.2-0.3,0.4-0.5,0.4c-0.2,0.1-0.4,0.1-0.6,0.1c-0.2,0-0.5-0.1-0.6-0.3C29.6,31.9,29.5,31.7,29.4,31.5z M29.3,28.9
		c-0.3-0.1-0.5-0.1-0.6-0.1c-1.3,0-2,0.4-2,1.3c0,0.6,0.4,1,1.1,1c1,0,1.5-0.5,1.5-1.5V28.9z"/>
	<path fill="#FFFFFF" d="M41,32.2v-4.5c0-0.9-0.4-1.4-1.3-1.4c-0.2,0-0.5,0.1-0.7,0.2c-0.2,0.1-0.4,0.3-0.5,0.5v5.2h-1.7v-4.7
		c0-0.4-0.1-0.6-0.3-0.8c-0.2-0.2-0.5-0.3-0.9-0.3c-0.2,0-0.4,0.1-0.7,0.2c-0.2,0.2-0.4,0.3-0.5,0.5v5.1h-1.7v-7.2h1.1l0.3,0.6
		c0.5-0.5,1.1-0.8,1.8-0.8c0.9,0,1.7,0.3,2.1,0.8c0.2-0.2,0.5-0.4,0.9-0.6c0.4-0.1,0.7-0.2,1.1-0.2c0.8,0,1.4,0.2,1.9,0.7
		c0.4,0.5,0.7,1.1,0.7,1.9v4.7H41z"/>
	<path fill="#FFFFFF" d="M44.9,32.2v-5.8H44v-1.4h2.6v7.2H44.9z M45.8,22.3c0.3,0,0.5,0.1,0.7,0.3c0.2,0.2,0.3,0.4,0.3,0.7
		c0,0.3-0.1,0.5-0.3,0.7c-0.2,0.2-0.4,0.3-0.7,0.3c-0.3,0-0.5-0.1-0.7-0.3c-0.2-0.2-0.3-0.4-0.3-0.7c0-0.3,0.1-0.5,0.3-0.7
		C45.3,22.4,45.5,22.3,45.8,22.3z"/>
	<path fill="#FFFFFF" d="M48,34.1l1.1-1.3c0.6,0.5,1.2,0.8,1.9,0.8c0.5,0,0.9-0.1,1.2-0.2c0.3-0.1,0.5-0.3,0.5-0.6
		c0-0.4-0.3-0.6-1-0.6c-0.2,0-0.5,0-0.8,0.1c-0.4,0-0.6,0.1-0.8,0.1c-1.1,0-1.7-0.4-1.7-1.2c0-0.2,0.1-0.5,0.3-0.7
		c0.2-0.2,0.4-0.4,0.7-0.5c-0.8-0.5-1.2-1.3-1.2-2.2c0-0.8,0.3-1.4,0.8-1.9c0.6-0.5,1.3-0.8,2.1-0.8c0.6,0,1.2,0.1,1.6,0.4l0.7-0.8
		l1.2,1l-0.8,0.6c0.3,0.4,0.4,0.9,0.4,1.5c0,0.8-0.2,1.5-0.7,2c-0.5,0.5-1.1,0.7-1.9,0.7c-0.1,0-0.3,0-0.5,0l-0.3,0
		c0,0-0.2,0-0.4,0.1c-0.2,0.1-0.3,0.2-0.3,0.3c0,0.2,0.2,0.3,0.5,0.3c0.1,0,0.4,0,0.7-0.1c0.3-0.1,0.6-0.1,0.8-0.1
		c1.6,0,2.4,0.7,2.4,2c0,0.7-0.3,1.3-1,1.7C52.7,34.8,51.9,35,51,35C49.9,35,48.9,34.7,48,34.1z M49.7,27.6c0,0.4,0.1,0.8,0.4,1
		c0.2,0.3,0.5,0.4,0.9,0.4c0.4,0,0.7-0.1,0.9-0.4c0.2-0.2,0.3-0.6,0.3-1c0-0.4-0.1-0.7-0.3-0.9c-0.2-0.3-0.5-0.4-0.9-0.4
		c-0.4,0-0.7,0.1-0.9,0.4C49.8,26.9,49.7,27.2,49.7,27.6z"/>
	<path fill="#FFFFFF" d="M59.4,31.5c-0.2,0.2-0.4,0.5-0.8,0.6c-0.4,0.2-0.8,0.2-1.2,0.2c-0.8,0-1.4-0.2-1.8-0.6
		c-0.4-0.4-0.7-0.9-0.7-1.6c0-0.8,0.3-1.5,0.9-1.9c0.6-0.5,1.5-0.7,2.6-0.7c0.2,0,0.4,0,0.7,0.1c0-0.8-0.5-1.3-1.6-1.3
		c-0.6,0-1.2,0.1-1.6,0.3l-0.4-1.3c0.6-0.3,1.3-0.4,2-0.4c1.1,0,1.9,0.2,2.4,0.7c0.5,0.5,0.8,1.4,0.8,2.8V30c0,1,0.2,1.6,0.6,1.8
		c-0.1,0.2-0.3,0.4-0.5,0.4c-0.2,0.1-0.4,0.1-0.6,0.1c-0.2,0-0.5-0.1-0.6-0.3C59.6,31.9,59.5,31.7,59.4,31.5z M59.3,28.9
		c-0.3-0.1-0.5-0.1-0.6-0.1c-1.3,0-2,0.4-2,1.3c0,0.6,0.4,1,1.1,1c1,0,1.5-0.5,1.5-1.5V28.9z"/>
	<path fill="#FFFFFF" d="M63.9,31.8l-0.4,0.5h-0.9v-9.9l1.7-0.4v3.3c0.4-0.3,0.9-0.4,1.5-0.4c1,0,1.9,0.3,2.5,1c0.6,0.7,1,1.5,1,2.5
		c0,1.2-0.3,2.1-1,2.8c-0.6,0.7-1.5,1-2.6,1C64.9,32.4,64.4,32.2,63.9,31.8z M64.3,26.8v3.7c0.2,0.3,0.6,0.4,1,0.4
		c0.8,0,1.4-0.2,1.7-0.6c0.3-0.4,0.5-1,0.5-1.8c0-1.4-0.7-2.2-2.1-2.2C64.9,26.4,64.5,26.5,64.3,26.8z"/>
	<path fill="#FFFFFF" d="M71,22.4l1.7-0.4v8c0,0.9,0.3,1.4,0.8,1.6c-0.3,0.5-0.7,0.7-1.3,0.7c-0.8,0-1.1-0.5-1.1-1.6V22.4z"/>
	<path fill="#FFFFFF" d="M81.1,29.2H76c0,0.6,0.2,1,0.6,1.3c0.4,0.3,0.8,0.5,1.5,0.5c0.8,0,1.3-0.2,1.7-0.6l0.6,1.3
		c-0.6,0.5-1.5,0.7-2.6,0.7c-1.1,0-2-0.3-2.6-1c-0.6-0.6-1-1.5-1-2.7c0-1.1,0.3-2,1-2.7c0.7-0.7,1.5-1,2.5-1c1,0,1.9,0.3,2.5,0.9
		c0.6,0.6,0.9,1.4,0.9,2.4C81.2,28.4,81.2,28.7,81.1,29.2z M76,27.9h3.5c-0.1-1-0.7-1.6-1.7-1.6C76.9,26.3,76.3,26.9,76,27.9z"/>
	<path fill="#FFFFFF" d="M92.3,25.6l-0.7,1.2c-0.4-0.4-0.9-0.6-1.6-0.6c-0.6,0-1.1,0.2-1.5,0.6c-0.4,0.4-0.6,1-0.6,1.7
		c0,1.5,0.7,2.2,2.1,2.2c0.6,0,1.2-0.2,1.6-0.6l0.6,1.3c-0.5,0.3-0.9,0.5-1.3,0.6c-0.4,0.1-0.8,0.1-1.3,0.1c-1.1,0-2-0.3-2.6-1
		c-0.6-0.6-1-1.5-1-2.7c0-1.1,0.3-2,1-2.7c0.7-0.7,1.7-1,2.9-1C90.9,24.9,91.7,25.2,92.3,25.6z"/>
	<path fill="#FFFFFF" d="M93.2,28.6c0-1.1,0.3-2,0.9-2.7c0.6-0.7,1.5-1,2.5-1c1.1,0,1.9,0.3,2.5,1c0.6,0.7,0.9,1.6,0.9,2.7
		c0,1.1-0.3,2-0.9,2.7c-0.6,0.7-1.4,1-2.5,1c-1.1,0-1.9-0.3-2.5-1C93.5,30.7,93.2,29.8,93.2,28.6z M94.9,28.6c0,1.6,0.6,2.4,1.7,2.4
		c0.5,0,0.9-0.2,1.2-0.6c0.3-0.4,0.5-1,0.5-1.7c0-1.6-0.6-2.3-1.7-2.3c-0.5,0-0.9,0.2-1.2,0.6C95.1,27.3,94.9,27.9,94.9,28.6z"/>
	<path fill="#FFFFFF" d="M106,32.2v-4.1c0-0.6-0.1-1.1-0.4-1.3c-0.2-0.3-0.6-0.4-1.1-0.4c-0.2,0-0.5,0.1-0.8,0.2
		c-0.3,0.1-0.5,0.3-0.7,0.5v5.2h-1.7v-7.2h1.2l0.3,0.7c0.5-0.5,1.1-0.8,2-0.8c0.8,0,1.5,0.3,2,0.8c0.5,0.5,0.7,1.2,0.7,2.1v4.4H106z
		"/>
	<path fill="#FFFFFF" d="M31.5,45v3.6h-1.7v-9.8c1.2,0,1.8-0.1,2-0.1c1.5,0,2.7,0.2,3.4,0.7c0.7,0.5,1.1,1.2,1.1,2.2
		c0,2.2-1.3,3.4-4,3.4C32.1,45.1,31.9,45.1,31.5,45z M31.5,40.4v3.1c0.3,0,0.5,0,0.7,0c0.8,0,1.4-0.1,1.7-0.4
		c0.4-0.3,0.5-0.7,0.5-1.3c0-1-0.8-1.5-2.4-1.5C31.9,40.3,31.7,40.3,31.5,40.4z"/>
	<path fill="#FFFFFF" d="M41.8,43c-0.3-0.2-0.6-0.3-1-0.3c-0.4,0-0.7,0.2-1,0.5c-0.3,0.4-0.5,0.8-0.5,1.3v4.1h-1.7v-7.1h1.7v0.7
		c0.5-0.5,1.1-0.8,1.9-0.8c0.6,0,1,0.1,1.3,0.3L41.8,43z"/>
	<path fill="#FFFFFF" d="M49.9,45.6h-5.1c0,0.6,0.2,1,0.6,1.3c0.4,0.3,0.8,0.5,1.5,0.5c0.8,0,1.3-0.2,1.7-0.6l0.6,1.3
		c-0.6,0.5-1.5,0.7-2.6,0.7c-1.1,0-2-0.3-2.6-1c-0.6-0.6-1-1.5-1-2.7c0-1.1,0.3-2,1-2.7c0.7-0.7,1.5-1,2.5-1c1,0,1.9,0.3,2.5,0.9
		c0.6,0.6,0.9,1.4,0.9,2.4C50.1,44.8,50,45.2,49.9,45.6z M44.9,44.3h3.5c-0.1-1-0.7-1.6-1.7-1.6C45.7,42.7,45.1,43.3,44.9,44.3z"/>
	<path fill="#FFFFFF" d="M51,48.2l0.6-1.3c0.5,0.4,1.1,0.6,1.7,0.6c0.7,0,1-0.2,1-0.7c0-0.3-0.1-0.5-0.3-0.7
		c-0.2-0.2-0.6-0.4-1.1-0.6c-1.2-0.5-1.8-1.2-1.8-2.1c0-0.6,0.2-1.1,0.7-1.4c0.5-0.3,1.1-0.5,1.8-0.5c0.7,0,1.4,0.2,2.1,0.5
		l-0.5,1.3c-0.4-0.3-0.9-0.5-1.5-0.5c-0.6,0-0.9,0.2-0.9,0.7c0,0.2,0.1,0.3,0.3,0.5c0.2,0.1,0.6,0.3,1.2,0.6
		c0.6,0.2,1.1,0.5,1.4,0.9c0.3,0.4,0.4,0.8,0.4,1.3c0,0.7-0.2,1.2-0.7,1.6c-0.5,0.4-1.2,0.6-2,0.6c-0.5,0-0.9,0-1.1-0.1
		C51.8,48.6,51.4,48.4,51,48.2z"/>
	<path fill="#FFFFFF" d="M57.6,42.8h-0.8v-1.3h0.8V40l1.7-0.6v2.1h2v1.3h-2V46c0,0.5,0.1,0.9,0.2,1.1c0.2,0.2,0.4,0.3,0.8,0.3
		c0.4,0,0.8-0.1,1.1-0.3v1.5c-0.4,0.1-0.9,0.2-1.7,0.2c-0.7,0-1.3-0.2-1.6-0.6c-0.4-0.4-0.6-1-0.6-1.7V42.8z"/>
	<path fill="#FFFFFF" d="M66.7,47.9c-0.2,0.2-0.4,0.5-0.8,0.6c-0.4,0.2-0.8,0.2-1.2,0.2c-0.8,0-1.4-0.2-1.8-0.6
		c-0.4-0.4-0.7-0.9-0.7-1.6c0-0.8,0.3-1.5,0.9-1.9c0.6-0.5,1.5-0.7,2.6-0.7c0.2,0,0.4,0,0.7,0.1c0-0.8-0.5-1.3-1.6-1.3
		c-0.6,0-1.2,0.1-1.6,0.3L63,41.8c0.6-0.3,1.3-0.4,2-0.4c1.1,0,1.9,0.2,2.4,0.7c0.5,0.5,0.8,1.4,0.8,2.8v1.5c0,1,0.2,1.6,0.6,1.8
		c-0.1,0.2-0.3,0.4-0.5,0.4c-0.2,0.1-0.4,0.1-0.6,0.1c-0.2,0-0.5-0.1-0.6-0.3C66.9,48.3,66.8,48.1,66.7,47.9z M66.5,45.3
		c-0.3-0.1-0.5-0.1-0.6-0.1c-1.3,0-2,0.4-2,1.3c0,0.6,0.4,1,1.1,1c1,0,1.5-0.5,1.5-1.5V45.3z"/>
	<path fill="#FFFFFF" d="M74.6,48.6v-0.4c-0.1,0.2-0.4,0.3-0.7,0.4c-0.3,0.1-0.7,0.2-1,0.2c-1,0-1.8-0.3-2.4-0.9
		c-0.6-0.6-0.9-1.5-0.9-2.6c0-1.1,0.3-2.1,1-2.8c0.7-0.7,1.5-1.1,2.5-1.1c0.5,0,1,0.1,1.5,0.3v-2.9l1.7-0.4v10.2H74.6z M74.6,43.2
		c-0.4-0.3-0.7-0.4-1.1-0.4c-0.7,0-1.2,0.2-1.5,0.6c-0.4,0.4-0.5,1-0.5,1.8c0,1.5,0.7,2.2,2.1,2.2c0.2,0,0.4,0,0.6-0.1
		c0.2-0.1,0.4-0.2,0.5-0.3V43.2z"/>
	<path fill="#FFFFFF" d="M77.5,45c0-1.1,0.3-2,0.9-2.7c0.6-0.7,1.5-1,2.5-1c1.1,0,1.9,0.3,2.5,1c0.6,0.7,0.9,1.6,0.9,2.7
		c0,1.1-0.3,2-0.9,2.7c-0.6,0.7-1.4,1-2.5,1c-1.1,0-1.9-0.3-2.5-1C77.8,47.1,77.5,46.2,77.5,45z M79.2,45c0,1.6,0.6,2.4,1.7,2.4
		c0.5,0,0.9-0.2,1.2-0.6c0.3-0.4,0.5-1,0.5-1.7c0-1.6-0.6-2.3-1.7-2.3c-0.5,0-0.9,0.2-1.2,0.6C79.4,43.7,79.2,44.3,79.2,45z"/>
	<path fill="#FFFFFF" d="M89.8,43c-0.3-0.2-0.6-0.3-1-0.3c-0.4,0-0.7,0.2-1,0.5c-0.3,0.4-0.5,0.8-0.5,1.3v4.1h-1.7v-7.1h1.7v0.7
		c0.5-0.5,1.1-0.8,1.9-0.8c0.6,0,1,0.1,1.3,0.3L89.8,43z"/>
	<path fill="#FFFFFF" d="M97.9,45.6h-5.1c0,0.6,0.2,1,0.6,1.3c0.4,0.3,0.8,0.5,1.5,0.5c0.8,0,1.3-0.2,1.7-0.6l0.6,1.3
		c-0.6,0.5-1.5,0.7-2.6,0.7c-1.1,0-2-0.3-2.6-1c-0.6-0.6-1-1.5-1-2.7c0-1.1,0.3-2,1-2.7c0.7-0.7,1.5-1,2.5-1c1,0,1.9,0.3,2.5,0.9
		c0.6,0.6,0.9,1.4,0.9,2.4C98,44.8,98,45.2,97.9,45.6z M92.8,44.3h3.5c-0.1-1-0.7-1.6-1.7-1.6C93.7,42.7,93.1,43.3,92.8,44.3z"/>
	<path fill="#FFFFFF" d="M98.9,48.2l0.6-1.3c0.5,0.4,1.1,0.6,1.7,0.6c0.7,0,1-0.2,1-0.7c0-0.3-0.1-0.5-0.3-0.7
		c-0.2-0.2-0.6-0.4-1.1-0.6c-1.2-0.5-1.8-1.2-1.8-2.1c0-0.6,0.2-1.1,0.7-1.4c0.5-0.3,1.1-0.5,1.8-0.5c0.7,0,1.4,0.2,2.1,0.5
		l-0.5,1.3c-0.4-0.3-0.9-0.5-1.5-0.5c-0.6,0-0.9,0.2-0.9,0.7c0,0.2,0.1,0.3,0.3,0.5s0.6,0.3,1.2,0.6c0.6,0.2,1.1,0.5,1.4,0.9
		c0.3,0.4,0.4,0.8,0.4,1.3c0,0.7-0.2,1.2-0.7,1.6c-0.5,0.4-1.2,0.6-2,0.6c-0.5,0-0.9,0-1.1-0.1C99.7,48.6,99.4,48.4,98.9,48.2z"/>
</g>
</svg>
