<!-- Generator: Adobe Illustrator 18.1.0, SVG Export Plug-In  -->
<svg version="1.1"
	 xmlns="http://www.w3.org/2000/svg" xmlns:xlink="http://www.w3.org/1999/xlink" xmlns:a="http://ns.adobe.com/AdobeSVGViewerExtensions/3.0/"
	 x="0px" y="0px" width="135.7px" height="57.8px" viewBox="0 0 135.7 57.8" enable-background="new 0 0 135.7 57.8"
	 xml:space="preserve">
<defs>
</defs>
<g>
	<ellipse fill="#0059A7" cx="67.8" cy="28.9" rx="67.8" ry="28.9"/>
</g>
<g>
	<path fill="#FFFFFF" d="M27,20.3l-2.3-3.6c-0.2,0-0.6,0-1,0v3.6h-1.6v-8.7c0.1,0,0.4,0,1,0c0.6,0,1.1,0,1.4,0
		c2.2,0,3.3,0.9,3.3,2.6c0,0.5-0.2,1-0.5,1.4c-0.3,0.4-0.7,0.7-1.2,0.9l2.6,3.9H27z M23.7,12.9v2.4c0.3,0,0.5,0,0.7,0
		c0.6,0,1.1-0.1,1.4-0.3c0.3-0.2,0.4-0.5,0.4-1.1c0-0.4-0.2-0.7-0.5-0.9c-0.3-0.2-0.8-0.3-1.5-0.3C24.1,12.9,23.9,12.9,23.7,12.9z"
		/>
	<path fill="#FFFFFF" d="M35.1,17.6h-4.6c0,0.5,0.2,0.9,0.5,1.2c0.3,0.3,0.8,0.4,1.3,0.4c0.7,0,1.2-0.2,1.5-0.5l0.6,1.1
		c-0.5,0.4-1.3,0.6-2.3,0.6c-1,0-1.7-0.3-2.3-0.9C29.3,19,29,18.2,29,17.2c0-1,0.3-1.8,0.9-2.4c0.6-0.6,1.4-0.9,2.2-0.9
		c0.9,0,1.7,0.3,2.2,0.8c0.6,0.6,0.8,1.3,0.8,2.1C35.3,16.9,35.2,17.2,35.1,17.6z M30.6,16.5h3.1c-0.1-0.9-0.6-1.4-1.5-1.4
		C31.4,15.1,30.8,15.5,30.6,16.5z"/>
	<path fill="#FFFFFF" d="M36.1,19.9l0.5-1.2c0.4,0.4,0.9,0.5,1.5,0.5c0.6,0,0.9-0.2,0.9-0.6c0-0.2-0.1-0.4-0.3-0.6
		c-0.2-0.2-0.5-0.3-1-0.5C36.6,17,36,16.4,36,15.6c0-0.6,0.2-1,0.6-1.3c0.4-0.3,1-0.5,1.6-0.5c0.7,0,1.3,0.1,1.9,0.4l-0.4,1.2
		c-0.3-0.3-0.8-0.4-1.4-0.4c-0.5,0-0.8,0.2-0.8,0.6c0,0.2,0.1,0.3,0.3,0.4c0.2,0.1,0.5,0.3,1.1,0.5c0.6,0.2,1,0.5,1.2,0.8
		c0.2,0.3,0.4,0.7,0.4,1.1c0,0.6-0.2,1.1-0.7,1.4c-0.4,0.3-1,0.5-1.8,0.5c-0.4,0-0.8,0-1-0.1C36.8,20.3,36.5,20.1,36.1,19.9z"/>
	<path fill="#FFFFFF" d="M43.1,20.2v2.7h-1.5v-8.9h1.5v0.4c0.4-0.4,0.8-0.5,1.4-0.5c2,0,3,1.1,3,3.4c0,1-0.3,1.8-0.8,2.4
		c-0.6,0.6-1.3,0.8-2.3,0.8C43.9,20.4,43.5,20.3,43.1,20.2z M43.1,15.5v3.4c0.3,0.2,0.6,0.3,0.9,0.3c0.7,0,1.2-0.2,1.5-0.5
		c0.3-0.3,0.5-0.8,0.5-1.6c0-0.8-0.1-1.3-0.4-1.6c-0.3-0.3-0.8-0.5-1.5-0.5C43.7,15.1,43.4,15.2,43.1,15.5z"/>
	<path fill="#FFFFFF" d="M48.4,17.1c0-1,0.3-1.8,0.8-2.4c0.6-0.6,1.3-0.9,2.2-0.9c1,0,1.7,0.3,2.3,0.9c0.5,0.6,0.8,1.4,0.8,2.4
		c0,1-0.3,1.8-0.8,2.4c-0.5,0.6-1.3,0.9-2.2,0.9c-1,0-1.7-0.3-2.3-0.9C48.7,18.9,48.4,18.1,48.4,17.1z M49.9,17.1
		c0,1.4,0.5,2.1,1.5,2.1c0.5,0,0.8-0.2,1.1-0.5c0.3-0.4,0.4-0.9,0.4-1.6c0-1.4-0.5-2.1-1.5-2.1c-0.5,0-0.8,0.2-1.1,0.5
		C50.1,15.9,49.9,16.5,49.9,17.1z"/>
	<path fill="#FFFFFF" d="M59.8,20.3v-3.7c0-0.5-0.1-0.9-0.3-1.2c-0.2-0.3-0.5-0.4-1-0.4c-0.2,0-0.5,0.1-0.7,0.2
		c-0.2,0.1-0.4,0.3-0.6,0.5v4.6h-1.5v-6.4h1.1l0.3,0.6c0.4-0.5,1-0.7,1.8-0.7c0.8,0,1.4,0.2,1.8,0.7c0.4,0.5,0.7,1.1,0.7,1.9v3.9
		H59.8z"/>
	<path fill="#FFFFFF" d="M62.5,19.9l0.5-1.2c0.4,0.4,0.9,0.5,1.5,0.5c0.6,0,0.9-0.2,0.9-0.6c0-0.2-0.1-0.4-0.3-0.6
		c-0.2-0.2-0.5-0.3-1-0.5c-1.1-0.5-1.7-1.1-1.7-1.9c0-0.6,0.2-1,0.6-1.3c0.4-0.3,1-0.5,1.6-0.5c0.7,0,1.3,0.1,1.9,0.4l-0.4,1.2
		c-0.3-0.3-0.8-0.4-1.4-0.4c-0.5,0-0.8,0.2-0.8,0.6c0,0.2,0.1,0.3,0.3,0.4c0.2,0.1,0.5,0.3,1.1,0.5c0.6,0.2,1,0.5,1.2,0.8
		c0.2,0.3,0.4,0.7,0.4,1.1c0,0.6-0.2,1.1-0.7,1.4c-0.4,0.3-1,0.5-1.8,0.5c-0.4,0-0.8,0-1-0.1C63.2,20.3,62.9,20.1,62.5,19.9z"/>
	<path fill="#FFFFFF" d="M71.7,19.7c-0.1,0.2-0.4,0.4-0.7,0.5c-0.3,0.1-0.7,0.2-1.1,0.2c-0.7,0-1.2-0.2-1.6-0.5
		c-0.4-0.3-0.6-0.8-0.6-1.5c0-0.7,0.3-1.3,0.8-1.7c0.6-0.4,1.3-0.6,2.4-0.6c0.2,0,0.4,0,0.6,0.1c0-0.8-0.5-1.1-1.4-1.1
		c-0.6,0-1,0.1-1.4,0.3l-0.3-1.2c0.5-0.2,1.1-0.4,1.8-0.4c1,0,1.7,0.2,2.1,0.7c0.5,0.4,0.7,1.3,0.7,2.5v1.4c0,0.8,0.2,1.4,0.5,1.6
		c-0.1,0.2-0.3,0.3-0.4,0.4c-0.2,0.1-0.3,0.1-0.5,0.1c-0.2,0-0.4-0.1-0.6-0.2C71.9,20,71.8,19.9,71.7,19.7z M71.6,17.3
		c-0.3-0.1-0.4-0.1-0.6-0.1c-1.2,0-1.8,0.4-1.8,1.2c0,0.6,0.3,0.9,1,0.9c0.9,0,1.3-0.4,1.3-1.3V17.3z"/>
	<path fill="#FFFFFF" d="M75.7,20l-0.3,0.5h-0.8v-8.9l1.5-0.4v3c0.4-0.2,0.8-0.4,1.3-0.4c0.9,0,1.7,0.3,2.3,0.9
		c0.6,0.6,0.9,1.3,0.9,2.3c0,1.1-0.3,1.9-0.9,2.5c-0.6,0.6-1.4,0.9-2.3,0.9C76.6,20.4,76.1,20.3,75.7,20z M76,15.5v3.3
		c0.2,0.3,0.5,0.4,0.9,0.4c0.7,0,1.2-0.2,1.5-0.5c0.3-0.3,0.5-0.9,0.5-1.6c0-1.3-0.6-1.9-1.9-1.9C76.6,15.1,76.3,15.2,76,15.5z"/>
	<path fill="#FFFFFF" d="M82.2,20.3v-5.2h-0.8v-1.2h2.3v6.4H82.2z M82.9,11.5c0.2,0,0.4,0.1,0.6,0.3c0.2,0.2,0.3,0.4,0.3,0.6
		c0,0.2-0.1,0.4-0.3,0.6c-0.2,0.2-0.4,0.3-0.6,0.3c-0.2,0-0.4-0.1-0.6-0.3c-0.2-0.2-0.3-0.4-0.3-0.6c0-0.2,0.1-0.4,0.3-0.6
		C82.5,11.5,82.7,11.5,82.9,11.5z"/>
	<path fill="#FFFFFF" d="M85.6,11.6l1.5-0.4v7.2c0,0.8,0.2,1.3,0.7,1.4c-0.2,0.4-0.6,0.7-1.2,0.7c-0.7,0-1-0.5-1-1.4V11.6z"/>
	<path fill="#FFFFFF" d="M89.4,20.3v-5.2h-0.8v-1.2h2.3v6.4H89.4z M90.2,11.5c0.2,0,0.4,0.1,0.6,0.3c0.2,0.2,0.3,0.4,0.3,0.6
		c0,0.2-0.1,0.4-0.3,0.6c-0.2,0.2-0.4,0.3-0.6,0.3c-0.2,0-0.4-0.1-0.6-0.3c-0.2-0.2-0.3-0.4-0.3-0.6c0-0.2,0.1-0.4,0.3-0.6
		C89.7,11.5,89.9,11.5,90.2,11.5z"/>
	<path fill="#FFFFFF" d="M96.7,20.3v-0.4c-0.1,0.1-0.3,0.3-0.6,0.4c-0.3,0.1-0.6,0.2-0.9,0.2c-0.9,0-1.6-0.3-2.1-0.8
		c-0.5-0.6-0.8-1.3-0.8-2.4c0-1,0.3-1.8,0.9-2.5c0.6-0.6,1.3-1,2.2-1c0.5,0,0.9,0.1,1.3,0.3v-2.6l1.5-0.4v9.1H96.7z M96.7,15.5
		c-0.3-0.3-0.6-0.4-1-0.4c-0.6,0-1.1,0.2-1.4,0.5c-0.3,0.4-0.5,0.9-0.5,1.6c0,1.3,0.6,2,1.9,2c0.1,0,0.3,0,0.5-0.1
		c0.2-0.1,0.3-0.2,0.4-0.3V15.5z"/>
	<path fill="#FFFFFF" d="M103.3,19.7c-0.1,0.2-0.4,0.4-0.7,0.5c-0.3,0.1-0.7,0.2-1.1,0.2c-0.7,0-1.2-0.2-1.6-0.5
		c-0.4-0.3-0.6-0.8-0.6-1.5c0-0.7,0.3-1.3,0.8-1.7c0.6-0.4,1.3-0.6,2.4-0.6c0.2,0,0.4,0,0.6,0.1c0-0.8-0.5-1.1-1.4-1.1
		c-0.6,0-1,0.1-1.4,0.3l-0.3-1.2c0.5-0.2,1.1-0.4,1.8-0.4c1,0,1.7,0.2,2.1,0.7c0.5,0.4,0.7,1.3,0.7,2.5v1.4c0,0.8,0.2,1.4,0.5,1.6
		c-0.1,0.2-0.3,0.3-0.4,0.4c-0.2,0.1-0.3,0.1-0.5,0.1c-0.2,0-0.4-0.1-0.6-0.2C103.4,20,103.3,19.9,103.3,19.7z M103.1,17.3
		c-0.3-0.1-0.4-0.1-0.6-0.1c-1.2,0-1.8,0.4-1.8,1.2c0,0.6,0.3,0.9,1,0.9c0.9,0,1.3-0.4,1.3-1.3V17.3z"/>
	<path fill="#FFFFFF" d="M110.3,20.3v-0.4c-0.1,0.1-0.3,0.3-0.6,0.4c-0.3,0.1-0.6,0.2-0.9,0.2c-0.9,0-1.6-0.3-2.1-0.8
		c-0.5-0.6-0.8-1.3-0.8-2.4c0-1,0.3-1.8,0.9-2.5c0.6-0.6,1.3-1,2.2-1c0.5,0,0.9,0.1,1.3,0.3v-2.6l1.5-0.4v9.1H110.3z M110.3,15.5
		c-0.3-0.3-0.6-0.4-1-0.4c-0.6,0-1.1,0.2-1.4,0.5c-0.3,0.4-0.5,0.9-0.5,1.6c0,1.3,0.6,2,1.9,2c0.1,0,0.3,0,0.5-0.1
		c0.2-0.1,0.3-0.2,0.4-0.3V15.5z"/>
	<path fill="#FFFFFF" d="M46.2,29.1l-0.6,1.1c-0.3-0.3-0.8-0.5-1.4-0.5c-0.6,0-1,0.2-1.3,0.6c-0.3,0.4-0.5,0.9-0.5,1.6
		c0,1.3,0.6,2,1.9,2c0.6,0,1-0.2,1.5-0.5l0.5,1.2c-0.4,0.3-0.8,0.4-1.1,0.5c-0.3,0.1-0.7,0.1-1.1,0.1c-1,0-1.8-0.3-2.3-0.9
		c-0.6-0.6-0.9-1.4-0.9-2.4c0-1,0.3-1.8,0.9-2.4c0.6-0.6,1.5-0.9,2.5-0.9C45,28.4,45.6,28.7,46.2,29.1z"/>
	<path fill="#FFFFFF" d="M47,31.7c0-1,0.3-1.8,0.8-2.4c0.6-0.6,1.3-0.9,2.2-0.9c1,0,1.7,0.3,2.3,0.9c0.5,0.6,0.8,1.4,0.8,2.4
		c0,1-0.3,1.8-0.8,2.4c-0.5,0.6-1.3,0.9-2.2,0.9c-1,0-1.7-0.3-2.3-0.9C47.3,33.6,47,32.7,47,31.7z M48.6,31.7c0,1.4,0.5,2.1,1.5,2.1
		c0.5,0,0.8-0.2,1.1-0.5c0.3-0.4,0.4-0.9,0.4-1.6c0-1.4-0.5-2.1-1.5-2.1c-0.5,0-0.8,0.2-1.1,0.5C48.7,30.6,48.6,31.1,48.6,31.7z"/>
	<path fill="#FFFFFF" d="M58.4,34.9v-3.7c0-0.5-0.1-0.9-0.3-1.2c-0.2-0.3-0.5-0.4-1-0.4c-0.2,0-0.5,0.1-0.7,0.2
		c-0.2,0.1-0.4,0.3-0.6,0.5v4.6h-1.5v-6.4h1.1l0.3,0.6c0.4-0.5,1-0.7,1.8-0.7c0.8,0,1.4,0.2,1.8,0.7c0.4,0.5,0.7,1.1,0.7,1.9v3.9
		H58.4z"/>
	<path fill="#FFFFFF" d="M68.5,35.1h-0.9l-3.3-8.8h1.7l2,5.9l2.1-5.9H72L68.5,35.1z"/>
	<path fill="#FFFFFF" d="M75.4,34.3c-0.1,0.2-0.4,0.4-0.7,0.5c-0.3,0.1-0.7,0.2-1.1,0.2c-0.7,0-1.2-0.2-1.6-0.5
		c-0.4-0.3-0.6-0.8-0.6-1.5c0-0.7,0.3-1.3,0.8-1.7c0.6-0.4,1.3-0.6,2.4-0.6c0.2,0,0.4,0,0.6,0.1c0-0.8-0.5-1.1-1.4-1.1
		c-0.6,0-1,0.1-1.4,0.3l-0.3-1.2c0.5-0.2,1.1-0.4,1.8-0.4c1,0,1.7,0.2,2.1,0.7c0.5,0.4,0.7,1.3,0.7,2.5V33c0,0.8,0.2,1.4,0.5,1.6
		c-0.1,0.2-0.3,0.3-0.4,0.4c-0.2,0.1-0.3,0.1-0.5,0.1c-0.2,0-0.4-0.1-0.6-0.2C75.6,34.7,75.5,34.5,75.4,34.3z M75.3,31.9
		c-0.3-0.1-0.4-0.1-0.6-0.1c-1.2,0-1.8,0.4-1.8,1.2c0,0.6,0.3,0.9,1,0.9c0.9,0,1.3-0.4,1.3-1.3V31.9z"/>
	<path fill="#FFFFFF" d="M78.6,26.2l1.5-0.4V33c0,0.8,0.2,1.3,0.7,1.4c-0.2,0.4-0.6,0.7-1.2,0.7c-0.7,0-1-0.5-1-1.4V26.2z"/>
	<path fill="#FFFFFF" d="M81.6,31.7c0-1,0.3-1.8,0.8-2.4c0.6-0.6,1.3-0.9,2.2-0.9c1,0,1.7,0.3,2.3,0.9c0.5,0.6,0.8,1.4,0.8,2.4
		c0,1-0.3,1.8-0.8,2.4c-0.5,0.6-1.3,0.9-2.2,0.9c-1,0-1.7-0.3-2.3-0.9C81.8,33.6,81.6,32.7,81.6,31.7z M83.1,31.7
		c0,1.4,0.5,2.1,1.5,2.1c0.5,0,0.8-0.2,1.1-0.5c0.3-0.4,0.4-0.9,0.4-1.6c0-1.4-0.5-2.1-1.5-2.1c-0.5,0-0.8,0.2-1.1,0.5
		C83.2,30.6,83.1,31.1,83.1,31.7z"/>
	<path fill="#FFFFFF" d="M92.6,30c-0.3-0.2-0.6-0.3-0.9-0.3c-0.3,0-0.7,0.2-0.9,0.5c-0.3,0.3-0.4,0.7-0.4,1.1v3.6h-1.5v-6.4h1.5v0.6
		c0.4-0.5,1-0.7,1.7-0.7c0.5,0,0.9,0.1,1.2,0.2L92.6,30z"/>
	<path fill="#FFFFFF" d="M40.7,41.3L40,42.6c-0.3-0.3-0.9-0.5-1.7-0.5c-0.7,0-1.3,0.3-1.8,0.9c-0.5,0.6-0.7,1.4-0.7,2.3
		s0.2,1.7,0.6,2.2c0.4,0.5,1,0.8,1.7,0.8c0.8,0,1.5-0.3,1.9-0.9l0.7,1.3c-0.6,0.7-1.6,1-2.8,1c-1.2,0-2.2-0.4-2.8-1.2
		c-0.7-0.8-1-1.9-1-3.3c0-1.3,0.4-2.4,1.1-3.2c0.7-0.9,1.7-1.3,2.9-1.3C39.3,40.7,40.1,40.9,40.7,41.3z"/>
	<path fill="#FFFFFF" d="M41.6,46.4c0-1,0.3-1.8,0.8-2.4c0.6-0.6,1.3-0.9,2.2-0.9c1,0,1.7,0.3,2.3,0.9c0.5,0.6,0.8,1.4,0.8,2.4
		c0,1-0.3,1.8-0.8,2.4c-0.5,0.6-1.3,0.9-2.2,0.9c-1,0-1.7-0.3-2.3-0.9C41.9,48.2,41.6,47.4,41.6,46.4z M43.2,46.4
		c0,1.4,0.5,2.1,1.5,2.1c0.5,0,0.8-0.2,1.1-0.5c0.3-0.4,0.4-0.9,0.4-1.6c0-1.4-0.5-2.1-1.5-2.1c-0.5,0-0.8,0.2-1.1,0.5
		C43.3,45.2,43.2,45.7,43.2,46.4z"/>
	<path fill="#FFFFFF" d="M56.3,49.6v-4c0-0.8-0.4-1.3-1.1-1.3c-0.2,0-0.4,0.1-0.6,0.2c-0.2,0.1-0.4,0.3-0.4,0.5v4.6h-1.5v-4.2
		c0-0.3-0.1-0.6-0.3-0.7c-0.2-0.2-0.5-0.3-0.8-0.3c-0.2,0-0.4,0.1-0.6,0.2c-0.2,0.1-0.4,0.3-0.5,0.5v4.6h-1.5v-6.4h1l0.3,0.6
		c0.4-0.5,0.9-0.7,1.6-0.7c0.8,0,1.5,0.2,1.9,0.7c0.2-0.2,0.4-0.4,0.8-0.5c0.3-0.1,0.7-0.2,1-0.2c0.7,0,1.3,0.2,1.7,0.6
		c0.4,0.4,0.6,1,0.6,1.7v4.2H56.3z"/>
	<path fill="#FFFFFF" d="M60.8,49.4v2.7h-1.5v-8.9h1.5v0.4c0.4-0.4,0.8-0.5,1.4-0.5c2,0,3,1.1,3,3.4c0,1-0.3,1.8-0.8,2.4
		c-0.6,0.6-1.3,0.8-2.3,0.8C61.6,49.7,61.2,49.6,60.8,49.4z M60.8,44.8v3.4c0.3,0.2,0.6,0.3,0.9,0.3c0.7,0,1.2-0.2,1.5-0.5
		c0.3-0.3,0.5-0.8,0.5-1.6c0-0.8-0.1-1.3-0.4-1.6c-0.3-0.3-0.8-0.5-1.5-0.5C61.4,44.3,61.1,44.5,60.8,44.8z"/>
	<path fill="#FFFFFF" d="M70.1,48.9c-0.1,0.2-0.4,0.4-0.7,0.5c-0.3,0.1-0.7,0.2-1.1,0.2c-0.7,0-1.2-0.2-1.6-0.5
		c-0.4-0.3-0.6-0.8-0.6-1.5c0-0.7,0.3-1.3,0.8-1.7c0.6-0.4,1.3-0.6,2.4-0.6c0.2,0,0.4,0,0.6,0.1c0-0.8-0.5-1.1-1.4-1.1
		c-0.6,0-1,0.1-1.4,0.3l-0.3-1.2c0.5-0.2,1.1-0.4,1.8-0.4c1,0,1.7,0.2,2.1,0.7c0.5,0.4,0.7,1.3,0.7,2.5v1.4c0,0.8,0.2,1.4,0.5,1.6
		c-0.1,0.2-0.3,0.3-0.4,0.4c-0.2,0-0.3,0.1-0.5,0.1c-0.2,0-0.4-0.1-0.6-0.2C70.3,49.3,70.1,49.1,70.1,48.9z M69.9,46.6
		c-0.3-0.1-0.4-0.1-0.6-0.1c-1.2,0-1.8,0.4-1.8,1.2c0,0.6,0.3,0.9,1,0.9c0.9,0,1.3-0.4,1.3-1.3V46.6z"/>
	<path fill="#FFFFFF" d="M76.7,44.6c-0.3-0.2-0.6-0.3-0.9-0.3c-0.3,0-0.7,0.2-0.9,0.5c-0.3,0.3-0.4,0.7-0.4,1.1v3.6H73v-6.4h1.5v0.6
		c0.4-0.5,1-0.7,1.7-0.7c0.5,0,0.9,0.1,1.2,0.2L76.7,44.6z"/>
	<path fill="#FFFFFF" d="M78.5,44.4h-0.7v-1.2h0.7v-1.3l1.5-0.5v1.8h1.8v1.2H80v2.8c0,0.5,0.1,0.8,0.2,1c0.1,0.2,0.4,0.3,0.8,0.3
		c0.4,0,0.7-0.1,1-0.3v1.4c-0.3,0.1-0.8,0.2-1.5,0.2c-0.6,0-1.1-0.2-1.5-0.5c-0.3-0.4-0.5-0.9-0.5-1.5V44.4z"/>
	<path fill="#FFFFFF" d="M83.5,49.6v-5.2h-0.8v-1.2H85v6.4H83.5z M84.2,40.7c0.2,0,0.4,0.1,0.6,0.3c0.2,0.2,0.3,0.4,0.3,0.6
		c0,0.2-0.1,0.4-0.3,0.6c-0.2,0.2-0.4,0.3-0.6,0.3c-0.2,0-0.4-0.1-0.6-0.3c-0.2-0.2-0.3-0.4-0.3-0.6c0-0.2,0.1-0.4,0.3-0.6
		C83.8,40.8,84,40.7,84.2,40.7z"/>
	<path fill="#FFFFFF" d="M90.8,49.6v-0.4c-0.1,0.1-0.3,0.3-0.6,0.4c-0.3,0.1-0.6,0.2-0.9,0.2c-0.9,0-1.6-0.3-2.1-0.8
		c-0.5-0.6-0.8-1.3-0.8-2.4c0-1,0.3-1.8,0.9-2.5c0.6-0.6,1.3-0.9,2.2-0.9c0.5,0,0.9,0.1,1.3,0.3v-2.6l1.5-0.4v9.1H90.8z M90.8,44.7
		c-0.3-0.3-0.6-0.4-1-0.4c-0.6,0-1.1,0.2-1.4,0.5c-0.3,0.4-0.5,0.9-0.5,1.6c0,1.3,0.6,2,1.9,2c0.1,0,0.3,0,0.5-0.1
		c0.2-0.1,0.3-0.2,0.4-0.3V44.7z"/>
	<path fill="#FFFFFF" d="M93.4,46.4c0-1,0.3-1.8,0.8-2.4c0.6-0.6,1.3-0.9,2.2-0.9c1,0,1.7,0.3,2.3,0.9c0.5,0.6,0.8,1.4,0.8,2.4
		c0,1-0.3,1.8-0.8,2.4c-0.5,0.6-1.3,0.9-2.2,0.9c-1,0-1.7-0.3-2.3-0.9C93.6,48.2,93.4,47.4,93.4,46.4z M94.9,46.4
		c0,1.4,0.5,2.1,1.5,2.1c0.5,0,0.8-0.2,1.1-0.5c0.3-0.4,0.4-0.9,0.4-1.6c0-1.4-0.5-2.1-1.5-2.1c-0.5,0-0.8,0.2-1.1,0.5
		C95.1,45.2,94.9,45.7,94.9,46.4z"/>
</g>
</svg>
