<?xml version="1.0" encoding="utf-8"?>
<!-- Generator: Adobe Illustrator 18.1.0, SVG Export Plug-In . SVG Version: 6.00 Build 0)  -->
<!DOCTYPE svg PUBLIC "-//W3C//DTD SVG 1.1//EN" "http://www.w3.org/Graphics/SVG/1.1/DTD/svg11.dtd">
<svg version="1.1" id="Capa_1" xmlns="http://www.w3.org/2000/svg" xmlns:xlink="http://www.w3.org/1999/xlink" x="0px" y="0px"
	 viewBox="-251 399.7 92.3 43.2" enable-background="new -251 399.7 92.3 43.2" xml:space="preserve">
<g>
	<ellipse fill="#009DE0" cx="-205.2" cy="421.3" rx="45.2" ry="21.6"/>
</g>
<rect x="-251" y="415.6" fill="none" width="92.3" height="19.4"/>
<g enable-background="new    ">
	<path fill="#FFFFFF" d="M-234.3,423l0.5-1.2c0.5,0.4,1.1,0.6,1.6,0.6c0.8,0,1.2-0.3,1.2-0.8c0-0.3-0.1-0.5-0.3-0.7
		c-0.2-0.2-0.6-0.5-1.2-0.8c-0.6-0.3-1-0.5-1.2-0.7c-0.2-0.2-0.4-0.4-0.5-0.7c-0.1-0.3-0.2-0.5-0.2-0.8c0-0.6,0.2-1.1,0.7-1.4
		c0.4-0.4,1-0.6,1.7-0.6c0.9,0,1.5,0.2,2,0.5l-0.4,1.1c-0.5-0.3-1-0.5-1.5-0.5c-0.3,0-0.6,0.1-0.7,0.2c-0.2,0.2-0.3,0.4-0.3,0.6
		c0,0.4,0.5,0.9,1.5,1.3c0.5,0.2,0.9,0.5,1.1,0.7s0.4,0.4,0.5,0.7s0.2,0.6,0.2,0.9c0,0.6-0.2,1.1-0.7,1.5c-0.5,0.4-1.2,0.6-2,0.6
		C-233.1,423.5-233.7,423.3-234.3,423z"/>
	<path fill="#FFFFFF" d="M-225.4,422.8c-0.1,0.2-0.3,0.3-0.6,0.5c-0.3,0.1-0.6,0.2-0.9,0.2c-0.6,0-1.1-0.1-1.4-0.4s-0.5-0.7-0.5-1.3
		c0-0.6,0.2-1.1,0.7-1.5s1.2-0.5,2.1-0.5c0.2,0,0.3,0,0.5,0.1c0-0.6-0.4-1-1.3-1c-0.5,0-0.9,0.1-1.2,0.2l-0.3-1
		c0.5-0.2,1-0.3,1.6-0.3c0.9,0,1.5,0.2,1.9,0.6c0.4,0.4,0.6,1.1,0.6,2.2v1.2c0,0.7,0.2,1.2,0.5,1.4c-0.1,0.2-0.2,0.3-0.4,0.3
		c-0.1,0-0.3,0.1-0.5,0.1c-0.2,0-0.4-0.1-0.5-0.2C-225.2,423.1-225.3,423-225.4,422.8z M-225.5,420.8c-0.2,0-0.4-0.1-0.5-0.1
		c-1,0-1.6,0.3-1.6,1c0,0.5,0.3,0.7,0.9,0.7c0.8,0,1.2-0.4,1.2-1.2V420.8z"/>
	<path fill="#FFFFFF" d="M-222.6,418.9h-0.7v-1h0.7v-1.1l1.3-0.5v1.6h1.5v1h-1.5v2.4c0,0.4,0.1,0.7,0.2,0.8c0.1,0.2,0.3,0.2,0.7,0.2
		s0.6-0.1,0.9-0.3v1.2c-0.3,0.1-0.7,0.2-1.3,0.2c-0.6,0-1-0.2-1.3-0.5c-0.3-0.3-0.5-0.7-0.5-1.3V418.9z"/>
	<path fill="#FFFFFF" d="M-218.2,423.4V419h-0.7v-1h2.1v5.5H-218.2z M-217.5,415.8c0.2,0,0.4,0.1,0.5,0.2c0.1,0.1,0.2,0.3,0.2,0.5
		s-0.1,0.4-0.2,0.5s-0.3,0.2-0.5,0.2s-0.4-0.1-0.5-0.2s-0.2-0.3-0.2-0.5s0.1-0.4,0.2-0.5C-217.9,415.9-217.7,415.8-217.5,415.8z"/>
	<path fill="#FFFFFF" d="M-215.6,423l0.5-1c0.4,0.3,0.8,0.5,1.3,0.5c0.5,0,0.8-0.2,0.8-0.5c0-0.2-0.1-0.4-0.2-0.5s-0.5-0.3-0.9-0.5
		c-1-0.4-1.5-0.9-1.5-1.6c0-0.5,0.2-0.8,0.6-1.1c0.4-0.3,0.8-0.4,1.4-0.4c0.6,0,1.1,0.1,1.7,0.4l-0.4,1c-0.3-0.2-0.7-0.4-1.2-0.4
		c-0.5,0-0.7,0.2-0.7,0.5c0,0.1,0.1,0.3,0.2,0.4c0.2,0.1,0.5,0.3,1,0.5c0.5,0.2,0.8,0.4,1.1,0.7c0.2,0.3,0.3,0.6,0.3,1
		c0,0.5-0.2,0.9-0.6,1.2c-0.4,0.3-0.9,0.4-1.6,0.4c-0.4,0-0.7,0-0.9-0.1S-215.3,423.2-215.6,423z"/>
	<path fill="#FFFFFF" d="M-207.5,416.8c-0.3-0.1-0.5-0.1-0.7-0.1c-0.2,0-0.5,0.1-0.6,0.3c-0.2,0.2-0.3,0.5-0.3,0.8c0,0,0,0.1,0,0.1
		h1.2v1.1h-1.1v4.4h-1.3V419h-0.8v-1.1h0.8c0-0.7,0.2-1.2,0.6-1.6c0.4-0.4,0.9-0.6,1.5-0.6c0.3,0,0.7,0.1,1.1,0.2L-207.5,416.8z"/>
	<path fill="#FFFFFF" d="M-203.5,422.8c-0.1,0.2-0.3,0.3-0.6,0.5c-0.3,0.1-0.6,0.2-0.9,0.2c-0.6,0-1.1-0.1-1.4-0.4s-0.5-0.7-0.5-1.3
		c0-0.6,0.2-1.1,0.7-1.5s1.2-0.5,2.1-0.5c0.2,0,0.3,0,0.5,0.1c0-0.6-0.4-1-1.3-1c-0.5,0-0.9,0.1-1.2,0.2l-0.3-1
		c0.5-0.2,1-0.3,1.6-0.3c0.9,0,1.5,0.2,1.9,0.6c0.4,0.4,0.6,1.1,0.6,2.2v1.2c0,0.7,0.2,1.2,0.5,1.4c-0.1,0.2-0.2,0.3-0.4,0.3
		c-0.1,0-0.3,0.1-0.5,0.1c-0.2,0-0.4-0.1-0.5-0.2C-203.4,423.1-203.5,423-203.5,422.8z M-203.7,420.8c-0.2,0-0.4-0.1-0.5-0.1
		c-1,0-1.6,0.3-1.6,1c0,0.5,0.3,0.7,0.9,0.7c0.8,0,1.2-0.4,1.2-1.2V420.8z"/>
	<path fill="#FFFFFF" d="M-196.5,418.3l-0.6,1c-0.3-0.3-0.7-0.4-1.2-0.4c-0.5,0-0.9,0.2-1.2,0.5c-0.3,0.3-0.4,0.8-0.4,1.3
		c0,1.1,0.6,1.7,1.7,1.7c0.5,0,0.9-0.2,1.3-0.5l0.5,1c-0.4,0.2-0.7,0.4-1,0.4c-0.3,0.1-0.6,0.1-1,0.1c-0.9,0-1.6-0.2-2.1-0.7
		c-0.5-0.5-0.8-1.2-0.8-2.1c0-0.9,0.3-1.6,0.8-2.1c0.5-0.5,1.3-0.8,2.3-0.8C-197.6,417.8-197,418-196.5,418.3z"/>
	<path fill="#FFFFFF" d="M-191,418.3l-0.6,1c-0.3-0.3-0.7-0.4-1.2-0.4c-0.5,0-0.9,0.2-1.2,0.5c-0.3,0.3-0.4,0.8-0.4,1.3
		c0,1.1,0.6,1.7,1.7,1.7c0.5,0,0.9-0.2,1.3-0.5l0.5,1c-0.4,0.2-0.7,0.4-1,0.4c-0.3,0.1-0.6,0.1-1,0.1c-0.9,0-1.6-0.2-2.1-0.7
		c-0.5-0.5-0.8-1.2-0.8-2.1c0-0.9,0.3-1.6,0.8-2.1c0.5-0.5,1.3-0.8,2.3-0.8C-192.1,417.8-191.5,418-191,418.3z"/>
	<path fill="#FFFFFF" d="M-189.6,423.4V419h-0.7v-1h2.1v5.5H-189.6z M-188.9,415.8c0.2,0,0.4,0.1,0.5,0.2c0.1,0.1,0.2,0.3,0.2,0.5
		s-0.1,0.4-0.2,0.5s-0.3,0.2-0.5,0.2s-0.4-0.1-0.5-0.2s-0.2-0.3-0.2-0.5s0.1-0.4,0.2-0.5C-189.3,415.9-189.1,415.8-188.9,415.8z"/>
	<path fill="#FFFFFF" d="M-187.1,420.6c0-0.8,0.2-1.5,0.7-2c0.5-0.5,1.2-0.8,2-0.8c0.9,0,1.5,0.3,2,0.8c0.5,0.5,0.7,1.2,0.7,2.1
		c0,0.9-0.2,1.6-0.7,2.1c-0.5,0.5-1.1,0.8-2,0.8c-0.9,0-1.5-0.3-2-0.8C-186.8,422.2-187.1,421.5-187.1,420.6z M-185.7,420.6
		c0,1.2,0.4,1.8,1.3,1.8c0.4,0,0.7-0.2,1-0.5c0.2-0.3,0.4-0.8,0.4-1.3c0-1.2-0.4-1.8-1.3-1.8c-0.4,0-0.7,0.2-1,0.5
		C-185.6,419.6-185.7,420.1-185.7,420.6z M-183.1,415.7l-1.2,1.5h-1l0.9-1.5H-183.1z"/>
	<path fill="#FFFFFF" d="M-177,423.4v-3.2c0-0.5-0.1-0.8-0.3-1c-0.2-0.2-0.5-0.3-0.9-0.3c-0.2,0-0.4,0.1-0.6,0.2
		c-0.2,0.1-0.4,0.2-0.5,0.4v4h-1.3v-5.5h0.9l0.2,0.5c0.4-0.4,0.9-0.6,1.6-0.6c0.7,0,1.2,0.2,1.6,0.6s0.6,0.9,0.6,1.6v3.4H-177z"/>
</g>
</svg>
