<!-- Generator: Adobe Illustrator 18.1.0, SVG Export Plug-In  -->
<svg version="1.1"
	 xmlns="http://www.w3.org/2000/svg" xmlns:xlink="http://www.w3.org/1999/xlink" xmlns:a="http://ns.adobe.com/AdobeSVGViewerExtensions/3.0/"
	 x="0px" y="0px" width="135.7px" height="57.8px" viewBox="0 0 135.7 57.8" enable-background="new 0 0 135.7 57.8"
	 xml:space="preserve">
<defs>
</defs>
<g>
	<ellipse fill="#009FE3" cx="67.8" cy="28.9" rx="67.8" ry="28.9"/>
</g>
<g>
	<path fill="#FFFFFF" d="M29.2,25.5l0.6-1.6c0.7,0.5,1.4,0.7,2,0.7c1,0,1.5-0.4,1.5-1.1c0-0.3-0.1-0.7-0.4-1c-0.2-0.3-0.7-0.6-1.5-1
		c-0.8-0.4-1.3-0.7-1.5-0.9c-0.3-0.2-0.5-0.5-0.6-0.9c-0.1-0.3-0.2-0.7-0.2-1.1c0-0.8,0.3-1.4,0.8-1.9c0.6-0.5,1.3-0.7,2.1-0.7
		c1.1,0,2,0.2,2.5,0.6l-0.5,1.5c-0.6-0.4-1.3-0.7-1.9-0.7c-0.4,0-0.7,0.1-0.9,0.3c-0.2,0.2-0.3,0.5-0.3,0.8c0,0.6,0.6,1.1,1.9,1.7
		c0.7,0.3,1.1,0.6,1.4,0.9c0.3,0.3,0.5,0.6,0.7,0.9c0.2,0.4,0.2,0.8,0.2,1.2c0,0.8-0.3,1.4-0.9,2c-0.6,0.5-1.5,0.8-2.5,0.8
		C30.7,26.2,29.9,26,29.2,25.5z"/>
	<path fill="#FFFFFF" d="M40.5,25.4c-0.2,0.2-0.4,0.5-0.8,0.6c-0.4,0.2-0.8,0.2-1.2,0.2c-0.8,0-1.4-0.2-1.8-0.6
		c-0.4-0.4-0.7-0.9-0.7-1.6c0-0.8,0.3-1.5,0.9-1.9c0.6-0.5,1.5-0.7,2.6-0.7c0.2,0,0.4,0,0.7,0.1c0-0.8-0.5-1.3-1.6-1.3
		c-0.6,0-1.2,0.1-1.6,0.3l-0.4-1.3c0.6-0.3,1.3-0.4,2-0.4c1.1,0,1.9,0.2,2.4,0.7C41.8,20,42,21,42,22.4v1.5c0,1,0.2,1.6,0.6,1.8
		c-0.1,0.2-0.3,0.4-0.5,0.4c-0.2,0.1-0.4,0.1-0.6,0.1c-0.2,0-0.5-0.1-0.6-0.3C40.7,25.8,40.6,25.6,40.5,25.4z M40.3,22.7
		c-0.3-0.1-0.5-0.1-0.6-0.1c-1.3,0-2,0.4-2,1.3c0,0.6,0.4,1,1.1,1c1,0,1.5-0.5,1.5-1.5V22.7z"/>
	<path fill="#FFFFFF" d="M44.1,20.3h-0.8v-1.3h0.8v-1.5l1.7-0.6v2.1h2v1.3h-2v3.1c0,0.5,0.1,0.9,0.2,1.1c0.2,0.2,0.4,0.3,0.8,0.3
		c0.4,0,0.8-0.1,1.1-0.3V26c-0.4,0.1-0.9,0.2-1.7,0.2c-0.7,0-1.3-0.2-1.6-0.6c-0.4-0.4-0.6-1-0.6-1.7V20.3z"/>
	<path fill="#FFFFFF" d="M49.7,26.1v-5.8h-0.9v-1.4h2.6v7.1H49.7z M50.5,16.2c0.3,0,0.5,0.1,0.7,0.3c0.2,0.2,0.3,0.4,0.3,0.7
		c0,0.3-0.1,0.5-0.3,0.7c-0.2,0.2-0.4,0.3-0.7,0.3c-0.3,0-0.5-0.1-0.7-0.3c-0.2-0.2-0.3-0.4-0.3-0.7c0-0.3,0.1-0.5,0.3-0.7
		C50,16.2,50.3,16.2,50.5,16.2z"/>
	<path fill="#FFFFFF" d="M52.9,25.6l0.6-1.3c0.5,0.4,1.1,0.6,1.7,0.6c0.6,0,1-0.2,1-0.7c0-0.3-0.1-0.5-0.3-0.7
		c-0.2-0.2-0.6-0.4-1.1-0.6c-1.2-0.5-1.8-1.2-1.8-2.1c0-0.6,0.2-1.1,0.7-1.4c0.5-0.3,1.1-0.5,1.8-0.5c0.7,0,1.4,0.2,2.1,0.5L57,20.6
		c-0.4-0.3-0.9-0.5-1.5-0.5c-0.6,0-0.9,0.2-0.9,0.7c0,0.2,0.1,0.3,0.3,0.5c0.2,0.1,0.6,0.3,1.2,0.6c0.6,0.2,1.1,0.5,1.4,0.9
		c0.3,0.4,0.4,0.8,0.4,1.3c0,0.7-0.2,1.2-0.7,1.6c-0.5,0.4-1.2,0.6-2,0.6c-0.5,0-0.9,0-1.1-0.1C53.7,26,53.3,25.9,52.9,25.6z"/>
	<path fill="#FFFFFF" d="M63.2,17.5c-0.4-0.1-0.6-0.2-0.8-0.2c-0.3,0-0.6,0.1-0.8,0.4c-0.2,0.3-0.3,0.6-0.3,1c0,0.1,0,0.1,0,0.2h1.5
		v1.4h-1.5v5.8h-1.7v-5.8h-1v-1.4h1c0-0.9,0.3-1.6,0.8-2.1c0.5-0.5,1.1-0.8,1.9-0.8c0.4,0,0.9,0.1,1.4,0.3L63.2,17.5z"/>
	<path fill="#FFFFFF" d="M68.2,25.4c-0.2,0.2-0.4,0.5-0.8,0.6c-0.4,0.2-0.8,0.2-1.2,0.2c-0.8,0-1.4-0.2-1.8-0.6
		c-0.4-0.4-0.7-0.9-0.7-1.6c0-0.8,0.3-1.5,0.9-1.9c0.6-0.5,1.5-0.7,2.6-0.7c0.2,0,0.4,0,0.7,0.1c0-0.8-0.5-1.3-1.6-1.3
		c-0.6,0-1.2,0.1-1.6,0.3l-0.4-1.3c0.6-0.3,1.3-0.4,2-0.4c1.1,0,1.9,0.2,2.4,0.7c0.5,0.5,0.8,1.4,0.8,2.8v1.5c0,1,0.2,1.6,0.6,1.8
		c-0.1,0.2-0.3,0.4-0.5,0.4c-0.2,0.1-0.4,0.1-0.6,0.1c-0.2,0-0.5-0.1-0.6-0.3C68.4,25.8,68.3,25.6,68.2,25.4z M68.1,22.7
		c-0.3-0.1-0.5-0.1-0.6-0.1c-1.3,0-2,0.4-2,1.3c0,0.6,0.4,1,1.1,1c1,0,1.5-0.5,1.5-1.5V22.7z"/>
	<path fill="#FFFFFF" d="M77.1,19.5l-0.7,1.2c-0.4-0.4-0.9-0.6-1.6-0.6c-0.6,0-1.1,0.2-1.5,0.6c-0.4,0.4-0.6,1-0.6,1.7
		c0,1.5,0.7,2.3,2.1,2.3c0.6,0,1.2-0.2,1.6-0.6l0.6,1.3c-0.5,0.3-0.9,0.5-1.3,0.6c-0.4,0.1-0.8,0.1-1.3,0.1c-1.1,0-2-0.3-2.6-1
		c-0.6-0.6-1-1.5-1-2.7c0-1.1,0.3-2,1-2.7c0.7-0.7,1.7-1,2.9-1C75.8,18.8,76.5,19,77.1,19.5z"/>
	<path fill="#FFFFFF" d="M84.1,19.5l-0.7,1.2c-0.4-0.4-0.9-0.6-1.6-0.6c-0.6,0-1.1,0.2-1.5,0.6c-0.4,0.4-0.6,1-0.6,1.7
		c0,1.5,0.7,2.3,2.1,2.3c0.6,0,1.2-0.2,1.6-0.6l0.6,1.3c-0.5,0.3-0.9,0.5-1.3,0.6c-0.4,0.1-0.8,0.1-1.3,0.1c-1.1,0-2-0.3-2.6-1
		c-0.6-0.6-1-1.5-1-2.7c0-1.1,0.3-2,1-2.7c0.7-0.7,1.7-1,2.9-1C82.8,18.8,83.5,19,84.1,19.5z"/>
	<path fill="#FFFFFF" d="M86,26.1v-5.8h-0.9v-1.4h2.6v7.1H86z M86.8,16.2c0.3,0,0.5,0.1,0.7,0.3c0.2,0.2,0.3,0.4,0.3,0.7
		c0,0.3-0.1,0.5-0.3,0.7c-0.2,0.2-0.4,0.3-0.7,0.3c-0.3,0-0.5-0.1-0.7-0.3c-0.2-0.2-0.3-0.4-0.3-0.7c0-0.3,0.1-0.5,0.3-0.7
		C86.3,16.2,86.6,16.2,86.8,16.2z"/>
	<path fill="#FFFFFF" d="M89.1,22.5c0-1.1,0.3-2,0.9-2.7c0.6-0.7,1.5-1,2.5-1c1.1,0,1.9,0.3,2.5,1c0.6,0.7,0.9,1.6,0.9,2.7
		c0,1.1-0.3,2-0.9,2.7c-0.6,0.7-1.4,1-2.5,1c-1.1,0-1.9-0.3-2.5-1C89.4,24.5,89.1,23.6,89.1,22.5z M90.9,22.5c0,1.6,0.6,2.4,1.7,2.4
		c0.5,0,0.9-0.2,1.2-0.6c0.3-0.4,0.5-1,0.5-1.7c0-1.6-0.6-2.3-1.7-2.3c-0.5,0-0.9,0.2-1.2,0.6C91,21.2,90.9,21.7,90.9,22.5z
		 M94.2,16l-1.5,2h-1.3l1.1-2H94.2z"/>
	<path fill="#FFFFFF" d="M101.9,26.1v-4.1c0-0.6-0.1-1.1-0.4-1.3c-0.2-0.3-0.6-0.4-1.1-0.4c-0.2,0-0.5,0.1-0.8,0.2
		c-0.3,0.1-0.5,0.3-0.7,0.5v5.2h-1.7v-7.1h1.2l0.3,0.7c0.5-0.5,1.1-0.8,2-0.8c0.9,0,1.5,0.3,2,0.8c0.5,0.5,0.7,1.2,0.7,2.1v4.4
		H101.9z"/>
	<path fill="#FFFFFF" d="M41.2,43.6c-0.2,0.5-0.6,0.9-1.1,1.2c-0.6,0.3-1.3,0.5-2,0.5v-1.5c1.3,0,1.9-0.3,1.9-1c0-0.4-0.2-1.1-0.5-2
		l-2.2-5.5h1.7l1.9,4.9l1.8-4.9h1.7L41.2,43.6z"/>
	<path fill="#FFFFFF" d="M49.6,42.5v-9.8h1.7v8.2h4.4v1.5H49.6z"/>
	<path fill="#FFFFFF" d="M63.4,39.4h-5.1c0,0.6,0.2,1,0.6,1.3c0.4,0.3,0.8,0.5,1.5,0.5c0.8,0,1.3-0.2,1.7-0.6l0.6,1.3
		c-0.6,0.5-1.5,0.7-2.6,0.7c-1.1,0-2-0.3-2.6-1c-0.6-0.6-1-1.5-1-2.7c0-1.1,0.3-2,1-2.7c0.7-0.7,1.5-1,2.5-1c1,0,1.9,0.3,2.5,0.9
		c0.6,0.6,0.9,1.4,0.9,2.4C63.6,38.7,63.5,39,63.4,39.4z M58.4,38.2h3.5c-0.1-1-0.7-1.6-1.7-1.6C59.2,36.6,58.6,37.1,58.4,38.2z"/>
	<path fill="#FFFFFF" d="M68.9,41.8c-0.2,0.2-0.4,0.5-0.8,0.6c-0.4,0.2-0.8,0.2-1.2,0.2c-0.8,0-1.4-0.2-1.8-0.6
		c-0.4-0.4-0.7-0.9-0.7-1.6c0-0.8,0.3-1.5,0.9-1.9c0.6-0.5,1.5-0.7,2.6-0.7c0.2,0,0.4,0,0.7,0.1c0-0.8-0.5-1.3-1.6-1.3
		c-0.6,0-1.2,0.1-1.6,0.3l-0.4-1.3c0.6-0.3,1.3-0.4,2-0.4c1.1,0,1.9,0.2,2.4,0.7c0.5,0.5,0.8,1.4,0.8,2.8v1.5c0,1,0.2,1.6,0.6,1.8
		c-0.1,0.2-0.3,0.4-0.5,0.4c-0.2,0.1-0.4,0.1-0.6,0.1c-0.2,0-0.5-0.1-0.6-0.3C69.1,42.2,69,42,68.9,41.8z M68.7,39.1
		c-0.3-0.1-0.5-0.1-0.6-0.1c-1.3,0-2,0.4-2,1.3c0,0.6,0.4,1,1.1,1c1,0,1.5-0.5,1.5-1.5V39.1z"/>
	<path fill="#FFFFFF" d="M72.5,32.7l1.7-0.4v8c0,0.9,0.3,1.4,0.8,1.6c-0.3,0.5-0.7,0.7-1.3,0.7c-0.8,0-1.1-0.5-1.1-1.6V32.7z"/>
	<path fill="#FFFFFF" d="M76.5,36.7h-0.8v-1.3h0.8v-1.5l1.7-0.6v2.1h2v1.3h-2v3.1c0,0.5,0.1,0.9,0.2,1.1c0.2,0.2,0.4,0.3,0.8,0.3
		c0.4,0,0.8-0.1,1.1-0.3v1.5c-0.4,0.1-0.9,0.2-1.7,0.2c-0.7,0-1.3-0.2-1.6-0.6c-0.4-0.4-0.6-1-0.6-1.7V36.7z"/>
	<path fill="#FFFFFF" d="M85.6,41.8c-0.2,0.2-0.4,0.5-0.8,0.6c-0.4,0.2-0.8,0.2-1.2,0.2c-0.8,0-1.4-0.2-1.8-0.6
		c-0.4-0.4-0.7-0.9-0.7-1.6c0-0.8,0.3-1.5,0.9-1.9c0.6-0.5,1.5-0.7,2.6-0.7c0.2,0,0.4,0,0.7,0.1c0-0.8-0.5-1.3-1.6-1.3
		c-0.6,0-1.2,0.1-1.6,0.3l-0.4-1.3c0.6-0.3,1.3-0.4,2-0.4c1.1,0,1.9,0.2,2.4,0.7c0.5,0.5,0.8,1.4,0.8,2.8v1.5c0,1,0.2,1.6,0.6,1.8
		c-0.1,0.2-0.3,0.4-0.5,0.4c-0.2,0.1-0.4,0.1-0.6,0.1c-0.2,0-0.5-0.1-0.6-0.3C85.8,42.2,85.7,42,85.6,41.8z M85.5,39.1
		C85.2,39.1,85,39,84.8,39c-1.3,0-2,0.4-2,1.3c0,0.6,0.4,1,1.1,1c1,0,1.5-0.5,1.5-1.5V39.1z"/>
	<path fill="#FFFFFF" d="M93.5,42.5V42c-0.1,0.2-0.4,0.3-0.7,0.4c-0.3,0.1-0.7,0.2-1,0.2c-1,0-1.8-0.3-2.4-0.9
		c-0.6-0.6-0.9-1.5-0.9-2.6c0-1.1,0.3-2.1,1-2.8c0.7-0.7,1.5-1.1,2.5-1.1c0.5,0,1,0.1,1.5,0.3v-2.9l1.7-0.4v10.2H93.5z M93.5,37
		c-0.4-0.3-0.7-0.4-1.1-0.4c-0.7,0-1.2,0.2-1.5,0.6c-0.4,0.4-0.5,1-0.5,1.8c0,1.5,0.7,2.2,2.1,2.2c0.2,0,0.4,0,0.6-0.1
		c0.2-0.1,0.4-0.2,0.5-0.3V37z"/>
</g>
</svg>
