<!-- Generator: Adobe Illustrator 18.1.0, SVG Export Plug-In  -->
<svg version="1.1"
	 xmlns="http://www.w3.org/2000/svg" xmlns:xlink="http://www.w3.org/1999/xlink" xmlns:a="http://ns.adobe.com/AdobeSVGViewerExtensions/3.0/"
	 x="0px" y="0px" width="135.6px" height="57.8px" viewBox="0 0 135.6 57.8" enable-background="new 0 0 135.6 57.8"
	 xml:space="preserve">
<defs>
</defs>
<g>
	<ellipse fill="#0059A7" cx="67.8" cy="28.9" rx="67.8" ry="28.9"/>
</g>
<g>
	<path fill="#FFFFFF" d="M35.7,25.5l0.6-1.6c0.7,0.5,1.4,0.7,2,0.7c1,0,1.5-0.4,1.5-1.1c0-0.3-0.1-0.7-0.4-1c-0.2-0.3-0.7-0.6-1.5-1
		c-0.7-0.4-1.3-0.7-1.5-0.9c-0.3-0.2-0.5-0.5-0.6-0.9c-0.1-0.3-0.2-0.7-0.2-1.1c0-0.8,0.3-1.4,0.8-1.9c0.6-0.5,1.3-0.7,2.1-0.7
		c1.1,0,2,0.2,2.5,0.6l-0.5,1.5c-0.6-0.4-1.3-0.7-1.9-0.7c-0.4,0-0.7,0.1-0.9,0.3c-0.2,0.2-0.3,0.5-0.3,0.8c0,0.6,0.6,1.1,1.9,1.7
		c0.7,0.3,1.1,0.6,1.4,0.9c0.3,0.3,0.5,0.6,0.7,0.9c0.2,0.4,0.2,0.8,0.2,1.2c0,0.8-0.3,1.4-0.9,2c-0.6,0.5-1.5,0.8-2.5,0.8
		C37.2,26.2,36.4,26,35.7,25.5z"/>
	<path fill="#FFFFFF" d="M49.4,23h-5.1c0,0.6,0.2,1,0.6,1.3c0.4,0.3,0.8,0.5,1.5,0.5c0.8,0,1.3-0.2,1.7-0.6l0.6,1.3
		c-0.6,0.5-1.5,0.7-2.6,0.7c-1.1,0-2-0.3-2.6-1c-0.6-0.6-1-1.5-1-2.7c0-1.1,0.3-2,1-2.7c0.7-0.7,1.5-1,2.5-1c1,0,1.9,0.3,2.5,0.9
		c0.6,0.6,0.9,1.4,0.9,2.4C49.6,22.3,49.5,22.6,49.4,23z M44.4,21.8h3.5c-0.1-1-0.7-1.6-1.7-1.6C45.2,20.2,44.6,20.7,44.4,21.8z"/>
	<path fill="#FFFFFF" d="M50.4,27.9l1.1-1.3c0.6,0.5,1.2,0.8,1.9,0.8c0.5,0,0.9-0.1,1.2-0.2c0.3-0.1,0.5-0.3,0.5-0.6
		c0-0.4-0.3-0.6-1-0.6c-0.2,0-0.5,0-0.8,0.1c-0.4,0-0.6,0.1-0.8,0.1c-1.1,0-1.7-0.4-1.7-1.2c0-0.2,0.1-0.5,0.3-0.7
		c0.2-0.2,0.4-0.4,0.7-0.5c-0.8-0.5-1.2-1.3-1.2-2.3c0-0.8,0.3-1.4,0.8-1.9c0.6-0.5,1.3-0.8,2.1-0.8c0.6,0,1.2,0.1,1.6,0.4l0.7-0.8
		l1.2,1L55.9,20c0.3,0.4,0.4,0.9,0.4,1.5c0,0.8-0.2,1.5-0.7,2c-0.5,0.5-1.1,0.7-1.9,0.7c-0.1,0-0.3,0-0.5,0l-0.3,0
		c0,0-0.2,0-0.4,0.1c-0.2,0.1-0.3,0.2-0.3,0.3c0,0.2,0.2,0.3,0.5,0.3c0.1,0,0.4,0,0.7-0.1c0.3-0.1,0.6-0.1,0.8-0.1
		c1.6,0,2.4,0.7,2.4,2c0,0.7-0.3,1.3-1,1.7c-0.7,0.4-1.4,0.6-2.3,0.6C52.2,28.9,51.2,28.6,50.4,27.9z M52,21.4c0,0.4,0.1,0.8,0.4,1
		c0.2,0.3,0.5,0.4,0.9,0.4c0.4,0,0.7-0.1,0.9-0.4c0.2-0.3,0.3-0.6,0.3-1c0-0.4-0.1-0.7-0.3-0.9c-0.2-0.2-0.5-0.4-0.9-0.4
		c-0.4,0-0.7,0.1-0.9,0.4C52.1,20.7,52,21.1,52,21.4z"/>
	<path fill="#FFFFFF" d="M62.4,26.1v-0.6c-0.2,0.2-0.6,0.4-1,0.5c-0.4,0.1-0.8,0.2-1.1,0.2c-1.7,0-2.5-0.9-2.5-2.6v-4.6h1.7v4.5
		c0,0.9,0.4,1.4,1.2,1.4c0.4,0,0.7-0.1,1.1-0.3c0.3-0.2,0.5-0.4,0.6-0.7v-4.9H64v7.2H62.4z"/>
	<path fill="#FFFFFF" d="M70,20.5c-0.3-0.2-0.6-0.3-1-0.3c-0.4,0-0.7,0.2-1,0.5c-0.3,0.4-0.5,0.8-0.5,1.3v4.1h-1.7v-7.1h1.7v0.7
		c0.5-0.5,1.1-0.8,1.9-0.8c0.6,0,1,0.1,1.3,0.3L70,20.5z"/>
	<path fill="#FFFFFF" d="M72.1,26.1v-5.8h-0.9v-1.4h2.6v7.1H72.1z M73,16.2c0.3,0,0.5,0.1,0.7,0.3c0.2,0.2,0.3,0.4,0.3,0.7
		c0,0.3-0.1,0.5-0.3,0.7c-0.2,0.2-0.4,0.3-0.7,0.3c-0.3,0-0.5-0.1-0.7-0.3c-0.2-0.2-0.3-0.4-0.3-0.7c0-0.3,0.1-0.5,0.3-0.7
		C72.5,16.2,72.7,16.2,73,16.2z"/>
	<path fill="#FFFFFF" d="M80.3,26.1v-0.4c-0.1,0.2-0.4,0.3-0.7,0.4c-0.3,0.1-0.7,0.2-1,0.2c-1,0-1.8-0.3-2.4-0.9
		c-0.6-0.6-0.9-1.5-0.9-2.6c0-1.1,0.3-2,1-2.8c0.7-0.7,1.5-1.1,2.5-1.1c0.5,0,1,0.1,1.5,0.3v-2.9l1.7-0.4v10.2H80.3z M80.3,20.6
		c-0.4-0.3-0.7-0.4-1.1-0.4c-0.7,0-1.2,0.2-1.5,0.6c-0.4,0.4-0.5,1-0.5,1.8c0,1.5,0.7,2.2,2.1,2.2c0.2,0,0.4,0,0.6-0.1
		c0.2-0.1,0.4-0.2,0.5-0.3V20.6z"/>
	<path fill="#FFFFFF" d="M87.7,25.4c-0.2,0.2-0.4,0.5-0.8,0.6c-0.4,0.2-0.8,0.2-1.2,0.2c-0.8,0-1.4-0.2-1.8-0.6
		c-0.4-0.4-0.7-0.9-0.7-1.6c0-0.8,0.3-1.5,0.9-1.9c0.6-0.5,1.5-0.7,2.6-0.7c0.2,0,0.4,0,0.7,0.1c0-0.8-0.5-1.3-1.6-1.3
		c-0.6,0-1.2,0.1-1.6,0.3L84,19.2c0.6-0.3,1.3-0.4,2-0.4c1.1,0,1.9,0.2,2.4,0.7c0.5,0.5,0.8,1.4,0.8,2.8v1.5c0,1,0.2,1.6,0.6,1.8
		c-0.1,0.2-0.3,0.4-0.5,0.4c-0.2,0.1-0.4,0.1-0.6,0.1c-0.2,0-0.5-0.1-0.6-0.3C87.9,25.8,87.7,25.6,87.7,25.4z M87.5,22.7
		c-0.3-0.1-0.5-0.1-0.6-0.1c-1.3,0-2,0.4-2,1.3c0,0.6,0.4,1,1.1,1c1,0,1.5-0.5,1.5-1.5V22.7z"/>
	<path fill="#FFFFFF" d="M95.6,26.1v-0.4c-0.1,0.2-0.4,0.3-0.7,0.4c-0.3,0.1-0.7,0.2-1,0.2c-1,0-1.8-0.3-2.4-0.9
		c-0.6-0.6-0.9-1.5-0.9-2.6c0-1.1,0.3-2,1-2.8c0.7-0.7,1.5-1.1,2.5-1.1c0.5,0,1,0.1,1.5,0.3v-2.9l1.7-0.4v10.2H95.6z M95.6,20.6
		c-0.4-0.3-0.7-0.4-1.1-0.4c-0.7,0-1.2,0.2-1.5,0.6c-0.4,0.4-0.5,1-0.5,1.8c0,1.5,0.7,2.2,2.1,2.2c0.2,0,0.4,0,0.6-0.1
		c0.2-0.1,0.4-0.2,0.5-0.3V20.6z"/>
	<path fill="#FFFFFF" d="M32.3,42.5V42c-0.1,0.2-0.4,0.3-0.7,0.4c-0.3,0.1-0.7,0.2-1,0.2c-1,0-1.8-0.3-2.4-0.9
		c-0.6-0.6-0.9-1.5-0.9-2.6c0-1.1,0.3-2.1,1-2.8c0.7-0.7,1.5-1.1,2.5-1.1c0.5,0,1,0.1,1.5,0.3v-2.9l1.7-0.4v10.2H32.3z M32.3,37
		c-0.4-0.3-0.7-0.4-1.1-0.4c-0.7,0-1.2,0.2-1.5,0.6c-0.4,0.4-0.5,1-0.5,1.8c0,1.5,0.7,2.2,2.1,2.2c0.2,0,0.4,0,0.6-0.1
		c0.2-0.1,0.4-0.2,0.5-0.3V37z"/>
	<path fill="#FFFFFF" d="M42.1,39.4H37c0,0.6,0.2,1,0.6,1.3c0.4,0.3,0.8,0.5,1.5,0.5c0.8,0,1.3-0.2,1.7-0.6l0.6,1.3
		c-0.6,0.5-1.5,0.7-2.6,0.7c-1.1,0-2-0.3-2.6-1c-0.6-0.6-1-1.5-1-2.7c0-1.1,0.3-2,1-2.7c0.7-0.7,1.5-1,2.5-1c1,0,1.9,0.3,2.5,0.9
		c0.6,0.6,0.9,1.4,0.9,2.4C42.2,38.7,42.2,39,42.1,39.4z M37,38.2h3.5c-0.1-1-0.7-1.6-1.7-1.6C37.8,36.6,37.2,37.1,37,38.2z"/>
	<path fill="#FFFFFF" d="M43.8,32.7l1.7-0.4v8c0,0.9,0.3,1.4,0.8,1.6c-0.3,0.5-0.7,0.7-1.3,0.7c-0.8,0-1.1-0.5-1.1-1.6V32.7z"/>
	<path fill="#FFFFFF" d="M53.2,42.3v3h-1.7v-10h1.7v0.5c0.4-0.4,0.9-0.6,1.5-0.6c2.3,0,3.4,1.3,3.4,3.8c0,1.2-0.3,2.1-0.9,2.7
		c-0.6,0.6-1.5,0.9-2.6,0.9C54.1,42.6,53.7,42.5,53.2,42.3z M53.2,37.1v3.8c0.3,0.2,0.7,0.4,1.1,0.4c0.8,0,1.3-0.2,1.7-0.5
		c0.3-0.4,0.5-0.9,0.5-1.7c0-0.8-0.2-1.4-0.5-1.8c-0.3-0.3-0.9-0.5-1.7-0.5C53.9,36.6,53.5,36.8,53.2,37.1z"/>
	<path fill="#FFFFFF" d="M63.6,41.8c-0.2,0.2-0.4,0.5-0.8,0.6c-0.4,0.2-0.8,0.2-1.2,0.2c-0.8,0-1.4-0.2-1.8-0.6
		c-0.4-0.4-0.7-0.9-0.7-1.6c0-0.8,0.3-1.5,0.9-1.9c0.6-0.5,1.5-0.7,2.6-0.7c0.2,0,0.4,0,0.7,0.1c0-0.8-0.5-1.3-1.6-1.3
		c-0.6,0-1.2,0.1-1.6,0.3l-0.4-1.3c0.6-0.3,1.3-0.4,2-0.4c1.1,0,1.9,0.2,2.4,0.7c0.5,0.5,0.8,1.4,0.8,2.8v1.5c0,1,0.2,1.5,0.6,1.8
		c-0.1,0.2-0.3,0.4-0.5,0.4c-0.2,0.1-0.4,0.1-0.6,0.1c-0.2,0-0.5-0.1-0.6-0.3C63.8,42.2,63.7,42,63.6,41.8z M63.5,39.1
		C63.2,39.1,63,39,62.8,39c-1.3,0-2,0.4-2,1.3c0,0.6,0.4,1,1.1,1c1,0,1.5-0.5,1.5-1.5V39.1z"/>
	<path fill="#FFFFFF" d="M72.5,35.9l-0.7,1.2c-0.4-0.4-0.9-0.6-1.6-0.6c-0.6,0-1.1,0.2-1.5,0.6c-0.4,0.4-0.6,1-0.6,1.7
		c0,1.5,0.7,2.2,2.1,2.2c0.6,0,1.2-0.2,1.6-0.6l0.6,1.3c-0.5,0.3-0.9,0.5-1.3,0.6c-0.4,0.1-0.8,0.1-1.3,0.1c-1.1,0-2-0.3-2.6-1
		c-0.6-0.6-1-1.5-1-2.7c0-1.1,0.3-2,1-2.7c0.7-0.7,1.7-1,2.9-1C71.2,35.2,71.9,35.4,72.5,35.9z"/>
	<path fill="#FFFFFF" d="M74.4,42.5v-5.8h-0.9v-1.4h2.6v7.1H74.4z M75.2,32.6c0.3,0,0.5,0.1,0.7,0.3c0.2,0.2,0.3,0.4,0.3,0.7
		c0,0.3-0.1,0.5-0.3,0.7c-0.2,0.2-0.4,0.3-0.7,0.3c-0.3,0-0.5-0.1-0.7-0.3c-0.2-0.2-0.3-0.4-0.3-0.7c0-0.3,0.1-0.5,0.3-0.7
		C74.7,32.7,75,32.6,75.2,32.6z"/>
	<path fill="#FFFFFF" d="M84.4,39.4h-5.1c0,0.6,0.2,1,0.6,1.3c0.4,0.3,0.8,0.5,1.5,0.5c0.8,0,1.3-0.2,1.7-0.6l0.6,1.3
		c-0.6,0.5-1.5,0.7-2.6,0.7c-1.1,0-2-0.3-2.6-1c-0.6-0.6-1-1.5-1-2.7c0-1.1,0.3-2,1-2.7c0.7-0.7,1.5-1,2.5-1c1,0,1.9,0.3,2.5,0.9
		c0.6,0.6,0.9,1.4,0.9,2.4C84.5,38.7,84.5,39,84.4,39.4z M79.3,38.2h3.5c-0.1-1-0.7-1.6-1.7-1.6C80.2,36.6,79.6,37.1,79.3,38.2z"/>
	<path fill="#FFFFFF" d="M90.5,42.5v-4.1c0-0.6-0.1-1.1-0.4-1.3c-0.2-0.3-0.6-0.4-1.1-0.4c-0.2,0-0.5,0.1-0.8,0.2
		c-0.3,0.1-0.5,0.3-0.7,0.5v5.2h-1.7v-7.1h1.2l0.3,0.7c0.5-0.5,1.1-0.8,2-0.8c0.8,0,1.5,0.3,2,0.8c0.5,0.5,0.7,1.2,0.7,2.1v4.4H90.5
		z"/>
	<path fill="#FFFFFF" d="M94.2,36.7h-0.8v-1.3h0.8v-1.5l1.7-0.6v2.1h2v1.3h-2v3.1c0,0.5,0.1,0.9,0.2,1.1c0.2,0.2,0.4,0.3,0.8,0.3
		c0.4,0,0.8-0.1,1.1-0.3v1.5c-0.4,0.1-0.9,0.2-1.7,0.2c-0.7,0-1.3-0.2-1.6-0.6c-0.4-0.4-0.6-1-0.6-1.7V36.7z"/>
	<path fill="#FFFFFF" d="M105.7,39.4h-5.1c0,0.6,0.2,1,0.6,1.3c0.4,0.3,0.8,0.5,1.5,0.5c0.8,0,1.3-0.2,1.7-0.6l0.6,1.3
		c-0.6,0.5-1.5,0.7-2.6,0.7c-1.1,0-2-0.3-2.6-1c-0.6-0.6-1-1.5-1-2.7c0-1.1,0.3-2,1-2.7c0.7-0.7,1.5-1,2.5-1c1,0,1.9,0.3,2.5,0.9
		c0.6,0.6,0.9,1.4,0.9,2.4C105.9,38.7,105.8,39,105.7,39.4z M100.7,38.2h3.5c-0.1-1-0.7-1.6-1.7-1.6
		C101.5,36.6,100.9,37.1,100.7,38.2z"/>
</g>
</svg>
