<!-- Generator: Adobe Illustrator 18.1.0, SVG Export Plug-In  -->
<svg version="1.1"
	 xmlns="http://www.w3.org/2000/svg" xmlns:xlink="http://www.w3.org/1999/xlink" xmlns:a="http://ns.adobe.com/AdobeSVGViewerExtensions/3.0/"
	 x="0px" y="0px" width="117.5px" height="57.8px" viewBox="0 0 117.5 57.8" enable-background="new 0 0 117.5 57.8"
	 xml:space="preserve">
<defs>
</defs>
<g>
	<ellipse fill="#95C11F" cx="58.8" cy="28.9" rx="58.8" ry="28.9"/>
</g>
<g>
	<path fill="#FFFFFF" d="M46.4,20.3l0.6-1.6c0.7,0.5,1.4,0.7,2,0.7c1,0,1.5-0.4,1.5-1.1c0-0.3-0.1-0.7-0.4-1c-0.2-0.3-0.7-0.6-1.5-1
		c-0.8-0.4-1.3-0.7-1.5-0.9c-0.3-0.2-0.5-0.5-0.6-0.9c-0.1-0.3-0.2-0.7-0.2-1.1c0-0.8,0.3-1.4,0.8-1.9c0.6-0.5,1.3-0.7,2.1-0.7
		c1.1,0,2,0.2,2.5,0.6L51.3,13c-0.6-0.4-1.3-0.7-1.9-0.7c-0.4,0-0.7,0.1-0.9,0.3c-0.2,0.2-0.3,0.5-0.3,0.8c0,0.6,0.6,1.1,1.9,1.7
		c0.7,0.3,1.1,0.6,1.4,0.9c0.3,0.3,0.5,0.6,0.7,0.9c0.2,0.4,0.2,0.8,0.2,1.2c0,0.8-0.3,1.4-0.9,2c-0.6,0.5-1.5,0.8-2.5,0.8
		C47.9,21,47.1,20.7,46.4,20.3z"/>
	<path fill="#FFFFFF" d="M61,11.8l-0.7,1.4c-0.2-0.2-0.5-0.4-0.9-0.5c-0.4-0.2-0.8-0.3-1.1-0.3c-1,0-1.7,0.3-2.3,1
		c-0.6,0.7-0.8,1.5-0.8,2.6c0,1,0.3,1.9,0.8,2.5c0.5,0.6,1.3,0.9,2.2,0.9c0.6,0,1.1-0.2,1.5-0.5V17h-1.4v-1.5h3.1v4.4
		c-0.4,0.3-0.9,0.6-1.6,0.8c-0.7,0.2-1.3,0.3-1.9,0.3c-1.4,0-2.5-0.5-3.3-1.4c-0.8-0.9-1.2-2.1-1.2-3.6c0-1.5,0.4-2.7,1.3-3.7
		c0.9-0.9,2.1-1.4,3.6-1.4C59.4,10.9,60.3,11.2,61,11.8z"/>
	<path fill="#FFFFFF" d="M69.7,11.6L69,13c-0.4-0.4-1-0.6-1.9-0.6c-0.8,0-1.5,0.3-2,1c-0.5,0.7-0.8,1.5-0.8,2.6c0,1,0.2,1.9,0.7,2.5
		c0.5,0.6,1.1,0.9,1.9,0.9c0.9,0,1.6-0.3,2.2-1l0.8,1.4c-0.7,0.8-1.7,1.1-3.1,1.1c-1.4,0-2.4-0.4-3.2-1.3c-0.8-0.9-1.1-2.1-1.1-3.7
		c0-1.4,0.4-2.7,1.3-3.6c0.8-1,1.9-1.5,3.2-1.5C68.1,10.9,69,11.1,69.7,11.6z"/>
	<path fill="#FFFFFF" d="M29.9,37.2l-0.7-2h-3.4l-0.7,2h-1.9l3.9-9.9h0.8l3.9,9.9H29.9z M27.5,30.3l-1.2,3.6h2.3L27.5,30.3z"/>
	<path fill="#FFFFFF" d="M38.4,30.6l-0.7,1.3c-0.4-0.4-0.9-0.6-1.6-0.6c-0.6,0-1.1,0.2-1.5,0.6c-0.4,0.4-0.6,1-0.6,1.7
		c0,1.5,0.7,2.3,2.1,2.3c0.6,0,1.2-0.2,1.6-0.6l0.6,1.3c-0.5,0.3-0.9,0.5-1.3,0.6c-0.4,0.1-0.8,0.1-1.3,0.1c-1.1,0-2-0.3-2.6-1
		c-0.6-0.6-1-1.5-1-2.7c0-1.1,0.3-2,1-2.7c0.7-0.7,1.7-1,2.9-1C37,29.9,37.8,30.2,38.4,30.6z"/>
	<path fill="#FFFFFF" d="M43.9,31.6c-0.3-0.2-0.6-0.3-1-0.3c-0.4,0-0.7,0.2-1,0.5c-0.3,0.4-0.5,0.8-0.5,1.3v4.1h-1.7v-7.1h1.7v0.7
		c0.5-0.5,1.1-0.8,1.9-0.8c0.6,0,1,0.1,1.3,0.3L43.9,31.6z"/>
	<path fill="#FFFFFF" d="M52,34.2h-5.1c0,0.6,0.2,1,0.6,1.3c0.4,0.3,0.8,0.5,1.5,0.5c0.8,0,1.3-0.2,1.7-0.6l0.6,1.3
		c-0.6,0.5-1.5,0.7-2.6,0.7c-1.1,0-2-0.3-2.6-1c-0.6-0.6-1-1.5-1-2.7c0-1.1,0.3-2,1-2.7c0.7-0.7,1.5-1,2.5-1c1,0,1.9,0.3,2.5,0.9
		c0.6,0.6,0.9,1.4,0.9,2.4C52.1,33.4,52.1,33.7,52,34.2z M46.9,32.9h3.5c-0.1-1-0.7-1.6-1.7-1.6C47.8,31.3,47.2,31.9,46.9,32.9z"/>
	<path fill="#FFFFFF" d="M58.1,37.2v-0.4c-0.1,0.2-0.4,0.3-0.7,0.4c-0.3,0.1-0.7,0.2-1,0.2c-1,0-1.8-0.3-2.4-0.9
		c-0.6-0.6-0.9-1.5-0.9-2.6c0-1.1,0.3-2.1,1-2.8c0.7-0.7,1.5-1.1,2.5-1.1c0.5,0,1,0.1,1.5,0.3v-2.9l1.7-0.4v10.2H58.1z M58.1,31.8
		c-0.4-0.3-0.7-0.4-1.1-0.4c-0.7,0-1.2,0.2-1.5,0.6c-0.4,0.4-0.5,1-0.5,1.8c0,1.5,0.7,2.2,2.1,2.2c0.2,0,0.4,0,0.6-0.1
		c0.2-0.1,0.4-0.2,0.5-0.3V31.8z"/>
	<path fill="#FFFFFF" d="M61.9,37.2v-5.8h-0.9v-1.4h2.6v7.1H61.9z M62.7,27.3c0.3,0,0.5,0.1,0.7,0.3c0.2,0.2,0.3,0.4,0.3,0.7
		c0,0.3-0.1,0.5-0.3,0.7c-0.2,0.2-0.4,0.3-0.7,0.3c-0.3,0-0.5-0.1-0.7-0.3c-0.2-0.2-0.3-0.4-0.3-0.7c0-0.3,0.1-0.5,0.3-0.7
		C62.2,27.4,62.4,27.3,62.7,27.3z"/>
	<path fill="#FFFFFF" d="M65.7,31.4h-0.8v-1.3h0.8v-1.5l1.7-0.6v2.1h2v1.3h-2v3.1c0,0.5,0.1,0.9,0.2,1.1c0.2,0.2,0.4,0.3,0.8,0.3
		c0.4,0,0.8-0.1,1.1-0.3v1.5c-0.4,0.1-0.9,0.2-1.7,0.2c-0.7,0-1.3-0.2-1.6-0.6c-0.4-0.4-0.6-1-0.6-1.7V31.4z"/>
	<path fill="#FFFFFF" d="M74.9,36.5c-0.2,0.3-0.4,0.5-0.8,0.6s-0.8,0.2-1.2,0.2c-0.8,0-1.4-0.2-1.8-0.6c-0.4-0.4-0.7-0.9-0.7-1.6
		c0-0.8,0.3-1.5,0.9-1.9c0.6-0.5,1.5-0.7,2.6-0.7c0.2,0,0.4,0,0.7,0.1c0-0.8-0.5-1.3-1.6-1.3c-0.6,0-1.2,0.1-1.6,0.3l-0.4-1.3
		c0.6-0.3,1.3-0.4,2-0.4c1.1,0,1.9,0.2,2.4,0.7c0.5,0.5,0.8,1.4,0.8,2.8V35c0,1,0.2,1.6,0.6,1.8c-0.1,0.2-0.3,0.4-0.5,0.4
		c-0.2,0.1-0.4,0.1-0.6,0.1c-0.2,0-0.5-0.1-0.6-0.3C75.1,36.9,74.9,36.7,74.9,36.5z M74.7,33.9c-0.3-0.1-0.5-0.1-0.6-0.1
		c-1.3,0-2,0.4-2,1.3c0,0.6,0.4,1,1.1,1c1,0,1.5-0.5,1.5-1.5V33.9z"/>
	<path fill="#FFFFFF" d="M82.8,37.2v-0.4c-0.1,0.2-0.4,0.3-0.7,0.4c-0.3,0.1-0.7,0.2-1,0.2c-1,0-1.8-0.3-2.4-0.9
		c-0.6-0.6-0.9-1.5-0.9-2.6c0-1.1,0.3-2.1,1-2.8c0.7-0.7,1.5-1.1,2.5-1.1c0.5,0,1,0.1,1.5,0.3v-2.9l1.7-0.4v10.2H82.8z M82.8,31.8
		c-0.4-0.3-0.7-0.4-1.1-0.4c-0.7,0-1.2,0.2-1.5,0.6c-0.4,0.4-0.5,1-0.5,1.8c0,1.5,0.7,2.2,2.1,2.2c0.2,0,0.4,0,0.6-0.1
		c0.2-0.1,0.4-0.2,0.5-0.3V31.8z"/>
	<path fill="#FFFFFF" d="M85.7,33.6c0-1.1,0.3-2,0.9-2.7c0.6-0.7,1.5-1,2.5-1c1.1,0,1.9,0.3,2.5,1c0.6,0.7,0.9,1.6,0.9,2.7
		c0,1.1-0.3,2-0.9,2.7c-0.6,0.7-1.4,1-2.5,1c-1.1,0-1.9-0.3-2.5-1C86,35.7,85.7,34.8,85.7,33.6z M87.4,33.6c0,1.6,0.6,2.4,1.7,2.4
		c0.5,0,0.9-0.2,1.2-0.6c0.3-0.4,0.5-1,0.5-1.8c0-1.6-0.6-2.3-1.7-2.3c-0.5,0-0.9,0.2-1.2,0.6C87.5,32.3,87.4,32.9,87.4,33.6z"/>
</g>
</svg>
