<?xml version="1.0" encoding="utf-8"?>
<!-- Generator: Adobe Illustrator 18.1.0, SVG Export Plug-In . SVG Version: 6.00 Build 0)  -->
<!DOCTYPE svg PUBLIC "-//W3C//DTD SVG 1.1//EN" "http://www.w3.org/Graphics/SVG/1.1/DTD/svg11.dtd">
<svg version="1.1" id="Capa_1" xmlns="http://www.w3.org/2000/svg" xmlns:xlink="http://www.w3.org/1999/xlink" x="0px" y="0px"
	 viewBox="-251 399.7 91.3 43.2" enable-background="new -251 399.7 91.3 43.2" xml:space="preserve">
<g>
	<ellipse fill="#A2C037" cx="-205.8" cy="421.3" rx="45.2" ry="21.6"/>
</g>
<rect x="-248.3" y="404.4" fill="none" width="88.7" height="38"/>
<g enable-background="new    ">
	<path fill="#FFFFFF" d="M-230.4,412.2l0.4-1c0.2,0.1,0.5,0.3,0.7,0.4c0.3,0.1,0.6,0.1,0.8,0.1c0.4,0,0.8-0.1,1-0.3
		c0.3-0.2,0.4-0.5,0.4-0.9c0-0.3-0.1-0.5-0.2-0.7c-0.1-0.2-0.5-0.5-1.1-0.7l-0.6-0.3c-0.5-0.3-0.9-0.5-1.1-0.9
		c-0.2-0.3-0.3-0.8-0.3-1.2c0-0.6,0.2-1.1,0.6-1.5s0.9-0.6,1.6-0.6c0.9,0,1.5,0.1,1.8,0.4l-0.3,0.9c-0.1-0.1-0.4-0.2-0.7-0.3
		c-0.3-0.1-0.6-0.1-0.8-0.1c-0.4,0-0.7,0.1-0.9,0.3c-0.2,0.2-0.3,0.5-0.3,0.8c0,0.2,0,0.4,0.1,0.5c0.1,0.2,0.2,0.3,0.3,0.4
		c0.1,0.1,0.4,0.3,0.8,0.5l0.6,0.3c0.5,0.3,0.9,0.6,1.1,0.9c0.2,0.4,0.3,0.8,0.3,1.3c0,0.6-0.2,1.1-0.7,1.5
		c-0.5,0.4-1.1,0.6-1.9,0.6C-229.3,412.7-229.9,412.5-230.4,412.2z"/>
	<path fill="#FFFFFF" d="M-224.3,412.5v-4.9h-0.8v-0.9h1.8v5.8H-224.3z M-223.7,404.6c0.2,0,0.3,0.1,0.4,0.2
		c0.1,0.1,0.2,0.3,0.2,0.4c0,0.2-0.1,0.3-0.2,0.4c-0.1,0.1-0.3,0.2-0.4,0.2c-0.2,0-0.3-0.1-0.4-0.2c-0.1-0.1-0.2-0.3-0.2-0.4
		c0-0.2,0.1-0.3,0.2-0.4S-223.9,404.6-223.7,404.6z"/>
	<path fill="#FFFFFF" d="M-222,412.2l0.4-1c0.6,0.4,1,0.6,1.4,0.6c0.6,0,0.9-0.3,0.9-0.8c0-0.4-0.3-0.7-0.9-1
		c-0.5-0.2-0.8-0.4-0.9-0.5c-0.2-0.1-0.3-0.2-0.4-0.4c-0.1-0.1-0.2-0.3-0.3-0.5c-0.1-0.2-0.1-0.3-0.1-0.5c0-0.5,0.2-0.8,0.5-1.1
		c0.3-0.3,0.8-0.4,1.3-0.4c0.4,0,0.9,0.1,1.6,0.4l-0.3,0.9c-0.4-0.3-0.8-0.5-1.2-0.5c-0.2,0-0.4,0.1-0.6,0.2
		c-0.2,0.1-0.3,0.3-0.3,0.4c0,0.4,0.2,0.6,0.6,0.8l0.7,0.3c0.4,0.2,0.8,0.4,1,0.7s0.3,0.6,0.3,1c0,0.5-0.2,0.9-0.5,1.2
		s-0.9,0.4-1.5,0.4C-220.9,412.6-221.5,412.5-222,412.2z"/>
	<path fill="#FFFFFF" d="M-216.8,407.6h-0.7v-0.8h0.7v-1.2l1-0.4v1.6h1.6v0.8h-1.6v2.9c0,0.5,0.1,0.8,0.2,1c0.2,0.2,0.4,0.3,0.8,0.3
		c0.3,0,0.5-0.1,0.8-0.2l0.2,0.9c-0.4,0.1-0.9,0.2-1.4,0.2c-0.5,0-0.8-0.2-1.2-0.5c-0.3-0.3-0.5-0.8-0.5-1.3V407.6z"/>
	<path fill="#FFFFFF" d="M-208,409.7h-4.1c0,0.7,0.2,1.2,0.6,1.6c0.3,0.3,0.7,0.5,1.3,0.5c0.6,0,1.1-0.2,1.5-0.5l0.4,0.7
		c-0.2,0.2-0.4,0.3-0.7,0.4c-0.4,0.2-0.9,0.2-1.4,0.2c-0.7,0-1.3-0.2-1.8-0.7c-0.6-0.5-0.8-1.3-0.8-2.2c0-0.9,0.3-1.7,0.9-2.3
		c0.5-0.5,1.1-0.8,1.8-0.8c0.8,0,1.5,0.2,1.9,0.7c0.5,0.4,0.7,1,0.7,1.8C-207.9,409.4-207.9,409.6-208,409.7z M-210.5,407.5
		c-0.5,0-0.8,0.1-1.1,0.4c-0.3,0.3-0.5,0.6-0.5,1h3.2c0-0.4-0.1-0.8-0.4-1C-209.6,407.7-210,407.5-210.5,407.5z"/>
	<path fill="#FFFFFF" d="M-200.2,412.5v-3.6c0-0.9-0.4-1.4-1.2-1.4c-0.2,0-0.5,0.1-0.7,0.2s-0.4,0.3-0.4,0.5v4.3h-1v-4.1
		c0-0.3-0.1-0.5-0.3-0.7c-0.2-0.2-0.5-0.2-0.8-0.2c-0.2,0-0.4,0.1-0.7,0.2c-0.2,0.2-0.4,0.3-0.5,0.5v4.2h-1v-5.8h0.7l0.3,0.7
		c0.4-0.5,0.9-0.8,1.5-0.8c0.8,0,1.4,0.3,1.7,0.8c0.1-0.2,0.3-0.4,0.6-0.5s0.6-0.2,1-0.2c0.6,0,1.1,0.2,1.4,0.5
		c0.3,0.4,0.5,0.8,0.5,1.5v3.8H-200.2z"/>
	<path fill="#FFFFFF" d="M-194.5,411.9c-0.4,0.5-1,0.8-1.9,0.8c-0.5,0-0.8-0.2-1.2-0.5c-0.3-0.3-0.5-0.7-0.5-1.2
		c0-0.6,0.3-1.1,0.8-1.5c0.5-0.4,1.2-0.6,2-0.6c0.2,0,0.5,0,0.7,0.1c0-0.9-0.4-1.4-1.2-1.4c-0.6,0-1.1,0.2-1.5,0.5l-0.4-0.9
		c0.2-0.2,0.5-0.3,0.8-0.4c0.3-0.1,0.7-0.2,1-0.2c0.8,0,1.4,0.2,1.8,0.6c0.4,0.4,0.6,1,0.6,1.8v2.1c0,0.5,0.2,0.8,0.5,1v0.5
		c-0.4,0-0.7-0.1-0.9-0.2C-194.2,412.3-194.4,412.1-194.5,411.9z M-194.6,409.7c-0.3-0.1-0.5-0.1-0.7-0.1c-0.5,0-0.9,0.1-1.3,0.4
		c-0.3,0.3-0.5,0.6-0.5,0.9c0,0.6,0.4,0.9,1.1,0.9c0.5,0,1-0.2,1.4-0.7V409.7z"/>
	<path fill="#FFFFFF" d="M-185,412.5v-0.4c-0.4,0.4-0.9,0.5-1.5,0.5c-0.7,0-1.3-0.3-1.8-0.8c-0.4-0.5-0.7-1.2-0.7-2.1
		c0-0.9,0.3-1.6,0.8-2.2s1.1-0.9,1.8-0.9c0.6,0,1,0.1,1.4,0.4v-2.7h1v8.1H-185z M-185,408.1c-0.3-0.4-0.6-0.6-1.1-0.6
		c-0.5,0-1,0.2-1.3,0.6c-0.3,0.4-0.5,0.9-0.5,1.6c0,1.4,0.6,2.1,1.9,2.1c0.2,0,0.4-0.1,0.6-0.2c0.2-0.1,0.4-0.2,0.4-0.3V408.1z"/>
	<path fill="#FFFFFF" d="M-177.6,409.7h-4.1c0,0.7,0.2,1.2,0.6,1.6c0.3,0.3,0.7,0.5,1.3,0.5c0.6,0,1.1-0.2,1.5-0.5l0.4,0.7
		c-0.2,0.2-0.4,0.3-0.7,0.4c-0.4,0.2-0.9,0.2-1.4,0.2c-0.7,0-1.3-0.2-1.8-0.7c-0.6-0.5-0.8-1.3-0.8-2.2c0-0.9,0.3-1.7,0.9-2.3
		c0.5-0.5,1.1-0.8,1.8-0.8c0.8,0,1.5,0.2,1.9,0.7c0.5,0.4,0.7,1,0.7,1.8C-177.6,409.4-177.6,409.6-177.6,409.7z M-180.1,407.5
		c-0.5,0-0.8,0.1-1.1,0.4c-0.3,0.3-0.5,0.6-0.5,1h3.2c0-0.4-0.1-0.8-0.4-1C-179.2,407.7-179.6,407.5-180.1,407.5z"/>
</g>
<g enable-background="new    ">
	<path fill="#FFFFFF" d="M-216.4,418.4l-0.4,0.9c-0.5-0.4-1.1-0.6-1.6-0.6c-0.8,0-1.5,0.3-1.9,0.9s-0.7,1.3-0.7,2.3
		c0,0.9,0.2,1.6,0.7,2.2c0.5,0.6,1.1,0.8,1.9,0.8c0.6,0,1-0.2,1.4-0.5v-1.8h-1.1v-0.9h2.2v3.4c-0.3,0.2-0.7,0.4-1.2,0.6
		s-1,0.2-1.5,0.2c-1.1,0-1.9-0.4-2.6-1.1c-0.6-0.7-0.9-1.7-0.9-2.9c0-1.2,0.3-2.2,1-3c0.7-0.8,1.6-1.1,2.8-1.1
		C-217.6,417.7-217,418-216.4,418.4z"/>
	<path fill="#FFFFFF" d="M-209.7,422.9h-4.1c0,0.7,0.2,1.2,0.6,1.6c0.3,0.3,0.7,0.5,1.3,0.5c0.6,0,1.1-0.2,1.5-0.5l0.4,0.7
		c-0.2,0.2-0.4,0.3-0.7,0.4c-0.4,0.2-0.9,0.2-1.4,0.2c-0.7,0-1.3-0.2-1.8-0.7c-0.6-0.5-0.8-1.3-0.8-2.2c0-0.9,0.3-1.7,0.9-2.3
		c0.5-0.5,1.1-0.8,1.8-0.8c0.8,0,1.5,0.2,1.9,0.7c0.5,0.4,0.7,1,0.7,1.8C-209.6,422.6-209.6,422.8-209.7,422.9z M-212.2,420.7
		c-0.5,0-0.8,0.1-1.1,0.4c-0.3,0.3-0.5,0.6-0.5,1h3.2c0-0.4-0.1-0.8-0.4-1C-211.3,420.9-211.7,420.7-212.2,420.7z"/>
	<path fill="#FFFFFF" d="M-208.9,425.4l0.4-1c0.6,0.4,1,0.6,1.4,0.6c0.6,0,0.9-0.3,0.9-0.8c0-0.4-0.3-0.7-0.9-1
		c-0.5-0.2-0.8-0.4-0.9-0.5c-0.2-0.1-0.3-0.2-0.4-0.4c-0.1-0.1-0.2-0.3-0.3-0.5c-0.1-0.2-0.1-0.3-0.1-0.5c0-0.5,0.2-0.8,0.5-1.1
		c0.3-0.3,0.8-0.4,1.3-0.4c0.4,0,0.9,0.1,1.6,0.4l-0.3,0.9c-0.4-0.3-0.8-0.5-1.2-0.5c-0.2,0-0.4,0.1-0.6,0.2
		c-0.2,0.1-0.3,0.3-0.3,0.4c0,0.4,0.2,0.6,0.6,0.8l0.7,0.3c0.4,0.2,0.8,0.4,1,0.7s0.3,0.6,0.3,1c0,0.5-0.2,0.9-0.5,1.2
		s-0.9,0.4-1.5,0.4C-207.8,425.8-208.4,425.7-208.9,425.4z"/>
	<path fill="#FFFFFF" d="M-203.7,420.8h-0.7V420h0.7v-1.2l1-0.4v1.6h1.6v0.8h-1.6v2.9c0,0.5,0.1,0.8,0.2,1c0.2,0.2,0.4,0.3,0.8,0.3
		c0.3,0,0.5-0.1,0.8-0.2l0.2,0.9c-0.4,0.1-0.9,0.2-1.4,0.2c-0.5,0-0.8-0.2-1.2-0.5c-0.3-0.3-0.5-0.8-0.5-1.3V420.8z"/>
	<path fill="#FFFFFF" d="M-199.2,425.7v-4.9h-0.8V420h1.8v5.8H-199.2z M-198.7,417.8c0.2,0,0.3,0.1,0.4,0.2c0.1,0.1,0.2,0.3,0.2,0.4
		c0,0.2-0.1,0.3-0.2,0.4c-0.1,0.1-0.3,0.2-0.4,0.2c-0.2,0-0.3-0.1-0.4-0.2c-0.1-0.1-0.2-0.3-0.2-0.4c0-0.2,0.1-0.3,0.2-0.4
		C-199,417.9-198.8,417.8-198.7,417.8z"/>
	<path fill="#FFFFFF" d="M-197,422.8c0-0.9,0.2-1.6,0.7-2.2c0.5-0.5,1.1-0.8,1.9-0.8c0.8,0,1.5,0.3,1.9,0.8c0.5,0.5,0.7,1.3,0.7,2.2
		c0,0.9-0.2,1.7-0.7,2.2c-0.5,0.5-1.1,0.8-1.9,0.8c-0.8,0-1.5-0.3-1.9-0.8C-196.7,424.5-197,423.8-197,422.8z M-195.9,422.8
		c0,1.4,0.5,2.2,1.5,2.2c0.5,0,0.8-0.2,1.1-0.6c0.3-0.4,0.4-0.9,0.4-1.6c0-1.4-0.5-2.1-1.5-2.1c-0.5,0-0.8,0.2-1.1,0.6
		C-195.8,421.6-195.9,422.2-195.9,422.8z M-193.2,417l-1.2,1.8h-0.8l0.9-1.8H-193.2z"/>
	<path fill="#FFFFFF" d="M-187.1,425.7v-3.3c0-0.6-0.1-1-0.3-1.3s-0.5-0.4-0.9-0.4c-0.2,0-0.5,0.1-0.7,0.2c-0.3,0.1-0.4,0.3-0.6,0.5
		v4.3h-1V420h0.7l0.3,0.7c0.3-0.6,0.9-0.8,1.6-0.8c1.3,0,1.9,0.8,1.9,2.3v3.6H-187.1z"/>
</g>
<g enable-background="new    ">
	<path fill="#FFFFFF" d="M-225.6,431.3l-0.4,0.9c-0.3-0.3-0.9-0.4-1.6-0.4c-0.7,0-1.2,0.3-1.7,0.9c-0.4,0.6-0.6,1.4-0.6,2.3
		c0,0.9,0.2,1.6,0.6,2.2c0.4,0.6,1,0.8,1.7,0.8c0.7,0,1.3-0.3,1.7-0.8l0.6,0.8c-0.6,0.6-1.4,0.9-2.4,0.9c-1,0-1.8-0.4-2.4-1.1
		s-0.9-1.7-0.9-2.9c0-1.2,0.3-2.2,0.9-2.9c0.6-0.8,1.4-1.2,2.4-1.2C-226.7,430.9-226.1,431.1-225.6,431.3z"/>
	<path fill="#FFFFFF" d="M-219.3,436.1h-4.1c0,0.7,0.2,1.2,0.6,1.6c0.3,0.3,0.7,0.5,1.3,0.5c0.6,0,1.1-0.2,1.5-0.5l0.4,0.7
		c-0.2,0.2-0.4,0.3-0.7,0.4c-0.4,0.2-0.9,0.2-1.4,0.2c-0.7,0-1.3-0.2-1.8-0.7c-0.6-0.5-0.8-1.3-0.8-2.2c0-0.9,0.3-1.7,0.9-2.3
		c0.5-0.5,1.1-0.8,1.8-0.8c0.8,0,1.5,0.2,1.9,0.7c0.5,0.4,0.7,1,0.7,1.8C-219.2,435.8-219.2,436-219.3,436.1z M-221.7,433.9
		c-0.5,0-0.8,0.1-1.1,0.4c-0.3,0.3-0.5,0.6-0.5,1h3.2c0-0.4-0.1-0.8-0.4-1C-220.9,434.1-221.2,433.9-221.7,433.9z"/>
	<path fill="#FFFFFF" d="M-215,434.2c-0.2-0.2-0.4-0.2-0.7-0.2c-0.4,0-0.7,0.2-0.9,0.5c-0.3,0.3-0.4,0.7-0.4,1.2v3.3h-1v-5.8h1v0.9
		c0.4-0.7,0.9-1,1.7-1c0.2,0,0.4,0,0.8,0.1L-215,434.2z"/>
	<path fill="#FFFFFF" d="M-213.5,434h-0.7v-0.8h0.7V432l1-0.4v1.6h1.6v0.8h-1.6v2.9c0,0.5,0.1,0.8,0.2,1c0.2,0.2,0.4,0.3,0.8,0.3
		c0.3,0,0.5-0.1,0.8-0.2l0.2,0.9c-0.4,0.1-0.9,0.2-1.4,0.2c-0.5,0-0.8-0.2-1.2-0.5c-0.3-0.3-0.5-0.8-0.5-1.3V434z"/>
	<path fill="#FFFFFF" d="M-209,438.9V434h-0.8v-0.9h1.8v5.8H-209z M-208.4,431c0.2,0,0.3,0.1,0.4,0.2c0.1,0.1,0.2,0.3,0.2,0.4
		c0,0.2-0.1,0.3-0.2,0.4c-0.1,0.1-0.3,0.2-0.4,0.2c-0.2,0-0.3-0.1-0.4-0.2c-0.1-0.1-0.2-0.3-0.2-0.4c0-0.2,0.1-0.3,0.2-0.4
		S-208.6,431-208.4,431z"/>
	<path fill="#FFFFFF" d="M-203.2,431.7c-0.2-0.1-0.4-0.1-0.6-0.1c-0.3,0-0.6,0.1-0.8,0.4c-0.2,0.2-0.3,0.5-0.3,0.9
		c0,0.1,0,0.2,0,0.3h1.2v0.9h-1.2v4.9h-1V434h-0.8v-0.9h0.8c0-0.7,0.2-1.3,0.5-1.7c0.4-0.4,0.8-0.6,1.4-0.6c0.3,0,0.6,0.1,1,0.2
		L-203.2,431.7z"/>
	<path fill="#FFFFFF" d="M-201.8,438.9V434h-0.8v-0.9h1.8v5.8H-201.8z M-201.2,431c0.2,0,0.3,0.1,0.4,0.2c0.1,0.1,0.2,0.3,0.2,0.4
		c0,0.2-0.1,0.3-0.2,0.4c-0.1,0.1-0.3,0.2-0.4,0.2c-0.2,0-0.3-0.1-0.4-0.2c-0.1-0.1-0.2-0.3-0.2-0.4c0-0.2,0.1-0.3,0.2-0.4
		C-201.5,431.1-201.4,431-201.2,431z"/>
	<path fill="#FFFFFF" d="M-194.8,433.6l-0.5,0.7c-0.1-0.1-0.3-0.2-0.6-0.3c-0.3-0.1-0.5-0.1-0.8-0.1c-0.6,0-1,0.2-1.3,0.6
		c-0.3,0.4-0.5,0.9-0.5,1.6c0,0.7,0.2,1.2,0.5,1.5s0.8,0.5,1.4,0.5c0.5,0,0.9-0.2,1.4-0.5l0.4,0.9c-0.5,0.4-1.2,0.5-2,0.5
		c-0.8,0-1.4-0.3-1.9-0.8c-0.5-0.5-0.8-1.2-0.8-2.1c0-0.9,0.3-1.7,0.8-2.2c0.5-0.6,1.3-0.8,2.2-0.8c0.3,0,0.6,0.1,1,0.2
		C-195.2,433.4-194.9,433.5-194.8,433.6z"/>
	<path fill="#FFFFFF" d="M-190.4,438.3c-0.4,0.5-1,0.8-1.9,0.8c-0.5,0-0.8-0.2-1.2-0.5c-0.3-0.3-0.5-0.7-0.5-1.2
		c0-0.6,0.3-1.1,0.8-1.5c0.5-0.4,1.2-0.6,2-0.6c0.2,0,0.5,0,0.7,0.1c0-0.9-0.4-1.4-1.2-1.4c-0.6,0-1.1,0.2-1.5,0.5l-0.4-0.9
		c0.2-0.2,0.5-0.3,0.8-0.4c0.3-0.1,0.7-0.2,1-0.2c0.8,0,1.4,0.2,1.8,0.6c0.4,0.4,0.6,1,0.6,1.8v2.1c0,0.5,0.2,0.8,0.5,1v0.5
		c-0.4,0-0.7-0.1-0.9-0.2S-190.3,438.5-190.4,438.3z M-190.5,436.1c-0.3-0.1-0.5-0.1-0.7-0.1c-0.5,0-0.9,0.1-1.3,0.4
		c-0.3,0.3-0.5,0.6-0.5,0.9c0,0.6,0.4,0.9,1.1,0.9c0.5,0,1-0.2,1.4-0.7V436.1z"/>
	<path fill="#FFFFFF" d="M-184.3,438.9v-0.4c-0.4,0.4-0.9,0.5-1.5,0.5c-0.7,0-1.3-0.3-1.8-0.8c-0.4-0.5-0.7-1.2-0.7-2.1
		c0-0.9,0.3-1.6,0.8-2.2s1.1-0.9,1.8-0.9c0.6,0,1,0.1,1.4,0.4v-2.7h1v8.1H-184.3z M-184.3,434.5c-0.3-0.4-0.6-0.6-1.1-0.6
		c-0.5,0-1,0.2-1.3,0.6c-0.3,0.4-0.5,0.9-0.5,1.6c0,1.4,0.6,2.1,1.9,2.1c0.2,0,0.4-0.1,0.6-0.2c0.2-0.1,0.4-0.2,0.4-0.3V434.5z"/>
	<path fill="#FFFFFF" d="M-182.1,436c0-0.9,0.2-1.6,0.7-2.2c0.5-0.5,1.1-0.8,1.9-0.8c0.8,0,1.5,0.3,1.9,0.8c0.5,0.5,0.7,1.3,0.7,2.2
		c0,0.9-0.2,1.7-0.7,2.2c-0.5,0.5-1.1,0.8-1.9,0.8c-0.8,0-1.5-0.3-1.9-0.8C-181.9,437.7-182.1,437-182.1,436z M-181.1,436
		c0,1.4,0.5,2.2,1.5,2.2c0.5,0,0.8-0.2,1.1-0.6c0.3-0.4,0.4-0.9,0.4-1.6c0-1.4-0.5-2.1-1.5-2.1c-0.5,0-0.8,0.2-1.1,0.6
		C-180.9,434.8-181.1,435.4-181.1,436z"/>
</g>
</svg>
