<!-- Generator: Adobe Illustrator 18.1.0, SVG Export Plug-In  -->
<svg version="1.1"
	 xmlns="http://www.w3.org/2000/svg" xmlns:xlink="http://www.w3.org/1999/xlink" xmlns:a="http://ns.adobe.com/AdobeSVGViewerExtensions/3.0/"
	 x="0px" y="0px" width="117.5px" height="57.8px" viewBox="0 0 117.5 57.8" enable-background="new 0 0 117.5 57.8"
	 xml:space="preserve">
<defs>
</defs>
<g>
	<ellipse fill="#95C11F" cx="58.8" cy="28.9" rx="58.8" ry="28.9"/>
</g>
<g>
	<path fill="#FFFFFF" d="M34,20.3l0.6-1.6c0.7,0.5,1.4,0.7,2,0.7c1,0,1.5-0.4,1.5-1.1c0-0.3-0.1-0.7-0.4-1s-0.7-0.6-1.5-1
		c-0.8-0.4-1.3-0.7-1.5-0.9c-0.3-0.2-0.5-0.5-0.6-0.9c-0.1-0.3-0.2-0.7-0.2-1.1c0-0.8,0.3-1.4,0.8-1.9c0.6-0.5,1.3-0.7,2.1-0.7
		c1.1,0,2,0.2,2.5,0.6L38.9,13c-0.6-0.4-1.3-0.7-1.9-0.7c-0.4,0-0.7,0.1-0.9,0.3c-0.2,0.2-0.3,0.5-0.3,0.8c0,0.6,0.6,1.1,1.9,1.7
		c0.7,0.3,1.1,0.6,1.4,0.9c0.3,0.3,0.5,0.6,0.7,0.9c0.2,0.4,0.2,0.8,0.2,1.2c0,0.8-0.3,1.4-0.9,2c-0.6,0.5-1.5,0.8-2.5,0.8
		C35.5,21,34.7,20.7,34,20.3z"/>
	<path fill="#FFFFFF" d="M41.8,20.8V15h-0.9v-1.4h2.6v7.1H41.8z M42.7,10.9c0.3,0,0.5,0.1,0.7,0.3c0.2,0.2,0.3,0.4,0.3,0.7
		c0,0.3-0.1,0.5-0.3,0.7c-0.2,0.2-0.4,0.3-0.7,0.3c-0.3,0-0.5-0.1-0.7-0.3c-0.2-0.2-0.3-0.4-0.3-0.7c0-0.3,0.1-0.5,0.3-0.7
		C42.2,11,42.4,10.9,42.7,10.9z"/>
	<path fill="#FFFFFF" d="M45,20.4l0.6-1.3c0.5,0.4,1.1,0.6,1.7,0.6c0.7,0,1-0.2,1-0.7c0-0.3-0.1-0.5-0.3-0.7
		c-0.2-0.2-0.6-0.4-1.1-0.6c-1.2-0.5-1.8-1.2-1.8-2.2c0-0.6,0.2-1.1,0.7-1.4c0.5-0.3,1.1-0.5,1.8-0.5c0.7,0,1.4,0.2,2.1,0.5
		l-0.5,1.3c-0.4-0.3-0.9-0.5-1.5-0.5c-0.6,0-0.9,0.2-0.9,0.7c0,0.2,0.1,0.3,0.3,0.5c0.2,0.1,0.6,0.3,1.2,0.6
		c0.6,0.2,1.1,0.5,1.4,0.9c0.3,0.4,0.4,0.8,0.4,1.3c0,0.7-0.2,1.2-0.7,1.6c-0.5,0.4-1.2,0.6-2,0.6c-0.5,0-0.9,0-1.1-0.1
		C45.8,20.8,45.4,20.6,45,20.4z"/>
	<path fill="#FFFFFF" d="M51.6,15h-0.8v-1.3h0.8v-1.5l1.7-0.6v2.1h2V15h-2v3.1c0,0.5,0.1,0.9,0.2,1.1c0.2,0.2,0.4,0.3,0.8,0.3
		c0.4,0,0.8-0.1,1.1-0.3v1.5c-0.4,0.1-0.9,0.2-1.7,0.2c-0.7,0-1.3-0.2-1.6-0.6c-0.4-0.4-0.6-1-0.6-1.7V15z"/>
	<path fill="#FFFFFF" d="M63.1,17.8H58c0,0.6,0.2,1,0.6,1.3c0.4,0.3,0.8,0.5,1.5,0.5c0.8,0,1.3-0.2,1.7-0.6l0.6,1.3
		c-0.6,0.5-1.5,0.7-2.6,0.7c-1.1,0-2-0.3-2.6-1c-0.6-0.6-1-1.5-1-2.7c0-1.1,0.3-2,1-2.7c0.7-0.7,1.5-1,2.5-1c1,0,1.9,0.3,2.5,0.9
		c0.6,0.6,0.9,1.4,0.9,2.4C63.3,17,63.2,17.3,63.1,17.8z M58.1,16.5h3.5c-0.1-1-0.7-1.6-1.7-1.6C58.9,14.9,58.3,15.4,58.1,16.5z"/>
	<path fill="#FFFFFF" d="M72.9,20.8v-4.5c0-0.9-0.4-1.4-1.3-1.4c-0.3,0-0.5,0.1-0.7,0.2c-0.2,0.1-0.4,0.3-0.5,0.5v5.2h-1.7v-4.7
		c0-0.4-0.1-0.6-0.3-0.8c-0.2-0.2-0.5-0.3-0.9-0.3c-0.2,0-0.4,0.1-0.7,0.2c-0.2,0.2-0.4,0.3-0.5,0.5v5.1h-1.7v-7.1h1.1l0.3,0.6
		c0.5-0.5,1.1-0.8,1.8-0.8c0.9,0,1.7,0.3,2.1,0.8c0.2-0.2,0.5-0.4,0.9-0.6c0.4-0.1,0.7-0.2,1.1-0.2c0.8,0,1.4,0.2,1.9,0.7
		c0.4,0.5,0.7,1.1,0.7,1.9v4.7H72.9z"/>
	<path fill="#FFFFFF" d="M80.3,20.1c-0.2,0.3-0.4,0.5-0.8,0.6c-0.4,0.2-0.8,0.2-1.2,0.2c-0.8,0-1.4-0.2-1.8-0.6
		c-0.4-0.4-0.7-0.9-0.7-1.6c0-0.8,0.3-1.5,0.9-1.9c0.6-0.5,1.5-0.7,2.6-0.7c0.2,0,0.4,0,0.7,0.1c0-0.8-0.5-1.3-1.6-1.3
		c-0.6,0-1.2,0.1-1.6,0.3l-0.4-1.3c0.6-0.3,1.3-0.4,2-0.4c1.1,0,1.9,0.3,2.4,0.7c0.5,0.5,0.8,1.4,0.8,2.8v1.5c0,1,0.2,1.6,0.6,1.8
		c-0.1,0.2-0.3,0.4-0.5,0.4c-0.2,0.1-0.4,0.1-0.6,0.1c-0.2,0-0.5-0.1-0.6-0.3C80.5,20.5,80.4,20.3,80.3,20.1z M80.2,17.5
		c-0.3-0.1-0.5-0.1-0.6-0.1c-1.3,0-2,0.4-2,1.3c0,0.6,0.4,1,1.1,1c1,0,1.5-0.5,1.5-1.5V17.5z"/>
	<path fill="#FFFFFF" d="M15.4,37.2v-0.4c-0.1,0.2-0.4,0.3-0.7,0.4c-0.3,0.1-0.7,0.2-1,0.2c-1,0-1.8-0.3-2.4-0.9
		c-0.6-0.6-0.9-1.5-0.9-2.6c0-1.1,0.3-2.1,1-2.8c0.7-0.7,1.5-1.1,2.5-1.1c0.5,0,1,0.1,1.5,0.3v-2.9l1.7-0.4v10.2H15.4z M15.4,31.8
		c-0.4-0.3-0.7-0.4-1.1-0.4c-0.7,0-1.2,0.2-1.5,0.6c-0.4,0.4-0.5,1-0.5,1.8c0,1.5,0.7,2.2,2.1,2.2c0.2,0,0.4,0,0.6-0.1
		c0.2-0.1,0.4-0.2,0.5-0.3V31.8z"/>
	<path fill="#FFFFFF" d="M25.1,34.2H20c0,0.6,0.2,1,0.6,1.3c0.4,0.3,0.8,0.5,1.5,0.5c0.8,0,1.3-0.2,1.7-0.6l0.6,1.3
		c-0.6,0.5-1.5,0.7-2.6,0.7c-1.1,0-2-0.3-2.6-1c-0.6-0.6-1-1.5-1-2.7c0-1.1,0.3-2,1-2.7c0.7-0.7,1.5-1,2.5-1c1,0,1.9,0.3,2.5,0.9
		c0.6,0.6,0.9,1.4,0.9,2.4C25.3,33.4,25.2,33.7,25.1,34.2z M20.1,32.9h3.5c-0.1-1-0.7-1.6-1.7-1.6C20.9,31.3,20.3,31.9,20.1,32.9z"
		/>
	<path fill="#FFFFFF" d="M30.9,37.2v-9.8h1.7v9.8H30.9z"/>
	<path fill="#FFFFFF" d="M39.1,37.2v-4.1c0-0.6-0.1-1.1-0.4-1.3c-0.2-0.3-0.6-0.4-1.1-0.4c-0.2,0-0.5,0.1-0.8,0.2
		c-0.3,0.1-0.5,0.3-0.7,0.5v5.2h-1.7v-7.1h1.2l0.3,0.7c0.5-0.5,1.1-0.8,2-0.8c0.8,0,1.5,0.3,2,0.8c0.5,0.5,0.7,1.2,0.7,2.1v4.4H39.1
		z"/>
	<path fill="#FFFFFF" d="M46.6,28.7c-0.4-0.1-0.6-0.2-0.8-0.2c-0.3,0-0.6,0.1-0.8,0.4c-0.2,0.3-0.3,0.6-0.3,1c0,0.1,0,0.1,0,0.2h1.5
		v1.4h-1.5v5.8H43v-5.8h-1v-1.4h1c0-0.9,0.3-1.6,0.8-2.1c0.5-0.5,1.1-0.8,1.9-0.8c0.4,0,0.9,0.1,1.4,0.3L46.6,28.7z"/>
	<path fill="#FFFFFF" d="M47.2,33.6c0-1.1,0.3-2,0.9-2.7c0.6-0.7,1.5-1,2.5-1c1.1,0,1.9,0.3,2.5,1c0.6,0.7,0.9,1.6,0.9,2.7
		c0,1.1-0.3,2-0.9,2.7c-0.6,0.7-1.4,1-2.5,1c-1.1,0-1.9-0.3-2.5-1C47.5,35.7,47.2,34.8,47.2,33.6z M48.9,33.6c0,1.6,0.6,2.4,1.7,2.4
		c0.5,0,0.9-0.2,1.2-0.6c0.3-0.4,0.5-1,0.5-1.8c0-1.6-0.6-2.3-1.7-2.3c-0.5,0-0.9,0.2-1.2,0.6C49.1,32.3,48.9,32.9,48.9,33.6z"/>
	<path fill="#FFFFFF" d="M59.5,31.6c-0.3-0.2-0.6-0.3-1-0.3c-0.4,0-0.7,0.2-1,0.5c-0.3,0.4-0.5,0.8-0.5,1.3v4.1h-1.7v-7.1h1.7v0.7
		c0.5-0.5,1.1-0.8,1.9-0.8c0.6,0,1,0.1,1.3,0.3L59.5,31.6z"/>
	<path fill="#FFFFFF" d="M69.5,37.2v-4.5c0-0.9-0.4-1.4-1.3-1.4c-0.3,0-0.5,0.1-0.7,0.2c-0.2,0.1-0.4,0.3-0.5,0.5v5.2h-1.7v-4.7
		c0-0.3-0.1-0.6-0.3-0.8c-0.2-0.2-0.5-0.3-0.9-0.3c-0.2,0-0.4,0.1-0.7,0.2c-0.2,0.2-0.4,0.3-0.5,0.5v5.1h-1.7v-7.1h1.1l0.3,0.6
		c0.5-0.5,1.1-0.8,1.8-0.8c0.9,0,1.7,0.3,2.1,0.8c0.2-0.2,0.5-0.4,0.9-0.6c0.4-0.1,0.7-0.2,1.1-0.2c0.8,0,1.4,0.2,1.9,0.7
		c0.4,0.5,0.7,1.1,0.7,1.9v4.7H69.5z"/>
	<path fill="#FFFFFF" d="M77,36.5c-0.2,0.3-0.4,0.5-0.8,0.6c-0.4,0.2-0.8,0.2-1.2,0.2c-0.8,0-1.4-0.2-1.8-0.6
		c-0.4-0.4-0.7-0.9-0.7-1.6c0-0.8,0.3-1.5,0.9-1.9c0.6-0.5,1.5-0.7,2.6-0.7c0.2,0,0.4,0,0.7,0.1c0-0.8-0.5-1.3-1.6-1.3
		c-0.6,0-1.2,0.1-1.6,0.3l-0.4-1.3c0.6-0.3,1.3-0.4,2-0.4c1.1,0,1.9,0.2,2.4,0.7c0.5,0.5,0.8,1.4,0.8,2.8V35c0,1,0.2,1.6,0.6,1.8
		c-0.1,0.2-0.3,0.4-0.5,0.4c-0.2,0.1-0.4,0.1-0.6,0.1c-0.2,0-0.5-0.1-0.6-0.3C77.2,36.9,77,36.7,77,36.5z M76.8,33.9
		c-0.3-0.1-0.5-0.1-0.6-0.1c-1.3,0-2,0.4-2,1.3c0,0.6,0.4,1,1.1,1c1,0,1.5-0.5,1.5-1.5V33.9z"/>
	<path fill="#FFFFFF" d="M85.9,30.6l-0.7,1.3c-0.4-0.4-0.9-0.6-1.6-0.6c-0.6,0-1.1,0.2-1.5,0.6c-0.4,0.4-0.5,1-0.5,1.7
		c0,1.5,0.7,2.3,2.1,2.3c0.6,0,1.2-0.2,1.6-0.6l0.6,1.3c-0.5,0.3-0.9,0.5-1.3,0.6c-0.4,0.1-0.8,0.1-1.3,0.1c-1.1,0-2-0.3-2.6-1
		c-0.6-0.6-1-1.5-1-2.7c0-1.1,0.3-2,1-2.7c0.7-0.7,1.7-1,2.9-1C84.5,29.9,85.3,30.2,85.9,30.6z"/>
	<path fill="#FFFFFF" d="M87.7,37.2v-5.8h-0.9v-1.4h2.6v7.1H87.7z M88.6,27.3c0.3,0,0.5,0.1,0.7,0.3c0.2,0.2,0.3,0.4,0.3,0.7
		c0,0.3-0.1,0.5-0.3,0.7c-0.2,0.2-0.4,0.3-0.7,0.3c-0.3,0-0.5-0.1-0.7-0.3c-0.2-0.2-0.3-0.4-0.3-0.7c0-0.3,0.1-0.5,0.3-0.7
		C88.1,27.4,88.3,27.3,88.6,27.3z"/>
	<path fill="#FFFFFF" d="M90.9,33.6c0-1.1,0.3-2,0.9-2.7c0.6-0.7,1.5-1,2.5-1c1.1,0,1.9,0.3,2.5,1c0.6,0.7,0.9,1.6,0.9,2.7
		c0,1.1-0.3,2-0.9,2.7c-0.6,0.7-1.4,1-2.5,1c-1.1,0-1.9-0.3-2.5-1C91.2,35.7,90.9,34.8,90.9,33.6z M92.6,33.6c0,1.6,0.6,2.4,1.7,2.4
		c0.5,0,0.9-0.2,1.2-0.6c0.3-0.4,0.5-1,0.5-1.8c0-1.6-0.6-2.3-1.7-2.3c-0.5,0-0.9,0.2-1.2,0.6C92.8,32.3,92.6,32.9,92.6,33.6z
		 M95.9,27.2l-1.5,2h-1.3l1.1-2H95.9z"/>
	<path fill="#FFFFFF" d="M103.7,37.2v-4.1c0-0.6-0.1-1.1-0.4-1.3c-0.2-0.3-0.6-0.4-1.1-0.4c-0.2,0-0.5,0.1-0.8,0.2
		c-0.3,0.1-0.5,0.3-0.7,0.5v5.2h-1.7v-7.1h1.2l0.3,0.7c0.5-0.5,1.1-0.8,2-0.8c0.8,0,1.5,0.3,2,0.8c0.5,0.5,0.7,1.2,0.7,2.1v4.4
		H103.7z"/>
</g>
</svg>
