<?xml version="1.0" encoding="utf-8"?>
<!-- Generator: Adobe Illustrator 18.1.0, SVG Export Plug-In . SVG Version: 6.00 Build 0)  -->
<!DOCTYPE svg PUBLIC "-//W3C//DTD SVG 1.1//EN" "http://www.w3.org/Graphics/SVG/1.1/DTD/svg11.dtd">
<svg version="1.1" id="Capa_1" xmlns="http://www.w3.org/2000/svg" xmlns:xlink="http://www.w3.org/1999/xlink" x="0px" y="0px"
	 viewBox="-252 399.7 90.4 43.2" enable-background="new -252 399.7 90.4 43.2" xml:space="preserve">
<g>
	<ellipse fill="#A2C037" cx="-206.8" cy="421.3" rx="45.2" ry="21.6"/>
</g>
<rect x="-250.2" y="408.4" fill="none" width="88.7" height="30"/>
<g enable-background="new    ">
	<path fill="#FFFFFF" d="M-224.4,416.2l0.4-1c0.2,0.1,0.5,0.3,0.7,0.4c0.3,0.1,0.6,0.1,0.8,0.1c0.4,0,0.8-0.1,1-0.3
		c0.3-0.2,0.4-0.5,0.4-0.9c0-0.3-0.1-0.5-0.2-0.7c-0.1-0.2-0.5-0.5-1.1-0.7l-0.6-0.3c-0.5-0.3-0.9-0.5-1.1-0.9
		c-0.2-0.3-0.3-0.8-0.3-1.2c0-0.6,0.2-1.1,0.6-1.5s0.9-0.6,1.6-0.6c0.9,0,1.5,0.1,1.8,0.4l-0.3,0.9c-0.1-0.1-0.4-0.2-0.7-0.3
		c-0.3-0.1-0.6-0.1-0.8-0.1c-0.4,0-0.7,0.1-0.9,0.3c-0.2,0.2-0.3,0.5-0.3,0.8c0,0.2,0,0.4,0.1,0.5c0.1,0.2,0.2,0.3,0.3,0.4
		c0.1,0.1,0.4,0.3,0.8,0.5l0.6,0.3c0.5,0.3,0.9,0.6,1.1,0.9c0.2,0.4,0.3,0.8,0.3,1.3c0,0.6-0.2,1.1-0.7,1.5
		c-0.5,0.4-1.1,0.6-1.9,0.6C-223.3,416.7-223.9,416.5-224.4,416.2z"/>
	<path fill="#FFFFFF" d="M-219.2,413.6c0-0.9,0.2-1.6,0.7-2.2c0.5-0.5,1.1-0.8,1.9-0.8c0.8,0,1.5,0.3,1.9,0.8s0.7,1.3,0.7,2.2
		c0,0.9-0.2,1.7-0.7,2.2s-1.1,0.8-1.9,0.8c-0.8,0-1.5-0.3-1.9-0.8C-219,415.3-219.2,414.6-219.2,413.6z M-218.1,413.6
		c0,1.4,0.5,2.2,1.5,2.2c0.5,0,0.8-0.2,1.1-0.6c0.3-0.4,0.4-0.9,0.4-1.6c0-1.4-0.5-2.1-1.5-2.1c-0.5,0-0.8,0.2-1.1,0.6
		C-218,412.4-218.1,413-218.1,413.6z"/>
	<path fill="#FFFFFF" d="M-211.9,416.2v2.6h-1v-8h1v0.5c0.4-0.4,0.9-0.6,1.4-0.6c0.8,0,1.5,0.3,1.9,0.8c0.5,0.5,0.7,1.3,0.7,2.2
		c0,0.9-0.2,1.6-0.7,2.1c-0.5,0.6-1.1,0.8-2,0.8c-0.2,0-0.5,0-0.8-0.1C-211.6,416.4-211.8,416.3-211.9,416.2z M-211.9,412v3.4
		c0.1,0.1,0.2,0.2,0.4,0.3s0.4,0.1,0.6,0.1c1.3,0,1.9-0.7,1.9-2.1c0-0.7-0.2-1.3-0.5-1.6c-0.3-0.3-0.8-0.5-1.4-0.5
		c-0.1,0-0.3,0-0.5,0.2C-211.6,411.8-211.8,411.9-211.9,412z"/>
	<path fill="#FFFFFF" d="M-207.2,413.6c0-0.9,0.2-1.6,0.7-2.2c0.5-0.5,1.1-0.8,1.9-0.8c0.8,0,1.5,0.3,1.9,0.8
		c0.5,0.5,0.7,1.3,0.7,2.2c0,0.9-0.2,1.7-0.7,2.2c-0.5,0.5-1.1,0.8-1.9,0.8c-0.8,0-1.5-0.3-1.9-0.8
		C-206.9,415.3-207.2,414.6-207.2,413.6z M-206.1,413.6c0,1.4,0.5,2.2,1.5,2.2c0.5,0,0.8-0.2,1.1-0.6s0.4-0.9,0.4-1.6
		c0-1.4-0.5-2.1-1.5-2.1c-0.5,0-0.8,0.2-1.1,0.6S-206.1,413-206.1,413.6z"/>
	<path fill="#FFFFFF" d="M-197.7,411.8c-0.2-0.2-0.4-0.2-0.7-0.2c-0.4,0-0.7,0.2-0.9,0.5s-0.4,0.7-0.4,1.2v3.3h-1v-5.8h1v0.9
		c0.4-0.7,0.9-1,1.7-1c0.2,0,0.4,0,0.8,0.1L-197.7,411.8z"/>
	<path fill="#FFFFFF" d="M-196.2,411.6h-0.7v-0.8h0.7v-1.2l1-0.4v1.6h1.6v0.8h-1.6v2.9c0,0.5,0.1,0.8,0.2,1c0.2,0.2,0.4,0.3,0.8,0.3
		c0.3,0,0.5-0.1,0.8-0.2l0.2,0.9c-0.4,0.1-0.9,0.2-1.4,0.2c-0.5,0-0.8-0.2-1.2-0.5c-0.3-0.3-0.5-0.8-0.5-1.3V411.6z"/>
	<path fill="#FFFFFF" d="M-187.4,413.7h-4.1c0,0.7,0.2,1.2,0.6,1.6c0.3,0.3,0.7,0.5,1.3,0.5c0.6,0,1.1-0.2,1.5-0.5l0.4,0.7
		c-0.2,0.2-0.4,0.3-0.7,0.4c-0.4,0.2-0.9,0.2-1.4,0.2c-0.7,0-1.3-0.2-1.8-0.7c-0.6-0.5-0.8-1.3-0.8-2.2c0-0.9,0.3-1.7,0.9-2.3
		c0.5-0.5,1.1-0.8,1.8-0.8c0.8,0,1.5,0.2,1.9,0.7c0.5,0.4,0.7,1,0.7,1.8C-187.3,413.4-187.3,413.6-187.4,413.7z M-189.9,411.5
		c-0.5,0-0.8,0.1-1.1,0.4c-0.3,0.3-0.5,0.6-0.5,1h3.2c0-0.4-0.1-0.8-0.4-1C-189,411.7-189.4,411.5-189.9,411.5z"/>
</g>
<g enable-background="new    ">
	<path fill="#FFFFFF" d="M-231.6,422.8v6.9h-1.1v-6.9h-2.5v-1h6.2v1H-231.6z"/>
	<path fill="#FFFFFF" d="M-224.7,426.9h-4.1c0,0.7,0.2,1.2,0.6,1.6c0.3,0.3,0.7,0.5,1.3,0.5c0.6,0,1.1-0.2,1.5-0.5l0.4,0.7
		c-0.2,0.2-0.4,0.3-0.7,0.4c-0.4,0.2-0.9,0.2-1.4,0.2c-0.7,0-1.3-0.2-1.8-0.7c-0.6-0.5-0.8-1.3-0.8-2.2c0-0.9,0.3-1.7,0.9-2.3
		c0.5-0.5,1.1-0.8,1.8-0.8c0.8,0,1.5,0.2,1.9,0.7c0.5,0.4,0.7,1,0.7,1.8C-224.7,426.6-224.7,426.8-224.7,426.9z M-227.2,424.7
		c-0.5,0-0.8,0.1-1.1,0.4c-0.3,0.3-0.5,0.6-0.5,1h3.2c0-0.4-0.1-0.8-0.4-1C-226.3,424.9-226.7,424.7-227.2,424.7z"/>
	<path fill="#FFFFFF" d="M-219.2,424.4l-0.5,0.7c-0.1-0.1-0.3-0.2-0.6-0.3c-0.3-0.1-0.5-0.1-0.8-0.1c-0.6,0-1,0.2-1.3,0.6
		s-0.5,0.9-0.5,1.6c0,0.7,0.2,1.2,0.5,1.5s0.8,0.5,1.4,0.5c0.5,0,0.9-0.2,1.4-0.5l0.4,0.9c-0.5,0.4-1.2,0.5-2,0.5
		c-0.8,0-1.4-0.3-1.9-0.8c-0.5-0.5-0.8-1.2-0.8-2.1c0-0.9,0.3-1.7,0.8-2.2c0.5-0.6,1.3-0.8,2.2-0.8c0.3,0,0.6,0.1,1,0.2
		S-219.4,424.3-219.2,424.4z"/>
	<path fill="#FFFFFF" d="M-214.6,429.7v-3.3c0-0.6-0.1-1-0.3-1.3c-0.2-0.2-0.5-0.4-0.9-0.4c-0.2,0-0.5,0.1-0.7,0.2s-0.4,0.3-0.6,0.5
		v4.3h-1V424h0.7l0.3,0.7c0.3-0.6,0.9-0.8,1.6-0.8c1.3,0,1.9,0.8,1.9,2.3v3.6H-214.6z"/>
	<path fill="#FFFFFF" d="M-212.5,426.8c0-0.9,0.2-1.6,0.7-2.2c0.5-0.5,1.1-0.8,1.9-0.8c0.8,0,1.5,0.3,1.9,0.8s0.7,1.3,0.7,2.2
		c0,0.9-0.2,1.7-0.7,2.2s-1.1,0.8-1.9,0.8c-0.8,0-1.5-0.3-1.9-0.8C-212.3,428.5-212.5,427.8-212.5,426.8z M-211.4,426.8
		c0,1.4,0.5,2.2,1.5,2.2c0.5,0,0.8-0.2,1.1-0.6c0.3-0.4,0.4-0.9,0.4-1.6c0-1.4-0.5-2.1-1.5-2.1c-0.5,0-0.8,0.2-1.1,0.6
		C-211.3,425.6-211.4,426.2-211.4,426.8z"/>
	<path fill="#FFFFFF" d="M-206.1,428.1v-6.5h1v6.3c0,0.3,0.1,0.5,0.3,0.7c0.2,0.2,0.4,0.3,0.7,0.3v0.9
		C-205.5,429.8-206.1,429.3-206.1,428.1z"/>
	<path fill="#FFFFFF" d="M-203.4,426.8c0-0.9,0.2-1.6,0.7-2.2c0.5-0.5,1.1-0.8,1.9-0.8c0.8,0,1.5,0.3,1.9,0.8
		c0.5,0.5,0.7,1.3,0.7,2.2c0,0.9-0.2,1.7-0.7,2.2c-0.5,0.5-1.1,0.8-1.9,0.8c-0.8,0-1.5-0.3-1.9-0.8
		C-203.1,428.5-203.4,427.8-203.4,426.8z M-202.3,426.8c0,1.4,0.5,2.2,1.5,2.2c0.5,0,0.8-0.2,1.1-0.6s0.4-0.9,0.4-1.6
		c0-1.4-0.5-2.1-1.5-2.1c-0.5,0-0.8,0.2-1.1,0.6S-202.3,426.2-202.3,426.8z M-199.5,421l-1.2,1.8h-0.8l0.9-1.8H-199.5z"/>
	<path fill="#FFFFFF" d="M-197.3,431.3l0.6-0.8c0.6,0.4,1.1,0.6,1.6,0.6c0.5,0,0.8-0.1,1.1-0.2c0.3-0.2,0.4-0.4,0.4-0.6
		c0-0.5-0.3-0.7-1-0.7c-0.1,0-0.3,0-0.6,0.1c-0.3,0.1-0.5,0.1-0.7,0.1c-0.8,0-1.2-0.3-1.2-0.9c0-0.2,0.1-0.4,0.3-0.5
		c0.2-0.2,0.4-0.3,0.7-0.3c-0.8-0.4-1.2-1-1.2-2c0-0.6,0.2-1.1,0.6-1.5c0.4-0.4,0.9-0.6,1.6-0.6c0.6,0,1,0.1,1.3,0.3l0.5-0.6
		l0.7,0.6l-0.6,0.5c0.3,0.3,0.4,0.8,0.4,1.3c0,0.6-0.2,1.1-0.5,1.5c-0.4,0.4-0.8,0.6-1.4,0.7l-0.8,0.1c-0.1,0-0.2,0-0.4,0.1
		c-0.2,0.1-0.3,0.2-0.3,0.3c0,0.1,0.2,0.2,0.5,0.2c0.2,0,0.4,0,0.7-0.1c0.3-0.1,0.6-0.1,0.7-0.1c0.6,0,1,0.1,1.3,0.4
		c0.3,0.3,0.5,0.6,0.5,1.1c0,0.5-0.2,1-0.7,1.3c-0.5,0.3-1.1,0.5-1.8,0.5c-0.4,0-0.8-0.1-1.2-0.2
		C-196.7,431.7-197,431.5-197.3,431.3z M-195.1,424.7c-0.4,0-0.6,0.1-0.9,0.4s-0.3,0.6-0.3,0.9c0,0.4,0.1,0.7,0.3,1
		c0.2,0.3,0.5,0.4,0.9,0.4c0.4,0,0.6-0.1,0.8-0.4s0.3-0.6,0.3-1c0-0.4-0.1-0.7-0.3-0.9C-194.5,424.8-194.8,424.7-195.1,424.7z"/>
	<path fill="#FFFFFF" d="M-191.1,429.7v-4.9h-0.8V424h1.8v5.8H-191.1z M-190.5,421.8c0.2,0,0.3,0.1,0.4,0.2c0.1,0.1,0.2,0.3,0.2,0.4
		c0,0.2-0.1,0.3-0.2,0.4c-0.1,0.1-0.3,0.2-0.4,0.2c-0.2,0-0.3-0.1-0.4-0.2c-0.1-0.1-0.2-0.3-0.2-0.4c0-0.2,0.1-0.3,0.2-0.4
		C-190.8,421.9-190.7,421.8-190.5,421.8z"/>
	<path fill="#FFFFFF" d="M-184.1,424.4l-0.5,0.7c-0.1-0.1-0.3-0.2-0.5-0.3c-0.3-0.1-0.5-0.1-0.8-0.1c-0.6,0-1,0.2-1.3,0.6
		c-0.3,0.4-0.5,0.9-0.5,1.6c0,0.7,0.2,1.2,0.5,1.5s0.8,0.5,1.4,0.5c0.5,0,0.9-0.2,1.4-0.5l0.4,0.9c-0.5,0.4-1.2,0.5-2,0.5
		c-0.8,0-1.4-0.3-1.9-0.8c-0.5-0.5-0.8-1.2-0.8-2.1c0-0.9,0.3-1.7,0.8-2.2c0.5-0.6,1.3-0.8,2.2-0.8c0.3,0,0.6,0.1,1,0.2
		C-184.5,424.2-184.2,424.3-184.1,424.4z"/>
	<path fill="#FFFFFF" d="M-183.3,426.8c0-0.9,0.2-1.6,0.7-2.2c0.5-0.5,1.1-0.8,1.9-0.8c0.8,0,1.5,0.3,1.9,0.8
		c0.5,0.5,0.7,1.3,0.7,2.2c0,0.9-0.2,1.7-0.7,2.2c-0.5,0.5-1.1,0.8-1.9,0.8c-0.8,0-1.5-0.3-1.9-0.8
		C-183.1,428.5-183.3,427.8-183.3,426.8z M-182.3,426.8c0,1.4,0.5,2.2,1.5,2.2c0.5,0,0.8-0.2,1.1-0.6c0.3-0.4,0.4-0.9,0.4-1.6
		c0-1.4-0.5-2.1-1.5-2.1c-0.5,0-0.8,0.2-1.1,0.6C-182.1,425.6-182.3,426.2-182.3,426.8z"/>
</g>
</svg>
